/* XPM */
static char * A_blue_xpm[] = {
/* width height ncolors chars_per_pixel */
"32 32 5 1 0 0",
/* colors */
" 	s None	c None",
".	c black",
"X	c white",
"o	c dodger blue",
"O	c gray50",
/* pixels */
"                                ",
"                                ",
"                                ",
"                                ",
"                                ",
"                                ",
"                                ",
"       ......                   ",
"      .XXXXXX.                  ",
"    ...XXXXXX...............    ",
"   .oo.XXXXXX.ooooooooooooo..   ",
"  .ooo.XXXXXX.oooooooooooooo..  ",
"  .oooo......oooooooooooooooo.O ",
"  .oooooooooooooooooooooooooo.O ",
"  .oooooooooooooooooooooooooo.O ",
"  .oooooooooooooooooooooooooo.O ",
"  .oooooooooooooooooooooooooo.O ",
"  .oooooooooooooooooooooooooo.O ",
"  .oooooooooooooooooooooooooo.O ",
"  .oooooooooooooooooooooooooo.O ",
"  .oooooooooooooooooooooooooo.O ",
"  .oooooooooooooooooooooooooo.O ",
"  .oooooooooooooooooooooooooo.O ",
"  .oooooooooooooooooooooooooo.O ",
"  .oooooooooooooooooooooooooo.O ",
"  .oooooooooooooooooooooooooo.O ",
"  .oooooooooooooooooooooooooo.O ",
"  .oooooooooooooooooooooooooo.O ",
"  .oooooooooooooooooooooooooo.O ",
"  ............................O ",
"   OOOOOOOOOOOOOOOOOOOOOOOOOOOO ",
"                                "};
