/* XPM */
static char * animation_xpm[] = {
"68 32 2 1",
" 	c #FFFFFFFFFFFF",
".	c #000000000000",
"                                       ....                         ",
"                                  .........                         ",
"                              ...........  ..                       ",
"                            ......   ..  ....                       ",
"                        ........  ...  ....                         ",
"                    ......  ..  .......                             ",
"               .........  ..  ....                                  ",
"             ....   ..  ..  ....                                    ",
"         ......  ...  ......                                        ",
"     ........  ..   ....                                            ",
"   ....  ..  ..  ...                                                ",
"   ......  ......                                                   ",
"     ..  ....                                                       ",
"     ....                                                           ",
"       .................................................            ",
"       ....    .........  ......  .........  ...........            ",
"       ........     ....  ....       ....  ......  .....            ",
"       .................  ..............................            ",
"       ..           ..    ....                     .....            ",
"       .................................................            ",
"       ...................        ......................            ",
"       .................    ....     ...................            ",
"       .........................     ...................            ",
"       .........................     ...................            ",
"       .......................    ......................            ",
"       .....................    .........             ..            ",
"       ...................    .........  ........  .....            ",
"       .................             ..  ..    .........            ",
"       ................................  ....  ..  .....            ",
"       ................................  ...............            ",
"       .................................................            ",
"                                                                    "};
