/* XPM */
static char * app_xpm[] = {
"48 48 3 1",
" 	s None	c None",
".	c black",
"X	c white",
"                       .                        ",
"                      .X.                       ",
"                     .XXX.                      ",
"                    .XXXXX.                     ",
"                   .XXXXXXX.                    ",
"                  .XXXXXXXXX.                   ",
"                 .XXXXXXXXXXX.                  ",
"                .XXXXXXXXXXXXX.                 ",
"               .XXXXXXXXXXXXXXX.                ",
"              .XXXXXXXXXXXXXXXXX.               ",
"             .XXXXXXXXXXXXXXXXXXX.              ",
"            .XXXXXXXXXXXXXXXXXXXXX.             ",
"           .XXXXXXXXXXXXXXXXXXXXXXX.            ",
"          .XXXXXXXXXXXXXXXXXXXXXXXXX.           ",
"         .XXXXXXXXXXXXXXXXXXXXXXXXXXX.          ",
"        .XXXXXXXXXXXXXXXXXXXXXXXXXXXXX.         ",
"       .XXXXXXXXXXXXXXXXXXXXXXXXXXXXXXX.        ",
"      .XXXXXXXXXXXXXXXXXXXXXXXXXXXXXXXXX.       ",
"     .XXXXXXXXXXXXXXXXXXXXXXXXXXXXXXXXXXX.      ",
"    .XXXXXXXXXXXXXXXXXXXXXXXXXXXXXXXXXXXXX.     ",
"   .XXXXXXXXXXXXXXXXXXXXXXXXXXXXXXXXXXXXXXX.    ",
"  .XXXXXXXXXXXXXXXXXXXXXXXXXXXXXXXXXXXXXXXXX.   ",
" .XXXXXXXXXXXXXXXXXXXXXXXXXXXXXXXXXXXXXXXXXXX.  ",
".XXXXXXXXXXXXXXXXXXXXXXXXXXXXXXXXXXXXXXXXXXXXX. ",
" .XXXXXXXXXXXXXXXXXXXXXXXXXXXXXXXXXXXXXXXXXXXXX.",
"  .XXXXXXXXXXXXXXXXXXXXXXXXXXXXXXXXXXXXXXXXXXX. ",
"   .XXXXXXXXXXXXXXXXXXXXXXXXXXXXXXXXXXXXXXXXX.  ",
"    .XXXXXXXXXXXXXXXXXXXXXXXXXXXXXXXXXXXXXXX.   ",
"     .XXXXXXXXXXXXXXXXXXXXXXXXXXXXXXXXXXXXX.    ",
"      .XXXXXXXXXXXXXXXXXXXXXXXXXXXXXXXXXXX.     ",
"       .XXXXXXXXXXXXXXXXXXXXXXXXXXXXXXXXX.      ",
"        .XXXXXXXXXXXXXXXXXXXXXXXXXXXXXXX.       ",
"         .XXXXXXXXXXXXXXXXXXXXXXXXXXXXX.        ",
"          .XXXXXXXXXXXXXXXXXXXXXXXXXXX.         ",
"           .XXXXXXXXXXXXXXXXXXXXXXXXX.          ",
"            .XXXXXXXXXXXXXXXXXXXXXXX.           ",
"             .XXXXXXXXXXXXXXXXXXXXX.            ",
"              .XXXXXXXXXXXXXXXXXXX.             ",
"               .XXXXXXXXXXXXXXXXX.              ",
"                .XXXXXXXXXXXXXXX.               ",
"                 .XXXXXXXXXXXXX.                ",
"                  .XXXXXXXXXXX.                 ",
"                   .XXXXXXXXX.                  ",
"                    .XXXXXXX.                   ",
"                     .XXXXX.                    ",
"                      .XXX.                     ",
"                       .X.                      ",
"                        .                       "};
