/* XPM */
static char * taz_xpm[] = {
"48 48 3 1 0 0",
" 	s None	c None",
".	c black",
"X	c white",
"                       .                        ",
"                      .X.                       ",
"                     .XXX.                      ",
"                    .XXXXX.                     ",
"                   .XXXXXXX.                    ",
"                  .XXXXXXXXX.                   ",
"                 .XXXXXXXXXXX.                  ",
"                .XXXXXXXXXXXXX.                 ",
"               .XXXXXXXXXXXXXXX.                ",
"              .XX..............X.               ",
"             .XX................X.              ",
"            .XXX.................X.             ",
"           .XXXX.....XXXXXXX.....XX.            ",
"          .XXXXX.....XXXXXXXX....XXX.           ",
"         .XXXXX.......XXXXXXX....XXXX.          ",
"        .XXXXXX.......XXXXXXX....XXXXX.         ",
"       .XXXXXXXXXXXXXXXXXXXXX....XXXXXX.        ",
"      .XXXXXX...XX.XX..XXXXXX....XXXXXXX.       ",
"     .XXXXXXXX.XX.X.X.X.XXXXX....XXXXXXXX.      ",
"    .XXXXXXXXX.XX.X.X..XXXXXX....XXXXXXXXX.     ",
"   .XXXXXXXXXX.XX...X.X.XXXXX....XXXXXXXXXX.    ",
"  .XXXXXXXXXXX.XX.X.X.X.XXXXX....XXXXXXXXXXX.   ",
" .XXXXXXXXXXXXXXXXXXXXXXXXXXX....XXXXXXXXXXXX.  ",
".XXXXXXXXXXXXXX.......XXXXXXX....XXXXXXXXXXXXX. ",
" .XXXXXXXXXXXXX.......XXXXXXX....XXXXXXXXXXXXXX.",
"  .XXXXXXXXXXXXX.....XXXXXXXX....XXXXXXXXXXXXX. ",
"   .XXXXXXXXXXXXX...XXXXXXXXX....XXXXXXXXXXXX.  ",
"    .XXXXXXXXXXXX...XXXXXXXX.....XXXXXXXXXXX.   ",
"     .XXXXXXXXX..................XXXXXXXXXX.    ",
"      .XXXXXXXX.................XXXXXXXXXX.     ",
"       .XXXXXXX................XXXXXXXXXX.      ",
"        .XXXXXXXX...XXXXXXXXXXXXXXXXXXXX.       ",
"         .XXXXXXX...XXXXXXXXXXXXXXXXXXX.        ",
"          .XX.XXX...XXX.XXXXXXXXXXXXXX.         ",
"           .X...........XXXXXXXXXXXXX.          ",
"            ..XXX...XXX.XXXXXXXXXXXX.           ",
"             .XXXXXXXXXXXXXXXXXXXXX.            ",
"              .XXXXXXXXXXXXXXXXXXX.             ",
"               .XXXXXXXXXXXXXXXXX.              ",
"                .XXXXXXXXXXXXXXX.               ",
"                 .XXXXXXXXXXXXX.                ",
"                  .XXXXXXXXXXX.                 ",
"                   .XXXXXXXXX.                  ",
"                    .XXXXXXX.                   ",
"                     .XXXXX.                    ",
"                      .XXX.                     ",
"                       .X.                      ",
"                        .                       "};
