/* XPM */
static char * grep_xpm[] = {
"48 48 6 1 0 0",
" 	s None	c None",
".	c black",
"X	c white",
"o	c #BEFBBEFBBEFB",
"O	c lightblue",
"+	c yellow",
"                       .                        ",
"                      .X.                       ",
"                     .XXX.                      ",
"                    .XXXXX.                     ",
"                   .XXXXXXX.                    ",
"                  .XXXXXXXXX.                   ",
"                 .XXXXXXXXXXX.                  ",
"                .XXXXXXXXXXXXX.                 ",
"               ..............XX.                ",
"              .XXXXXXXXXXXXX..XX.               ",
"             .XXXXXXXXXXXXXX.o.XX.              ",
"            .XXX......XXXXXX.oo.XX.             ",
"           ..X..oooooo..XXXX.ooo.XX.            ",
"          ..X.ooo....ooo.XXX.oooo.XX.           ",
"         .X..oo..OOOO..oo.XX.......XX.          ",
"        .XX.oo.OOOOOOOO.oo.XXooooo..XX.         ",
"       .XXX.o.OOOOOOOOOO.o.XXXoooo..XXX.        ",
"      .XXX.oo.OOOOOOOOOO.oo.XXXXXX..XXXX.       ",
"     .XXXX.o.OO.OO..OOO...o.X...XX..XXXXX.      ",
"    .XXXXX.o.O.O.O.O.O.OO.o.XXXXXX..XXXXXX.     ",
"   .XXXXXX.o.O...O..OO.OO.o.X.XXXX..XXXXXXX.    ",
"  .XXXXXXX.o.O.O.O.O.O.OO.o.XXXXXX..XXXXXXXX.   ",
" .XXXXXXXX.o.O.O.O..OOO...o.XXXXXX..XXXXXXXXX.  ",
".XXXXXXXXX.oo.OOOOOOOOOO.oo.XXXXXX..XXXXXXXXXX. ",
" .XXXXXXXXX.o.OOOOOOOOO..o.XX...XX..XXXXXXXXXXX.",
"  .XXXXXXXX.oo.OOOOOOOO.oo.XXXXXXX..XXXXXXXXXX. ",
"   .XXXXXXX..oo..OOOO..oo..XX..XXX..XXXXXXXXX.  ",
"    .XXXXXX.X.ooo....ooo.oo.XXXXXX..XXXXXXXX.   ",
"     .XXXXX.XX..oooooo...ooo..XXXX..XXXXXXX.    ",
"      .XXXX.XXXX......XXX.ooo.XXXX..XXXXXX.     ",
"       .XXX.X..XXXXXXXX.XX.ooo.XXX..XXXXX.      ",
"        .XX.XXXXXXXXXXXXXXX.ooo.XX..XXXX.       ",
"         .X.X.....XX......XX.oo+.X..XXX.        ",
"          ..XXXXXXXXXXXXXXXXX.+++...XX.         ",
"           .X...X..XX...XX..XX.+++..X.          ",
"            .XXXXXXXXXXXXXXXXXX.+oo..           ",
"             .XXXXXXXXXXXXXXXXXX.o..            ",
"              .XXXXXXXXXXXXXXXXXX..             ",
"               ...................              ",
"                .................               ",
"                 .XXXXXXXXXXXXX.                ",
"                  .XXXXXXXXXXX.                 ",
"                   .XXXXXXXXX.                  ",
"                    .XXXXXXX.                   ",
"                     .XXXXX.                    ",
"                      .XXX.                     ",
"                       .X.                      ",
"                        .                       "};
