/* XPM */
static char * zip[] = {
"32 32 5 1",
" 	c None s None",
".	c black",
"X	c white",
"w	c yellow";
"O	c gray50",
"    ........................O   ",
"    .X.XX...XXXXXXXXXX..X.X.O   ",
"    ..XXX..XXXXXXXXXXX..XX..O   ",
"    .XX.XX...XXXXXXXX..X.XX.O   ",
"    .XXX.XX.XXXXXXXXXX.XX.X.O   ",
"    .X.XXXX...XXXXXX..XX.X..O   ",
"    ..XXX.XX.XXXXXXXX.XXX.X.O   ",
"    .XX.XXXX...XXXX...X.XX..O   ",
"    .XXX.XXX..XXXXXX..XX.XX.O   ",
"    .X.XXX.XX...XX...XX.XXX.O   ",
"    ..XXX.XXXX......XXXXX.X.O   ",
"    .XX.XXX...........X.XXX.O   ",
"    .XXX.XXX..ww..ww..XX.XX.O   ",
"    .X.XXX.X..ww.www...XXX..O   ",
"    ..XXX.XX..ww.www..XXX.X.O   ",
"    .XX.XXX.X..w..w..XX.XXX.O   ",
"    .XXX.XXX...wwww..XXX.XX.O   ",
"    .X.XXX.XX..wwww..X.XXX..O   ",
"    ..XXX.XXX..wwww...XXX.X.O   ",
"    .XX.XXX.XX......XXX.XXX.O   ",
"    .XXX.XXX.X.......XXX.XX.O   ",
"    .X.XXX.XXX.XX...XX.XXX..O   ",
"    ..XXX.XXX....XX.X.XXX.X.O   ",
"    .XX.XXX.XX.XX...XXX.XXX.O   ",
"    .XXX.XXX.X...XX..XXX.XX.O   ",
"    .X.XXX.XXX.XX...XX.XXX..O   ",
"    ..XXX.XXX....XX.X.XXX.X.O   ",
"    .XX.XXX.XX.XX...XXX.XXX.O   ",
"    .XXX.XXX.X...XX..XXX.XX.O   ",
"    .X.XXX.XXX.XX...XX.XXX..O   ",
"    ........................O   ",
"     OOOOOOOOOOOOOOOOOOOOOOOO   "};
