/* XPM */
static char * apps_xpm[] = {
"32 32 10 1",
" 	c white",
".	s none c none",
"X	c #BEFBBEFBBEFB",
"o	c black",
"O	c #8617CF3CEBAD",
"+	c red",
"@	c yellow",
"#	c #5D759E79A289",
"$	c #AEBADB6CE79D",
"%	c #C30B618575D6",
"................................",
"................................",
".                             X.",
". XXXXXXXXXXXXXXXXXXXXXXXXXXXXo.",
". XXXXXXXXXXXXXXXXXXXXXXXXXXXXo.",
". XXXXXXXXXXXXXXXXXXXXXXXXXXXXo.",
". XX     XXXX     XXXX     XXXo.",
". XX XXXXoXXX XXXXoXXX OOOOoXXo.",
". XX +X+XoXXX +XX+oXXX OOOOoXXo.",
". XX X@XXoXXX X++XoXXX XXXXoXXo.",
". XX #X#XoXXX X++XoXXX XXXXoXXo.",
". XX X@XXoXXX +XX+oXXX XXXXoXXo.",
". XX OXOXoXXX XXXXoXXX XXXXoXXo.",
". XXXoooooXXXXoooooXXXXoooooXXo.",
". XXXXXXXXXXXXXXXXXXXXXXXXXXXXo.",
". XXXXXXXXXXXXXXXXXXXXXXXXXXXXo.",
". XXXXXXXXXXXXXXXXXXXXXXXXXXXXo.",
". XX     XXXX     XXXX     XXXo.",
". XX XXXXoXXX $$$$oXXX XXXXoXXo.",
". XX X##XoXXX $$$$oXXX %%%%oXXo.",
". XX ####oXXX $$$$oXXX XX%XoXXo.",
". XX ####oXXX $$$$oXXX X%XXoXXo.",
". XX X##XoXXX oooooXXX %%%%oXXo.",
". XX XXXXoXXX XXXXoXXX XXXXoXXo.",
". XXXoooooXXXXoooooXXXXoooooXXo.",
". XXXXXXXXXXXXXXXXXXXXXXXXXXXXo.",
". XXXXXXXXXXXXXXXXXXXXXXXXXXXXo.",
". XXXXXXXXXXXXXXXXXXXXXXXXXXXXo.",
". XXXXXXXXXXXXXXXXXXXXXXXXXXXXo.",
".Xooooooooooooooooooooooooooooo.",
"................................",
"................................"};
