/* XPM */
static char * appwin_xpm[] = {
"17 17 7 1",
" 	c white",
".	c #BEFBBEFBBEFB",
"X	c black",
"o	c blue",
"O	c yellow",
"+	c green",
"@	c red",
"                .",
" ...............X",
" ...............X",
" ..    ...    ..X",
" .. oooX.. oooX.X",
" .. oOoX.. oOoX.X",
" .. ooOX.. ooOX.X",
" .. oooX.. oooX.X",
" ...XXXX...XXXX.X",
" ...............X",
" ..    ...    ..X",
" .. oooX.. OO+X.X",
" .. @@@X.. +OOX.X",
" .. oooX.. ++OX.X",
" .. @@@X.. O++X.X",
" ...XXXX...XXXX.X",
".XXXXXXXXXXXXXXXX"};
