/* XPM */
static char *B_mail[] = {
/* width height ncolors chars_per_pixel */
"32 32 5 1",
/* colors */
" 	c white",
".	c black",
"X	c wheat",
"o	c slate gray",
"O	c tan",
/* pixels */
"                                ",
"               ..........       ",
"              .XXXXXXXXXX.      ",
"  .............XooXooXooXX...   ",
" .XXXXXXXXXXXX.XXXXXXXXXX.XXX.o ",
" .XXXXXXXXXXXXX..........XXXX.o ",
" .XXXXXXXXXXXXXXXXXXXXXXXXXXX.o ",
" .XX.......................XX.o ",
" .XX..OOOOOOOOOOOOOOOOOOO..XX.o ",
" .XX.O.OOOOOOOOOOOOOOOOO.O.XX.o ",
" .XX.OO.OOOOOOOOOOOOOOO.OO.XX.o ",
" .XX.OOO.OOOOOOOOOOOOO.OOO.XX.o ",
" .XX.OOOO.OOOOOOOOOOO.OOOO.XX.o ",
" .XX.OOOOO.OOOOOOOOO.OOOOO.XX.o ",
" .XX.OOOOOO.OOOOOOO.OOOOOO.XX.o ",
" .XX.OOOOOOO.OOOOO.OOOOOOO.XX.o ",
" .XX.OOOOOO.O.OOO.O.OOOOOO.XX.o ",
" .XX.OOOOO.OOO...OOO.OOOOO.XX.o ",
" .XX.OOOO.OOOOOOOOOOO.OOOO.XX.o ",
" .XX.OOO.OOOOOOOOOOOOO.OOO.XX.o ",
" .XX.OO.OOOOOOOOOOOOOOO.OO.XX.o ",
" .XX.O.OOOOOOOOOOOOOOOOO.O.XX.o ",
" .XX..OOOOOOOOOOOOOOOOOOO..XX.o ",
" .XX.......................XX.o ",
" .XXXXXXXXXXXXXXXXXXXXXXXXXXX.o ",
"  ...........................oo ",
"   ooooooooooooooooooooooooooo  ",
"                                ",
"                                ",
"                                ",
"                                ",
"                                "};
