/* XPM */
static char *B_phone[] = {
"32 32 6 1",
" 	c white",
".	c black",
"X	c wheat",
"o	c slate gray",
"O	c blue",
"+	c gainsboro",
"                                ",
"               ..........       ",
"              .XXXXXXXXXX.      ",
"  .............XooXooXooXX...   ",
" .XXXXXXXXXXXX.XXXXXXXXXX.XXX.  ",
" .XXXXXXXXXXXXX..........XXXX.o ",
" .XXXXXXXXXXXXXXXXXXXXXXXXXXX.o ",
" .XXXXXXXXXXXXXXXXXXXXXXXXXXX.o ",
" .XXXXXXXXXXXXXXXXXXXXXXXXXXX.o ",
" .XXXXXXXXXXXXXXXXXXXXXXXXXXX.o ",
" .XXXXXXXXXXXXXXXXXXXXXXXXXXX.o ",
" .XXXXXXXXXXXXXXXXXXXXXXXXXXX.o ",
" .XXXXXXXXXXXXXXXXXXXXXXXXXXX.o ",
" .XXXXXXXXXXXXXXXXXXXXXXXXXXX.o ",
" .XXXXXXXXXXXXXXXXXXXXXXXXXXX.o ",
" .XXXXXXXXXXXXXXXXXXXXXXXXXXX.o ",
" .XXXX........................o ",
" .XXXX.OOOOOOOOOOOOOOOOOOOOO..o ",
" .XXXX.OOOOO          OOOOOO..o ",
" .XXXX.OO                OOO..o ",
" .XXXX.O      OOOOOOO     +O..o ",
" .XXXX.OO   OOO     OOO   OO..o ",
" .XXXX.OOOO   O     O  +OOOO..o ",
" .XXXX.OOO    O     O    OOO..o ",
" .XXXX.OOO     O   O     OOO..o ",
"  .....OOO      OOO      OOO.oo ",
"   ooo.OOO               OOO.o  ",
"      .OOOOOOOOOOOOOOOOOOOOO.   ",
"      .......................   ",
"                                ",
"                                ",
"                                "};
