/* XPM */
static char * bargraph[] = {
"32 32 9 1",
" 	c None	s None",
"`	c black",
"a	c tan",
"b	c gray50",
"c	c red",
"d	c firebrick",
"e	c white",
"f	c lemon chiffon",
"g	c orange",
"    ````````````````````        ",
"    `ffffffffffffffffff``       ",
"    `ffffffffffffffffff`a`      ",
"    `ff`f`f`f`f`f`f`f`f`aa`     ",
"    `ff`fffffffffffffff`aaa`    ",
"    `ff`ffffffffffffddd`aaaa`   ",
"    `ff`ffffffffffffddd``````b  ",
"    `ff`ffffffffffffddddaaaa`b  ",
"    `ff`f`f`f`f`f`f`ddddf`aa`b  ",
"    `ff`ffffffffffffddddffff`b  ",
"    `ff`ffffffffffffddddffff`b  ",
"    `ff`fffffffccccfddddffff`b  ",
"    `ff`fffffffccccfddddffff`b  ",
"    `ff`f`f`f`fccccfddddf`ff`b  ",
"    `ff`fffffffccccfddddffff`b  ",
"    `ff`fffffffccccfddddffff`b  ",
"    `ff`fffffffccccfddddffff`b  ",
"    `ff`ffggggfccccfddddffff`b  ",
"    `ff`f`ggggfccccfddddf`ff`b  ",
"    `ff`ffggggfccccfddddffff`b  ",
"    `ff`ffggggfccccfddddffff`b  ",
"    `ff`ffggggfccccfddddffff`b  ",
"    `ff`ffggggfccccfddddffff`b  ",
"    `ff`f`ggggfccccfddddf`ff`b  ",
"    `ff`ffggggfccccfddddffff`b  ",
"    `ff`ffggggfccccfddddffff`b  ",
"    `ff`ffggggfccccfddddffff`b  ",
"    `ff`ffggggfccccfddddffff`b  ",
"    `ff```````````````````ff`b  ",
"    `fffffffffffffffffffffff`b  ",
"    `````````````````````````b  ",
"     bbbbbbbbbbbbbbbbbbbbbbbbb  "};
