/* XPM */
static char * bracket[] = {
"32 32 8 1",
" 	c None	s None",
"`	c black",
"a	c tan",
"b	c gray50",
"c	c red",
"d	c navy blue",
"e	c white",
"f	c lemon chiffon",
"    ```````````````````         ",
"    `fffffffffffffffff``        ",
"    `fffcfffffffffffff`a`       ",
"    `ffcffffffffffffff`aa`      ",
"    `ffcffffffffffffff`aaa`     ",
"    `ffcffdddddddddfff`aaaa`    ",
"    `fcfffffffffffffff```````   ",
"    `ffcffdddddddddddffaaaaa`b  ",
"    `ffcffffffffffffffffaaaa`b  ",
"    `ffcffffdddddddddfffffff`b  ",
"    `fffcfffffffffffffffffff`b  ",
"    `fffffffffdddddddddfffff`b  ",
"    `fffffffffffffffffffffff`b  ",
"    `fffffffffddddddddffffff`b  ",
"    `fffffffffffffffffffffff`b  ",
"    `fffffffddddddddddddffff`b  ",
"    `fffffffffffffffffffffff`b  ",
"    `fffffdddddddddddddddfff`b  ",
"    `fffffffffffffffffffffff`b  ",
"    `fffffffdddddddddfffffff`b  ",
"    `ffcffffffffffffffffffff`b  ",
"    `fffcfffffddddddddddddff`b  ",
"    `fffcfffffffffffffffffff`b  ",
"    `fffcfffffffdddddddfffff`b  ",
"    `ffffcffffffffffffffffff`b  ",
"    `fffcfffdddddddddddddfff`b  ",
"    `fffcfffffffffffffffffff`b  ",
"    `fffcfffffffffffffffffff`b  ",
"    `ffcffffffffffffffffffff`b  ",
"    `fffffffffffffffffffffff`b  ",
"    `````````````````````````b  ",
"     bbbbbbbbbbbbbbbbbbbbbbbbb  "};
