/* XPM */
static char * cad[] = {
"32 32 5 1",
" 	c None s None",
".	c black",
"X	c lemon chiffon",
"o	c tan",
"O	c gray50",
"    ..................          ",
"    .XXXXXXXXXXXXXXXX..         ",
"    .XXXXXXXXXXXXXXXX.o.        ",
"    .XXXXXXXXXXXXXXXX.oo.       ",
"    .XXXXXXXXXXXXXXXX.ooo.      ",
"    .XXXXXXXXXXXXXXXX.oooo.     ",
"    .XXXXXXXXXXXXXXXX.ooooo.    ",
"    .XXXXXXXXXXXXXXXX.......O   ",
"    .XXXXXXXXXXXXXXXXXooooo.O   ",
"    .XXXXX.XXXXXXXXXXXooooo.O   ",
"    .XXXXX..XXXXXXXXXXXXXXX.O   ",
"    .XXXXX.X.XXXXXXXXXXXXXX.O   ",
"    .XXXXX.XX.XXXXXXXXXXXXX.O   ",
"    .XXXXX.XXX.XXXXXXXXXXXX.O   ",
"    .XXXXX.XXXX.XXXXXXXXXXX.O   ",
"    .XXXXX.XX.XX.XXXXXXXXXX.O   ",
"    .XXXXX.XX..XX.XXXXXXXXX.O   ",
"    .XXXXX.XX.X.XX.XXXXXXXX.O   ",
"    .XX.XX.XX....XX.XXXXXXX.O   ",
"    .X..XX.XXXXXXXXX.XXXXXX.O   ",
"    .X..XX.XXXXXXXXXX.XXXXX.O   ",
"    .X...................XX.O   ",
"    .X..XXXXXXXXXXXXXXXX.XX.O   ",
"    .X..XXXXXXXXXXXXXX.X.XX.O   ",
"    .X..XXXXXXXXXXXXXXXX.XX.O   ",
"    .X...................XX.O   ",
"    .X..XXXXXXXXXXXXXXXXXXX.O   ",
"    .X..XXXXXXXXXXXXXXXXXXX.O   ",
"    .XX.XXXXXXXXXXXXXXXXXXX.O   ",
"    .XXXXXXXXXXXXXXXXXXXXXX.O   ",
"    ........................O   ",
"     OOOOOOOOOOOOOOOOOOOOOOOO   "};
