/* XPM */
static char * calandar[] = {
"32 32 11 1",
" 	c None	s None",
"`	c black",
"a	c tan",
"b	c firebrick",
"c	c peru",
"d	c gray50",
"e	c dark slate grey",
"f	c white",
"g	c gold",
"h	c slate grey",
"i	c lemon chiffon",
"   ````````````````````         ",
"   `iiiiiiiiiiiiiiiiii``        ",
"   `iiiiiiiiiiiiiiiiii`a`       ",
"   `iiiiiiiiiiiiiiiiii`aa`      ",
"   `iiiiiiiiiiiiiiiiii`aaa`     ",
"   `iiiiiiiiiiiiiiiiii`aaaa`    ",
"   `iiiiiiiiiiiiiiiiii``````d   ",
"   `iiiicbcbcbcbcbcbcbcbaaa`d   ",
"   `iiicbcbcbcbcbcbcbcbeiaa`d   ",
"   `iibbbbbbbbbbbbbbbedeaii`d   ",
"   `iibbbbbbbbbbbbbbbedeaii`d   ",
"   `iibbbgbbbbbbbgbbbedeaii`d   ",
"   `iibbbbbbbbbbbbbbbedeaii`d   ",
"   `iieeeeeeeeeeeeeeeedeaii`d   ",
"   `iieddddddddddddddedeaii`d   ",
"   `iieffffffffffffffedeaii`d   ",
"   `iieffh```hfh`ffffedeaii`d   ",
"   `iieff`fff`f``ffffedeaii`d   ",
"   `iieffffff`ff`ffffedeaii`d   ",
"   `iiefffff`hff`ffffedeaii`d   ",
"   `iiefffh`hfff`ffffedeaii`d   ",
"   `iieffh`fffff`ffffedeaii`d   ",
"   `iieff`fff`ff`ffffedeaii`d   ",
"   `iieff`````f```fffedeaii`d   ",
"   `iieffffffffffffffedeaii`d   ",
"   `iieffffffffffffffeeeaii`d   ",
"   `iieffffffffffffffeaaaii`d   ",
"   `iieeeeeeeeeeeeeeeeaaiii`d   ",
"   `iiiaaaaaaaaaaaaaaaaiiii`d   ",
"   `iiiiiiiiiiiiiiiiiiiiiii`d   ",
"   `````````````````````````d   ",
"    ddddddddddddddddddddddddd   "};
