/* XPM */
static char * cdrom_library_xpm[] = {
"64 38 16 1",
" 	s None	c None",
".	c firebrick",
"X	c dark slate grey",
"o	c slate grey",
"O	c white",
"+	c tan",
"@	c gainsboro",
"#	c yellow",
"$	c cyan",
"%	c blue",
"&	c green",
"*	c lime green",
"=	c sky blue",
"-	c orange",
";	c red",
":	c black",
"                                                                ",
"                                                                ",
"                                                                ",
"         .....                                                  ",
"         .....        XXXXXXXXX              oooooooo           ",
"         .....        XXXXXXXXX              oooooooo           ",
"  ooooooo.....        XXXXXXXXX              oooooooo           ",
"  ooooooo.....        XXXOOOXXX              oooooooo           ",
"  ooXXXoo.....        XXXOOOXXX              oooooooo +++++++++ ",
"  ooXOXoo.....ooooooooXXXOOOXXX@@@#$$$$$     oooooooo +++++++++ ",
"  ooXOXoo.....o%%%%%%oXXXXXXX&@@@@#$$$$$$$   oooooooo ++ooooo++ ",
"  ooXOXoo.....o%%%%%%oXXXXX***&@@@#$$$$$$$$$ oooooooo ++oOOOo++ ",
"  ooXOXoo.....o%%%%%%oXXXX****&@@@#$$$$$$$$$$$ooooooo ++oOOOo++ ",
"  ooXXXoo.....o%%%%%%oXXX******&@@#$$$$$$$$$$$ooooooo ++oOOOo++ ",
"  ooooooo.....o%%%%%%oXX=******&@@#$$$$$$$$$$$$oooooo ++oOOOo++ ",
"  ooooooo.....o%%%%%%oXX-=******&@#$$$$$$$$$$$$$ooooo ++ooooo++ ",
"  ooooooo.....o%%%%%%oX---==****&@@#$$$$$$$$$$$$ooooo +++++++++ ",
"  ooooooo.....o%%%%%%oX-----=****&@#$$$$$$$$$$$$ooooo +++++++++ ",
"  ooooooo.....o%%%%%%o;;-----=***ooooo$$$$$$$$$$$oooo +++++++++ ",
"  ooooooo.....o%%%%%%o$$;;;---==oo&#$oo$$$$$$$$$$oooo +++++++++ ",
"  ooooooo.....o%%%%%%o$$$$$;;;;oo*XXX$oo$$$$$$$$$oooo +++++++++ ",
"  ooooooo.....o%%%%%%o$$$$$$$$$o;XXXXX$o$$$$$$$$$oooo +++++++++ ",
"  ooooooo.....o%%%%%%o$$$$$$$$$o$XXXXX$o$$$$$$$$$oooo +++++++++ ",
"  ooooooo.....o%%%%%%o$$$$$$$$$o$XXXXX;o$$$$$$$$$oooo +++++++++ ",
"  oXXXXXo.....o%%%%%%o$$$$$$$$$oo$XXX=oo;;;;$$$$$oooo +++++++++ ",
"  oOOOOOo.:::.oOOOOOOo$$$$$$$$$$oo$#@oo=----;;;$$oooo +++++++++ ",
"  oXXXXXo.OOO.oOOOOOOo$$$$$$$$$$$ooooo**=------;;OOOo +ooooooo+ ",
"  ooooooo.:::.oOOOOOOoX$$$$$$$$$$$$#@@&**=------ooooo +OOOOOOO+ ",
"  oXXXXXo.....oOOOOOOoX$$$$$$$$$$$$#@@&***==----ooooo +OOOOOOO+ ",
"  ooooooo.....o%%%%%%oXO$$$$$$$$$$$$#@@&****==-oooooo +ooooooo+ ",
"  ooooooo.....o%%%%%%oXO$$$$$$$$$$$$#@@&*****=-oooooo +++++++++ ",
"  ooooooo.....ooooooooXXX$$$$$$$$$$$#@@@&*****ooooooo +++++++++ ",
"--------------------------$$$$$$$$$$#@@@&****-------------------",
"---------------------------$$$$$$$$$#@@@@&**--------------------",
"                             $$$$$$$#@@@@&                      ",
"                               $$$$$#@@@                        ",
"                                                                ",
"                                                                "};
