/* XPM */
static char * chip[] = {
"32 32 5 1",
" 	c None s None",
".	c black",
"X	c lemon chiffon",
"o	c tan",
"O	c gray50",
"    ..................          ",
"    .XXXXXXXXXXXXXXXX..         ",
"    .XXXXXXXXXXXXXXXX.o.        ",
"    .XXXXXXXXXXXXXXXX.oo.       ",
"    .XXXXXXXXXXXXXXXX.ooo.      ",
"    .XXXXXXXXXXXXXXXX.oooo.     ",
"    .XXXXXXXXXXXXXXXX.ooooo.    ",
"    .XXXXXXXXXXXXXXXX.......O   ",
"    .XXXXXXXXXXXXXXXXXooooo.O   ",
"    .XXXXXXXXXXXXXXXXXooooo.O   ",
"    .X......................O   ",
"    .X......................O   ",
"    .X......................O   ",
"    .X.X....................O   ",
"    .X.XXXX.................O   ",
"    .X..XXX.................O   ",
"    .XX.....................O   ",
"    .XXX...X................O   ",
"    .XXXX..XX.XXX.XXX.XXX.X.O   ",
"    .XXXXX..X.XXX.XXX.XXX.X.O   ",
"    .XXXXXX....X...X...X....O   ",
"    .XXXXXXX...X...X...X....O   ",
"    .XXXXXXXXX.X.X.X.X.X.X..O   ",
"    .XXXXXXXXXX.XXX.XXX.XXX.O   ",
"    .XXXXXXXXXX.XXX.XXX.XXX.O   ",
"    .XXXXXXXXXX.XXX.XXX.XXX.O   ",
"    .XXXXXXXXXX.XXX.XXX.XXX.O   ",
"    .XXXXXXXXXX.XXX.XXX.XXX.O   ",
"    .XXXXXXXXXX.XXX.XXX.XXX.O   ",
"    .XXXXXXXXXXXXXXXXXXXXXX.O   ",
"    ........................O   ",
"     OOOOOOOOOOOOOOOOOOOOOOOO   "};
