/* XPM */
static char * circuit2[] = {
"32 32 5 1",
" 	c None s None",
".	c black",
"X	c lemon chiffon",
"o	c tan",
"O	c gray50",
"    ..................          ",
"    .XXXXXXXXXXXXXXXX..         ",
"    .XXXXXXXXXXXXXXXX.o.        ",
"    .XXXXXXXXXXXXXX.X.oo.       ",
"    .XXXXXXXXXXXXXX.X.ooo.      ",
"    .XXX...XXXXXX.....oooo.     ",
"    .XXXXXXXX...XXX.X.ooooo.    ",
"    .XXXXXXX.XXX.XX.X.......O   ",
"    .XXXXXX.XXXXX.XXXXooooo.O   ",
"    .XXX....XXXXX.....ooooo.O   ",
"    .XXX.XX.XXXXX.XXX.XXXXX.O   ",
"    .XXX.XXX.XXX.XXXX.XXXXX.O   ",
"    .XXX.XXXX...XXXXX.XXXXX.O   ",
"    .XXX.XXXXXXXXXXXX.XXXXX.O   ",
"    .XX..XXXXXXXXXXXX.XXXXX.O   ",
"    .X..XXXXXXXXXX.......XX.O   ",
"    .XX...XXXXXXXX.......XX.O   ",
"    .XXXX..XXXXXXXXXXXXXXXX.O   ",
"    .XX...XXXXXXXXX.....XXX.O   ",
"    .X..XXXXXXXXXX.......XX.O   ",
"    .XX...XXXXXXXX.XX.XX.XX.O   ",
"    .XXXX..XXXXXXXXXX.XXXXX.O   ",
"    .XXX..XXXXXXXXXXX.XXXXX.O   ",
"    .XXX.XXXXXXXXXXXX.XXXXX.O   ",
"    .XXX.XXXXXXXXXXXX.XXXXX.O   ",
"    .XXX.XXXXXXXXXXXX.XXXXX.O   ",
"    .XXX..............XXXXX.O   ",
"    .XXXXXXXXXXXXXXXXXXXXXX.O   ",
"    .XXXXXXXXXXXXXXXXXXXXXX.O   ",
"    .XXXXXXXXXXXXXXXXXXXXXX.O   ",
"    ........................O   ",
"     OOOOOOOOOOOOOOOOOOOOOOOO   "};
