/* XPM */
static char * citadel_xpm[] = {
/* width height ncolors chars_per_pixel */
"64 54 3 1 0 0",
/* colors */
" 	s None	c None",
".	c black",
"X	c white",
/* pixels */
"                                                                ",
"                                                                ",
"                                                                ",
"                       ..              ..                       ",
"                       .X.             .X.                      ",
"                       ...             ...                      ",
"                       . ..            . ..                     ",
"                       .   .           .   .                    ",
"                       .               .                        ",
"                       .               .                        ",
"                       .               .                        ",
"                      .X.             .X.        ..             ",
"                     .....           .....       . .            ",
"                     .X.X.     .     .X.X.       .              ",
"                     ..XX.    .X.    ..XX.      .X.             ",
"                     .X.X.   .X.X.   .X.X.     .X.X.            ",
"                     ...X.  .X.X.X.  ...X.    .X.X.X.           ",
"                     .X.X.  .......  .X.X.   .........          ",
"              . ..  ...XX.. ..XX... ...XX.. ...XX..XX.. .       ",
"              ........X.X.............X.X................       ",
"              .X.XXX...XX.XXXXXXXXXX...XX.XXXXXXXXXXXXXX.       ",
"              .X.XXX...XX.XXXXXXXXXX...XX.XXXXXXXXXXXXXX.       ",
"              ..X.X.X.X.X.X.X.XXX.X.X.X.X.X.X.X.X.X.X.X..       ",
"              .X.XXX...XX.XXXX...XXX...XX.XXX.XXX.XXX.XX.       ",
"              ..X.X.X.X.X.XX..X.X..XX.X.X.X.X.X.X.X.X.X..       ",
"              .X.XXX...XX.X.X.X.X.X....XX.XXXXXXXXXXXXXX.       ",
"              ..X.X.X.X.X.X.........X.X.X.X.X.X.X.X.X.X..       ",
"              .X.XXX...XX.X............XX.XXXXXXXXXXXXXX.       ",
"              ..X.X.X.X.X.X.........X.X.X.X.X.X.X.X.X.X..       ",
"              .X.XXX...XX.X............XX.XXXXXXXXXXXXXX.       ",
"              ..X.X.X.X.X.X.........X.X.X.X.X.X.X.X.X.X..       ",
"              .X.XXX...XX.X............XX.XXXXXXXXXXXXXX.       ",
"           ................................................     ",
"            ...X.X.X.X.X...XXX.X.X.X.X.X.X.X.X.X.X.X.X.X.X..    ",
"            ..X.X.X.X.X..XXXX.X.X.X.X.X.X.X.X.X.X.X.X.X.X.X..   ",
"             ..X.X.X.X..XXXX.X.X.X.X.X.X.X.X.X.X.X.X.X.X.X.X..  ",
"             ...X.X.X.X.XXXX..X.X.X.X.X.X.X.X.X.X.X.X.X.X.X.X.  ",
"             ..X.X.X.X.XXXXX.X.X.X.X.X.X.X.X.X.X.X.X.X.X.X.X.X. ",
"             ...X.X.X..XXXXX..X.X.X.X.X.X.X.X.X.X.X.X.X.X.X.X.. ",
"            ...X.X.X.X.XXXXX.X.X.X.X.X.X.X.X.X.X.X.X.X.X.X.X.X..",
"            ....X.X.X..XXXXX..X.X.X.X.X.X.X.X.X.X.X.X.X.X.X.X.X.",
"            ...X.X.X.X..XXXXX..X.X.X.X.X.X.X.X.X.X.X.X.X.X.X.X.X",
"           .....X.X.X.X.XXXXX.X.X.X.X.X.X.X.X.X.X.X.X.X.X.X.X.X.",
"           ..X.X.X.X.X..XXXXXX.X.X.X.X.X.X.X.X.X.X.X.X.X.X.X.X.X",
"           .....X.X.X.X.XXXXXXX...X.X.X.X.X.X.X.X.X.X.X.X.X.X.X.",
"          ..X..X.X.X.X.X.XXXXXXXX..X.X.X.X.X.X.X.X.X.X.X.X.X.X.X",
"         ...X.X.X.X.X.X.X.XXXXXXXXX...X.X.X.X.X.X.X.X.X.X.X.X.X.",
"        ...X...X.X.X.X.X.X.XXXXXXXXXXX.....X.X.X.X.X.X.X.X.X.X.X",
"        ......X.X.X.X.X.X.X.XXXXXXXXXXXXXX....X.X.X.X.X.X.X.X.X.",
"        .....X.X.X.X.X.X.X.X..XXXXXXXXXXXXXXX....X.X.X.X.X.X.X.X",
"       .....X.X.X.X.X.X.X.X.X...XXXXXXXXXXXXXXXX....X.X.X.X.X.X.",
"       ....X.X.X.X.X.X.X.X.X.X.X...XXXXXXXXXXXXXXXX..X.X.X.X.X.X",
"      ....X.X.X.X.X.X.X.X.X.X.X.X.X...XXXXXXXXXXXXXXX.X.X.X.X.X.",
"     ....X.X.X.X.X.X.X.X.X.X.X.X.X.X.X..XXXXXXXXXXXXXX.X.X.X.X.X"};
