/* XPM */
static char * columns[] = {
"32 32 7 1",
" 	c None	s None",
"`	c black",
"a	c tan",
"b	c gray50",
"c	c white",
"d	c slate grey",
"e	c lemon chiffon",
"   ```````````````````          ",
"   `eeeeeeeeeeeeeeeee``         ",
"   `eeeeeeeeeeeeeeeee`a`        ",
"   `eeedddddddeeeddde`aa`       ",
"   `eeeeeeeeeeeeeeeee`aaa`      ",
"   `eeedddddddeeeddde`aaaa`     ",
"   `eeeeeeeeeeeeeeeee`aaaaa`    ",
"   `eeedddddddeeeddde```````b   ",
"   `eeeeeeeeeeeeeeeeeeaaaaa`b   ",
"   `eeedddddddeeeddddeeaaaa`b   ",
"   `eeeeeeeeeeeeeeeeeeeeeee`b   ",
"   `eeedddddddeeedddddddeee`b   ",
"   `eeeeeeeeeeeeeeeeeeeeeee`b   ",
"   `eeedddddddeeedddddddeee`b   ",
"   `eeeeeeeeeeeeeeeeeeeeeee`b   ",
"   `eeedddddddeeedddddddeee`b   ",
"   `eeeeeeeeeeeeeeeeeeeeeee`b   ",
"   `eeedddddddeeedddddddeee`b   ",
"   `eeeeeeeeeeeeeeeeeeeeeee`b   ",
"   `eeedddddddeeedddddddeee`b   ",
"   `eeeeeeeeeeeeeeeeeeeeeee`b   ",
"   `eeedddddddeeedddddddeee`b   ",
"   `eeeeeeeeeeeeeeeeeeeeeee`b   ",
"   `eeedddddddeeedddddddeee`b   ",
"   `eeeeeeeeeeeeeeeeeeeeeee`b   ",
"   `eeedddddddeeedddddddeee`b   ",
"   `eeeeeeeeeeeeeeeeeeeeeee`b   ",
"   `eeedddddddeeedddddddeee`b   ",
"   `eeeeeeeeeeeeeeeeeeeeeee`b   ",
"   `eeeeeeeeeeeeeeeeeeeeeee`b   ",
"   `````````````````````````b   ",
"    bbbbbbbbbbbbbbbbbbbbbbbbb   "};
