/* XPM */
static char * image[] = {
"32 32 17 1",
"  c none s none",
"a c black",
"b c navy",
"c c green4",
"d c turquoise4",
"e c red4",
"f c magenta4",
"g c gold4",
"h c SlateGrey",
"i c grey75",
"j c blue",
"k c green",
"l c cyan",
"m c red",
"n c magenta",
"o c yellow",
"p c white",
"                                ",
"                                ",
"                                ",
"      aaaaaaaaaaaaa             ",
"     appppppppppppaaaaa         ",
"     apiiiiiiippppapppa         ",
"     appppppppppppapppa         ",
"     apiiiiiipppppappa          ",
"     appppppppppppappaaaaaaa    ",
"     apiiiiiiipippappappppa     ",
"     appppppppppppapappppa      ",
"     apphappphapppapapppa       ",
"   aaapiapppiappppaaaapaaaaaa   ",
"  aajaaaahaaaahaaaajajappaa     ",
"  ajapihapiihapiiajajnaaa       ",
"  ajaaaaahaaaahaaajanjaa        ",
"  aajapiapppiappppajanapa       ",
"   aappphappphappaaaaapppa      ",
"    apippppppppppapapapaaaa     ",
"    apipipipipippapappa         ",
"   appppppppppppappappaaaaaa    ",
"   apipipipipippappapppa  aja   ",
"   appppppppppppappaaaaa aja    ",
"   aaaaaaaaaaaaapppaja  aja     ",
"    ajappppppppppppaja aja      ",
"    ajaaaaaaaaaaaaaajaaja       ",
"    aija           aijja        ",
"     aa             aaa         ",
"                                ",
"                                ",
"                                ",
"                                "};
