/* XPM */
static char * dot_CC[] = {
"32 32 5 1",
" 	c None s None",
".	c black",
"X	c lemon chiffon",
"o	c tan",
"O	c gray50",
"    ..................          ",
"    .XXXXXXXXXXXXXXXX..         ",
"    .XXXXXXXXXXXXXXXX.o.        ",
"    .XXXXXXXXXXXXXXXX.oo.       ",
"    .XX............XX.ooo.      ",
"    .XXXXXXXXXXXXXXXX.oooo.     ",
"    .XX............XX.ooooo.    ",
"    .XXXXXXXXXXXXXXXX.......O   ",
"    .XXXXXX......XXXXXooooo.O   ",
"    .XXXXXXXXXXXXXXXXXooooo.O   ",
"    .XXXXXX........XXXXXXXX.O   ",
"    .XXXXXXXXXXXXXXXXXXXXXX.O   ",
"    .XXXXXXXXXX.......XXXXX.O   ",
"    .XXXXXXXXXXXXXXXXXXXXXX.O   ",
"    .XXXXXXXXXX.........XXX.O   ",
"    .XXXXXXXXXXXXXXXXXXXXXX.O   ",
"    .XXXXXX............XXXX.O   ",
"    .XXXXXXXXXXX.........XX.O   ",
"    .XXXXXX........XXX....X.O   ",
"    .XXXXXXXXXX...XXXXX...X.O   ",
"    .XXXXXXXXX...XXXXXXXXXX.O   ",
"    .XXXXXXXXX...XXXXXXXXXX.O   ",
"    .XX..........XXXXXXXXXX.O   ",
"    .XXXXXXXXX...XXXXXXXXXX.O   ",
"    .XXXXXX......XXXXXXXXXX.O   ",
"    .XXXXXXXXXX...XXXXX...X.O   ",
"    .XXXXXXX..X....XXX....X.O   ",
"    .XXXXXXX..XX.........XX.O   ",
"    .XXXXXXX..XXXX.....XXXX.O   ",
"    .XXXXXXXXXXXXXXXXXXXXXX.O   ",
"    ........................O   ",
"     OOOOOOOOOOOOOOOOOOOOOOOO   "};
