/* XPM */
static char * dot_a2[] = {
"32 32 5 1",
" 	c None s None",
".	c black",
"X	c lemon chiffon",
"o	c tan",
"O	c gray50",
"    ..................          ",
"    .XXXXXXXXXXXXXXXX..         ",
"    .XXXXXXXXXXXXXXXX.o.        ",
"    .XXXXXXXXXXXXXXXX.oo.       ",
"    .XX...X...X...X.X.ooo.      ",
"    .XXXXXXXXXXXXXXXX.oooo.     ",
"    .XX...X...X...X.X.ooooo.    ",
"    .XXXXXXXXXXXXXXXX.......O   ",
"    .XX...X...X...X.XXooooo.O   ",
"    .XXXXXXXXXXXXXXXXXooooo.O   ",
"    .XX...X...X...X...X...X.O   ",
"    .XXXXXXXXXXXXXXXXXXXXXX.O   ",
"    .XX...X...X...X...X...X.O   ",
"    .XXXXXXXXXXXXXXXXXXXXXX.O   ",
"    .XX...X...X...X...X...X.O   ",
"    .XXXXXXXXXXXXXXXXXXXXXX.O   ",
"    .XX...X...X.XX.......XX.O   ",
"    .XXXXXXXXXXXX.........X.O   ",
"    .XX...X...X.X.........X.O   ",
"    .XXXXXXXXXXXX...XXX...X.O   ",
"    .XX...X...X.XXXXXX....X.O   ",
"    .XXXXXXXXXXXXX........X.O   ",
"    .XX...X...X.X.........X.O   ",
"    .XXXXXXXXXXXX.....X...X.O   ",
"    .XX...X...X.X...XXX...X.O   ",
"    .XXXXXXXXXXXX...XXX...X.O   ",
"    .XX...X..X..X.........X.O   ",
"    .XXXXXXXXX..X.........X.O   ",
"    .XXXXXXXXX..XX....X...X.O   ",
"    .XXXXXXXXXXXXXXXXXXXXXX.O   ",
"    ........................O   ",
"     OOOOOOOOOOOOOOOOOOOOOOOO   "};
