/* XPM */
static char * drafting_xpm[] = {
/* width height ncolors chars_per_pixel */
"48 48 5 1",
/* colors */
" 	c black",
".	c white",
"X	c wheat",
"o	c yellow",
"O	c orangered",
/* pixels */
"                                               .",
"                                              . ",
"   . . . . . . . . . . ........................ ",
"  . . . . . . . . . .   ....................... ",
"   . . .   . . . . . .   ...................... ",
"  . . .  X  . . . . . .   ..................... ",
"   . .  XXX  . . . . . .   .................... ",
"  . .  XXXXX  . . . . . .   ................... ",
"   .  XX XXXX  . . . . . .   .................. ",
"  .  XX XXXXXX  . . . . . .   ................. ",
"   . X XXXXXXXX  . . . . . .   ................ ",
"  . . XXX XXXXXX  . . . . .     ............... ",
"   . . X XXX XXXX  . . . .  ..   .............  ",
"  . . . XXX XXXXXX  . . .  ....   ...........   ",
"   . . . X XXXXXXXX  . . .  ....   .........    ",
"  . . . . XXX XXXXXX  . .    ....   .......   . ",
"   . . . . X XXX XXXX  . .    ....   .....   .. ",
"  . . . . . XXX XXXXXX  . .    ....   ...   ... ",
"   . . . . . X XXXXXXXX  . .    ....   .   .... ",
"  . . . . . . XXX XXXXXX  . .    ....     ..... ",
"   . . . . . . X XXX XXXX  . .    ....   ...... ",
"  . . . . . . . XXX XXXXXX  . .    .... ....... ",
"   . . . . . . . X XXXXXXXX  . .    ........... ",
"  . . . . . . . . XXX XXXXXX  . .    .......... ",
"   . . . . . . . . X XXX XXXX  . .    ......... ",
"  . . . . . . . . . XXX XXXXXX  . .    ........ ",
"   . . . . . . . . . X XXXXXXXX  . .    ....... ",
"  . . . . . . . . . . XXX XXXXXX  . .    ...... ",
"   . . . . . . . . . . X XXX XXXX  . .    ..... ",
"  . . . . . . . . . . . XXX XXXXXX  . .    .... ",
"   . . . . . . . . . . . X XXXXXXXX  . .    ... ",
"  . . . . . . . . . . . . XXX XXXXXX  . .    .. ",
"   . . . . . . . . . . . . X XXX XXXX  . .    . ",
"  . . . . . . . . . . . . . XXX XXXXXX  . .     ",
"   . . . . . . . . . . . . . X XXXXXXXX  . .    ",
"  . . . . . . . . . . . . . . XXX XXXXXX  . .   ",
"                                 XXX XXXX  . .  ",
"  ooooooooooooooooooo .. .. OOOOOXX XXXXXX  . . ",
"  ooooooooooooooooooo .. .. OOOOO  XXXXXXXX  .  ",
"   o o o o o o o o o  .. ..  O O  XXX XXXXXX  . ",
"  . . . . . . . . . . .  .         X XXX XXXX   ",
"                                  . XXX XXXXXX  ",
"                                   . X XXXXXXXX ",
"                                  . . XXX XXXXX ",
"   . . . . . . . . . . . . . . . . . . X XXX XX ",
"  . . . . . . . . . . . . . . . . . . . XXX XXX ",
" . . . . . . . . . . . . . . . . . . . . X XXXX ",
".                                               "};
