/* XPM */
static char * dragon [] = {
"34 34 5 1",
" 	s white c grey90	g4 grey90",
".	m black	c black		g4 black",
"X	m white	c OliveDrab	g4 grey70",
"o	m yellow c yellow	g4 grey80",
"O	m white	c red,		g4 grey50",
"              .                   ",
"              ..                  ",
"              . .    .            ",
"            ..... ....            ",
"  ...      ..XXXX.XXX.            ",
"  .XX.     .o.XX.XXX.     ....    ",
"  .X.X.   ....XXXXX.   ...XXX..   ",
"O .XXXX...XXX.XXXX.. ..XXXXX. .   ",
"O ..XXXXXXXXXXXXXX...XXXXXX.      ",
"O  ....XXXXXXXX.X..XXXXXXX.       ",
"OOOOOO...XXXXXX.X.XXXXXXXXX.      ",
"OOOOOO   ..XXX..X..XXXXX....      ",
"  .        ...XXXX..XXXX.  .      ",
"  .  ...    .XXXX. .XXXXX.        ",
" .. .   .. .XXXX.  .X.....        ",
" ...     ..XXXX.  .XX.   .        ",
".....     ..XX.   .X.             ",
"         .X..X.. . ..   ....      ",
"        .XXX..XX.. .  ..XXXX.     ",
"       .XXXXX..XX.....XXXXXXX.    ",
"      .XXXX.XX..XXXXXXXXXXXXXX.   ",
" ... .XX.XX.XX..XXXXXXXXXXXXXX.   ",
".........XX.XXX..XXX...XXXXXXX.   ",
". ...XXXXXX.XXX...X.XXXXXXXXXX.   ",
". . ...XXX.XXXXX...XXXXXXXXXX.    ",
". . .XX...XXXXXXX.X....XXXXX....  ",
"    .XXXXXXXXXXXXX.XXXX.....XXX.  ",
"    .XXXXXXXX..XXXX...XXXXXXXXX.  ",
"   ...XXXXXX.XX.....XX..XXXXXXX.  ",
"  .XXX.XXXX. .XXXXXXXXXX...XXX.   ",
" .X..X...XX. .X.X.XXXXXXXXX...    ",
".......  ........ ...........     ",
"                                  ",
"                                  "};
