/* XPM */
static char * draw[] = {
"32 32 5 1",
" 	c None s None",
".	c black",
"X	c lemon chiffon",
"o	c tan",
"O	c gray50",
"    ..................          ",
"    .XXXXXXXXXXXXXXXX..         ",
"    .XXXXXXXXXXXXXXXX.o.        ",
"    .XXXXXXXXXXXXXXXX.oo.       ",
"    .XXXXXXXXXXXXX.XX.ooo.      ",
"    .XXXXXXXXXXXX.XXX.oooo.     ",
"    .XXXXXXXXXXX.XXXX.ooooo.    ",
"    .XXXXXXXXXX.XXXXX.......O   ",
"    .XXXXXXXXX.XXXXXXXooooo.O   ",
"    .X....XXX.XXXXXXXXooooo.O   ",
"    .XXXXX..XXXXXXXXXXXXXXX.O   ",
"    .XXXXXX..XXXXXXXXXXXXXX.O   ",
"    .XXXXX.X.XXXXXXXXXXXXXX.O   ",
"    .XXXX.XXX.XXXXXXXXXXXXX.O   ",
"    .X.X.XXXX.XXXXXXXXXXXXX.O   ",
"    .XX.XXXXX.XXXXXXXXXX.XX.O   ",
"    .X.X.XXXX.XXXX.XXXXX.XX.O   ",
"    .XXXX.XXX.XXXX...XX..XX.O   ",
"    .XXXXX.X.XXXXX.XX..X.XX.O   ",
"    .XXXXXX..XXXXX.XXXXX.XX.O   ",
"    .XXXXX..XXXXXX.XXXX.XXX.O   ",
"    .X....XXX.XXX.XXXXX..XX.O   ",
"    .XXXXXXXXX.XX.XXXX..XXX.O   ",
"    .XXXXXXXXXXX.XXXX..X.XX.O   ",
"    .XXXXXXXXXX.XXX...X.XXX.O   ",
"    .XXXXXXXXX.XX..X.X.X.XX.O   ",
"    .XXXXXXX..X...X.X.X.XXX.O   ",
"    .XXX.....X.X.X.X.X.X.XX.O   ",
"    .XXXXXXXXXXXXXXXXXXXXXX.O   ",
"    .XXXXXXXXXXXXXXXXXXXXXX.O   ",
"    ........................O   ",
"     OOOOOOOOOOOOOOOOOOOOOOOO   "};
