/* XPM */
static char * drawing[] = {
"32 32 8 1",
",	c None	s None",
" 	c white",
".	c black",
"X	c lemon chiffon",
"o	c tan",
"O	c tomato",
"+	c gray50",
"@	c green",
",,,,..................,,,,,,,,,,",
",,,,.XXXXXXXXXXXXXXXX..,,,,,,,,,",
",,,,.XXXXXXXXXXXXXXXX.o.,,,,,,,,",
",,,,.XXXXXXXXXXXXX.XX.oo.,,,,,,,",
",,,,.XXXXXXXXXXXXX.XX.ooo.,,,,,,",
",,,,.XXXXXXXXXXXX..XX.oooo.,,,,,",
",,,,.XXXXXXXXXXXX..XX.ooooo.,,,,",
",,,,.XXXXXXXXXXX.O.XX.......+,,,",
",,,,.XXXXXXXXXXX.O.XXoooooo.+,,,",
",,,,.X..XXXXXXX.OO.XXXooooo.+,,,",
",,,,.X...XXXXXX.OO.XXXXXXXX.+,,,",
",,,,.XX...XXXX.OOO.XXXXXXXX.+,,,",
",,,,.XXX...XXX.OOO.XXXXXXXX.+,,,",
",,,,.XXXX...X.OOOO.XXXXXXXX.+,,,",
",,,,.XXXXX....OOOO.XXXXXXXX.+,,,",
",,,,.XXXXXX..OOO.....XXXXXX.+,,,",
",,,,.XXXXXX.OOO.@@@@@.XXXXX.+,,,",
",,,,.XXXXXX.OO.@@@@@@@.XXXX.+,,,",
",,,,.XXXXX.OO.@@@@@@@@@.XXX.+,,,",
",,,,.XXXXX.O.@@@@@@@@@@@.XX.+,,,",
",,,,.XXXX.OO.@@@@@@@@@@@.XX.+,,,",
",,,,.XXXX.OO.@@@@@@@@@@@.XX.+,,,",
",,,,.XXX.OOO.@@@@@@@@@@@.XX.+,,,",
",,,,.XXX.OOO.@@@@@@@@@@@.XX.+,,,",
",,,,.XX.OOOOO.@@@@@@@@@.XXX.+,,,",
",,,,.XX........@@@@@@@..XXX.+,,,",
",,,,.XXXXXXXXXX.@@@@@....XX.+,,,",
",,,,.XXXXXXXXXXX.....XX...X.+,,,",
",,,,.XXXXXXXXXXXXXXXXXXX..X.+,,,",
",,,,.XXXXXXXXXXXXXXXXXXXXXX.+,,,",
",,,,........................+,,,",
",,,,,++++++++++++++++++++++++,,,"};
