/* XPM */
static char * drawing3[] = {
"32 32 11 1",
" 	c None	s None",
"`	c black",
"a	c tan",
"b	c gray50",
"c	c sienna",
"d	c dark slate grey",
"e	c red",
"f	c orange",
"g	c white",
"h	c slate grey",
"i	c lemon chiffon",
"    ``````````````````          ",
"    `iiiiiiiiiiiiiiii``         ",
"    `icicicicicid`cii`a`        ",
"    `iiiiiiiiiiid`iic`aa`       ",
"    `iieciiiiiiid`aai`aaa`      ",
"    `ieeiiiiiiiid`aai`aaaa`     ",
"    `ieecaiiiiiddd`ai`aaaaa`    ",
"    `ieeeaiiiiddiid`i```````b   ",
"    `iee``iiiidicaa`aiaacaa`b   ",
"    `ie`g``iiidiaai`aaiaaaa`b   ",
"    `ie````aciddci``cacicic`b   ",
"    `ie````haiiddddiiaiiiii`b   ",
"    `ii```gghiiddddiaaiicii`b   ",
"    `iiii`dggh`diaddaiiiiii`b   ",
"    `iiici`dg```caddaiiicii`b   ",
"    `iiiiii`cf``aaddaaiiiii`b   ",
"    `iiiciii`cf``adddaiicii`b   ",
"    `iiiiiiii`cf``iddaiiiii`b   ",
"    `icicicicd`cf```dacicic`b   ",
"    `iiiiiiiddd`cf```daiiii`b   ",
"    `iiiciiiddia`cf```aicii`b   ",
"    `iiiiiiiddaad`cf``aiiii`b   ",
"    `iiicddddddddd`cf```cii`b   ",
"    `iiiiiiddiaadda`cf``iii`b   ",
"    `iiiciaddaaaddaa`cf``ii`b   ",
"    `iiiiidddaaiiiaai`cf``i`b   ",
"    `icicidddacicicaci`cf```b   ",
"    `iiiiiddaaaiiiiiiid`cf``b   ",
"    `iiicdddaaaiciiiiidd`cf`b   ",
"    `iiiiddiaaiiiiiiiiidd```b   ",
"    ````````````````````````b   ",
"     bbbbbbbbbbbbbbbbbbbbbbbb   "};
