/* XPM */
static char * image_name[] = {
"56 46 35 1",
" 	c #FFFFFBEEFFFF",
".	c #B6DAAEBAB6DA",
"X	c #000000000000",
"o	c #BEFBB6DABEFB",
"O	c #9E799A699E79",
"+	c #8E388A288E38",
"@	c #8E38861779E7",
"#	c #A69979E78E38",
"$	c #79E786179E79",
"%	c #082004100820",
"&	c #AEBAAEBAB6DA",
"*	c #5144A2894924",
"=	c #FFFFF3CEFFFF",
"-	c #FFFFFFFFFFFF",
";	c #38E36DB6A699",
":	c #965896589658",
">	c #514471C68E38",
",	c #F7DEB2CAAEBA",
"<	c #96589658AEBA",
"1	c #AEBAB2CACF3C",
"2	c #AEBA9E795965",
"3	c #000008200820",
"4	c #71C679E78617",
"5	c #A6999E79A699",
"6	c #AEBAA699AEBA",
"7	c #EFBEF3CEF7DE",
"8	c #AEBA61856185",
"9	c #000000001040",
"0	c #A699A289A699",
"q	c #A699A699A699",
"w	c #71C675D671C6",
"e	c #000000001861",
"r	c #861779E78617",
"t	c #69A669A671C6",
"y	c #AEBAA69971C6",
"                                                       .",
" ......................................................X",
" ......................................................X",
" ........o....o....o....o....o....o....o....o....o....oX",
" O.o.Oo++@+++++++#$+++++@#$++++#$+++++#$++++++++.O..oO.%",
" ...o&o*  = --    -    - --                 -= ;.......X",
" O.O.Oo#      -        -  --                   X+OoO&O.X",
"=o..o.O#     -        -    -                   %+.&o.oOX",
" O.:.O.>    .XXX,     -     -                  X+<oO.Oo%",
"=..oO.12    .X ,3    -     -                   %;...O..X",
" O.<.O.4=   .3.,%     -  -  -                  X+OoO.O.%",
"=oO...<+    .;X%,    -                         %;.O...O%",
" OoO.Oo+    oX,             -                  X+<.5.5.%",
"=.5.O.O$    .;o;..;..;... -. -...;.;.;..;.     %;.O.O.OX",
" O.O.O.+=          ---- -  .- ----             X+O.5.5.%",
"=5O.<OO+     ..;..;&o.;..  . -..;...;o.;..     %;5<.OOOX",
" O.O.O.*            =- -  -.  ----------       X$O.O.O.%",
"=O5OO5<#     ;...;..;.;;.  .  .;;.;..;..;.    =%;6OO<OO%",
"=5.O.<.+              -  - -     - -- ---      X@O.O.O.%",
"=OO5555+     ;o;.;.. -        -     .;..;o     %;5O6O<O%",
" O5O.OO27     ---     ++++@$++++++  - - - -    X;O#<.OO%",
"=OOO5O<4=    ;&o;.o;  85..o...5.5+  ;..;.;     9;O5O6O5X",
"=O5OO5O*=        ---  4o25@;0...2#7  -  - -    X;5OOOOO%",
"=OOOOO<#     ;.;...;--+.520q;;2q;$ =;&o;.;     9;OOO5OOX",
"=*<55*5+         --   2O,,.84+;;,#    =--      X;455O*<%",
"=55O6OO#     ;.;.;.. 7#,48:,,o;=,4  .;o;..     %;5O<555%",
" O<*<w5$         - -  >, , , ;;&;+    - --     X;5O*<45%",
"=OOO5OO+     ;;...;.  2  o.o;o6254  &&;o;.     e;O56O5OX",
"=*68<*6r        -- -= 4#+@#+4#8##+  ==    -    X;45t62#%",
"=55<55O+     ;.;.;.;   =  7  7  =   .;.;;.     e;OOOOO<%",
" #Ow54<+=       ----    -    -        -  -     X;+<*6>6%",
"=O+5OO++     .;;..;;.;...  .- ...;.;;o.;;.     9;O#5O5+X",
" $O2+;%%XX39.   -- ------  . -       -   -    .X;++45+O%",
"=O$;e;q=7q  ;39.  ...o;.. -. -..;...;..;.=   .+9;O#1*O+X",
" +;%==@  2= q7=qXX      -  .- -    --- --#....;%;$O25#+%",
"=;%oX33X;q  @  @ .X9  o;. -.  o;;o;..;..-$...+X9;24O4++X",
" Xq= q7=3%XXq  q  q.X.         ----- - - ;.o+;%%#454<249",
" 8;XX  2q =q9%XO =2 =q9&               -.;&#;%%;$$#+<4+X",
" $O+O;Xq7 2q7 q%9 q  2=.X -            .9+4;eX%+#$5$:45%",
" ++424#;%%q =q2  %X =0 =qX           .+9;;9%X%$#*+++4y+%",
" 24<<++#O;;%X@- q@ X3=  @.XXXXX9XX9XX%%X%XX%;++++#$*1#49",
" >+>24+4@4#+#;%XO  7qX3 q q9;;;;;;;;;;;;;;;4+$#+:@4##+$X",
" :<##$2$#$+$4O+@;XXq7 q%q =29#4++#$#4+#$+++++#$$4:$8$$+%",
"=++>+$+4++4++4@O#+8;%X. .;O=qe;+$85>y+4y>#+<42+#<#*$#@@X",
" +@#+><+$+++:+4>24:424;X;;XX.=o%;$424#$4<2>44>+8$$#++4+%",
".X%%%%X%XX3%X%e9%%9%e%%%XX%X;X;-.%9ee%9%9%99e39%XXe%%%%%"};
