/* XPM */
static char * empty[] = {
"32 32 5 1",
" 	c None s None",
".	c black",
"X	c lemon chiffon",
"o	c tan",
"O	c gray50",
"    ..................          ",
"    .XXXXXXXXXXXXXXXX..         ",
"    .XXXXXXXXXXXXXXXX.o.        ",
"    .XXXXXXXXXXXXXXXX.oo.       ",
"    .XXXXXXXXXXXXXXXX.ooo.      ",
"    .XXXXXXXXXXXXXXXX.oooo.     ",
"    .XXXXXXXXXXXXXXXX.ooooo.    ",
"    .XXXXXXXXXXXXXXXX.......O   ",
"    .XXXXXXXXXXXXXXXXXooooo.O   ",
"    .XXXXXX...........ooooo.O   ",
"    .XXXX...............XXX.O   ",
"    .XXXX.X.XX.....XX.X.XXX.O   ",
"    .XXXX.....XXXXX.....XXX.O   ",
"    .XXXX...............XXX.O   ",
"    .XXXX..XXXXXXXXXXX..XXX.O   ",
"    .XXXX.XXXXXXXXXXXXX.XXX.O   ",
"    .XXXX.XXXXXXXXXXXXX.XXX.O   ",
"    .XXXX.XXXXXXXXXXXXX.XXX.O   ",
"    .XXXX.XXXXXXXXXXXXX.XXX.O   ",
"    .XXXX.XXXXXXXXXXXXX.XXX.O   ",
"    .XXXX.XXXXXXXXXXXXX.XXX.O   ",
"    .XXXX.XXXXXXXXXXXXX.XXX.O   ",
"    .XXXX.XXXXXXXXXXXXX.XXX.O   ",
"    .XXXX.XX.........XX.XXX.O   ",
"    .XXXX.X.XXXXXXXXX.X.XXX.O   ",
"    .XXXX.XXXXXXXXXXXXX.XXX.O   ",
"    .XXXXX...XXXXXXX...XXXX.O   ",
"    .XXXXXXXX.......XXXXXXX.O   ",
"    .XXXXXXXXXXXXXXXXXXXXXX.O   ",
"    .XXXXXXXXXXXXXXXXXXXXXX.O   ",
"    ........................O   ",
"     OOOOOOOOOOOOOOOOOOOOOOOO   "};
