/* XPM */
static char * experiment[] = {
"32 32 5 1",
" 	c None s None",
".	c black",
"X	c lemon chiffon",
"o	c tan",
"O	c gray50",
"    ..................          ",
"    .XXXXXXXXXXXXXXXX..         ",
"    .XXXXXXXXXXXXXXXX.o.        ",
"    .XXXXXXXXXXXXXXXX.oo.       ",
"    .XXXXXXXXXXXXXXXX.ooo.      ",
"    .XXXXXXXXXXXXXXXX.oooo.     ",
"    .XXXXXXXXXXXXXXXX.ooooo.    ",
"    .XXXXXXXXXXXXXXXX.......O   ",
"    .XXXXXXXXXXXXXXXXXooooo.O   ",
"    .X......XXXXXXXXXXooooo.O   ",
"    .X.XXXX.XXXXXXXXXXXXXXX.O   ",
"    .X.X.X..XXXXXXXX......X.O   ",
"    .X.XX...XXXXXXXX.XXXX.X.O   ",
"    .X.X.X..X......X.X.X..X.O   ",
"    .X.XX...X.XXXX.X.XX...X.O   ",
"    .X.X.X..X.X.X..X.X.X..X.O   ",
"    .X.XX...X.XX...X.XX...X.O   ",
"    .X.X.X..X.X.X..X.X.X..X.O   ",
"    .X.XX...X.XX...X.XX...X.O   ",
"    .X.X.X..X.X.X..X.X.X..X.O   ",
"    .X.XX...X.XX...X.XX...X.O   ",
"    .X.X....X.X....X.X....X.O   ",
"    .X......X......X......X.O   ",
"    .XXXXXXXXXXXXXXXXXXXXXX.O   ",
"    .X.XXX..X..XXXX.XXXXXXX.O   ",
"    .X......X.............X.O   ",
"    .X.XXX..X..XXXX.XXXXXXX.O   ",
"    .XXXXX..X..XXXXXXXXXXXX.O   ",
"    .XXXXXXXXXXXXXXXXXXXXXX.O   ",
"    .XXXXXXXXXXXXXXXXXXXXXX.O   ",
"    ........................O   ",
"     OOOOOOOOOOOOOOOOOOOOOOOO   "};
