/* XPM */
static char * files_xpm[] = {
"64 58 8 1",
/* pixels*/
" 	s none c none",
".	c black",
"o	c black",
"O	c lemon chiffon",
"+	c gray50",
"#	c tomato",
"$	c wheat",
"X      c tan",
"                                                                ",
"                                                                ",
"                                                                ",
"                                                                ",
"                                                                ",
"     oooooooooooooooooo      oooooooooooooooooo                 ",
"     oOOOOOOOOOOOOOOOOoo     oOOOOOOOOOOOOOOOOoo                ",
"     oOOOOOOOOOOOOOOOOo+o    oOOOOOOOOOOOOOOOOo+o               ",
"     oOOOOOOOOOOOOOOOOo++o   oOOOOOOOOOOOOOOOOo++o              ",
"     oOOOOOOOOOOOOOOOOo+++o  oOOOOOOOOOOOOOOOOo+++o             ",
"     oOOOOOOOOOOOOOOOOo++++o oOOOOOOOOOOOOOOOOo++++o            ",
"     oOOOOOOOOOOOOOOOOooooooooOOOOOOOOOOOOOOOOo+++++o           ",
"     oOOOOOOOOOOOOOOOOO+++++o.OOOOOOOOOOOOOOOOooooooo.          ",
"     oOOOOOOOOOOOOOOOOOO++++o.OOOOOOOOOOOOOOOOOO++++o.          ",
"     oOOOOOOOOOOOOOOOOOOOOOOo.OOoooooooooooooooooo++o.          ",
"     oOOOOOOOOOOOOOOOOOOOOOOo.OOo#oo#############o.Oo.          ",
"     oOOOOOOOOOOOOOOOOOOOOOOo.OOo#oo#############o.Oo.          ",
"     oOOOOOOOOOOOOOOOOOOOOOOo.OOoooooooooooooooooo.Oo.          ",
"     oOOOOOOOOOOOOOOOOOOOOOOo.OOo$$$$$$$$$$$$$$$$o.Oo.          ",
"     oOOOOOOOOOOOOOOOOOOOOOOo.oooooo$$$$$$$$$$$$$o.Oo.          ",
"     oOOOOOOOOOOOOOOOOOOOOOOo.XXXXXXo$$$$$$$$$$$$o.Oo.          ",
"     oOOOOOOOOOOOOOOOOOOOOOOo.XXXXXXXo$$$$$$$$$$$o.Oo.          ",
"     oOOOOOOOOOOOOOOOOOOOOOOo.oooooooooo$$$$$$$$$o.Oo.          ",
"     oOOOOOOOOOOOOOOOOOOOOOOo.$$$$$$$$$$o$$$$$$$$o.Oo.          ",
"     oOOOOOOOOOOOOOOOOOOOOOOo.$$$$$$$$$$o.$$$$$$$o.Oo.          ",
"     oOOOOOOOOOOOOOOOOOOOOOOo.$$$$$$$$$$o.$$$$$$$o.Oo.          ",
"     oOOOOOOOOOOOOOOOOOOOOOOo.$$$$$$$$$$o.$$$$$$$o.Oo.          ",
"     oOOOOOOOOOOOOOOOOOOOOOOo.$$$$$$$$$$o.$$$$ooooooo.          ",
"     oOOOOOOOOOOOOOOOOOOOOOOo.$$$$$$$$$$o.$$$oXXXXXXXo          ",
"     oOOOOOOOOOOOOOOOOOOOOOOo.$$$$$$$$$$o.$$oXXXXXXXXXo         ",
"     oOOOOOOOOOOOOOOOOOOOOOOo.ooooooooooooooooooooooooooo       ",
"     oOOOOOOOOOOOOOOOOOOOOOOo.$$$$$$$$$$$$$$$$$$$$$$$$$$$o      ",
"     oOOOOOOOOOOOOOOOOOOOOOOo.$$$$$$$$$$$$$$$$$$$$$$$$$$$o.     ",
"     oOOOOOOOOOOOOOOOOOOOOOOo.$$$$$$$$$$$$$$$$$$$$$$$$$$$o.     ",
"     oOOOOOOOOOOOOOOOOOOOOOOo.$$$$$$$$$$$$$$$$$$$$$$$$$$$o.     ",
"     oooooooooooooooooooooooo.$$$$$$$$$$$$$$$$$$$$$$$$$$$o.     ",
"      ........................$$$$$$$$$$$$$$$$$$$$$$$$$$$o.     ",
"            o$$$$$$$$$$$$$$$$o$$$$$$$$$$$$$$$$$$$$$$$$$$$o.     ",
"            o$$$$$$$$$$$$$$$$o$$$$$$$$$$$$$$$$$$$$$$$$$$$o.     ",
"            o$$$$$$$$$$$$$$$$o$$$$$$$$$$$$$$$$$$$$$$$$$$$o.     ",
"            o$$$$$$$$$$$$$$$$o$$$$$$$$$$$$$$$$$$$$$$$$$$$o.     ",
"            o$$$$$$$$$$$$$$$$o$$$$$$$$$$$$$$$$$$$$$$$$$$$o.     ",
"            o$$$$$$$$$$$$$$$$o$$$$$$$$$$$$$$$$$$$$$$$$$$$o.     ",
"            oooooooooooooooooo$$$$$$$$$$$$$$$$$$$$$$$$$$$o.     ",
"             ................o$$$$$$$$$$$$$$$$$$$$$$$$$$$o.     ",
"                             o$$$$$$$$$$$$$$$$$$$$$$$$$$$o.     ",
"                             o$$$$$$$$$$$$$$$$$$$$$$$$$$$o.     ",
"                             o$$$$$$$$$$$$$$$$$$$$$$$$$$$o.     ",
"                             o$$$$$$$$$$$$$$$$$$$$$$$$$$$o.     ",
"                             o$$$$$$$$$$$$$$$$$$$$$$$$$$$o.     ",
"                             o$$$$$$$$$$$$$$$$$$$$$$$$$$$o.     ",
"                             ooooooooooooooooooooooooooooo.     ",
"                              .............................     ",
"                                                                ",
"                                                                ",
"                                                                ",
"                                                                ",
"                                                                "};
