/* XPM */
static char * file[] = {
"32 32 6 1",
",	c None	s None",
" 	c white",
".	c black",
"X	c lemon chiffon",
"o	c wheat",
"O	c gray50",
",,,,..................,,,,,,,,,,",
",,,,.XXXXXXXXXXXXXXXX..,,,,,,,,,",
",,,,.XXXXXXXXXXXXXXXX.o.,,,,,,,,",
",,,,.XXXXXXXXXXXXXXXX.oo.,,,,,,,",
",,,,.XX....X....XX..X.ooo.,,,,,,",
",,,,.XXXXXXXXXXXXXXXX.oooo.,,,,,",
",,,,.XX...XXXX....XXX.ooooo.,,,,",
",,,,.XXXXXXXXXXXXXXXX.......O,,,",
",,,,.XXXXXXXXXXXXXXXXoooooo.O,,,",
",,,,.XX.X.....X...XXX.ooooo.O,,,",
",,,,.XXXXXXXXXXXXXXXXXXXXXX.O,,,",
",,,,.XX.....X...XX..X...XXX.O,,,",
",,,,.XXXXXXXXXXXXXXXXXXXXXX.O,,,",
",,,,.XXXXXXXXXXXXXXXXXXXXXX.O,,,",
",,,,.XX.X...X...X...XXXXXXX.O,,,",
",,,,.XXXXXXXXXXXXXXXXXXXXXX.O,,,",
",,,,.XX.....X..XX.XXX....XX.O,,,",
",,,,.XXXXXXXXXXXXXXXXXXXXXX.O,,,",
",,,,.XX.X.......XX..XXXXXXX.O,,,",
",,,,.XXXXXXXXXXXXXXXXXXXXXX.O,,,",
",,,,.XXXXXXXXXXXXXXXXXXXXXX.O,,,",
",,,,.XX.X...XXX.....XX.XXXX.O,,,",
",,,,.XXXXXXXXXXXXXXXXXXXXXX.O,,,",
",,,,.XX.....XX........XXXXX.O,,,",
",,,,.XXXXXXXXXXXXXXXXXXXXXX.O,,,",
",,,,.XX........XX.....X..XX.O,,,",
",,,,.XXXXXXXXXXXXXXXXXXXXXX.O,,,",
",,,,.XXXXXXXXXXXXXXXXXXXXXX.O,,,",
",,,,.XXXXXXXXX..XXXXXXXXXXX.O,,,",
",,,,.XXXXXXXXXXXXXXXXXXXXXX.O,,,",
",,,,........................O,,,",
",,,,,OOOOOOOOOOOOOOOOOOOOOOOO,,,"};
