/* XPM */
static char * flowchart[] = {
"32 32 14 1",
" 	c None	s None",
"`	c black",
"a	c tan",
"b	c sky blue",
"c	c violet",
"d	c gray50",
"e	c red",
"f	c firebrick",
"g	c white",
"h	c lemon chiffon",
"i	c orange",
"j	c sea green",
"k	c pale green",
"l	c blue",
"   ```````````````````          ",
"   `hhhhhhhhhhhhhhhhh``         ",
"   `hhhhhhhhhhhhhhhhh`a`        ",
"   `hhhhhhhhhhhhhhhhh`aa`       ",
"   `hhhhhhhhhhhhhhhhh`aaa`      ",
"   `hhhhhhhhhhhhhhhhh`aaaa`     ",
"   `hhhhhhhhhhhhhhhhh`aaaaa`    ",
"   `hhhhhhhhhhhhhhhhh```````d   ",
"   `hhhhhhhhhhhhhhhhhhaaaaa`d   ",
"   `hhhhhhhhhhhhhhhhhhhaaaa`d   ",
"   `hhhhhhhhhhhhhhhhhhhhhhh`d   ",
"   `hhhhhhhhhhhhhhhhhhhhhhh`d   ",
"   `hhhhhhhhhhhhhhhhhhhhhhh`d   ",
"   `hhhhhlllllllhhfffffffhh`d   ",
"   `hhhhhlbbbbblhhfcccccfhh`d   ",
"   `hhhhhlbbbbbl``fcccccf```d   ",
"   `hhhhhlbbbbblaafcccccfaa`d   ",
"   `hhhhhlllllllahfffffffah`d   ",
"   `hhhh`aaaaaaaahhhaaaaaah`d   ",
"   `hhh`ahhhhhhhhhhhhhhhhhh`d   ",
"   `jjjahhhhhheeeeeeehhhhhh`d   ",
"   `kkjhhhhhhheiiiiiehhhhhh`d   ",
"   `kkj```````eiiiiie```````d   ",
"   `kkjaaaaaaaeiiiiieaaaaaa`d   ",
"   `jjjahhhhhheeeeeeeahhhhh`d   ",
"   `aaaahhhhhhhaaaaaaahhhhh`d   ",
"   `hhhhhhhhhhhhhhhhhhhhhhh`d   ",
"   `hhhhhhhhhhhhhhhhhhhhhhh`d   ",
"   `hhhhhhhhhhhhhhhhhhhhhhh`d   ",
"   `hhhhhhhhhhhhhhhhhhhhhhh`d   ",
"   `````````````````````````d   ",
"    ddddddddddddddddddddddddd   "};
