/* XPM */
static char * helpme[] = {
"32 32 5 1",
" 	c None s None",
".	c black",
"X	c lemon chiffon",
"o	c tan",
"O	c gray50",
"    ..................          ",
"    .XXXXXXXXXXXXXXXX..         ",
"    .XXXXXXXXXXXXXXXX.o.        ",
"    .XXXXXXXXXXXXXXXX.oo.       ",
"    .XXXXXXXXXXXXXXXX.ooo.      ",
"    .XXXXXXXXXXXXXXXX.oooo.     ",
"    .XXXX..........XX.ooooo.    ",
"    .XXX..X.X.X.X.X.X.......O   ",
"    .XX..X.X.X.X.X.X.Xooooo.O   ",
"    .X..X.X.......X.X.ooooo.O   ",
"    .X.X.X.........X.X.XXXX.O   ",
"    .X..X...........X.XXXXX.O   ",
"    .X.X.X...X.X...X.X.XXXX.O   ",
"    .X..X.....X.....X.X.XXX.O   ",
"    .X.X.X...X.X...X.X.X.XX.O   ",
"    .X..X.X.X.X.....X.X.X.X.O   ",
"    .X.X.X.X.X.....X.X....X.O   ",
"    .X..X.X.X.....X.X.XXXXX.O   ",
"    .XX..X.X.....X.X.X.XXXX.O   ",
"    .XXX..X.X...X.X.X.XXXXX.O   ",
"    .XXXX..X.....X.X.XXXXXX.O   ",
"    .XXXXX..X.X.X.X.X.XXXXX.O   ",
"    .XXXXX.X.X.X.X.X.XXXXXX.O   ",
"    .XXXXX..X...X.XXXXXXXXX.O   ",
"    .XXXXX.X.....X.XXXXXXXX.O   ",
"    .XXXXX..X...X.XXXXXXXXX.O   ",
"    .XXXX..X.X.X.X.XXXXXXXX.O   ",
"    .XXXX.X.X.X.X.X.XXXXXXX.O   ",
"    .XXXXXXXXXXXXXXXXXXXXXX.O   ",
"    .XXXXXXXXXXXXXXXXXXXXXX.O   ",
"    ........................O   ",
"     OOOOOOOOOOOOOOOOOOOOOOOO   "};
