/* XPM */
static char * home_xpm[] = {
"17 17 4 1",
" 	s none c none",
".	c white",
"X	c red",
"o	c black",
"                 ",
"        .        ",
"       ...       ",
"      ..X..      ",
"     ..XXX..     ",
"    ..X...X..    ",
"   ..XX.o.XX..   ",
"  ..XXX...XXX..  ",
" ..XXXXXXXXXXX.. ",
"...XXXXXXXXXXX...",
"  .XXXXXX....X.  ",
"  .X....X.oo.X.  ",
"  .X.oo.X.oo.X.  ",
"  .X.oo.X....X.  ",
"  .X.oo.XXXXXX.  ",
"  .X.oo.XXXXXX.  ",
"  .X.oo.XXXXXX.  "};
