/* XPM */
static char * icon[] = {
"32 32 5 1",
" 	c None s None",
".	c black",
"X	c lemon chiffon",
"o	c tan",
"O	c gray50",
"    ..................          ",
"    .XXXXXXXXXXXXXXXX..         ",
"    .X.XX..XX.XX.XX.X.o.        ",
"    .X.X.XXX.X.X..X.X.oo.       ",
"    .X.X.XXX.X.X.X..X.ooo.      ",
"    .X.X.XXX.X.X.XX.X.oooo.     ",
"    .X.XX..XX.XX.XX.X.ooooo.    ",
"    .XXXXXXXXXXXXXXXX.......O   ",
"    .XXXXXXXXXXXXXXXXXooooo.O   ",
"    .XXXXXXXXXXX.XXXXXooooo.O   ",
"    .XXXXXXXXXX...XXXXXXXXX.O   ",
"    .XXXXXXXXX.....XXXXXXXX.O   ",
"    .XXXXXXXX...X...XXXXXXX.O   ",
"    .XXXXXXX...X.X...XXXXXX.O   ",
"    .XXXXXX...X...X...XXXXX.O   ",
"    .XXXXX...X.....X...XXXX.O   ",
"    .XXXX...X.X...X.X...XXX.O   ",
"    .XXX...X...X.X...X...XX.O   ",
"    .XX...X.....X.....X...X.O   ",
"    .XXX...X...X.X...X...XX.O   ",
"    .XXXX...X.X...X.X...XXX.O   ",
"    .XXXXX...X.....X...XXXX.O   ",
"    .XXXXXX...X...X...XXXXX.O   ",
"    .XXXXXXX...X.X...XXXXXX.O   ",
"    .XXXXXXXX...X...XXXXXXX.O   ",
"    .XXXXXXXXX.....XXXXXXXX.O   ",
"    .XXXXXXXXXX...XXXXXXXXX.O   ",
"    .XXXXXXXXXXX.XXXXXXXXXX.O   ",
"    .XXXXXXXXXXXXXXXXXXXXXX.O   ",
"    .XXXXXXXXXXXXXXXXXXXXXX.O   ",
"    ........................O   ",
"     OOOOOOOOOOOOOOOOOOOOOOOO   "};
