/* XPM */
static char * info[] = {
"32 32 8 1",
",	c None	s None",
" 	c white",
".	c black",
"X	c lemon chiffon",
"o	c wheat",
"O	c blue",
"+	c navy",
"@	c gray50",
",,,,..................,,,,,,,,,,",
",,,,.XXXXXXXXXXXXXXXX..,,,,,,,,,",
",,,,.XXXXXXXXXXXXXXXX.o.,,,,,,,,",
",,,,.XXXXXXXXXXXXXXXX.oo.,,,,,,,",
",,,,.XX.X....XOOOX..X.ooo.,,,,,,",
",,,,.XXXXXXXXOOOO+XXX.oooo.,,,,,",
",,,,.XX...X.XOOOO+XXX.ooooo.,,,,",
",,,,.XXXXXXXXOOOO+XXX.......@,,,",
",,,,.XXXXXXXXOOOO+XXXoooooo.@,,,",
",,,,.XX..X...X+++XXXXXooooo.@,,,",
",,,,.XXXXXXXXXXXXXXXXXXXXXX.@,,,",
",,,,.XX...X..XOOOX..X...XXX.@,,,",
",,,,.XXXXXXXXOOOO+XXXXXXXXX.@,,,",
",,,,.XXXXXXXXOOOO+XXXXXXXXX.@,,,",
",,,,.XX.X...XOOOO+X...XXXXX.@,,,",
",,,,.XXXXXXXXOOOO+XXXXXXXXX.@,,,",
",,,,.XX...X.XOOOO+X.X....XX.@,,,",
",,,,.XXXXXXXXOOOO+XXXXXXXXX.@,,,",
",,,,.XX.X...XOOOO+X...XXXXX.@,,,",
",,,,.XXXXXXXXOOOO+XXXXXXXXX.@,,,",
",,,,.XXXXXXXXOOOO+XXXXXXXXX.@,,,",
",,,,.XX.X.X.XOOOO+X....XXXX.@,,,",
",,,,.XXXXXXXXOOOO+XXXXXXXXX.@,,,",
",,,,.XX.....XOOOO+X...XXXXX.@,,,",
",,,,.XXXXXXXXOOOO+XXXXXXXXX.@,,,",
",,,,.XX...X.XOOOO+X...X..XX.@,,,",
",,,,.XXXXXXXX+++++XXXXXXXXX.@,,,",
",,,,.XXXXXXXXXXXXXXXXXXXXXX.@,,,",
",,,,.XXXXXXXXX..XXXXXXXXXXX.@,,,",
",,,,.XXXXXXXXXXXXXXXXXXXXXX.@,,,",
",,,,........................@,,,",
",,,,,@@@@@@@@@@@@@@@@@@@@@@@@,,,"};
