/* XPM */
static char * intray[] = {
"32 32 9 1",
" 	c None	s None",
"`	c black",
"a	c tan",
"b	c wheat",
"c	c gray50",
"d	c red",
"e	c white",
"f	c slate grey",
"g	c lemon chiffon",
"````````````````````            ",
"`gggggggggggggggggg``           ",
"`gggggggggggggggggg`a`          ",
"`gggggggggggggggggg`aa`         ",
"`gggggggggggggggggg`aaa`        ",
"`gggggggggggggggggg`aaaa`       ",
"`gggggggggggggggggg`aaaaa`      ",
"`gggggggggggggggggg```````c     ",
"`gggggggggggggggggggaaaaa`c     ",
"`gggggggggggggggggggdggaa`c     ",
"`ggggggggggggggggggadaggg`c     ",
"`ggggggggggggggggggdddggg`c     ",
"`gggggggggggggggggadddagg`c     ",
"`gggggggggggggggggdddddgg`c     ",
"`ggggggggggggggggadddddag`c     ",
"`ggggggggggggggggdddddddg`c     ",
"`ggggggggggggggggdddddddg`c     ",
"`ggggggggggggggggffdddffg`c     ",
"`ggggggggggggggggggdddfgg`c     ",
"`ggggggggggggggggggdddfgg`c     ",
"`ggggggggggg```````ddd```````   ",
"`gggggggggg`aaaaaaadddaaaaaaa`  ",
"`ggggggggg````aaaaadddaaaaa```` ",
"`ggggggggg`bbb`aaaaaaaaaaa`bbb`c",
"`ggggggggg`bbbb```````````bbbb`c",
"`ggggggggg`bbbbbbbbbbbbbbbbbbb`c",
"`ggggggggg`bbbbbbbbbbbbbbbbbbb`c",
"`ggggggggg`bbbbbbbbbbbbbbbbbbb`c",
"`gggggggggg```````````````````cc",
"`ggggggggggggffffffffffff`ccccc ",
"``````````````````````````c     ",
" cccccccccccccccccccccccccc     "};
