/* XPM */
static char *island[] = {
/* width height ncolors chars_per_pixel */
"64 38 13 1",
/* colors */
"` c black",
"a c lime green",
"b c cyan",
"c c green",
"d c dodger blue",
"e c gainsboro",
"f c grey",
"g c sienna",
"i c orange",
"j c gold",
"k c slate grey",
"l c orange",
"m c sea green",
/* pixels */
"bbbbbbbbbbbbbbbbbbbbbbbbbbbcccbbcccccbbbbbbbbbbbbbbbbbbbbbbbbbbb",
"bbbbbbbbbbbbbbbbbbbbbbbbbbcccccbacccccbbbbbbbbbbbbbbbbbbbbbbbbbb",
"bbbbbbbbbbbbbbbbbbbbbbbbbbbbbccbacaaacbbbbbbbbbbbbbbbbbbbbbbbbbb",
"bbbbbbbbbbbbbbbbbbbbbbbbbbccaaccaaaaaaabbbbbbbbbbbbbbbbbbbkkkebb",
"bbbbbbbbbbbbbbbbbbbbbbbbcccccaacaaacbbbbbbbbbbbbbbbbbbbbbekfkkeb",
"bbbbbbbbbbbbbbbbbbbbbbbbccccccaaamacccccbbbbbbbbbbbbbbbbbefffkkb",
"bbbbbbbbbbbbbbbbbbbbbbbbbcaaaaaaaaacaaaacbbbbbbbbbbbkkkbeeffffke",
"bbbbbbbbbbbbbbbbbbbbbbbbccaaaaaammacammmacbbbbbbbbbeeekkeffffkkf",
"bbbbbbbbbbbbbbbbbbbbbbbbcbccacaamcmcmaammcbbbbbbbbbefffkkfffkkkk",
"bbbbbbbbbbbbbbbbbbbbbbbbcbcamcamccccmmabmbbbbbbbbbbeffffkfffkkkk",
"bbbbbbbbbbbbbbbbbbbbbbbbbccamcmmammaamcbbbbbbeffffbeeefkkkkkkfff",
"bbbbbbbbbbbbbbbbbbbbbbbbbbcabbmmbmmmaabbbbbbeeeeeffeeffkkkffkkff",
"bbbbbbbbbbbbbbbbbbbbbbbbbbcabbcmbmmmacgbbbbbeeeeeffeeekkffffkkkf",
"bbbbbbbbbbbbbbbbbbbbbbbbbbbcbbcccbbmbigbbbbbeeeeeeeeekkkkffffkkf",
"bbbbbbbbbbbbbbbbbbbbbbbbbbbbbbbbccbbbbigbbeffffffeeefffekffffkkf",
"bbbbbbbbbbbbbbbbbbbbbbbbbbbbbbbbbbbbbbigbeeeeffffeeeeeffeeeeffff",
"bbbbbbbbbbbbbbbbbbbbbbbbbbbbbbbbbbbbbbigeeeeeeffffeeeeffeeeeefff",
"bbbbbbbbbbbbbbbbbbbbbbbbbbbbbbbbbbbbbbigeeeeeeefefffeeffeeeeeeef",
"bbbbbbbbbbbbbbbbbbbbbbbbbbbbbbbbbbbbbbigeeeeeeeeeeeeeeeeeeeeeeee",
"bbbbbbbbbbbbbbbbbbbbbbbbbbbbbbbbbbbbbbigbeeeeeeefffffffffffffffe",
"bbbbbbbbblllllbbbbbbbbbbbbbbbbbbbbbbbbigbbeeeeeeeefeeeeeeeeeefbb",
"bbbbbbbblljjjllbbbbbbbbbbbbbbbbbbbbbbigbbbbbbbbbbbbbbbbbbbbbbbbb",
"bbbbbbblljjjjjllbbbbbbbbbbbbbbbbbbbbbigbbbbbbbbbbbbbbbbbbbbbbbbb",
"bbbbbbbljjjjjjjlbbbbbbbbbbbbbbbbbbbbbigbbbbbbbbbbbbbbbbbbbbbbbbb",
"bbbbbbbljjjjjjjlbbbbbbbbbbbbbbbbbbbiigbbbbbbbbbbbbbbbbbbbbbbbbbb",
"bbbbbbbljjjjjjjlbbbbbbbbbbbbbbbbbbbig`bbbbbbbbbbbbbbbbbbbbbbbbbb",
"bbbbbbblljjjjjllbbbbbbbbbbbbbbbaaaii``mmmmmmbbbbbbbbbbbbbbbbbbbb",
"bbbbbbbblljjjllbbbbbbbbbbbbbaaaaaaig`gmmaaammabbbbbbbbbbbbbbbbbb",
"ddddddddddlllddddddddddddaaaaaaaaagg`gmmmmaammmddddddddddddddddd",
"dddddddddlldlldddddddddaaaaaaaaaaaaggmmmmmmmmmmmdddddddddddddddd",
"ddddddddlldldlldddddddaaaaaaaaaaaaaaaammmgmmaammkkkkdddddddddddd",
"dddddddlldlldddddddddaaaaaaaaaaaaaaaaaaaammmmmmmmkkkkkdddddddddd",
"dddddddddlldldldddddaaaaaaaaaaaaaaaaaaaaammmmmmmkkkkkkkddddddddd",
"dddddddldldlllddddddaaaaaammmmmmaaaaaammmmmmmmaakkkkkddddddddddd",
"ddddddddlllldlldddddddddaaaammmmmmmmmmmmmmmmakkkkkkkkkkkkddddddd",
"dddddddddldlldddddddddddddddaaaaaammmmmaaaakkkkkkkkkkkkkdddddddd",
"ddddddddddlddddddddddddddddddddddddkkkkkkkkkkkkkkkdddddddddddddd",
"dddddddddldllddddddddddddddddddddddddddddddddddddddddddddddddddd"
};
