/* XPM */
static char * jack[] = {
"32 32 14 1",
" 	c None	s None",
"`	c black",
"a	c tan",
"b	c lime green",
"c	c wheat",
"d	c dodger blue",
"e	c gray50",
"f	c dark slate grey",
"g	c red",
"h	c navy blue",
"i	c white",
"j	c lemon chiffon",
"k	c sea green",
"l	c blue",
"    ``````````````````          ",
"    `jjjjjjjjjjjjjjjj``         ",
"    `jjjjjjjjjjjjjjjj`a`        ",
"    `jjjjjjjjjjjjjjjj`aa`       ",
"    `jjjjjjjjjjjjjjjj`aaa`      ",
"    `jjjjjjjjjjjjjjjj`aaaa`     ",
"    `jjjjjjjjjjjjjjjj`aaaaa`    ",
"    `jjjjjjjjjjjjjjjj```````e   ",
"    `jjjjjjjjjjjjjjjjjaaaaa`e   ",
"    `jjjjjjjjjjjjjjjjjjaaaa`e   ",
"    `jjjjjjjjjjjjjjjjjjjjjj`e   ",
"    `jjjjjjbbbbjjjjjjjjjjjj`e   ",
"    `jjjjbbbbbbbjjjjjjjjjjj`e   ",
"    `jjjbbbkbkkkfj``jjjjjjj`e   ",
"    `jjbkbkbkkccc`cc`jjjjjj`e   ",
"    `jjbkkkkkcchlccc`jjjjjj`e   ",
"    `jjkkjkkccccccc`jjjjjjj`e   ",
"    `jjkkjjkchcggccc`jjjjjj`e   ",
"    `jjjkkjfclcggcgc`jjjjjj`e   ",
"    `jjjjjjj`cccccgc``jjjjj`e   ",
"    `jjjjjj`ccccggcc`d`jjjj`e   ",
"    `jjjjjj`cc`cccc`dd``jjj`e   ",
"    `jjjjjjj``j````dd`g`jjj`e   ",
"    `jjjjjjjjjjjjj`d`ggd`jj`e   ",
"    `jjjjjjjjjjjjjj`gg`d`jj`e   ",
"    `jjjjjjjjjjjjjj`g`dd``j`e   ",
"    `jjjjjjjjjjjjjjj`dd`g`j`e   ",
"    `jjjjjjjjjjjjjjj`d`gg`j`e   ",
"    `jjjjjjjjjjjjjjjjjjjjjj`e   ",
"    `jjjjjjjjjjjjjjjjjjjjjj`e   ",
"    ````````````````````````e   ",
"     eeeeeeeeeeeeeeeeeeeeeeee   "};
