/* XPM */
static char * link_appl[] = {
"32 32 9 1",
",	c None	s None",
" 	c white",
".	c black",
"X	c lemon chiffon",
"o	c tan",
"O	c gray50",
"+	c tomato",
"@	c gainsboro",
"#	c wheat",
",,,,...................,,,,,,,,,",
",,,,.XXXXXXXXXXXXXXXXX..,,,,,,,,",
",,,,.XXXXXXXXXXXXXXXXX.o.,,,,,,,",
",,,,.XXXXXXXXXXXXXXXXX.oo.,,,,,,",
",,,,.XXXXXXXXXXXXXXXXX.ooo.,,,,,",
",,,,.XXXXXXXXXXXXXXXXX.oooo.,,,,",
",,,,.XXXXXXXXXXXXXXXXX......O,,,",
",,,,.XXXXXXXXXXXXXXXXXooooo.O,,,",
",,,,.XX..................oo.O,,,",
",,,,.XX.+..+++++++++++++.@X.O,,,",
",,,,.XX.+..+++++++++++++.@X.O,,,",
",,,,.XX..................@X.O,,,",
",,,,.XX.################.@X.O,,,",
",,,,.XX.################.@X.O,,,",
",,,,....####.......####.....O,,,",
",,,,.OOO.##.OOOOOOO.##.OOOO.O,,,",
",,,,...OO..OO.....OO..OO....O,,,",
",,,,.X........###........@X.O,,,",
",,,,..OOOOOOOO.#.OOOOOOOO.X.O,,,",
",,,,..OOOOOOOO.#.OOOOOOOO.X.O,,,",
",,,,.X........###........@X.O,,,",
",,,,...OO..OO.....OO..OO....O,,,",
",,,,.OOO.##.OOOOOOO.##.OOOO.O,,,",
",,,,....####.......####.....O,,,",
",,,,.XX.################.@X.O,,,",
",,,,.XX.################.@X.O,,,",
",,,,.XX..................@X.O,,,",
",,,,.XXX@@@@@@@@@@@@@@@@@@X.O,,,",
",,,,.XXXXXXXXXXXXXXXXXXXXXX.O,,,",
",,,,.XXXXXXXXXXXXXXXXXXXXXX.O,,,",
",,,,........................O,,,",
",,,,,OOOOOOOOOOOOOOOOOOOOOOOO,,,"};
