/* XPM */
static char * lisp[] = {
"32 32 5 1",
" 	c None	s None",
"X	c lemon chiffon",
".	c black",
"o	c tan",
"O	c gray50",
"    ...................         ",
"    .XXXXXXXXXXXXXXXXX..        ",
"    .X.XXX.XX..XX..XXX.o.       ",
"    .X.XXX.X.XX.X.X.XX.oo.      ",
"    .X.XXX.XX.XXX.X.XX.ooo.     ",
"    .X.XXX.XXX.XX..XXX.oooo.    ",
"    .X.XXX.X.XX.X.XXXX......O   ",
"    .X...X.XX..XX.XXXXXoooo.O   ",
"    .XXXXXXXXXXXXXXXXXXoooo.O   ",
"    .XXXXXXXXXXXXXXXXXXXXXX.O   ",
"    .X.....X.XXXXXXXXXXXXXX.O   ",
"    .XXXXXXXXXXXXXXXXXXXXXX.O   ",
"    .X......XXXXXXXXXXXXXXX.O   ",
"    .XXXXXXXXXXXXXXXXXXXXXX.O   ",
"    .XXX..X...X.XXXXXXXXXXX.O   ",
"    .XXXXXXXXXXXXXXXXXXXXXX.O   ",
"    .XXXX..X..X..XXXXXXXXXX.O   ",
"    .XXXXXXXXXXXXXXXXXXXXXX.O   ",
"    .XXX...X..XX..XXXXXXXXX.O   ",
"    .XXXXXXXXXXXXXXXXXXXXXX.O   ",
"    .XXXX....X..X.XXXXXXXXX.O   ",
"    .XXXXXXXXXXXXXXXXXXXXXX.O   ",
"    .XXXXX...X..XX.XXXXXXXX.O   ",
"    .XXXXXXXXXXXXXXXXXXXXXX.O   ",
"    .XXX....X...X..XXXXXXXX.O   ",
"    .XXXXXXXXXXXXXXXXXXXXXX.O   ",
"    .XX....XXXXXXXXXXXXXXXX.O   ",
"    .XXXXXXXXXXXXXXXXXXXXXX.O   ",
"    .X....X....XXXXXXXXXXXX.O   ",
"    .XXXXXXXXXXXXXXXXXXXXXX.O   ",
"    ........................O   ",
"     OOOOOOOOOOOOOOOOOOOOOOOO   "};
