/* XPM */
static char * icl8_18612_xpm[] = {
/* width height ncolors chars_per_pixel */
"32 32 6 1",
/* colors */
" 	s None	c None",
".	c black",
"X	c white",
"o	c #BBBBBB",
"O	c #777777",
"+	c #333333",
/* pixels */
"             ......             ",
"            .XXXXXX.            ",
"      ....................      ",
"     .XXXXXXXXooooooooOOOO.     ",
"      ....................      ",
"      .XXXXXXXoooooOOOOO+.      ",
"      .XXXXXXXoooOOOOOO++.      ",
"      .XXXXOXXoooooOO+OO+.      ",
"     .XXXXOXoXOooo+OOO++++.     ",
"     .XXXXoXXXOooO+OOO+O++.     ",
"    .XXXXoXXoOooooo+OOO++++.    ",
"    .XXXXoXXXOoooOO+OOO.+++.    ",
"   .XXXXXoXXoOooooO+OO+.++++.   ",
"   .XXXXoXXXXOoooOO+OOOO.+++.   ",
"   .XXXXoXXXOXooooOO+OO+.+++.   ",
"   .XXXXoXXoOooooOOO+OOO.+++.   ",
"   .XXXXoXXXOoooooOO.O++.+++.   ",
"   .XXXXoXXoOoooOOOO.OO+.+++.   ",
"   .XXXXoXXXOooooOOO.O++.+++.   ",
"   .XXXXOXXoOoooOOOO.OO+.+++.   ",
"   .XXXXOXoXOooooOOO.+O+.+++.   ",
"   .XXXXOXXoo+oOOOO.OO++.+++.   ",
"   .XXXXXOXoo+ooOOO.O++.++++.   ",
"    .XXXoOooo+OOOOO.OO+.+++.    ",
"    .XXoXOooo+oOOOO.+++.+++.    ",
"     .oXooOooo+OOO.OO+.+++.     ",
"     .Xooo+oOo+OOO.+++.+++.     ",
"     .oooo+ooO+OOO.O++.+++.     ",
"      .oooo+OOOOOOO++++++.      ",
"      .oooOoOOOOO++++++++.      ",
"      .ooOoOOOO+O++++++++.      ",
"       ..................       "};
