/* XPM */
static char * icl8_12941_xpm[] = {
/* width height ncolors chars_per_pixel */
"32 32 6 1",
/* colors */
" 	s None	c None",
".	c black",
"X	c white",
"o	c #BBBBBB",
"O	c #777777",
"+	c #333333",
/* pixels */
"             ......             ",
"            .      .            ",
"      ....................      ",
"     .XXXXXXXXXXooooooOOOO.     ",
"     .ooooOoOOO+O+++.+.....     ",
"      .XXXXoXoOOOO+++++++.      ",
"      .XXXXXXooooOO++++++.      ",
"      .XXXoXooOoOO+O++..+.      ",
"      .XXoXXXOOoo++O++.++.      ",
"      .XXoXXoOooo+++O+..+.      ",
"      .XXoXXXOOoo++O++.++.      ",
"      .XXoXXoOooo+++O+..+.      ",
"      .XXoXXXOOoo++O++.++.      ",
"      .XXoXXoOooo+++O+..+.      ",
"      .XXoXXXOOoo++OO+.++.      ",
"      .XXoXXoOooo+++O+..+.      ",
"      .XXoXXXOOoo++OO+.++.      ",
"      .XXoXXoOooo+++O+..+.      ",
"      .XXoXXXOOoo++OO+.++.      ",
"      .XXoXXoOooo+++O+..+.      ",
"      .XXoXXXOOoo++OO+.++.      ",
"      .XXoXXoOooo+++O+..+.      ",
"      .XXoXXXOOoo++OO+.++.      ",
"      .XXoXXoOooo+++O+..+.      ",
"      .XXoXXXOOoo++OO+.++.      ",
"      .XXoXXoOooo+++O+..+.      ",
"      .XXoXXXOOoo++OO+.++.      ",
"      .XXoXXoOooO+++++..+.      ",
"      .XXXoXXoOooO+OOO.++.      ",
"      .XXXXXXoooOoOOOOO++.      ",
"      .XXXXXooooooOOOOO++.      ",
"      ....................      "};
