/* XPM */
static char * color_new_xpm[] = {
/* width height ncolors chars_per_pixel */
"64 38 7 1",
/* colors */
" 	s None	c None",
".	c dark slate grey",
"X	c slate gray",
"o	c red",
"O	c yellow",
"+	c grey",
"@	c white",
/* pixels */
"            .......XXXXXXXXX.ooooooooooooXXXXX                  ",
"           .........OOOOOOOO.ooooooooooooOOOOOXX                ",
"          ...........OOOOOOO.ooooooooooooOOOOOOXX               ",
"         .............OOOOOO.ooooooooooooOOOOOOOOXX             ",
"         .XXX..........OO+++.ooooooooooooOOOOOOOOOX             ",
"        .XXXXX.........OO+++.ooooooooooo.OOOOOOOOOXX            ",
"        .XXXXXX.........OO++.ooooooooo..OOOOOOOOOOOX            ",
"       .XXXXXXX.........OO++.ooooooo..+++OOOOOOOOOOXX           ",
"       .XXXXXXXX.........O++.ooooo..+++++OOOOOOOOOOOX           ",
"       .XXXXXXXX.........O++.ooo..++++OOOOOOOOOOOOOOX           ",
"       .XXXXXXXX.........OO+.oo.++++OOOOOOOOOOOOOOOOX           ",
"       .XXXXXXXXX........OO+.oo+++OOOOOOOOOOOOOOOOOOX           ",
"       .XXXXXXXXX.........O+.oo+OOOOOOOOOOOOOOOOOOOOX           ",
"       .XXXXXXXX.......@@.O+.ooOOOOOOOOOOOOOOOOOOOOOX           ",
"       .XXXXXXX....@@@@@@.O+.ooOOOOOOOOOOOOOOOOOOOOOX           ",
"       .XXX....@@@@@@@@@@.O+.ooOOOOOOOOOOOOOOOOOOOOOX           ",
"       ....@@@@@@@@@@@@@@.O+.ooOOOOOOOOOOOOOOOOOOOOOX           ",
"   ....@@@@@@@@@@@@@@@@@@.O+.ooOOOOOOOOOOOOOOOOOOOOOX           ",
" ..@@@@@@@@@@@@@@@@@@@@@@.O+.ooOOOOOOOOOOOOOOOOOOOOOX           ",
"  .....@@@@@@@@@@@@@@@@@@.O+.ooOOOOOOOOOOOOOOOOOOOOOX           ",
"   .@@@.......@@@@@@@@@@@.O+.ooOOOOOOOOOOOOOOOOOOOOOX           ",
"    .@@@@@@@@@.......@@@@.+..oooOOOOOOOOOOOOOOOOOOOOX           ",
"     ..@@@@@@@@@@@@@@.....+.oooooOOOOOOOOOOOOOOOOOOOX           ",
"       .@@@@@@@@@@@@@@@@@.O.oooooOOOOOOOOOOOOOOOOOXXX           ",
"       ..@@@@@@@@@@@@@@@@.O.oooooOOOOOOOOOOOOOOOXXX             ",
"       ...@@@@@@@@@@@@@@@.O..ooooOOOOOOOOOOOOOXX                ",
"      .....@@@@@@@@@@@@@@.OO..ooOOOOOOOOOOOXXX                  ",
"     .OO....@@@@@@@@@@@@@.OOOOOOOOOOOOOOOXXX                    ",
"    ..OOOOOO.@@@@@@@@@@@@.OOOOOOOOOOOOXXX                       ",
"   ..OOOOOOOO.@@@@@@@@@@@.OOOOOOOOOXXX                          ",
"  .OOOOOOOOOOO..@@@@@@@@@.OOOOOOXXX.X                           ",
"...OOOOOOOOOOOOO.@@@@@@@..OOOXXX....X                           ",
".OOOOOOOOOOOOOOOO.@@@@..X.XXXX......X                           ",
"OOOOOOOOOOOOOOOOOO.@..OOO.X.........X                           ",
"OOOOOOOOOOOOOOOOOOO.OOOO.........XXXX                           ",
"OOOOOOOOOOOOOOOOOOOOOO........XXXXXXX                           ",
"OOOOOOOOOOOOOOOOOOOOO.. .....XXXXXXXX                           ",
"OOOOOOOOOOOOOOOOOOOO..  .....XXXXXXXX                           "};
