/* XPM */
static char * mail_xpm[] = {
"48 48 4 1 0 0",
" 	s None	c None",
".	c black",
"X	c white",
"o	c lightblue",
"                                                ",
"                                                ",
"                        .                       ",
"                       .X.                      ",
"                      .XXX.                     ",
"                     .XXXXX.                    ",
"                    .XXXXXXX.                   ",
"                   .XX.XXXXXX.    .             ",
"                  .XX.XX.XXXXX. ..X.            ",
"                 .XXXXXXXX.XXX..XXXX.           ",
"                .XX.XX.XX.XX..XXXXXX.           ",
"               .XX.XXXXX.X..XXXXXXXXX.          ",
"              .XX.XX.XXX..XXXXXXXXXXX.          ",
"             .XX.XX.XX..XXXXXXX..XXXXX.         ",
"            .XXXXX.X..XXXXXXXX.XXXXXXX.         ",
"           .XX.XXX..XXXXXXX.XXXXXXX.XXX.        ",
"          .XX.XX..XXXXXXXXXXXXXXX..XXXX.        ",
"         .XX.X..XXXXXXXX.XXXXXX..XXXXXXX.       ",
"        .XX...XXXXXXX.XXXXXXX..XXXXXX.XX.       ",
"       .XX..XXXXXXX.XXXXXXX..XXXXXX..XXXX.      ",
"  ..........................................    ",
"  .XXXXXXXXXXXXXXXXXXXXXXXXXXXXXXXXXXXXXXXX.    ",
"  .XXXXXXXXXXXXXXXXXXXXXXXXXXXXXXXXXXXXXXXX.    ",
"  .X..X..XXXXXXXXXXXXXXXXXXXXXXXXXXXXXXXXXX.    ",
"  .XXXXXXXXXXXXXXXXXXXXXXXXXXXXXXXXX.....XX..   ",
"  .X.X.X.XXXXXXXXXXXXXXXXXXXXXXXXXXX.ooo.XX..   ",
"  .XXXXXXXXXXXXXXXXXXXXXXXXXXXXXXXXX.o.o.XX..   ",
"  .X.....X.XXXXXXXXXXXXXXXXXXXXXXXXX.....XX..   ",
"  .XXXXXXXXXXXXXXXXXXXXXXXXXXXXXXXXX.....XX..   ",
"  .XXXXXXXXXXXXXXXXXXXXXXXXXXXXXXXXXXXXXXXX..   ",
"  .XXXXXXXXXXX.XX.XX.XXXX.XXX.XXXXXXXXXXXXX..   ",
"  .XXXXXXXXXXX.X.....XXX...X..X.XXXXXXXXXXX..   ",
"  .XXXXXXXXXXXXXXXXXXXXXXXXXXXXXXXXXXXXXXXX..   ",
"  .XXXXXXXXXXX.XX.XXX.XXX.X.XXXXXXXXXXXXXXX..   ",
"  .XXXXXXXXXXXX.X..XXX...X....X.XXXXXXXXXXX..   ",
"  .XXXXXXXXXXXXXXXXXXXXXXXXXXXXXXXXXXXXXXXX..   ",
"  .XXXXXXXXXXX.XXXX.XXXXXXXXX.XXXXXXXXXXXXX..   ",
"  .XXXXXXXXXXX...XXX...XXX.X.XX..XXXXXXXXXX..   ",
"  .XXXXXXXXXXXXXXXXXXXXXXXXXXXXXXXXXXXXXXXX..   ",
"  .XXXXXXXXXXXXXXXXXXXXXXXXXXXXXXXXXXXXXXXX..   ",
"  .XXXXXXXXXXXXXXXXXXXXXXXXXXXXXXXXXXXXXXXX..   ",
"  .XXXXXXXXXXXXXXXXXXXXXXXXXXXXXXXXXXXXXXXX..   ",
"  .XXXXXXXXXXXXXXXXXXXXXXXXXXXXXXXXXXXXXXXX..   ",
"  .XXXXXXXXXXXXXXXXXXXXXXXXXXXXXXXXXXXXXXXX..   ",
"  ...........................................   ",
"    .........................................   ",
"                                                ",
"                                                "};
