/* XPM */
static char * make_xpm[] = {
"32 32 5 1",
" 	c white",
".	s none c none",
"X	c black",
"o	c #BEFBBEFBBEFB",
"O	c #5D759E79A289",
".XXXXXXXXXXXXXXXXXXXXXXXXXXXXXX.",
".X                            XX",
".X         XXX                XX",
".X       XXX XXX              XX",
".X       XooXooX              XX",
".X      XXoXXXoXX             XX",
".X      XooXooooX             XX",
".X      XXooXooXX             XX",
".X       XoooooXXXX           XX",
".X       XXXoXXXXOX  X        XX",
".X         XXXOXOOOXXOX       XX",
".X         XOOOOOOOOOOXX      XX",
".X          XOOOXXXOOOX       XX",
".X          XOOXOX XOOX       XX",
".X        XXOOXOX   XOOXX     XX",
".X        XOOOXX    XOOOX     XX",
".X        XXXOXOX   XOXXX     XX",
".X          XOOXOX XOOX       XX",
".X          XOOOXXXOOOX       XX",
".X         XOOOOOOOOOOOX      XX",
".X         XXOXXOOXXXXX       XX",
".X       XXXoXXXOOX  X        XX",
".X       XooXooXXXX           XX",
".X      XXoXXXoXX             XX",
".X      XooXooooX             XX",
".X      XXooXooXX             XX",
".X       XoooooX              XX",
".X       XXXoXXX              XX",
".X         XXX                XX",
".X                            XX",
".XXXXXXXXXXXXXXXXXXXXXXXXXXXXXXX",
"..XXXXXXXXXXXXXXXXXXXXXXXXXXXXXX"};
