/* XPM */
static char * manpage2_xpm[] = {
"64 54 5 1 0 0",
" 	s None	c None",
".	c black",
"X	c green",
"o	c white",
"O	c magenta",
"                                                                ",
"                                                                ",
"          ... ....................................              ",
"         .XX...XXXXXXXXXXXXXXXXXXXXXXXXXXXXXXXXXX..             ",
"         .X.o.X.X.X.XXX.XXX.XXXXXXXXXXXXXXX.X.X.XX...           ",
"         .XX..XX.o.X.X.XXXXXXXXXXXXXXXXXXXXXXX.o.X....          ",
"         .XXX.X.o.XXXXXXXXXXXXXXXXXXXXXXX.XXXXX.XX..... .       ",
"         .XX..XX.XXX.XX.XX.XXXXXX..XX.XX.XXXXXXX.X..o.o.o.      ",
"         .X.o.X.XXXXX.X.X.X.XXXX.XX.X.XXXXXXXXX.XX.....o.       ",
"         .XX..XX.XXXXX.XX...XXXX.XX.X.XXXXXXXXXX.X....o.o.      ",
"         .XXX.X.XXXXX.XXX.XXXXXX.XX.X.XXXXXXXXXXXX.....o.       ",
"         .XX..XX.XXX.XXXXX..XXXXX..XX..XXXXXXXX.XX....o.o.      ",
"         .X.o.X.X.XXXXXXXXXXXXXXXXXXXXXXXXXX.X.XXX.o...o.       ",
"         .XX..XXXX.XXXXXXXXXXXXXXXXXXXXXXXXXXXXXXX.o..o.o.      ",
"         .XXX.XXXXXXXXXXXXXXXXXXXXXXXXXXXXXXXXXXXX.....o.       ",
"         .XX..XOOOXXOOOXXOOOOOOOXXXOOOXXOOOXXOOOXX....o.o.      ",
"         .X.o.XOOOXXOOOXXOOOOOOOOXXOOOXXOOOXXOOOXX.o...o.       ",
"         .XX..XOOOXXOOOXXOOOOOOOOXXOOOXXOOOOOOOOXX.o..o.o.      ",
"         .XXX.XOOOXXOOOXXOOOXXOOOXXOOOXXXXOOOOXXXX.o...o.       ",
"         .XX..XOOOXXOOOXXOOOXXOOOXXOOOXXXXXOOXXXXX....o.o.      ",
"         .X.o.XOOOXXOOOXXOOOXXOOOXXOOOXXXXOOOOXXXX.....o.       ",
"         .XX..XOOOOOOOOXXOOOXXOOOXXOOOXXOOOOOOOOXX....o.o.      ",
"         .XXX.XOOOOOOOOXXOOOXXOOOXXOOOXXOOOXXOOOXX.....o.       ",
"         .XX..XXOOOOOOXXXOOOXXOOOXXOOOXXOOOXXOOOXX....o.o.      ",
"         .X.o.XXXXXXXXXXXXXXXXXXXXXXXXXXXXXXXXXXXX.o...o.       ",
"         .XX..X.XXXXXXXXXXXXXXXXXXXXXXXXXXXXXXXXXX.o..o.o.      ",
"         .XXX.XX.X.XXXX..X...XXX.XX.XX.XXXXXXXXX.X..o..o.       ",
"         .XX..X.o.o.XX.XXX.XX.X.X.X.XX.XXXXXX.X.XX..o.o.o.      ",
"         .X.o.XX.o.XXXX.XX...XX...X.XX.XXXXXXX.o.X..o..o.       ",
"         .XX..X.o.XXXXXX.X.XXXX.XXX.XX.XXXXXXXX.XX.o..o.o.      ",
"         .XXX.XX.XXXXX..XX.XXXXX..X..X..XXXXXXXX.X.....o.       ",
"         .XX..X.XXXXXXXXXXXXXXXXXXXXXXXXXXXX.XXXXX..o.o.o.      ",
"         .X.o.XX.XX.XXXXX..XXX..XX.XXXXX.XX.XXXX.X.o...o.       ",
"         .XX..X.XXX.XXXX.XX.X.XX.X.XXXX.X.XXXXXXXX....o.o.      ",
"         .XXX.XXXXX...XX.XX.X.XX.X.X.XX...XXXXXX.X.....o.       ",
"         .XX..X.XXX.XX.X.XX.X.XX.X..XXX.XXXXXXX.XX....o.o.      ",
"         .X.o.XX.XX...XXX..XXX..XX.X.XXX..XXXXXX.X.....o.       ",
"         .XX..X.o.XXXXXXXXXXXXXXXXXXXXXXXXXXXXXXXX.o..o.o.      ",
"         .XXX.XX.XXXXXXXXXXXXXXXXXXXXXXXXXXXXX.X.X..o..o.       ",
"         .XX..X.o.XXXXXXXXXXXXX.XXXXXXXXXXXXXXX.XX.o..o.o.      ",
"         .X.o.XX.o.X.X.XXXXX.XXXXXXXXX.X.XXXXXXX.X.o...o.       ",
"         .XX..X.o.o.o.o.X.XXX.X.XXXXXXXXXXXXXXX.XX.o..o.o.      ",
"         .XXX.XX.o.o.o.o.o.X.o.o.X.X.XXXXXXX.X.o.X.o...o.       ",
"         .XX..X.o.o.o.o.o.o.o.o.o.o.XXXXXXXXX.o.XX....o.o.      ",
"         .X.o.XX.o.o.o.o.o.X.o.X.X.o.X.X.XXX.X.XXX.....o.       ",
"         .XX..X.X.X.X.X.X.XXX.XXXXX.XXX.XXXXXXXXXX..o.o.o.      ",
"         .XXX..XXXXXXXXXXXXXXXXXXXXXXXXXXXXXXXXXX...o..o.       ",
"          ...o....................................o.o.o.o.      ",
"         .ooo..o......ooo....ooo..o...........oo.o.....o.       ",
"         .ooo.o.o.o.........o.o.....o.............o...o.o.      ",
"          ...........................................o.o.       ",
"             .o.o.o.o.o.o.o.o.o.o.o.o.o.o.o.o.o.o.o.o.o.o.      ",
"              .o.o.o.o.o.o.o.o.o.o.o.o.o.o.o.o.o.o.o.o.o.       ",
"               .o.o.o.o.o.o.o.o.o.o.o.o.o.o.o.o.o.o.o.o.o.      "};
