/* XPM */
static char * manpage[] = {
"32 32 6 1",
",	c None	s None",
" 	c white",
".	c black",
"X	c lemon chiffon",
"o	c tan",
"O	c gray50",
",,,,...................,,,,,,,,,",
",,,,.XXXXXXXXXXXXXXXXX..,,,,,,,,",
",,,,.XXXXXXXXXXXXXXXXX.o.,,,,,,,",
",,,,.X...XXXXXX...XXXX.oo.,,,,,,",
",,,,.XXXXXXXXXXXXXXXXX.ooo.,,,,,",
",,,,.XX.....XXXXXXXXXX.oooo.,,,,",
",,,,.XXXXXXXXXXXXXXXXX......O,,,",
",,,,.XXXX..X...X.....XXoooo.O,,,",
",,,,.XXXXXXXXXXXXXXXXXXXooo.O,,,",
",,,,.XX....XXXXXXXXXXXXXXXX.O,,,",
",,,,.XXXXXXXXXXXXXXXXXXXXXX.O,,,",
",,,,.XXXX...X.X...X..X...XX.O,,,",
",,,,.XXXX.X..X..X..X.X...XX.O,,,",
",,,,.XXXX.....X.X..X..X.XXX.O,,,",
",,,,.XXXX..X..X..X.X..X..XX.O,,,",
",,,,.XXXX.....X.X..X..X..XX.O,,,",
",,,,.XXXXXXXXXXXXXXXXXXXXXX.O,,,",
",,,,.XX.....XXXXXXXXXXXXXXX.O,,,",
",,,,.XXXXXXXXXXXXXXXXXXXXXX.O,,,",
",,,,.XXXX..X...X...X...X.XX.O,,,",
",,,,.XXXX.X..X...X.......XX.O,,,",
",,,,.XXXX...X..X...X..X..XX.O,,,",
",,,,.XXXX..X...X.........XX.O,,,",
",,,,.XXXX..X..X...X..X..XXX.O,,,",
",,,,.XXXX...X....X...X...XX.O,,,",
",,,,.XXXX.X...X..X...X...XX.O,,,",
",,,,.XXXX...X...X..X..X.XXX.O,,,",
",,,,.XXXX..X.....X..X....XX.O,,,",
",,,,.XXXXXXXXXXXXXXXXXXXXXX.O,,,",
",,,,.XXXXXXXXXXXXXXXXXXXXXX.O,,,",
",,,,........................O,,,",
",,,,,OOOOOOOOOOOOOOOOOOOOOOOO,,,"};
