/* XPM */
static char * image_name[] = {
"56 46 21 1",
" 	c #FFFFFFFFFFFF",
".	c #BEFBBAEABEFB",
"X	c #BEFBC30BBEFB",
"o	c #000000001040",
"O	c #AEBAAAAAAEBA",
"+	c #AEBAAEBAAEBA",
"@	c #9E799A699E79",
"#	c #C71BBAEAC71B",
"$	c #000000000000",
"%	c #79E786179E79",
"&	c #CF3CC71BCF3C",
"*	c #A699A289A699",
"=	c #8E388A288E38",
"-	c #FFFFFFFF0000",
";	c #082004100820",
":	c #AEBAAEBAB6DA",
">	c #AEBAA699AEBA",
",	c #B6DAAEBAB6DA",
"<	c #BEFB20812081",
"1	c #96589658AEBA",
"2	c #A6999E79A699",
"                                                       .",
" .X.X.X.X.X.X.X.X.X.X.X.X.X.X.X.X.X.X.X.X.X.X.X.X.X.X.Xo",
" X.X.X.X.X.X.X.X.X.X.X.X.X.X.X.X.X.X.X.X.X.X.X.X.X.X.X.o",
" X..X...X...X...X...X...X...X...X...X...X...X...X...X..o",
" O.+.@X.OOXO.@X.OOXO.@X.OOXO.@X.OOXO.@X.OOXO.@X.OOXO.+Xo",
" .X.X.X.X..X.X.X.X..X.X.X..X.X.X.X..X.X.X..X.X.X.X..X..o",
" +.O.O.+.+.O.O.O.OXO.O.+.+.O.O.O.OXO.O.+.+.O.O.O.OXO.+.o",
" .X.X.OX.X.X.XOX.X..X.+..X.X.XOX.X..X.+..X.X.XOX.X..X.+o",
" +.@XO.O.@.+.O.@.+.+.+.@XO.O.O.@.+.+.+.@XO.O.O.@.O.@.+.o",
" .X.O.X.+.X.+.X.OX.X@.X.OX.X@.X.OX.X@.X.OX.X@X.XOX.X+.Xo",
" +.+.+.@XO.+#+.+.O.O.+#+.O.+.+.+.O.O.+#+.O.O.O.O.OXO.O.o",
" .+.X#+.O.OX+.+.OX$$$$$$$$$$$$$$$$$$$X+.+.OX.XOX+.O..XOo",
" +.+.+XO.+.O.+.+.$.+.+.+.+.+.+.+.+.+.$.+.@XO.O.@.+.+OO.o",
" .OX@.O.+#+.+.OXO$O$$$$$$$$$$$$$$$$$O$+.+.O.@.+.+.+#+.+o",
" +.O.+.+X@XO.+#+.$X$.X.X..X..X..X..$.$%O&O.+XO.+#+XO.+.o",
" OOXOO+.OOO.OO+.O$Oo.X..X.X.X.X.X.X$+$%%*O+.OO+.+OO.+OOo",
" O.O.+#@XO.+X@.+.$.$X. X. .X .X..+.o.$%%&O.O.+#+.+.+.OXo",
" O+OOO+OOOOOOOOO+$+o.X..X.X..X..X.X$Oo=%*OOO+OO+@OOOOOOo",
" O.+.O.O.O.O.+.O$$$$$o$$o$$o$.X .O.$.$%%#+.+.OXO.+.+.O.o",
" +OOO+O+O+O+OOO$O-O-O-O-O-O-.oX.X.X$O;%%O+OOOOOOOOOOOO+o",
" OOO.OOO.OOO.+$O-O$$$O-O$$$O-O$.X..$.$%%#+OO.OOO.+OO.+Oo",
" OOO+OOO+OOOO$O-O-$-$$$$$-$-O-.oX.X$Oo%%OOOO+OOOOOOOOOOo",
" +OOOOOOOOOOO$-O-$-O-O-O-O-$-O-$. .$O$%%:OOOOOOOOOOOOOOo",
" OOOOOOOOOOOO$$$$-O$O$O$O$O-$$$$X.X$O;%%OOOOOOOOOOOOOOOo",
" @OOO@OOO@OOO@OO$@$O$@$O$@$O-$..X..$O$%=:@OOO@OOO@OOO@Oo",
" OOOOOOOOOOOOOO$O-O$O$O$O$O-O-$$$o$$Oo%%>OOOOOOOOOOOOOOo",
" +O@O@O@OOO@O@O$-O$@$@$@$O$@-@$OO.+OO$%%:>O@O@O@OOO@O@Oo",
" OOOOOOOOOOOOO$-O-O-O-O-O-O-O-O$$$$$;%%%OOOOOOOOOOOOOOOo",
" @O@O@O@O@O@O$$@-@-@-@-@-@-@-@-$$$$$$;;;;@O@O@O@O@O@O@Oo",
" OOOOOOOOOOO$O$-O-O-O-O-O-O-O-O$OOOOOOOOO$OOOOOOOOOOOOOo",
" @O@O@O@O@O@$@$@-@-@-@-@-@-@-@-$O@O@O@O@O$%@O@O@O@O@O@Oo",
" O@OOO@OOO@O$O$$$$$$$$$$$$$$$$$$$$$$$$@OO;%%OO@OOO@OOO@o",
" @O@O@O@O@O@$@O$$$O@O@O@O@O@$$$@O@O@O@O@O$%%,@O@O@O@O@Oo",
" O@O@O@O@O@O$O$$$$$$$$$$$$$$$$$O$$$$$$@O@;%%@O@O@O@O@O@o",
" @O@O@O@O@O@$@$..X..X..X..X..X.$O@O@O@O@O$%%>@O@O@O@O@Oo",
" @@O@@@O@@@O$@oX<<.<<X<<.X..X..$@@@O@@@O@o%%@@@O@@@O@@@o",
" @+@O@O@O@O@O$$..X.X. .X. X. X.o$$$$$$$$$%%=:@O@O@O@O@Oo",
" @@@@@@@@@@@@@@$oooo$$$o$$$$$$$%%%%%%%%%%%%%@@@@@@@@@@@o",
" @O@O@O@O@O@O@O%%@%%%%%%%%%%%%%%%=%%%%=%%%,1>@O@O@O@O@Oo",
" @@@@@@@@@@@@@@@@@@@O@@2O@@@@2O@2112@21122@@@@@@@@@@@@@o",
" @@@O@@@O@@@O@@@O@@@O@@@O@@@O@@@>@@@>@@@>@@@O@@@O@@@O@@o",
" @@@@@@@@@@@@@@@@@@@@@@@@@@@@@@@@@@@@@@@@@@@@@@@@@@@@@@o",
" @O@@@@@@@O@@@@@@@O@@@@@@@O@@@@@@@O@@@@@@@>@@@@@@@O@@@@o",
" @@@@@@@@@@@@@@@@@@@@@@@@@@@@@@@@@@@@@@@@@@@@@@@@@@@@@@o",
" @@@@@@@@@@@@@@@@@@@@@@@@@@@@@@@@@@@@@@@@@@@@@@@@@@@@@@o",
"Xooooooooooooooooooooooooooooooooooooooooooooooooooooooo"};
