/* XPM */
static char * objects[] = {
"32 32 13 1",
" 	c None	s None",
"`	c black",
"a	c tan",
"b	c cyan",
"c	c green",
"d	c gray50",
"e	c red",
"f	c white",
"g	c slate grey",
"h	c lemon chiffon",
"i	c orange",
"j	c sea green",
"k	c blue",
" ```````````````````            ",
" `hhhhhhhhhhhhhhhhh``ggg g      ",
" `hhhhhhhhhhhhhhhhh`a`          ",
" `hhhhhhhhhhhhhhhhh`aa`         ",
" `hhhhhhhhhhhhhhhhh`aaa`g g g   ",
" `hhhhkkkkkkkkkhhhh`aaaa`       ",
" `hhhhkbbbbbbbkhhhh`aaaaa`      ",
" `hhhhkbbbbbbbkhhhh```````ggg g ",
" `hhhhkbbbbbbbkhhhhhaaaaa`d     ",
" `hhhhkbbbbbbbkhhhhhhaaaa`d     ",
" `hhhhkbbbbbbbkhhhhhhhhhh`gg g  ",
" `hhhhkbbbbbbbeeeeehhhhhh`d     ",
" `hhhhkbbbbbbeiiiiiehhhhh`d     ",
" `hhhhkkkkkkeiiiiiiiehhhh`ggg g ",
" `hhhhhhhhheiiiiiiiiiehhh`d     ",
" `hhhhhhhhheiiiiiiiiiehhh`d     ",
" `hhhhhhhhheiiiiiiiiiehhh`ggg g ",
" `hhhhhhhhheiiiiiiiiiehhh`d     ",
" `hhhhhhhhhheiiiiiiiehhhh`d     ",
" `hhhhhhhhhhheiiiiiehhhhh`gg    ",
" `hhhhhhhhhhhheeeeehhhhhh`d     ",
" `hhhhhhhhhhhhhhhhhhhhhhh`d     ",
" `hhhhhhhhjhhhhhhhhhhhhhh`ggg g ",
" `hhhhhhhjcjhhhhhhhhhhhhh`d     ",
" `hhhhhhjcccjhhhhhhhhhhhh`d     ",
" `hhhhhjcccccjhhhhhhhhhhh`gg g  ",
" `hhhhjcccccccjhhhhhhhhhh`d     ",
" `hhhjjjjjjjjjjjhhhhhhhhh`d     ",
" `hhhhhhhhhhhhhhhhhhhhhhh`ggg g ",
" `hhhhhhhhhhhhhhhhhhhhhhh`d     ",
" `````````````````````````d     ",
"  ddddddddddddddddddddddddg g g "};
