/* XPM */
static char * paint[] = {
"32 32 5 1",
" 	c None s None",
".	c black",
"X	c lemon chiffon",
"o	c tan",
"O	c gray50",
"    ..................          ",
"    .XXXXXXXXXXXXXXXX..         ",
"    .XX...X.XXXXXXXXX.o.        ",
"    .XX...X.XXXXXXXXX.oo.       ",
"    .XX...X.XXXXXXXXX.ooo.      ",
"    .XX...X.XXXXXXXXX.oooo.     ",
"    .XX...X.XXXXXXXXX.ooooo.    ",
"    .XX...X.XXXXXXXXX.......O   ",
"    .XX...X.XXXXXXXXXXooooo.O   ",
"    .XX...X.XXXXXXXXXXooooo.O   ",
"    .XX...X.XXXXXXXXXXXXXXX.O   ",
"    .XX...X.XXXXXXXXXXXXXXX.O   ",
"    .XX.....XXXXXXXXXXXXXXX.O   ",
"    .XX.XXX.XXXXXXXXXXXXXXX.O   ",
"    .XX.XXX.XXXXXXXXXXXXXXX.O   ",
"    .XX.XXX.XXXXXXXXXXXXXXX.O   ",
"    .XX.XXX.XXXXXXXXXXXXXXX.O   ",
"    .XX.XXX.XXXXXXXXXXXXXXX.O   ",
"    .XXX...XXXXXXXXXXXXXXXX.O   ",
"    .XX.....XXXXXXXXXXXXXXX.O   ",
"    .XX.....XXXXXXXXXXXXXXX.O   ",
"    .XX......XXXXXXXXXXXXXX.O   ",
"    .XX......XXXXXXXXXXXXXX.O   ",
"    .XX....X.XXXX.X.......X.O   ",
"    .XX......XXXXXXX.X....X.O   ",
"    .XXX..X.XXXXXX........X.O   ",
"    .XXX....XXXX..........X.O   ",
"    .XXXX...XXXXXX........X.O   ",
"    .XXXXXX..XX...........X.O   ",
"    .XXXXXXXXXXXXXXXXXXXXXX.O   ",
"    ........................O   ",
"     OOOOOOOOOOOOOOOOOOOOOOOO   "};
