/* XPM */
static char * pallete[] = {
"32 32 15 1",
",	c None	s None",
" 	c white",
".	c black",
"X	c lemon chiffon",
"o	c tan",
"O	c red",
"+	c gray50",
"@	c wheat",
"#	c gold",
"$	c slate grey",
"%	c dark slate grey",
"&	c blue",
"*	c tomato",
"=	c green",
"-	c magenta",
",,,....................,,,,,,,,,",
",,,.XXXXXXXXXXXXXXXXXX..,,,,,,,,",
",,,.XXXXXXXXXXXXXXXXXX.o.,,,,,,,",
",,,.XXXXXXXXXXXXXXXXXX.oo.,,,,,,",
",,,.XXXXXXXXXXXXXXXXXX.ooo.,,,,,",
",,,.XXOOXXXXXXXXXXXXXX.oooo.,,,,",
",,,.XXOOOXXXXXXXXXXXXX......+,,,",
",,,.XXO.OXXXXXXXXXXXXXXoooo.+,,,",
",,,.XXO..XXXXXX.......XXooo.+,,,",
",,,.XXX.@XXXX..#######.XXXX.+,,,",
",,,.XX++.XXX.###O######.XXX.+,,,",
",,,.XX+$.XX.###OOO#####.XXX.+,,,",
",,,.XX$%.XX.#&##O#####.XXXX.+,,,",
",,,.XX+$.X.#&&&###..#.XXXXX.+,,,",
",,,.XX+$.X.##&###...#.XXXXX.+,,,",
",,,.XX+$.X.######..###..XXX.+,,,",
",,,.XX+$.X.##*######=###.XX.+,,,",
",,,.XX+$.X.#***####===##.XX.+,,,",
",,,.XX+$.XX.**###-##=##.XXX.+,,,",
",,,.XX+$.XX.####---###.XXXX.+,,,",
",,,.XX+$.XXX.####-###.XXXXX.+,,,",
",,,.XX$.$XXXX..####..XXXXXX.+,,,",
",,,.XXXXXXXXXXX....XXXXXXXX.+,,,",
",,,.XXXXXXXXXXXXXXXXXXXXXXX.+,,,",
",,,.X.....................X.+,,,",
",,,.X.#.#.#.#.#.#.#.#.#.#.X.+,,,",
",,,.X.###.###.###.###.###.X.+,,,",
",,,.X.###################.X.+,,,",
",,,.X.....................X.+,,,",
",,,.XXXXXXXXXXXXXXXXXXXXXXX.+,,,",
",,,.........................+,,,",
",,,,+++++++++++++++++++++++++,,,"};
