/* XPM */
static char * paragraphs[] = {
"32 32 6 1",
",	c None	s None",
" 	c white",
".	c black",
"X	c lemon chiffon",
"o	c tan",
"O	c gray50",
",,,,...................,,,,,,,,,",
",,,,.XXXXXXXXXXXXXXXXX..,,,,,,,,",
",,,,.XXXXXXXXXXXXXXXXX.o.,,,,,,,",
",,,,.XXXXXXXXXXXXXXXXX.oo.,,,,,,",
",,,,.XXXXXXXXXXXXXXXXX.ooo.,,,,,",
",,,,.XXXXX...X....X..X.oooo.,,,,",
",,,,.XXXXXXXXXXXXXXXXX.ooooo.,,,",
",,,,.XXX...X...X.....X.......O,,",
",,,,.XXXXXXXXXXXXXXXXXXooooo.O,,",
",,,,.XXX.....X......X....ooo.O,,",
",,,,.XXXXXXXXXXXXXXXXXXXXXXX.O,,",
",,,,.XXX...X...X...X....XXXX.O,,",
",,,,.XXXXXXXXXXXXXXXXXXXXXXX.O,,",
",,,,.XXXXXXXXXXXXXXXXXXXXXXX.O,,",
",,,,.XXXXX....X....X.....XXX.O,,",
",,,,.XXXXXXXXXXXXXXXXXXXXXXX.O,,",
",,,,.XXX....X....X....X..XXX.O,,",
",,,,.XXXXXXXXXXXXXXXXXXXXXXX.O,,",
",,,,.XXX..X....X....X....XXX.O,,",
",,,,.XXXXXXXXXXXXXXXXXXXXXXX.O,,",
",,,,.XXX....X.....X....XXXXX.O,,",
",,,,.XXXXXXXXXXXXXXXXXXXXXXX.O,,",
",,,,.XXXXXXXXXXXXXXXXXXXXXXX.O,,",
",,,,.XXXXX....X...X..X...XXX.O,,",
",,,,.XXXXXXXXXXXXXXXXXXXXXXX.O,,",
",,,,.XXX....X...X...X....XXX.O,,",
",,,,.XXXXXXXXXXXXXXXXXXXXXXX.O,,",
",,,,.XXX...X.....X....X..XXX.O,,",
",,,,.XXXXXXXXXXXXXXXXXXXXXXX.O,,",
",,,,.XXXXXXXXXXXXXXXXXXXXXXX.O,,",
",,,,.........................O,,",
",,,,,OOOOOOOOOOOOOOOOOOOOOOOOO,,"};
