/* XPM */
static char * image[] = {
"32 32 17 1",
"  c none",
"a c black",
"b c navy",
"c c green4",
"d c turquoise4",
"e c red4",
"f c magenta4",
"g c gold4",
"h c SlateGrey",
"i c grey75",
"j c blue",
"k c green",
"l c cyan",
"m c white",
"n c magenta",
"o c yellow",
"p c white",
"aaaaaaaaaaaaaaaaaaaaaaaaaaaaaaaa",
"ajjjjjkkppppkkppppkkpppkkppppkka",
"akkkkkkkkkkkkkkkkkkkkkkkkkkkkkka",
"appppppppppppppppppppppppppppppa",
"apmmmmmmmmmmmmmmpmmmmmmmmmmmmmpa",
"apmmpppppmmmmmmmpmpppmppppmpmmpa",
"apmmmimmmmmmmmmmpmmmmmmmmmmmmmpa",
"apmmmiiiimmmmmmmpmmmmmmmmmmmmmpa",
"apmmmimimmmmmmmmpmiimmiimmiimmpa",
"apmmmimiiiimmmmmpmmmmmmmmmmmmmpa",
"apmmmimmmmmmmmmmpmiimmiimmiimmpa",
"apmmmijjjmmmmmmmpmmmmmmmmmmmmmpa",
"apmmmimmmmmmmmmmpmiimmjjmmiimmpa",
"apmmmiiiimmmmmmmpmmmmmmmmmmmmmpa",
"apmmmimimmmmmmmmpmiimmiimmiimmpa",
"apmmmimiiiimmmmmpmmmmmmmmmmmmmpa",
"apmmmimmmmmmmmmmpmiimmiimmiimmpa",
"apmmmiiiimmmmmmmpmmmmmmmmmmmmmpa",
"apmmmimmmmmmmmmmpmiimmiimmiimmpa",
"apmmmiiiimmmmmmmpmmmmmmmmmmmmmpa",
"apmmmimimmmmmmmmpmiimmiimmiimmpa",
"apmmmimiiiimmmmmpmmmmmmmmmmmmmpa",
"apmmmimmimmmmmmmpmiimmiimmiimmpa",
"apmmmimmiiiimmmmpmmmmmmmmmmmmmpa",
"apmmmimmmmmmmmmmpmiimmiimmmmmmpa",
"apmmmimmmmmmmmmmpmmmmmmmmmmmmmpa",
"appppppppppppppppppppppppppppppa",
"ammmmmmmmkmmmmmmmmmmmmmmmmmmmmma",
"akllppkllpppllpppllpppllpppllppa",
"akllkkkllkkkllkkkllkkkllkkkllkka",
"akappkkapkkkakkkkappkkappkkappka",
"aaaaaaaaaaaaaaaaaaaaaaaaaaaaaaaa"};
