/* XPM */
static char * pixmap_xpm [] = {
/* width height ncolors cpp [x_hot y_hot] */
"64 56 13 1 0 0",
/* colors */
" 	s none c none",
".	s bottomShadowColor	m black	c black",
"X	s iconColor2	m white	c white",
"o	s iconColor1	m black	c black",
"O	s topShadowColor	m white	c white",
"+	s iconGray7	m black	c black",
"@	s iconGray4	m white	c lightgray",
"#	s iconColor5	m black	c skyblue",
"$	s iconColor6	m white	c yellow",
"%	s iconColor3	m black	c #c06077",
"&	s iconColor4	m black	c #5f9ea0",
"*	s iconGray3	m white	c white",
"=	s iconGray5	m black	c gray",
/* pixels */
"                                                                ",
"                                                                ",
"                        ........                                ",
"                       .XXXXXXXXoO                              ",
"                      .XooooooooXoO                             ",
"                     .XoOOOOOOOOoXoO                            ",
"                    .XoO         oXoO                           ",
"                   .XoO           oXoO                          ",
"                   .XoO  .....    oXoO                          ",
"                   .XoO..XXXXOOO  oXoO                          ",
"                   .Xo.XXXXXXXXXO oXoO                          ",
"                   .XoXX+..++++XXOoXoO                          ",
"                   .XoX+..+++..+XXOXoO                          ",
"                  .XXoX..+++..+++XX@oO                          ",
"                 .XXXo+.+++..+++++XXoO                          ",
"                .XX+XoXo++..+++++.+XoO                          ",
"               .XX.XXoXo+...++++..+XXoO                         ",
"              .XXX+XXoXo###$$%%%&&&@XoO                         ",
"             .XXXO..XXoo+##$$%%%%&&&XoO                         ",
"            .XXXOOO+ooo+o###$$$%%%%&@@oO                        ",
"           .XXXOOOO**oo+o###$$$%%%%&&@oO                        ",
"          .XXXOOOO**@@@==oo##$$$%%%&&&oO                        ",
"         .XXXOOOO**@@@===.+o#$$$$%%%&&oO                        ",
"        .OXXOOOO**@@@===...+o#$$$%%%&&oO                        ",
"        .OXOOOO**@@@===...++o##$$%%%&&oO                        ",
"        .OOOOO**@@@===...+++=o##$$%%&&oO                        ",
"        .OOOO**@@@===...+++==*o#$$%%&&oO                        ",
"        .OOO**@@@===...+++==*Oo#$$$%&&&oO                       ",
"        .@O**@@@===...+++==*OOo##$$%%&&oO                       ",
"        .+=*@@@===...+++==*OOoO##$$%%&&oO                       ",
"         ++=@@===...+++==*OOoO.##$$%%&&oO                       ",
"         Ooo====...+++==*OOoO .##$$%%%&oO                       ",
"          Ooo==...+++==*OOoO  .##$$$%%&oO                       ",
"           Ooo...+++==*OOoO   .##$$$%%&oO                       ",
"            Ooo=.++=**OOoO    .##$$$%%&oO                       ",
"             Ooo++==OO=oO     .##$$$%%&&oO                      ",
"              OOoooooooO      .##$$$%%&&&oO                     ",
"                OOOOOOO      .###$$$%%%&&&o                     ",
"                            .####$$$%%%&&&ooo                   ",
"                            .####$$$%%%%&&&&&ooo                ",
"                            .###$$$$%%%%&&&&&oooO               ",
"                        ooo.####$$$%%%%%&&&&&&&&oooXXXooo       ",
"                        ooo#####$$%%oo%%%%ooo&&&oooXXXoooO      ",
"                        oo####$$$%%%ooo%%%ooo&&&&&&XXXoooO      ",
"                        X##oooXXXoooXXXooo%XXooo&&&oooXXXooo    ",
"                        X##oooXXXoooXXXooo%XXoooXXXoooXXXoooO   ",
"                        XXXoooXXXoooXXXoooXXXoooXXXoooXXXoooO   ",
"                  ooo   oooXXXoooXXXoooXXXoooXXXoooXXXoooOOOO   ",
"                  oooO  oooXXXoooXXXoooXXXoooXXXoooXXXoooO      ",
"                  oooO  oooXXXoooXXXoooXXXoooXXXoooXXXoooO      ",
"                   OOO   OOOOOOOOoooXXXoooXXXoooXXXOOOOOOO      ",
"                                 oooXXXoooXXXoooXXXO            ",
"                                 oooXXXoooXXXoooXXXO            ",
"                                  OOOOOOOOOOOOOOOOOO            ",
"                                                                ",
"                                                                "};
