/* XPM */
static char * plain[] = {
"32 32 5 1",
",	c None	s None",
" 	c white",
".	c black",
"X	c gray50",
"o	c slate grey",
",,,,..................,,,,,,,,,,",
",,,,.XXXXXXXXXXXXXXXX..,,,,,,,,,",
",,,,.XXXXXXXXXXXXXXXX.o.,,,,,,,,",
",,,,.XXXXXXXXXXXXXXXX.oo.,,,,,,,",
",,,,.XXXXXXXXXXXXXXXX.ooo.,,,,,,",
",,,,.XXXXXXXXXXXXXXXX.oooo.,,,,,",
",,,,.XXXXXXXXXXXXXXXX.ooooo.,,,,",
",,,,.XXXXXXXXXXXXXXXX.......X,,,",
",,,,.XXXXXXXXXXXXXXXXXooooo.X,,,",
",,,,.XXXXXXXXXXXXXXXXXXoooo.X,,,",
",,,,.XXXXXXXXXXXXXXXXXXXXXX.X,,,",
",,,,.XXXXXXXXXXXXXXXXXXXXXX.X,,,",
",,,,.XXXXXXXXXXXXXXXXXXXXXX.X,,,",
",,,,.XXXXXXXXXXXXXXXXXXXXXX.X,,,",
",,,,.XXXXXXXXXXXXXXXXXXXXXX.X,,,",
",,,,.XXXXXXXXXXXXXXXXXXXXXX.X,,,",
",,,,.XXXXXXXXXXXXXXXXXXXXXX.X,,,",
",,,,.XXXXXXXXXXXXXXXXXXXXXX.X,,,",
",,,,.XXXXXXXXXXXXXXXXXXXXXX.X,,,",
",,,,.XXXXXXXXXXXXXXXXXXXXXX.X,,,",
",,,,.XXXXXXXXXXXXXXXXXXXXXX.X,,,",
",,,,.XXXXXXXXXXXXXXXXXXXXXX.X,,,",
",,,,.XXXXXXXXXXXXXXXXXXXXXX.X,,,",
",,,,.XXXXXXXXXXXXXXXXXXXXXX.X,,,",
",,,,.XXXXXXXXXXXXXXXXXXXXXX.X,,,",
",,,,.XXXXXXXXXXXXXXXXXXXXXX.X,,,",
",,,,.XXXXXXXXXXXXXXXXXXXXXX.X,,,",
",,,,.XXXXXXXXXXXXXXXXXXXXXX.X,,,",
",,,,.XXXXXXXXXXXXXXXXXXXXXX.X,,,",
",,,,.XXXXXXXXXXXXXXXXXXXXXX.X,,,",
",,,,........................X,,,",
",,,,,XXXXXXXXXXXXXXXXXXXXXXXX,,,"};
