/* XPM */
static char * radioactive[] = {
"32 32 5 1",
" 	c None s None",
".	c black",
"X	c lemon chiffon",
"o	c tan",
"O	c gray50",
"    ..................          ",
"    .XXXXXXXXXXXXXXXX..         ",
"    .XXXXXXXXXXXXXXXX.o.        ",
"    .XXXXXXXXXXXXXXXX.oo.       ",
"    .XXXXXXXXXXXXXXXX.ooo.      ",
"    .XXXXXXXXXXXXXXXX.oooo.     ",
"    .XXXXXXXXXXXXXXXX.ooooo.    ",
"    .XXXXXXXXXXXXXXXX.......O   ",
"    .XXXXXXXXXXXXXXXXXooooo.O   ",
"    .XXXXX..XXXXXXXX..ooooo.O   ",
"    .XXXX...XXXXXXXX...XXXX.O   ",
"    .XXX.....XXXXXX.....XXX.O   ",
"    .XXX.....XXXXXX.....XXX.O   ",
"    .XX.......XXXX.......XX.O   ",
"    .XX........XX........XX.O   ",
"    .X........XXXX........X.O   ",
"    .X.......XX..XX.......X.O   ",
"    .XXXXXXXXX....XXXXXXXXX.O   ",
"    .XXXXXXXXX....XXXXXXXXX.O   ",
"    .XXXXXXXXXX..XXXXXXXXXX.O   ",
"    .XXXXXXXXXXXXXXXXXXXXXX.O   ",
"    .XXXXXXXXX....XXXXXXXXX.O   ",
"    .XXXXXXXX......XXXXXXXX.O   ",
"    .XXXXXXX........XXXXXXX.O   ",
"    .XXXXXX..........XXXXXX.O   ",
"    .XXXXXX..........XXXXXX.O   ",
"    .XXXXXXXX......XXXXXXXX.O   ",
"    .XXXXXXXXXXXXXXXXXXXXXX.O   ",
"    .XXXXXXXXXXXXXXXXXXXXXX.O   ",
"    .XXXXXXXXXXXXXXXXXXXXXX.O   ",
"    ........................O   ",
"     OOOOOOOOOOOOOOOOOOOOOOOO   "};
