/* XPM */
static char * radioactive2[] = {
"32 32 5 1",
" 	c None s None",
".	c black",
"X	c lemon chiffon",
"o	c tan",
"O	c gray50",
"    ..................          ",
"    .XXXXXXXXXXXXXXXX..         ",
"    .XXXXXXXXXXXXXXXX.o.        ",
"    .XXXXXXXXXXXXXXXX.oo.       ",
"    .XXXXXXXXXXXXXXXX.ooo.      ",
"    .XXXXXXXXXXXXXXXX.oooo.     ",
"    .XXXXXXXXXXXXXXXX.ooooo.    ",
"    .XXXXXXXXXXXXXXXX.......O   ",
"    .XXXXXXX........XXooooo.O   ",
"    .XXXXX............ooooo.O   ",
"    .XXXX..............XXXX.O   ",
"    .XXX...X........X...XXX.O   ",
"    .XX...XX........XX...XX.O   ",
"    .XX..XXXX......XXXX..XX.O   ",
"    .X...XXXX......XXXX...X.O   ",
"    .X..XXXXXX....XXXXXX..X.O   ",
"    .X..XXXXX..XX..XXXXX..X.O   ",
"    .X.XXXXXX.XXXX.XXXXXX.X.O   ",
"    .X........XXXX........X.O   ",
"    .X.........XX.........X.O   ",
"    .X........X..X........X.O   ",
"    .XX......XXXXXX......XX.O   ",
"    .XX......XXXXXX......XX.O   ",
"    .XXX....XXXXXXXX....XXX.O   ",
"    .XXX....XXXXXXXX....XXX.O   ",
"    .XXXX.....XXXX.....XXXX.O   ",
"    .XXXXXX..........XXXXXX.O   ",
"    .XXXXXXXX......XXXXXXXX.O   ",
"    .XXXXXXXXXXXXXXXXXXXXXX.O   ",
"    .XXXXXXXXXXXXXXXXXXXXXX.O   ",
"    ........................O   ",
"     OOOOOOOOOOOOOOOOOOOOOOOO   "};
