/* XPM */
static char * raster[] = {
"32 32 5 1",
" 	c None s None",
".	c black",
"X	c lemon chiffon",
"o	c tan",
"O	c gray50",
"    ..................          ",
"    .XXXXXXXXXXXXXXXX..         ",
"    .X...XXX..XXX...X.o.        ",
"    .X.XX.X.XX.X.XXXX.oo.       ",
"    .X...XX....XX..XX.ooo.      ",
"    .X.X.XX.XX.XXXX.X.oooo.     ",
"    .X.XX.X.XX.X...XX.ooooo.    ",
"    .XXXXXXXXXXXXXXXX.......O   ",
"    .XXXXXXXXXXX.XXXXXooooo.O   ",
"    .XXXXXXXXXX...XXXXooooo.O   ",
"    .XXXXXXXXX.....XXXXXXXX.O   ",
"    .XXXXXXXX.X...X.XXXXXXX.O   ",
"    .XXXXXXX.XXX.XXX.XXXXXX.O   ",
"    .XXXXXX...X.X.X.X.XXXXX.O   ",
"    .XXXXX.....XXX.XXX.XXXX.O   ",
"    .XXXX.X.....X...X.X.XXX.O   ",
"    .XXX.XXX.........XXX.XX.O   ",
"    .XX...X.X...X.....X...X.O   ",
"    .X.....XXX.XXX..........O   ",
"    .XX...X.X...X.X...X...X.O   ",
"    .XXX.XXX.....XXX.XXX.XX.O   ",
"    .XXXX.X.X...X.X...X.XXX.O   ",
"    .XXXXX.XXX.XXX.....XXXX.O   ",
"    .XXXXXX.X...X.....XXXXX.O   ",
"    .XXXXXXX.........XXXXXX.O   ",
"    .XXXXXXXX...X...XXXXXXX.O   ",
"    .XXXXXXXXX.XXX.XXXXXXXX.O   ",
"    .XXXXXXXXXX.X.XXXXXXXXX.O   ",
"    .XXXXXXXXXXX.XXXXXXXXXX.O   ",
"    .XXXXXXXXXXXXXXXXXXXXXX.O   ",
"    ........................O   ",
"     OOOOOOOOOOOOOOOOOOOOOOOO   "};
