/* XPM */
static char * rc[] = {
"32 32 10 1",
",	c None	s None",
" 	c white",
".	c black",
"X	c lemon chiffon",
"o	c tan",
"O	c gray50",
"+	c sienna",
"@	c peru",
"#	c orange",
"$	c wheat",
",,,,..................,,,,,,,,,,",
",,,,.XXXXXXXXXXXXXXXX..,,,,,,,,,",
",,,,.XXXXXXXXXXXXXXXX.o.,,,,,,,,",
",,,,.XXXXXXXXXXXXXXXX.oo.,,,,,,,",
",,,,.XXXXXXXXXXXXXXXX.ooo.,,,,,,",
",,,,.XXXXXXXXXXXXXXXX.oooo.,,,,,",
",,,,.XXXXXXXXXXXXXXXX.ooooo.,,,,",
",,,,.XXXXXXXXXXXXXXXX.......O,,,",
",,,,.XXXXXXXXXXXXXXXXXooooo.O,,,",
",,,,.XXXXXXXXXXXXXXXXXXoooo.O,,,",
",,,,.XXXXX..............XXX.O,,,",
",,,,.XXXX.++++++++++++++.XX.O,,,",
",,,,.XXXX..............++.X.O,,,",
",,,,.XXX.@@@@@@@@@@@@@@.+.X.O,,,",
",,,,.XXX..............@@..X.O,,,",
",,,,.XX.##############.@..X.O,,,",
",,,,.XX..............##...X.O,,,",
",,,,.X.$$$$$$$$$$$$$$.#...X.O,,,",
",,,,.X.$$$$$$$$$$$$$$$....X.O,,,",
",,,,.X.$$$$$$$$$$$$$$$...XX.O,,,",
",,,,.X.$$$$$$$$$$$$$$$...XX.O,,,",
",,,,.X.$$$$$$$$$$$$$$$..XXX.O,,,",
",,,,.X.$$$$$$$$$$$$$$$..XXX.O,,,",
",,,,.X.$$$$$$$$$$$$$$$.XXXX.O,,,",
",,,,.XX................XXXX.O,,,",
",,,,.XXXXXXXXXXXXXXXXXXXXXX.O,,,",
",,,,.XXXXXXXXXXXXXXXXXXXXXX.O,,,",
",,,,.XXXXXXXXXXXXXXXXXXXXXX.O,,,",
",,,,.XXXXXXXXXXXXXXXXXXXXXX.O,,,",
",,,,.XXXXXXXXXXXXXXXXXXXXXX.O,,,",
",,,,........................O,,,",
",,,,,OOOOOOOOOOOOOOOOOOOOOOOO,,,"};
