/* XPM */
static char * image_name[] = {
"56 46 28 1",
" 	c #FFFFFFFFFFFF",
".	c #BEFBB6DABEFB",
"X	c #CF3CC71BCF3C",
"o	c #000000000000",
"O	c #AEBAAEBAB6DA",
"+	c #AEBAAEBAAEBA",
"@	c #BEFBC30BBEFB",
"#	c #B6DAAEBAB6DA",
"$	c #96589658AEBA",
"%	c #9E799A699E79",
"&	c #D75CD34CD75C",
"*	c #A699A699A699",
"=	c #965896589658",
"-	c #BEFBC30BCF3C",
";	c #DF7DBAEA8E38",
":	c #BEFBBAEABEFB",
">	c #69A68617BEFB",
",	c #A699A289A699",
"<	c #EFBEF3CEF7DE",
"1	c #AEBAB2CACF3C",
"2	c #AEBAAAAAAEBA",
"3	c #AEBAA699AEBA",
"4	c #A6999E79A699",
"5	c #082004100820",
"6	c #000008200820",
"7	c #F7DEB2CAAEBA",
"8	c #514471C68E38",
"9	c #AEBAA69971C6",
"                                                       .",
" .X..X..X..X..X..X..X..X..X..X..X..X..X..X..X..X..X..X.o",
" ..XO.X.+X.OX.OX.OX.OX.OX.OX.OX.OX.OX.OX.OX.OX.OX.OX.OXo",
" .+@@+@O@@+.@O@@+.@O@@+.@+@@+.@O@@+.@+@@+.@O@@+.@+@@.@#o",
" +@O@+#$%%$%+$%%$%+$%%$%+$%%$%+$%%$%+$%%&*@#.*@O.+@+.+.o",
" .@O..X%                               @=-;@X#@@+.@X+@.o",
" +:O@+.+                               # >O+++@+@+@+.+@o",
" O@O@;+%                               :  >O@.,X.OX;@#+o",
" +&+X,-%                               O   >X+-+++O+O+.o",
" ;##+.:%                               .   <>-;O+&.-+@#o",
" O-+O+O+                               X     >1O.++OO+@o",
" 1+@#X2%                               +>>>>>>>.+.+:X.+o",
" +.+X,.+      #>+X>#@>:                  +-X++>>-+X+.+Xo",
" @+O+-3%                                  <   1>%O,;+#+o",
" O#+OO.=                                       o++-+1+.o",
" ++.++3%      .X+>@:>@+>+>>#>+>.X#>+>          o%++.+3+o",
" O#+-#;2                                       o%2#++O.o",
" 2+++++$      >>#@+>+>>.X+>#X#     +>+>        o%++++++o",
" 2###O-%                      ooooo>           o%3##X2#o",
" ++++++%      >@+>#&+>.+>X+ oo.    $oo         o%++2+2+o",
" +3+#+3%      <            o>        >o        o%#+2@22o",
" 3+3++O%      >+>&+>+>X+>+>o          o>       o3+3O3+2o",
" +#3+33+                  o#     %%%% #o       o%3+2+O3o",
" +3+223%                  o       43   o       o%3O+332o",
" %3+32O%      >>+X.>+X>#@ o      % %   o       o%323+%2o",
" 3+3O23%                  o     %3%%   o       o%3+2322o",
" +3%2%3%      >+X>+.X>+.> o.   %   %  .o>      o$2#%#$+o",
" 2O+23O%                  >%  %22 %3% o+ >>    5%++#++2o",
" %3#3+3%      >>+.>>+:>:@. o          o*++ >>  o2%3%+%2o",
" 23+3+3%                   >>        oo.*@*+<>>o%322*32o",
" %2%O%3%      >+X>+#X>+.>+.:oo.   O%o>#66*=7+X >8#2+2%2o",
" O%3333%                   O.>ooooo>   *#55=.9*. >8223%o",
" %33#=2%      >+:>>+>+X>+>.>-         %   .5o+*@*X >O23o",
" 3%+%23%                     %       = 7    #56=7%*-o3%o",
" %O%#%O%                     O+     % % =     .55**+5%3o",
" $%3%$%%                       .%%%# # % % 7   o*665%%%o",
" %#%233%      >+>+>>                  7 % = =  o%%#%#%#o",
" *%%%%%=                                 % % % o4%3%%3%o",
" %3%3%#%                                  7 % %oo%$*3%3o",
" $%34%%%                                     7 o%5%o44%o",
" %2$2%*$2>ooooooooooooooooooooooooooooooooooooooo4o%o%4o",
" %$%%%$%4$%%%%%%%%%%%%%%%%%%%%%%%%%%%%%%%%%%%4$>%o%o4%%o",
" %4%4%4%$4%434343434343434343434343434343434%4%#%48O4%4o",
" %%44%%4%%%$4%%%%%%%%%%%%%%%%%%%%%%%%%%4%%%%%4%%44#$44%o",
" %4%%44%4%4%%%4$%=4%$%4%%44=%44=%44=%44%=43%44=4%4%%%4=o",
"#o555555555555oo55ooo5oooooooooooooooooooooooooooooooo5o"};
