/* XPM */
static char * scrapbook[] = {
"32 32 5 1",
" 	c None	s None",
"X	c lemon chiffon",
".	c black",
"o	c tan",
"O	c gray50",
"    ...................         ",
"    .XXXXXXXXXXXXXXXXX..        ",
"    .XXXXXXXXXXXXXXXXX.o.       ",
"    .XXXXXXXXXXXXXXXXX.oo.      ",
"    .XXXXXX.........XX.ooo.     ",
"    .XXXXXX.XXXXXXX.XX.oooo.    ",
"    .XXXXXX.XXXXXXX.XX......O   ",
"    .XXXXXX.XXXXXXX.XXXoooo.O   ",
"    .XXXXXX.XXXXXXX.XXXoooo.O   ",
"    .XXX......XXXXX.XXXXXXX.O   ",
"    .XXX.XXXX.XXXXX.XXXXXXX.O   ",
"    .XXX.XXXX.XXXXX.XXXXXXX.O   ",
"    .XXX.XXXX.......XXXXXXX.O   ",
"    .XXX.XXXX.XXXXXXXXXXXXX.O   ",
"    .XXX.XXXX.XXXXXXXXXXXXX.O   ",
"    .XXX.XXXX.XXXXXXXXXXXXX.O   ",
"    .XXX.XXXX.XX.........XX.O   ",
"    .XXX.XXXX.XX.XXXXXXX.XX.O   ",
"    .XXX......XX.XXXXXXX.XX.O   ",
"    .XXXXXXXXXXX.XXXXXXX.XX.O   ",
"    .XXXXXXXXXXX.XXXXXXX.XX.O   ",
"    .XXXXXXXXXXX.........XX.O   ",
"    .XXXXXXXXXXXXXXXXXXXXXX.O   ",
"    .XXXXXXXXXXXXXXXXXXXXXX.O   ",
"    .XXXXXXXXXXXXXXXXXXXXXX.O   ",
"    .XXXXXXXXXXXXXXXXXXXXXX.O   ",
"    .XXXXXXXXXXXXXXXXXXXXXX.O   ",
"    .XXX.XXX.XXX.XXX.XXX.XX.O   ",
"    .XX...X...X...X...X...X.O   ",
"    .XX.O.X.O.X.O.X.O.X.O.X.O   ",
"    ....O ..O ..O ..O ..O ..O   ",
"     OOO   O   O   O   O   OO   "};
