/* XPM */
static char * screen1_dmp[] = {
"58 78 4 1",
/* pixels*/
" 	c ForestGreen",
".	c green",
"X	c red",
"o	c grey100",
"                                                          ",
"                                                          ",
"                                                          ",
"                                                          ",
"                                                          ",
"    ..................................................    ",
"    .XXXXXXXXXXXXXXXXXXXXXXXXXXXXXXXXXXXXXXXXXXXXXXXX.    ",
"    .XooooooooooooooooooooooooooooooooooooooooooooooX.    ",
"    .XooooooooooooooooooooooooooooooooooooooooooooooX.    ",
"    .XoooXXXXoooooooooooooooooooooooooooooooooooooooX.    ",
"    .XooXooooXooooooooooooooooooooooooooooooooooooooX.    ",
"    .XooXooooXooooooooooooooooooooooooooooooooooooooX.    ",
"    .XooXooooXooooooooooooooooooooooooooooooooooooooX.    ",
"    .XooXooooXooooooooooooooooooooooooooooooooooooooX.    ",
"    .XooXooXoXooooooooooooooooooooooooooooooooooooooX.    ",
"    .XooXooXoXooooooooooooooooooooooooooooooooooooooX.    ",
"    .XooXoooXXooooooooooooooooooooooooooooooooooooooX.    ",
"    .XoooXXXXoXoooooooooooooooooooooooooooooooooooooX.    ",
"    .XooooooooooooooooooooooooooooooooooooooooooooooX.    ",
"    .XoooXXoXXooooooooooooooooooooooooooooooooooooooX.    ",
"    .XooXXXXXXXoooooooooooooooooooooooooooooooooooooX.    ",
"    .XooXXXXXXXoooooooooooooooooooooooooooooooooooooX.    ",
"    .XooXXXXXXXoooooooooooooooooooooooooooooooooooooX.    ",
"    .XoooXXXXXooooooooooooooooooooooooooooooooooooooX.    ",
"    .XooooXXXoooooooooooooooooooooooooooooooooooooooX.    ",
"    .XoooooXooooooooooooooooooooooooooooooooooooooooX.    ",
"    .XooooooooooooooooXooooXoooXooooXoooooooooooooooX.    ",
"    .XooooooooooooooooXXoooXoooXoooXXoooooooooooooooX.    ",
"    .XooooooooooooooooXXXoXXXoXXXoXXXoooooooooooooooX.    ",
"    .XooooooooooooooooXXXXXXXXXXXXXXXoooooooooooooooX.    ",
"    .XooooooooooooooooXXXXXXXXXXXXXXXoooooooooooooooX.    ",
"    .XooooooooooooooooXXoXoXoXoXoXoXXoooooooooooooooX.    ",
"    .XooooooooooooooooXXoooooooooooXXoooooooooooooooX.    ",
"    .XooooooooooooooooXXoooooooooooXXoooooooooooooooX.    ",
"    .XooooooooooooooooXXoXXXoooXXXoXXoooooooooooooooX.    ",
"    .XooooooooooooooooXXoooooXoooooXXoooooooooooooooX.    ",
"    .XooooooooooooooooXXoooooXoooooXXoooooooooooooooX.    ",
"    .XooooooooooooooooXXoooooXoooooXXoooooooooooooooX.    ",
"    .XooooooooooooooooXXoooooXoooooXXoooooooooooooooX.    ",
"    .XooooooooooooooooXXooooXXXooooXXoooooooooooooooX.    ",
"    .XooooooooooooooooXXoooooooooooXXoooooooooooooooX.    ",
"    .XooooooooooooooooXXooXoooooXooXXoooooooooooooooX.    ",
"    .XoooooooooooooooXXXXooXXXXXooXXXXooooooooooooooX.    ",
"    .XoooooooooooooooXXXXoooooooooXXXXooooooooooooooX.    ",
"    .XooooooooooooooXXXXXXoooooooXXXXXXoooooooooooooX.    ",
"    .XooooooooooooXXXXXXXXXoooooXXXXXXXXXoooooooooooX.    ",
"    .XoooooooooooooXXXXXXXXoooooXXXXXXXXooooooooooooX.    ",
"    .XooooooooooooooXXXXXooXXXXXooXXXXXoooooooooooooX.    ",
"    .XooooooooooooooooooooooooooooooooooooooooooooooX.    ",
"    .XooooooooooooooooooooooooooooooooooooooooooooooX.    ",
"    .XooooooooooooooooooooooooooooooooooooooooooooooX.    ",
"    .XooooooooooooooooooooooooooooooooooooooooooooooX.    ",
"    .XooooooooooooooooooooooooooooooooooooooXXoXXoooX.    ",
"    .XoooooooooooooooooooooooooooooooooooooXXXXXXXooX.    ",
"    .XoooooooooooooooooooooooooooooooooooooXXXXXXXooX.    ",
"    .XoooooooooooooooooooooooooooooooooooooXXXXXXXooX.    ",
"    .XooooooooooooooooooooooooooooooooooooooXXXXXoooX.    ",
"    .XoooooooooooooooooooooooooooooooooooooooXXXooooX.    ",
"    .XooooooooooooooooooooooooooooooooooooooooXoooooX.    ",
"    .XooooooooooooooooooooooooooooooooooooooooooooooX.    ",
"    .XooooooooooooooooooooooooooooooooooooooXXXXooooX.    ",
"    .XoooooooooooooooooooooooooooooooooooooXooooXoooX.    ",
"    .XoooooooooooooooooooooooooooooooooooooXooooXoooX.    ",
"    .XoooooooooooooooooooooooooooooooooooooXooooXoooX.    ",
"    .XoooooooooooooooooooooooooooooooooooooXooooXoooX.    ",
"    .XoooooooooooooooooooooooooooooooooooooXooXoXoooX.    ",
"    .XoooooooooooooooooooooooooooooooooooooXooXoXoooX.    ",
"    .XoooooooooooooooooooooooooooooooooooooXoooXXoooX.    ",
"    .XooooooooooooooooooooooooooooooooooooooXXXXoXooX.    ",
"    .XooooooooooooooooooooooooooooooooooooooooooooooX.    ",
"    .XooooooooooooooooooooooooooooooooooooooooooooooX.    ",
"    .XXXXXXXXXXXXXXXXXXXXXXXXXXXXXXXXXXXXXXXXXXXXXXXX.    ",
"    ..................................................    ",
"                                                          ",
"                                                          ",
"                                                          ",
"                                                          ",
"                                                          "};
