/* XPM */
static char * solids[] = {
"32 32 6 1",
" 	c None s None",
".	c black",
"X	c lemon chiffon",
"o	c tan",
"O	c gray50",
"+	c wheat",
"    ..................          ",
"    .XXXXXXXXXXXXXXXX..         ",
"    .XXXXXX.....XXXXX.o.        ",
"    .XXXX...X.X...XXX.oo.       ",
"    .XX..X.X.X.X.X..X.ooo.      ",
"    .X..X.X.X.X.X.X...oooo.     ",
"    .X.X.X.X.X.XXX.X..ooooo.    ",
"    ..X.X.X.X.XXXXX.X.......O   ",
"    ...X.X.X.X.XXX.X.+ooooo.O   ",
"    ..X.X.X.X.X.X.X.X.+oooo.O   ",
"    .X.X...........X.X.XXXX.O   ",
"    ..X.X...XXX.XXX.X..XXXX.O   ",
"    .X.X....X.XXX.XX.X.XXXX.O   ",
"    ..X.X..X..XXX.XXX.XXXXX.O   ",
"    ...X......X.XXX.XX.XXXX.O   ",
"    ..X.X...X...........XXX.O   ",
"    .X.X.....X..X.X.X.X.XXX.O   ",
"    .X..X..X...X.X.X.X..XXX.O   ",
"    .XX.........X.X.X.X.XXX.O   ",
"    .XXXX...X..X.X.X.X..XXX.O   ",
"    .XXXX.X.....X.X.X.X.XXX.O   ",
"    .XXXX......X.X.X.X..XXX.O   ",
"    .XXXX....X..X.X.X.X.XXX.O   ",
"    .XXXXX.X...X.X.X.X..XXX.O   ",
"    .XXXXXX.....X.X.X.X.XXX.O   ",
"    .XXXXXXX...X.X.X.X..XXX.O   ",
"    .XXXXXXXX...X.X.X.X.XXX.O   ",
"    .XXXXXXXXX..........XXX.O   ",
"    .XXXXXXXXXXXXXXXXXXXXXX.O   ",
"    .XXXXXXXXXXXXXXXXXXXXXX.O   ",
"    ........................O   ",
"     OOOOOOOOOOOOOOOOOOOOOOOO   "};
