/* XPM */
static char * stars[] = {
"32 32 8 1",
" 	c None	s None",
"`	c black",
"a	c tan",
"b	c gray50",
"c	c navy blue",
"d	c white",
"e	c lemon chiffon",
"f	c blue",
"    ```````````````````         ",
"    `eeeeeeeeeeeeeeeee``        ",
"    `eeeeeeeeeeeeeeeee`a`       ",
"    `eeeeeeeeeeeeeeeee`aa`      ",
"    `eeeeeeeeeeeeeeeee`aaa`     ",
"    `eeeeeeeeeeeeeeeee`aaaa`    ",
"    `eeeeeeeeeeeeeeeee`aaaaa`   ",
"    `eeeeeeeeeeeeeeeee```````b  ",
"    `ee``````````````````aaa`b  ",
"    `ee````d`````````````aaa`b  ",
"    `ee``d``````d````````eee`b  ",
"    `ee`c`c`c`c`c`c`c`d`ceee`b  ",
"    `eec`c`d`c`c`c`c`c`c`eee`b  ",
"    `eecccccccdcccccccccceee`b  ",
"    `eeccccccdcdccccccccceee`b  ",
"    `eeccccdccccccdcccccceee`b  ",
"    `eeccccccdccccccccccceee`b  ",
"    `eecccccccccccccccdcceee`b  ",
"    `eecccccccccccccccccceee`b  ",
"    `eecccccccccccccccccceee`b  ",
"    `eecfcfcfcfcfcfcfcfcfeee`b  ",
"    `eefcdcfcfdfcfcfcfcfceee`b  ",
"    `eecfcfcfcfcdcfcfcfcfeee`b  ",
"    `eeffffffffffffffffffeee`b  ",
"    `eeffffffffffffffdfffeee`b  ",
"    `eeffffffffffffffffffeee`b  ",
"    `eeeeeeeeeeeeeeeeeeeeeee`b  ",
"    `eeeeeeeeeeeeeeeeeeeeeee`b  ",
"    `eeeeeeeeeeeeeeeeeeeeeee`b  ",
"    `eeeeeeeeeeeeeeeeeeeeeee`b  ",
"    `````````````````````````b  ",
"     bbbbbbbbbbbbbbbbbbbbbbbbb  "};
