/* XPM */
static char * stop[] = {
"32 32 7 1",
",	c None	s None",
" 	c white",
".	c black",
"X	c lemon chiffon",
"o	c tan",
"O	c gray50",
"+	c red",
",,,,..................,,,,,,,,,,",
",,,,.XXXXXXXXXXXXXXXX..,,,,,,,,,",
",,,,.XXXXXXXXXXXXXXXX.o.,,,,,,,,",
",,,,.XXXXXXXXXXXXXXXX.oo.,,,,,,,",
",,,,.XXXXXXXXXXXXXXXX.ooo.,,,,,,",
",,,,.XXXXXXXXXXXXXXXX.oooo.,,,,,",
",,,,.XXXXXXXXXXXXXXXX.ooooo.,,,,",
",,,,.XXXXXXXXXXXXXXXX.......O,,,",
",,,,.XXXXXXXXXXXXXXXXXooooo.O,,,",
",,,,.XXXXXXX.........XXoooo.O,,,",
",,,,.XXXXXX..       ..XXXXX.O,,,",
",,,,.XXXXX.. +++++++ ..XXXX.O,,,",
",,,,.XXXX.. +++++++++ ..XXX.O,,,",
",,,,.XXX.. +++++++++++ ..XX.O,,,",
",,,,.XXX. +++++++++++++ .XX.O,,,",
",,,,.XXX. +           + .XX.O,,,",
",,,,.XXX. + ++ + +  + + .XX.O,,,",
",,,,.XXX. +    + +    + .XX.O,,,",
",,,,.XXX. +++  + +  +++ .XX.O,,,",
",,,,.XXX. +    +    +++ .XX.O,,,",
",,,,.XXX. +++++++++++++ .XX.O,,,",
",,,,.XXX. +++++++++++++ .XX.O,,,",
",,,,.XXX.. +++++++++++ ..XX.O,,,",
",,,,.XXXX.. +++++++++ ..XXX.O,,,",
",,,,.XXXXX.. +++++++ ..XXXX.O,,,",
",,,,.XXXXXX..       ..XXXXX.O,,,",
",,,,.XXXXXXX.........XXXXXX.O,,,",
",,,,.XXXXXXXXXXXXXXXXXXXXXX.O,,,",
",,,,.XXXXXXXXXXXXXXXXXXXXXX.O,,,",
",,,,.XXXXXXXXXXXXXXXXXXXXXX.O,,,",
",,,,........................O,,,",
",,,,,OOOOOOOOOOOOOOOOOOOOOOOO,,,"};
