/* XPM */
static char * tag[] = {
"32 32 7 1",
",	c None	s None",
" 	c white",
".	c black",
"X	c lemon chiffon",
"o	c tan",
"O	c gray50",
"+	c tomato",
",,,,..................,,,,,,,,,,",
",,,,.XXXXXXXXXXXXXXXX..,,,,,,,,,",
",,,,.XXXXXXXXXXXXXXXX.o.,,,,,,,,",
",,,,.X......XXXXXXXXX.oo.,,,,,,,",
",,,,.XXXXXXXXXXXXXXXX.ooo.,,,,,,",
",,,,.X......XXXXXXXXX.oooo.,,,,,",
",,,,.XXXXXXXXXXXXXXXX.ooooo.,,,,",
",,,,.X......XXXXXXXXX.......O,,,",
",,,,.XXXXXXXXXXXXXXXXXooooo.O,,,",
",,,,.X......XXXXXXXXXXXoooo.O,,,",
",,,,.XXXXXXXXXXXXXXXXXXXXXX.O,,,",
",,,,.X......XX...XX.XXX..XX.O,,,",
",,,,.XXXXXXXXXX.XX.X.X.XXXX.O,,,",
",,,,.X......XXX.XX...X.X.XX.O,,,",
",,,,.XXXXXXXXXX.XX.X.XX..XX.O,,,",
",,,,.X......XXXXXXXXXXXXXXX.O,,,",
",,,,.XXXXXXXXXXXXXXX.XXXXXX.O,,,",
",,,,.X......XXXXXXXX.XXXXXX.O,,,",
",,,,.XXXXXXXXXXXXXXX.XXXXXX.O,,,",
",,,,.X......XXX.XXXX.XXXXXX.O,,,",
",,,,.XXXXXXXXX.XXXX.XXXXXXX.O,,,",
",,,,.X++++++X......XXXXXXXX.O,,,",
",,,,.XXXXXXXXX.XXXXXXXXXXXX.O,,,",
",,,,.X......XXX.XXXXXXXXXXX.O,,,",
",,,,.XXXXXXXXXXXXXXXXXXXXXX.O,,,",
",,,,.X......XXXXXXXXXXXXXXX.O,,,",
",,,,.XXXXXXXXXXXXXXXXXXXXXX.O,,,",
",,,,.X......XXXXXXXXXXXXXXX.O,,,",
",,,,.XXXXXXXXXXXXXXXXXXXXXX.O,,,",
",,,,.XXXXXXXXXXXXXXXXXXXXXX.O,,,",
",,,,........................O,,,",
",,,,,OOOOOOOOOOOOOOOOOOOOOOOO,,,"};
