/* XPM */
static char * terminal_sun_xpm[] = {
"48 48 3 1 0 0",
" 	s None	c None",
".	c black",
"X	c white",
"                                                ",
"                                                ",
"                                                ",
"                                                ",
"                                                ",
"                                                ",
"                                                ",
"         ..............................         ",
"        .XXXXXXXXXXXXXXXXXXXXXXXXXXXXX..        ",
"        .X...........................X..        ",
"        .X..X.X.X.X.X.X.X.X.X.X.X.X..X..        ",
"        .X.X.X.X.X.X.X.X.X.X.X.X.X.X.X..        ",
"        .X..X.X.X.X.X.X.X.X.X.X.X.X..X..        ",
"        .X.X.X.X.X.X.X.X.X.XXXXXXX.X.X..        ",
"        .X..X.X.X.X.X.X.X.X.XXXXX.X..X..        ",
"        .X.X.X.X.X.X.X.X.X.XXXXXXX.X.X..        ",
"        .X..X.X.X.X.X.X.X.X.XXXXX.X..X..        ",
"        .X.X.X.X.X.X.X.X.X.XXXXXXX.X.X..        ",
"        .X..X.X.X.X.X.X.X.X.X.X.X.X..X..        ",
"        .X.X.X.X.X.X.X.X.X.X.X.X.X.X.X..        ",
"        .X..X.X.X.X.X.X.X.X.X.X.X.X..X..        ",
"        .X.X.X.X.X.X.X.X.X.X.X.X.X.X.X..        ",
"        .X..X.X.X.X.X.X.X.X.X.X.X.X..X..        ",
"        .X.X.X.X.X.X.X.X.X.X.X.X.X.X.X..        ",
"        .X..X.X.X.X.X.X.X.X.X.X.X.X..X..        ",
"        .X.X.X.X.X.X.X.X.X.X.X.X.X.X.X..        ",
"        .X..X.X.X.X.X.X.X.X.X.X.X.X..X..        ",
"        .X...........................X..        ",
"        .XXXXXXXXXXXXXXXXXXXXXXXXXXXXX..        ",
"         ...............................        ",
"          .............................         ",
"                                                ",
"                                                ",
"     ......................................     ",
"    .XXXXXXXXXXXXXXXXXXXXXXXXXXXXXXXXXXXXX..    ",
"   .XXX.X.X.X.X.X.X.X.X.X.X.X.X.X.X.X.X.XXX..   ",
"  .XXX.X.X.X.X.X.X.X.X.X.X.X.X.X.X.X.X.X.XXX..  ",
" .XXX.X.X.X.X.X.X.X.X.X.X.X.X.X.X.X.X.X.X.XXX.. ",
" .XXXXXXXXXXXXXXXXXXXXXXXXXXXXXXXXXXXXXXXXXXX.. ",
" .............................................. ",
"  ............................................  ",
"                                                ",
"                                                ",
"                                                ",
"                                                ",
"                                                ",
"                                                ",
"                                                "};
