/* XPM */
static char * tex_xpm[] = {
"64 38 5 1",
" 	c white",
".	s none c none",
"X	c black",
"o	c #BEFBBEFBBEFB",
"O	c #D34CD34CD34C",
"............................................................XXoo",
"..........................................................XXXoo.",
"...................XXXX.................................XXXoooo.",
"..................XX   XX..........................X.XXXXo ooo..",
".................XX      X.......................XXXXXXXXoooo...",
"................XX        X.....................XX XXXo ooXoo...",
"...............XX         XX..................XXX  oXXoooXXoo...",
".............XXX           X.................XXX ooXXoooXXoo....",
"............XX             XX.............XXXXX oXXooXXX oo.....",
"...........XX               X............XoXXoXoXooXXXoooo......",
".........XX                 X...........XXoXooXXoooooooo........",
"......XXX                   XX.........XXooXoXXoooXooooo........",
"..XXXXX                      X........XoXoXoXooooXXoo...........",
"..X     XXXXXXX     XXX XXX  X.......XooooXX ooXXooo............",
".XX     X  X  X      X   X   X.......XoooX ooXXooooo............",
".X         X          X X    X......XXooXooXXoooooo.............",
".X XXXX    X  XXXXXX   X     X......XoXooXXooooooo..............",
".X XOOXX   X   X   X   X     XX....XXoooXoooooooo...............",
".X XOOXXX  X   X      X X     X....XX  oooXXXoo.................",
".X XXOOOXX X   X  X   X X     X...XXooXXXXXoo...................",
".XXOOOOOXX X   XXXX  X   X    XXXXXooXooooo.....................",
"..XXOOOOXXXXX  X  X XX  XXX    XXoooooo  X......................",
"...XXOOXX.X    X              XXoooooooooX......................",
".....XXX..X    X   X        XX XXXXXXXXooX......................",
"..........X   XXXXXX       XXXXXXXXXXXXXXX......................",
"..........X              XXX X  XXXXXXXXXX......................",
"..........X             XX  X  XXXXXXXXXXXX.....................",
"..........X           XX   X    XXXXXXXXXXXX....................",
"..........X        XXX     X X XXXXXXXXXXXXX....................",
"..........XX    XXX        X XXXXXXXXXXXXXXX....................",
"...........X   XX          XXXXXXXXXXXXXXXXX....................",
"...........X   XOXXXX     XXXXXXXXXXXXXXXXXX....................",
"...........XX  XOXOOOX   XXXXXXXXXXXXXXXXXXX....................",
"............XX XOOOOOX   X.XXXXXXXXXXXXXXXXX....................",
".............X  XXOOOX  X...XXXXXXXXXXXXXXX.....................",
"..............X  OOOOX XX....XXXXXXXXXXXXX......................",
"...............XXoooX XX......XXXXXXXXXXX.......................",
"................XXXXXX........XXXXXXXXXXX......................."};
