/* XPM */
static char * text[] = {
"32 32 7 1",
" 	c None	s None",
"`	c black",
"a	c tan",
"b	c dodger blue",
"c	c gray50",
"d	c white",
"e	c lemon chiffon",
"   ```````````````````          ",
"   `eeeeeeeeeeeeeeeee``         ",
"   `eeeeeeeeeeeeeeeee`a`        ",
"   `eeeeeeeeeeeeeeeee`aa`       ",
"   `eeeeeeeeeeeeeeeee`aaa`      ",
"   `eeeeeeeeeeeeeeeee`aaaa`     ",
"   `eeeeeeeeeeeeeeeee`aaaaa`    ",
"   `eeeeebbbbbbbbbbee```````c   ",
"   `eeeeeeeeeeeeeeeeeeaaaaa`c   ",
"   `eeeeebbbbbbbbbbeeeeaaaa`c   ",
"   `eeeeeeeeeeeeeeeeeeeeeee`c   ",
"   `eeeeeeebbbbbbbbbeeeeeee`c   ",
"   `eeeeeeeeeeeeeeeeeeeeeee`c   ",
"   `eeeeeebbbbbbbbbbeeeeeee`c   ",
"   `eeeeeeeeeeeeeeeeeeeeeee`c   ",
"   `eeeeebbbbbbbbbbeeeeeeee`c   ",
"   `eeeeeeeeeeeeeeeeeeeeeee`c   ",
"   `eeeeeeebbbbbbbbbeeeeeee`c   ",
"   `eeeeeeeeeeeeeeeeeeeeeee`c   ",
"   `eeeeeebbbbbbbbbbeeeeeee`c   ",
"   `eeeeeeeeeeeeeeeeeeeeeee`c   ",
"   `eeeeebbbbbbbbbbeeeeeeee`c   ",
"   `eeeeeeeeeeeeeeeeeeeeeee`c   ",
"   `eeeeeebbbbbbbbbbeeeeeee`c   ",
"   `eeeeeeeeeeeeeeeeeeeeeee`c   ",
"   `eeeeebbbbbbbeeeeeeeeeee`c   ",
"   `eeeeeeeeeeeeeeeeeeeeeee`c   ",
"   `eeeeeeeeeeeeeeeeeeeeeee`c   ",
"   `eeeeeeeeeeeeeeeeeeeeeee`c   ",
"   `eeeeeeeeeeeeeeeeeeeeeee`c   ",
"   `````````````````````````c   ",
"    ccccccccccccccccccccccccc   "};
