/* XPM */
static char * text[] = {
"32 32 6 1",
",	c None	s None",
" 	c white",
".	c black",
"X	c lemon chiffon",
"o	c tan",
"O	c gray50",
",,,,..................,,,,,,,,,,",
",,,,.XXXXXXXXXXXXXXXX..,,,,,,,,,",
",,,,.XXXXXXXXXXXXXXXX.o.,,,,,,,,",
",,,,.XXXXXXX...X....X.oo.,,,,,,,",
",,,,.XXXXXXXXXXXXXXXX.ooo.,,,,,,",
",,,,.XXXXXXXXXXXXXXXX.oooo.,,,,,",
",,,,.X..X...X.....X...ooooo.,,,,",
",,,,.XXXXXXXXXXXXXXXX.......O,,,",
",,,,.X........X..X....oo.oo.O,,,",
",,,,.XXXXXXXXXXXXXXXXXXoooo.O,,,",
",,,,.X....X..X....XX.....XX.O,,,",
",,,,.XXXXXXXXXXXXXXXXXXXXXX.O,,,",
",,,,.X..X..X....X.....XXXXX.O,,,",
",,,,.XXXXXXXXXXXXXXXXXXXXXX.O,,,",
",,,,.XXX.X....XXXXXXXXXXXXX.O,,,",
",,,,.XXXXXXXXXXXXXXXXXXXXXX.O,,,",
",,,,.XXX.X...X..X...XX..XXX.O,,,",
",,,,.XXXXXXXXXXXXXXXXXXXXXX.O,,,",
",,,,.XXX.X....X.X...X.XXXXX.O,,,",
",,,,.XXXXXXXXXXXXXXXXXXXXXX.O,,,",
",,,,.XXX.X...X...XXXXXXXXXX.O,,,",
",,,,.XXXXXXXXXXXXXXXXXXXXXX.O,,,",
",,,,.X........X..X.......XX.O,,,",
",,,,.XXXXXXXXXXXXXXXXXXXXXX.O,,,",
",,,,.X...X.....X.....XX..XX.O,,,",
",,,,.XXXXXXXXXXXXXXXXXXXXXX.O,,,",
",,,,.X.....X......X.....XXX.O,,,",
",,,,.XXXXXXXXXXXXXXXXXXXXXX.O,,,",
",,,,.XXXXXXXXXX..XXXXXXXXXX.O,,,",
",,,,.XXXXXXXXXXXXXXXXXXXXXX.O,,,",
",,,,........................O,,,",
",,,,,OOOOOOOOOOOOOOOOOOOOOOOO,,,"};
