/* XPM */
static char * tools_xpm[] = {
"48 48 3 1",
" 	c black",
".	c white",
"X	c lemon chiffon",
"                                               .",
"                                              . ",
"   . . . . . . . . . . . . . . . .   . . . . .  ",
"  . . . . . . . . . . . . . . . .     . . . . . ",
"   . . . . . . . . . . . . . . .   X   . . . .  ",
"  . . . . . . . . . . . . . . .   XXX   . . . . ",
"   . . . . . . .       . . . .   XXXXX   . . .  ",
"  . . . . . . . .....   . . .   XXXXXXX   . . . ",
"   . . . . . . ..   ...  . .   XXXXXXXXX   . .  ",
"  . . . . . . ..          .   XXXXXXXXXXX   . . ",
"   . . . . . ..      . . .   XXXX  XXXXXXX   .  ",
"  . . . . . ..      . . .   XXXX    XXXXXXX   . ",
"   . . .   ..        . .   XXXX  XX  XXXXXXX    ",
"  . . . .  .          .   XXXX  XXXX  XXXXXXX   ",
"   . .   .               XXXX  XXXXXX  XXXXXXX  ",
"  . . .   .   . .   .   XXXX  XXXXXXXX  XXXXXXX ",
"   . . .   . . . .   .  XXX  XXXXXXXXXX  XXXXXX ",
"  . . . .     . . .      X  XXXXXXXXXXXX  XXXXX ",
"   . . . . . . . .         XXXXXXXXXXXXXX  XXXX ",
"  . . . . . . . .   X  .    XXXXXXXXXXXXXX  XXX ",
"   . . . . . . .   XXX  .    XXXXXXXXXXXXXX  XX ",
"  . . . . . . .   XXXX   .    XXXXXXXXXXXXXX  X ",
"   . . . . . .   XXXX  X  .    XXXXXXXXXXXXXX   ",
"  . . . . . . .   XX  XX   .    XXXXXXXXXXXXXX  ",
"   . . . . . . .   X XXXX   .    XXXXXXXXXXXXXX ",
"  . . . . . . . .   XXXXXX   .    XXXXXXXXXXXXX ",
"   . . . . . . .   XXXXXXXX   .    XXXXXXXXXXXX ",
"  . . . . . . .   XXXXXXXXXX   .    XXXXXXXXXXX ",
"   . . . . . .   XXXXXXXXXXXX   .    XXXXXXXXXX ",
"  . . . . . .   XXXXXXXXXXXXXX   .    XXXXXXXXX ",
"   . . . . .   XXXXXXXXXXXXXXXX   .    XXXXXXX  ",
"  . . . . .   XXXXXXXXXXXXXXXXXX   .    XXXXX   ",
"   . . . .   XXXXXXXXXXXXXXXXXXXX        XXX    ",
"  . . . . .   XXXXXXXXXXXXXXXXXXXX        X   . ",
"   . . . . .   XXXXXXXXXXXXXXXXXXXX          .  ",
"  . . . . . .   XXXXXXXXXXXXXXXXXXXX        . . ",
"   . . . . . .   XXXXXXXXXXXXXXXXXXXX        .  ",
"            .     XXXXXXXXXXXXXXXXXXXX        . ",
"  .........  . .   XXXXXXXXXXXXXXXXXXX          ",
"                . .  XXXXXXXXX  XXXXX         . ",
"                                XXXX         .  ",
"  .........  .  . .   XXXXXXXXXXXXX   .     . . ",
"           .   . . .   XXXXXXXXXXX   . .   . .  ",
"  . . . . . . . . . .   XXXXXXXXX   . . . . . . ",
"   . . . . . . . . . .   XXXXXXX   . . . . . .  ",
"  . . . . . . . . . . .   XXXXX   . . . . . . . ",
" . . . . . . . . . . . .   XXX   . . . . . . .  ",
".                                               "};
