/* XPM */
static char * umbrella[] = {
"32 32 12 1",
" 	c None	s None",
"`	c black",
"a	c tan",
"b	c green",
"c	c sky blue",
"d	c gray50",
"e	c sienna",
"f	c red",
"g	c white",
"h	c yellow",
"i	c lemon chiffon",
"j	c blue",
"   `````````````````````        ",
"   `iiiiiiiiiiiiiiiiiii``       ",
"   `iiiiiiiiiiiiiiiiiii`a`      ",
"   `iiiiiiiiiiiiiiiiiii`aa`     ",
"   `iiiiiiiiiiiiiiiiiii`aaa`    ",
"   `iiiiiiiiiii``iiiiii`aaaa`   ",
"   `iiiiiiiid```````dii``````d  ",
"   `iiiiid```j````c```diaaaa`d  ",
"   `iiid``jj``f``b``cc``diaa`d  ",
"   `iid`jjj`ff`hh`bb`ccc`dii`d  ",
"   `ii`jjj`fff`hh`bbb`ccc`ii`d  ",
"   `id`jjj`ff`hhhh`bb`ccc`di`d  ",
"   `i`jjj`fff`hhhh`bbb`ccc`i`d  ",
"   `i`j`j`f`f`h``h`b`b`c`c`i`d  ",
"   `i``d```d```ee```d```d``i`d  ",
"   `i`did`did``ee``did`did`i`d  ",
"   `iiiiiiiiii`ee`iiiiiiiiii`d  ",
"   `iiiiiiiiii`ee`iiiiiiiiii`d  ",
"   `iiiiiiiiii`ee`iiiiiiiiii`d  ",
"   `iiiiiiiiii`ee`iiiiiiiiii`d  ",
"   `iiiiiiiiii`ee`iiiiiiiiii`d  ",
"   `iiiiiiiiii`ee`iiiiiiiiii`d  ",
"   `iiiiid`dii`ee`iiiiiiiiii`d  ",
"   `iiiii`e`dd`ee`iiiiiiiiii`d  ",
"   `iiiii`ee```e`diiiiiiiiii`d  ",
"   `iiiiid`eeeee`iiiiiiiiiii`d  ",
"   `iiiiiid`````diiiiiiiiiii`d  ",
"   `iiiiiiiiiiiiiiiiiiiiiiii`d  ",
"   `iiiiiiiiiiiiiiiiiiiiiiii`d  ",
"   `iiiiiiiiiiiiiiiiiiiiiiii`d  ",
"   ``````````````````````````d  ",
"    dddddddddddddddddddddddddd  "};
