/* XPM */
static char * wordprocess[] = {
"32 32 12 1",
" 	c None	s None",
"`	c black",
"a	c tan",
"b	c sky blue",
"c	c violet",
"d	c gray50",
"e	c dark slate grey",
"f	c white",
"g	c gold",
"h	c lemon chiffon",
"i	c orange",
"j	c sea green",
"   ```````````````````          ",
"   `hhhhhhhhhhhhhhhhh``         ",
"   `hhhhhhhhhhhhhhhhh`a`        ",
"   `hjjjjjjjjjjjjjjjj`aa`       ",
"   `hjggggggggggggggg`aaa`      ",
"   `hjggggggggggggggg`aaaa`     ",
"   `hjggggggggggggggg`aaaaa`    ",
"   `hjggggggggggggggg```````d   ",
"   `hjggggggggggggggggiiija`d   ",
"   `hjjjjjjjjjjjjjjjjjjjjja`d   ",
"   `hhhhhhhhhhhhhhhhhhhhhhh`d   ",
"   `h``````````h``````````h`d   ",
"   `hhhhhhhhhhhhhhhhhhhhhhh`d   ",
"   `h``````````hjjjjjjjjjjh`d   ",
"   `hhhhhhhhhhhhjeccccccejh`d   ",
"   `h``````````hjceccccecjh`d   ",
"   `hhhhhhhhhhhhjccecceccjh`d   ",
"   `hjjjjjjjjjjhjccceecccjh`d   ",
"   `hjbebebeebjhjccceecccjh`d   ",
"   `hjebbbbbbejhjccecceccjh`d   ",
"   `hjeb````bbjhjceccccecjh`d   ",
"   `hjbbbbbbbejhjeccccccejh`d   ",
"   `hjeb````bbjhjjjjjjjjjjh`d   ",
"   `hjbbbbbbbejhhhhhhhhhhhh`d   ",
"   `hjeb````bbjh``````````h`d   ",
"   `hjbbbbbbbejhhhhhhhhhhhh`d   ",
"   `hjebbbbbbejh``````````h`d   ",
"   `hjbeebebebjhhhhhhhhhhhh`d   ",
"   `hjjjjjjjjjjh``````````h`d   ",
"   `hhhhhhhhhhhhhhhhhhhhhhh`d   ",
"   `````````````````````````d   ",
"    ddddddddddddddddddddddddd   "};
