/* XPM */
static char * x[] = {
"32 32 5 1",
" 	c None s None",
".	c black",
"X	c lemon chiffon",
"o	c tan",
"O	c gray50",
"    ..................          ",
"    .XXXXXXXXXXXXXXXX..         ",
"    .XXXXXXXXXXXXXXXX.o.        ",
"    .XXXXXXXXXXXXXXXX.oo.       ",
"    .XXXXXXXXXXXXXXXX.ooo.      ",
"    .XXXXXXXXXXXXXXXX.oooo.     ",
"    .XXXXXXXXXXXXXXXX.ooooo.    ",
"    .XXXXXXXXXXXXXXXX.......O   ",
"    .XXXXXXXXXXXXXXXXXooooo.O   ",
"    .XXXXXXXXXXXXXXXXXooooo.O   ",
"    .XXXXX.XXXXXXXXXXX.XXXX.O   ",
"    .XXXX...XXXXXXXXX...XXX.O   ",
"    .XXX.....XXXXXXX.....XX.O   ",
"    .XXXX.....XXXXX.....XXX.O   ",
"    .XXXXX.....XXX.....XXXX.O   ",
"    .XXXXXX.....X.....XXXXX.O   ",
"    .XXXXXXX.........XXXXXX.O   ",
"    .XXXXXXXX.......XXXXXXX.O   ",
"    .XXXXXXXXX.....XXXXXXXX.O   ",
"    .XXXXXXXX.......XXXXXXX.O   ",
"    .XXXXXXX.........XXXXXX.O   ",
"    .XXXXXX.....X.....XXXXX.O   ",
"    .XXXXX.....XXX.....XXXX.O   ",
"    .XXXX.....XXXXX.....XXX.O   ",
"    .XXX.....XXXXXXX.....XX.O   ",
"    .XXXX...XXXXXXXXX...XXX.O   ",
"    .XXXXX.XXXXXXXXXXX.XXXX.O   ",
"    .XXXXXXXXXXXXXXXXXXXXXX.O   ",
"    .XXXXXXXXXXXXXXXXXXXXXX.O   ",
"    .XXXXXXXXXXXXXXXXXXXXXX.O   ",
"    ........................O   ",
"     OOOOOOOOOOOOOOOOOOOOOOOO   "};
