/* XPM */
static char *xfm_a_xpm[] = {
"32 32 6 1",
" 	s none c none",
".	c black",
"X	c white",
"o	c gray",
"O	c #5f9ea0",
"+	c black",
"    ..................          ",
"    .XXXXXXXXXXXXXXXX..         ",
"    .XXXXXXXXXXXXXXXX.o.        ",
"    .XXXXXXXXXXXXXXXX.oo.       ",
"    .XXO+O+O+O+O+O+OX.ooo.      ",
"    .XX+O+O+O+O+O+O+X.oooo.     ",
"    .XXO+O+O+O+O+O+OX.ooooo.    ",
"    .XX+O+O+O+O+O+O+X.......+   ",
"    .XXO+O+O+O+O+O+OXXooooo.+   ",
"    .XX+O+O+O+O+O+O+O+O+O+o.+   ",
"    .XXO+O+O+O+O+O+O+O+O+OX.+   ",
"    .XX+O+O+O+O+O+O+O+O+O+X.+   ",
"    .XXO+O+O+O+O+O+O+O+O+OX.+   ",
"    .XX+O+O+O+O+O+O+O+O+O+X.+   ",
"    .XXO+O+O+O+O+O+O+O+O+OX.+   ",
"    .XX+O+O+O+O+O+O+O+O+O+X.+   ",
"    .XXO+O+O+O+O+O+O+O+O+OX.+   ",
"    .XX+O+O+O+O+O+O+X+X+O+X.+   ",
"    .XXO+O+O+O+O+OXXXXXX+OX.+   ",
"    .XX+O+O+O+O+XXX....XX+X.+   ",
"    .XXO+O+O+O+OXX......XXX.+   ",
"    .XX+O+O+O+O+X...XX...XX.+   ",
"    .XXO+O+O+O+OXXXXXX...XX.+   ",
"    .XX+O+O+O+O+XX.......XX.+   ",
"    .XXO+O+O+O+OX....X...XX.+   ",
"    .XX+O+O+OXXXX...XX...XX.+   ",
"    .XXO+O+O+X..X...X....XX.+   ",
"    .XXXXXXXXX..X........XX.+   ",
"    .XXXXXXXXX..XX....X..XX.+   ",
"    .XXXXXXXXXXXXXXXXXXXXXX.+   ",
"    ........................+   ",
"     ++++++++++++++++++++++++   "};
