/* XPM */
static char * xfm_info_xpm[] = {
"32 32 5 1",
" 	c white",
".	s none c none",
"X	c black",
"o	c #BEFBBEFBBEFB",
"O	c #8617CF3CEBAD",
"....XXXXXXXXXXXXXXXXXX..........",
"....X                XX.........",
"....X                XoX........",
"....X                XooX.......",
"....X                XoooX......",
"....X          OO    XooooX.....",
"....X         OOOO   XXXXXXX....",
"....X         OOOO    oooooXX...",
"....X         OOOO     ooooXX...",
"....X          OO          XX...",
"....X                      XX...",
"....X                      XX...",
"....X       OOOOOO         XX...",
"....X       OOOOOO         XX...",
"....X         OOOO         XX...",
"....X         OOOO         XX...",
"....X         OOOO         XX...",
"....X         OOOO         XX...",
"....X         OOOO         XX...",
"....X         OOOO         XX...",
"....X         OOOO         XX...",
"....X         OOOO         XX...",
"....X      OOOOOOOOOO      XX...",
"....X      OOOOOOOOOO      XX...",
"....X      OOOOOOOOOO      XX...",
"....X                      XX...",
"....X                      XX...",
"....X                      XX...",
"....X                      XX...",
"....X                      XX...",
"....XXXXXXXXXXXXXXXXXXXXXXXXX...",
".....XXXXXXXXXXXXXXXXXXXXXXXX..."};
