/* XPM */
static char * xfm_tiff_xpm[] = {
"32 32 6 1 0 0",
" 	s None	c None",
".	c black",
"X	c white",
"o	c gray",
"O	c red",
"+	c yellow",
"   ...................          ",
"   .XXXXXXXXXXXXXXXXX..         ",
"   .XXXXXXXXXXX..XXXX.o.        ",
"   .XXXXXXXXXXX..XXXX.oo.       ",
"   .XXOXXXXXXXX..ooXX.ooo.      ",
"   .XOOXXXXXXXX..ooXX.oooo.     ",
"   .XOOXoXXXXX....oXX.ooooo.    ",
"   .XOOOoXXXX..XX..XX........   ",
"   .XOO..XXXX.XXoo.oXXooooo..   ",
"   .XO. ..XXX.Xoo+.ooXXoooo..   ",
"   .XO....oXX..o+..XoXXXXXX..   ",
"   .XO.....oXX....XXoXXXXXX..   ",
"   .XX...  .XX....XooXXXXXX..   ",
"   .XXXo..  ...Xo..oXXXXXXX..   ",
"   .XXXXo.. .+.Xo..oXXXXXXX..   ",
"   .XXXXXX..o++oo..ooXXXXXX..   ",
"   .XXXXXXX.+o++o...oXXXXXX..   ",
"   .XXXXXXXX.+o++X..oXXXXXX..   ",
"   .XXXXXXXX..+o++..ooXXXXX..   ",
"   .XXXXXXX....+o++..oXXXXX..   ",
"   .XXXXXXX..Xo.+o++.oXXXXX..   ",
"   .XXXXXXX..oo..+o++ooXXXX..   ",
"   .XXXXXXXXXoooXooooooXXXX..   ",
"   .XXXXXXXXXooXXooooooXXXX..   ",
"   .XXXXX...X.X...X...XXXXX..   ",
"   .XXXXXX.XX.X.XXX.XXXXXXX..   ",
"   .XXXXXX.XX.X..XX..XXXXXX..   ",
"   .XXXXXX.XX.X.XXX.XXXXXXX..   ",
"   .XXXXXX.XX.X.XXX.XXXXXXX..   ",
"   .XXXXXXXXXXXXXXXXXXXXXXX..   ",
"   ..........................   ",
"    .........................   "};
