/* XPM */
static char *xfm_dirlnk_xpm[] = {
"32 32 6 1",
" 	s none c none",
".	c black",
"X	c white",
"o	c yellow",
"O	c gray",
"+	c black",
"                                ",
"                                ",
"                                ",
"                                ",
"                                ",
"                  .......       ",
"                 .XXXXXXX.      ",
"                .XXXXXXXXX.     ",
"  ...........................   ",
" .ooooooooooooooooooooooooooo.  ",
" .ooooooooooooooooooooooooooo.+ ",
" .ooooooooooooooooooooooooooo.+ ",
" .o.....oooo.......oooo.....o.+ ",
" .oOOOOO.oo.OOOOOOO.oo.OOOOOo.+ ",
" .o....OO..OO.....OO..OO....o.+ ",
" .oooo........ooo........oooo.+ ",
" .ooo.OOOOOOOO.o.OOOOOOOO.ooo.+ ",
" .ooo.OOOOOOOO.o.OOOOOOOO.ooo.+ ",
" .oooo........ooo........oooo.+ ",
" .o....OO..OO.....OO..OO....o.+ ",
" .oOOOOO.oo.OOOOOOO.oo.OOOOOo.+ ",
" .o.....oooo.......oooo.....o.+ ",
" .ooooooooooooooooooooooooooo.+ ",
" .oooooo.ooo.o.oo.o.oo.oooooo.+ ",
" .oooooo.ooo.o..o.o.o.ooooooo.+ ",
" .oooooo.ooo.o.o..o..oooooooo.+ ",
" .oooooo.ooo.o.oo.o.o.ooooooo.+ ",
" .oooooo...o.o.oo.o.oo.oooooo.+ ",
" .ooooooooooooooooooooooooooo.+ ",
" .............................+ ",
"  +++++++++++++++++++++++++++++ ",
"                                "};
