/* XPM */
static char * xfm_objects_xpm[] = {
/* width height ncolors chars_per_pixel */
"32 32 10 1",
/* colors */
" 	s None	c None",
".	c black",
"X	c white",
"o	c grey",
"O	c blue",
"+	c cyan",
"@	c red",
"#	c orange",
"$	c sea green",
"%	c green",
/* pixels */
"   ...................          ",
"   .XXXXXXXXXXXXXXXXX..         ",
"   .XXXXXXXXXXXXXXXXX.o.        ",
"   .XXXXXXXXXXXXXXXXX.oo.       ",
"   .XXXXXXXXXXXXXXXXX.ooo.      ",
"   .XXXXOOOOOOOOOXXXX.oooo.     ",
"   .XXXXO+++++++OXXXX.ooooo.    ",
"   .XXXXO+++++++OXXXX........   ",
"   .XXXXO+++++++OXXXXXooooo..   ",
"   .XXXXO+++++++OXXXXXXoooo..   ",
"   .XXXXO+++++++OXXXXXXXXXX..   ",
"   .XXXXO+++++++@@@@@XXXXXX..   ",
"   .XXXXO++++++@#####@XXXXX..   ",
"   .XXXXOOOOOO@#######@XXXX..   ",
"   .XXXXXXXXX@#########@XXX..   ",
"   .XXXXXXXXX@#########@XXX..   ",
"   .XXXXXXXXX@#########@XXX..   ",
"   .XXXXXXXXX@#########@XXX..   ",
"   .XXXXXXXXXX@#######@XXXX..   ",
"   .XXXXXXXXXXX@#####@XXXXX..   ",
"   .XXXXXXXXXXXX@@@@@XXXXXX..   ",
"   .XXXXXXXXXXXXXXXXXXXXXXX..   ",
"   .XXXXXXXX$XXXXXXXXXXXXXX..   ",
"   .XXXXXXX$%$XXXXXXXXXXXXX..   ",
"   .XXXXXX$%%%$XXXXXXXXXXXX..   ",
"   .XXXXX$%%%%%$XXXXXXXXXXX..   ",
"   .XXXX$%%%%%%%$XXXXXXXXXX..   ",
"   .XXX$$$$$$$$$$$XXXXXXXXX..   ",
"   .XXXXXXXXXXXXXXXXXXXXXXX..   ",
"   .XXXXXXXXXXXXXXXXXXXXXXX..   ",
"   ..........................   ",
"    .........................   "};
