/* XPM */
static char *xfm_tar_xpm[] = {
"32 32 6 1",
" 	s none c none",
".	c black",
"X	c white",
"o	c gray",
"O	c gray",
"+	c black",
"    ..................          ",
"    .XXXXXXXXXXXXXXXX..         ",
"    .XXXXXXXXXXXXXXXX.o.        ",
"    .X.....X..XX...XX.oo.       ",
"    .XXX.XX.XX.X.XX.X.ooo.      ",
"    .XXX.XX.XX.X.XX.X.oooo.     ",
"    .XXX.XX....X...XX.ooooo.    ",
"    .XXX.XX.XX.X.X.XX.......+   ",
"    .XXX.XX.XX.X.XX.XXooooo.+   ",
"    .XXXXXXXXXXXXXXXXXXoooo.+   ",
"    .XXXXXXXXXXXXXXXXXXXXXX.+   ",
"    .X....................X.+   ",
"    .X.OOOOOOOOOOOOOOOOOO.X.+   ",
"    .X.OOOOOO........OOOO.X.+   ",
"    .X.OOOOO.OOOOOOOO.OOO.X.+   ",
"    .X.OOOO.OOOOOOOOO.OOO.X.+   ",
"    .X.OOOO.OOOOOOOOOO.OO.X.+   ",
"    .X.OOO.OOOOOOOOOOO.OO.X.+   ",
"    .X.OOO.OOOOOO.....O.O.X.+   ",
"    .X.OO.OOOOOO........O.X.+   ",
"    .X.OO.OOOOO.........O.X.+   ",
"    .X.O....OOO.........O.X.+   ",
"    .X.O.....OO....O....O.X.+   ",
"    .X.O..O..OO.........O.X.+   ",
"    .X.O.....OO.........O.X.+   ",
"    .X.OO...OOOO.......OO.X.+   ",
"    .X.OOOOOOOOOO.....OOO.X.+   ",
"    .X.OOOOOOOOOOOOOOOOOO.X.+   ",
"    .X....................X.+   ",
"    .XXXXXXXXXXXXXXXXXXXXXX.+   ",
"    ........................+   ",
"     ++++++++++++++++++++++++   "};
