/* XPM */
static char * xfm_fig_xpm[] = {
"32 32 9 1 0 0",
" 	s None	c None",
".	c black",
"X	c white",
"o	c grey",
"O	c sea green",
"+	c green",
"@	c peru",
"#	c sienna",
"$	c lime green",
"    ..................          ",
"    .XXXXXXXXXXXXXXXX..         ",
"    .X....X...XX..XXX.o.        ",
"    .XX.XXXX.XX.XXXXX.oo.       ",
"    .XX...XX.XX.X..XX.ooo.      ",
"    .XX.XXXX.XX.XX.XX.oooo.     ",
"    .X..XXX...XX..XXX.......    ",
"    .XXXXXXXXXXXXXXXXXooooo..   ",
"    .XXXXXXXXXXXXXXXXXXoo....   ",
"    .XXXXXXXXXXXXXXXXXX..O+..   ",
"    .XX...XXXXXXXXXXXX.O+++..   ",
"    .X.@@@..XXXXXXXXX..++++..   ",
"    .X.##@@@.XX......@@++++..   ",
"    .XX...###..@@@####+++....   ",
"    .XXXXX..######...+++.++..   ",
"    .XXXXXX.....X.O++.+.+++..   ",
"    .XXXXXXX.$.X.O+..++++++..   ",
"    .XXXXXXX.$$X.+.++++.+.+..   ",
"    .XXXXXXX.$.X.++...+.++...   ",
"    .XXXXXX.$$.X.+.XX.+.+++..   ",
"    .XXXXX.O$$.X...X.++.+++..   ",
"    .XXXX.OO$$.XXXXX.+.++++..   ",
"    .XXX.OOO$$$.XXX.+++...+..   ",
"    .XX.OOO$$$$.XX.+++.XX.+..   ",
"    .XX.OO$$$$$.XX.+++.XX.+..   ",
"    .X.OO...$$$$.X.+++.X.++..   ",
"    .X.OOO$$$.$$.X.++.XX.++..   ",
"    .X.OOO$$$$$$.X...XXX.++..   ",
"    .X.O....$$$$.XXXXXXX.++..   ",
"    .X.OOO$$.$$$$.XXXXXX.++..   ",
"    .........................   ",
"     ........................   "};
