/* XPM */
static char *xfm_tex_xpm[] = {
"32 32 6 1",
" 	s none c none",
".	c black",
"X	c lemon chiffon",
"o	c gray",
"O	c black",
"+	c black",
"    ..................          ",
"    .XXXXXXXXXXXXXXXX..         ",
"    .XXXXXXXXXXXXXXXX.o.        ",
"    .XXXXXXXXXXXXXXXX.oo.       ",
"    .XXOOOXOOOOXOOXXX.ooo.      ",
"    .XXXXXXXXXXXXXXXX.oooo.     ",
"    .XXOXOOOOOOXOOXXX.ooooo.    ",
"    .XXXXXXXXXXXXXXXX.......+   ",
"    .XXXXXXXOOOXOOOOXXooooo.+   ",
"    .XXXXXXXXXXXXXXXXXXoooo.+   ",
"    .XXXXXXXOOXOOOOOXOOOXXX.+   ",
"    .XXXXXXXXXXXXXXXXXXXXXX.+   ",
"    .XXOOOXOOOOOOOXXOOOOXXX.+   ",
"    .XXXXXXXXXXXXXXXXXXXXXX.+   ",
"    .XXOOOOXOOOOOOXXOOOOXXX.+   ",
"    .XXXXXXXXXXXXXXXXXXXXXX.+   ",
"    .XXXXXXXOOOXOOOXOOOOXXX.+   ",
"    .XXXXXXXXXXXXXXXXXXXXXX.+   ",
"    .XXXXXXXOOOOOOXXXXXXXXX.+   ",
"    .XXXXXXXXXXXXXXXXXXXXXX.+   ",
"    .XX.......XXXXX...X...X.+   ",
"    .XX.XX.XX.XXXXXX.XXX.XX.+   ",
"    .XXXXX.XXX.....XX.X.XXX.+   ",
"    .XXXXX.XXX.XXX.XXX.XXXX.+   ",
"    .XXXXX.XXX.XXXXXX.X.XXX.+   ",
"    .XXXXX.XXX....XX.XXX.XX.+   ",
"    .XXXX...XX.XXXX...X...X.+   ",
"    .XXXXXXXXX.XXX.XXXXXXXX.+   ",
"    .XXXXXXXXX.....XXXXXXXX.+   ",
"    .XXXXXXXXXXXXXXXXXXXXXX.+   ",
"    ........................+   ",
"     ++++++++++++++++++++++++   "};
