/* XPM */
static char *xfm_o_xpm[] = {
"32 32 6 1",
" 	s none c none",
".	c black",
"X	c white",
"o	c gray",
"O	c #5f9ea0",
"+	c black",
"    ..................          ",
"    .XXXXXXXXXXXXXXXX..         ",
"    .XXXXXXXXXXXXXXXX.o.        ",
"    .XXXXXXXXXXXXXXXX.oo.       ",
"    .XXOOOOOOOOOOOOOX.ooo.      ",
"    .XXO+O+O+O+O+O+OX.oooo.     ",
"    .XXOOOOOOOOOOOOOX.ooooo.    ",
"    .XXO+O+O+O+O+O+OX.......+   ",
"    .XXOOOOOOOOOOOOOXXooooo.+   ",
"    .XXO+O+O+O+O+O+OXXXoooo.+   ",
"    .XXOOOOOOOOOOOOOOOOOOOX.+   ",
"    .XXO+O+O+O+O+O+O+O+O+OX.+   ",
"    .XXOOOOOOOOOOOOOOOOOOOX.+   ",
"    .XXO+O+O+O+O+O+O+O+O+OX.+   ",
"    .XXOOOOOOOOOOOOOOOOOOOX.+   ",
"    .XXO+O+O+O+O+O+O+O+O+OX.+   ",
"    .XXOOOOOOOOOOOOOOOOOOOX.+   ",
"    .XXO+O+O+O+O+O+O+O+O+OX.+   ",
"    .XXOOOOOOOOOOOXXXXXXOOX.+   ",
"    .XXO+O+O+O+O+XX....XXOX.+   ",
"    .XXOOOOOOOOOX........XX.+   ",
"    .XXO+O+O+O+XX...XX...XX.+   ",
"    .XXOOOOOOOOX...XXXX...X.+   ",
"    .XXO+O+O+O+X...XXXX...X.+   ",
"    .XXOOOOOOOOX...XXXX...X.+   ",
"    .XXO+O+O+OXX...XXXX...X.+   ",
"    .XXOOOOOOX..X...XX...XX.+   ",
"    .XXXXXXXXX..X........XX.+   ",
"    .XXXXXXXXX..XXX....XXXX.+   ",
"    .XXXXXXXXXXXXXXXXXXXXXX.+   ",
"    ........................+   ",
"     ++++++++++++++++++++++++   "};
