/* XPM */
static char *xfm_symlnk_xpm[] = {
"32 32 6 1",
" 	s none c none",
".	c black",
"X	c white",
"o	c gray",
"O	c grey",
"+	c black",
"    ...................         ",
"    .XXXXXXXXXXXXXXXXX..        ",
"    .XXXXXXXXXXXXXXXXX.o.       ",
"    .XXXXXXXXXXXXXXXXX.oo.      ",
"    .XXXXXXXXXXXXXXXXX.ooo.     ",
"    .XXXXXXXXXXXXXXXXX.oooo.    ",
"    .XXXXXXXXXXXXXXXXX......+   ",
"    .XXXXXXXXXXXXXXXXXXoooo.+   ",
"    .XXXXXXXXXXXXXXXXXXXooo.+   ",
"    .XXXXXXXXXXXXXXXXXXXXXX.+   ",
"    ....XXXX.......XXXX.....+   ",
"    .OOO.XX.OOOOOOO.XX.OOOO.+   ",
"    ...OO..OO.....OO..OO....+   ",
"    .X........XXX........XX.+   ",
"    ..OOOOOOOO.X.OOOOOOOO.X.+   ",
"    ..OOOOOOOO.X.OOOOOOOO.X.+   ",
"    .X........XXX........XX.+   ",
"    ...OO..OO.....OO..OO....+   ",
"    .OOO.XX.OOOOOOO.XX.OOOO.+   ",
"    ....XXXX.......XXXX.....+   ",
"    .XXXXXXXXXXXXXXXXXXXXXX.+   ",
"    .XXXXXXXXXXXXXXXXXXXXXX.+   ",
"    .XXXXXXXXXXXXXXXXXXXXXX.+   ",
"    .XXXX.XXX.X.XX.X.XX.XXX.+   ",
"    .XXXX.XXX.X..X.X.X.XXXX.+   ",
"    .XXXX.XXX.X.X..X..XXXXX.+   ",
"    .XXXX.XXX.X.XX.X.X.XXXX.+   ",
"    .XXXX...X.X.XX.X.XX.XXX.+   ",
"    .XXXXXXXXXXXXXXXXXXXXXX.+   ",
"    .XXXXXXXXXXXXXXXXXXXXXX.+   ",
"    ........................+   ",
"     ++++++++++++++++++++++++   "};
