/* XPM */
static char *noname[] = {
/* width height ncolors chars_per_pixel */
"64 54 3 1",
/* colors */
". c blue",
"` c magenta",
"a s None c None",
/* pixels */
"aa.aa.aa.aa.aa.aa.aa.aa.aa.aa.aa.aa.aa.aa.aa.aa.aa.aa.aa.aa.aa.a",
"a.aa.aa.aa.aa.aa.aa.aa.aa.aa.aa.aa.aa.aa.aa.aa.aa.aa.aa.aa.aa.aa",
".aa.aa.aa.aa.aa.aa.aa.aa.aa.aa.aa.aa.aa.aa.aa.aa.aa.aa.aa.aa.aa.",
"aa.aa.aa.aa.aa.aa.aa.aa.aa.aa.aa.aa.aa.aa.aa.aa.aa.aa.aa.aa.aa.a",
"a.aa.aa.aa.aa.aa.aa.aa.aa.aa.aa.aa.aa.aa.aa.aa.aa.aa.aa.aa.aa.aa",
".aa.aa.aa.aa.aa.aa.aa.aa.aa.aa.aa.aa.aa.aa.aa.aa.aa.aa.aa.aa.aa.",
"aaaaaaaaaaaaaaaaaaaaaaaaaaaaaaaaaaaaaaaaaaaaaaaaaaaaaaaaaaaaaaaa",
"aaaaaaaaaaaaaaaaaaaaaaaaaaaaaaaaaaaaaaaaaaaaaaaaaaaaaaaaaaaaaaaa",
"aaaaaaaaaaaaaaaaaaaaaaaaaaaaaaaaaaaaaaaaaaaaaaaaaaaaaaaaaaaaaaaa",
"aaaaaaaaaaaaaaaaaaaaaa`aaaaaaaaaaaaaaaaaaaaaaaaaaaaaaaaaaaaaaaaa",
"aaaaaaaaaaaaaaaaaaaa```aaaaaaaaaaaaaaaaaaaaaaaaaaaaaaaaaaaaaaaaa",
"aaaaaaaaaaaaaaaaaa`````aaaaaaaaaaaaaaa```aaa````aaaaaaa````aaaaa",
"aaaaaaaaaaaaaaaa```````aaaaaaaaaaaa`````aa````````aaaa``````aaaa",
"aaaaaaaaaaaaaa`````````aaaaaaaaa``````aa``````````aaa````````aaa",
"aaaaaaaaaaaaaa`````````aaaaaaa```````aa```````````aa`````````aaa",
"aaaaaaaaaaaaaa`````````aaaaaa```````aa````````````a``````````aaa",
"aaaaaaaaaaaaaa`````````aaaa````````aa`````````````a``````````aaa",
"aaaaaaaaaaaaaa`````````aaa```````aaaaa````````````a`````````aaaa",
"aaaaaaaaaaaaaa`````````aa```````aaaaaaa`````````aa``````````aaaa",
"aaaaaaaaaaaaaa`````````a```````aaaaaaaa`````````aa`````````aaa`a",
"aaaaaaaaaaaaaa````````````````aaaaaaaa`````````aaa`````````aa``a",
"aaaaaaaaaaaaaa```````````````aaaaaaaaa````````aaaa````````aa```a",
"aaaaaaaaaaaaaa`````````````aaaaaaaaaa`````````aaaa````````````aa",
"aaaaaaaaaaaaaa````````````aaaaaaaaaa`````````aaaaa````````````aa",
"aaaaaaaaaaaaaa```````````aaaaaaaaaa`````````aaaaaaa``````````aaa",
"aaaaaaaaaaaaaa``````````aaaaaaaaaa``````````aaaaaa``````````aaaa",
"aaaaaaaaaaaaaa`````````aaaaaaaaaa``````````aaaaaa```````aaaaaaaa",
"aaaaaaaaaaaaa`````````aaaaaaaaaa``````````aaaaaaa``````aaaaaaaaa",
"aaaaaaaaaaa```````````aaaaaaaaa```````````aaaaaa```````aaaaaaaaa",
"aaaaaaaaa`````````````aaaaaaaa```````````aaaaaa```````aaaaaaaaaa",
"aaaaaaa```````````````aaaaaaa```````````aaaaaa```````aaaaaaaaaaa",
"aaaaaa````````````````aaaaaa````````````aaaaa```````aaaaaaaaaaaa",
"aaaaa`````````````````aaaa`````````````aaaaa````````aaaaaaaaaaaa",
"aaaa``````````````````aaa``````````````aaaa````````aaaaaaaaaaaaa",
"aaa````````````````````a``````a````````aa``````````aaaaaaaaaaaaa",
"aaa``````````a```````````````aa````````a``````````aaaaaaaaaaaaaa",
"aa`````````aaa``````````````aaa``````````````````aaaaaaaaaaaaaaa",
"aa````````aaaa`````````````aaaa`````````````````aaaaaaaaaaaaaaaa",
"aa``````aaaaaa````````````aaaaa````````````````aaaaaaaaaaaaaaaaa",
"aa``````aaaaaa```````````aaaaaaa``````````````aaaaaaaaaaaaaaaaaa",
"aa`````aaaaaaa``````````aaaaaaaa`````````````aaaaaaaaaaaaaaaaaaa",
"aa`````aaaaaaaa```````aaaaaaaaaaa``````````aaaaaaaaaaaaaaaaaaaaa",
"aaa`````aaaaaaaa`````aaaaaaaaaaaaa````````aaaaaaaaaaaaaaaaaaaaaa",
"aaaaa````aaaaaaaaaaaaaaaaaaaaaaaaaaa````aaaaaaaaaaaaaaaaaaaaaaaa",
"aaaaaaaaaaaaaaaaaaaaaaaaaaaaaaaaaaaaaaaaaaaaaaaaaaaaaaaaaaaaaaaa",
"aaaaaaaaaaaaaaaaaaaaaaaaaaaaaaaaaaaaaaaaaaaaaaaaaaaaaaaaaaaaaaaa",
"aaaaaaaaaaaaaaaaaaaaaaaaaaaaaaaaaaaaaaaaaaaaaaaaaaaaaaaaaaaaaaaa",
"aaaaaaaaaaaaaaaaaaaaaaaaaaaaaaaaaaaaaaaaaaaaaaaaaaaaaaaaaaaaaaaa",
"aa.aa.aa.aa.aa.aa.aa.aa.aa.aa.aa.aa.aa.aa.aa.aa.aa.aa.aa.aa.aa.a",
"a.aa.aa.aa.aa.aa.aa.aa.aa.aa.aa.aa.aa.aa.aa.aa.aa.aa.aa.aa.aa.aa",
".aa.aa.aa.aa.aa.aa.aa.aa.aa.aa.aa.aa.aa.aa.aa.aa.aa.aa.aa.aa.aa.",
"aa.aa.aa.aa.aa.aa.aa.aa.aa.aa.aa.aa.aa.aa.aa.aa.aa.aa.aa.aa.aa.a",
"a.aa.aa.aa.aa.aa.aa.aa.aa.aa.aa.aa.aa.aa.aa.aa.aa.aa.aa.aa.aa.aa",
".aa.aa.aa.aa.aa.aa.aa.aa.aa.aa.aa.aa.aa.aa.aa.aa.aa.aa.aa.aa.aa."
};
