/* XPM */
static char * app_plain_xpm[] = {
/* width height ncolors chars_per_pixel */
"32 32 6 1",
/* colors */
" 	s background	c None",
".	c black",
"X	c #777777",
"o	c #FFFFCC",
"O	c #FFCC99",
"+	c white",
/* pixels */
"               .                ",
"              ...               ",
"             ....X              ",
"            ....Xo.             ",
"           ....Xooo.            ",
"          ....Xooooo.           ",
"         ....Xooooooo.          ",
"        ....Xooooooooo.         ",
"       ....Xooooooooooo.        ",
"      ....Xooooooooooooo.       ",
"     ....Xooooooooooooooo.      ",
"    ....Xooooooooooooooooo.     ",
"   ....Xooooooooooooooooooo.    ",
"  ....Xooooooooooooooooooooo.   ",
" ....Xooooooooooooooooooooooo.  ",
".X..Xooooooooooooooooooooooooo. ",
" .XXooooooooooooooooooooooooooO.",
"  .+oooooooooooooooooooooooooO. ",
"   .+oooooooooooooooooooooooO.  ",
"    .+oooooooooooooooooooooO.   ",
"     .+oooooooooooooooooooO.    ",
"      .+oooooooooooooooooO.     ",
"       .+oooooooooooooooO.      ",
"        .+oooooooooooooO.       ",
"         .+oooooooooooO.        ",
"          .+oooooooooO.         ",
"           .+oooooooO.          ",
"            .+oooooO.           ",
"             .+oooO.            ",
"              .+oO.             ",
"               .+.              ",
"                .               "};
