/* XPM */
static char * app_link_small_xpm[] = {
"16 16 13 1",
" 	s background	c None",
".	c #208120812081",
"X	c black",
"o	c #FFFFFFFFCF3C",
"O	c #820782078207",
"+	c #FFFFCF3C9A69",
"@	c #FFFF9A696595",
"#	c white",
"$	c #9A6930C20000",
"%	c #FFFF659530C2",
"&	c #75D675D675D6",
"*	c #555555555555",
"=	c #C30BC30BC30B",
"        .       ",
"       XXX      ",
"      XXooX     ",
"     XXooooX    ",
"    XXooooooX   ",
"   XXooooooooX  ",
"  XXooooooooooX ",
"OOOOOOOOo++@oooX",
"O######X+$%++oo+",
"O##XXX#X$$X%+++X",
"O###XX#X%$@++++&",
"O##X#X#X$$%%%%$*",
"O#X####X==$$$$$.",
"O#X####Xo=&X   X",
"O######Xo+X     ",
"XXXXXXXXXX      "};
