/* XPM */
static char * backarr_xpm[] = {
"16 17 5 1",
" 	s None	c None",
".	c white",
"X	c gray70",
"o	c green",
"O	c black",
"        .X      ",
"       .oO      ",
"      .ooO      ",
"     .oooO      ",
"    .ooooO      ",
"   .oooooO....X ",
"  .oooooooooooO ",
" .ooooooooooooO ",
".oooooooooooooO ",
" OooooooooooooO ",
"  OoooooooooooO ",
"   OoooooOOOOOO ",
"    OooooO      ",
"     OoooO      ",
"      OooO      ",
"       OoO      ",
"        OO      "};
