/* XPM */
static char * bookshelf_small_xpm[] = {
"16 16 51 1",
" 	s background	c None",
".	c #FFFFCF3C9A69",
"X	c white",
"o	c #A289A289A699",
"O	c #104010401040",
"+	c #75D675D675D6",
"@	c #DF7DDF7DDF7D",
"#	c #CF3C65956595",
"$	c #CF3C30C26595",
"%	c #30C29A696595",
"&	c #9A69CF3CFFFF",
"*	c #9A69659530C2",
"=	c #000030C230C2",
"-	c #659565956595",
";	c #30C265956595",
":	c #208120812081",
">	c #CF3C9A69FFFF",
",	c #65959A69FFFF",
"<	c #208100000000",
"1	c #CF3C659530C2",
"2	c #65959A699A69",
"3	c #6595659530C2",
"4	c #659530C20000",
"5	c #CF3C65959A69",
"6	c black",
"7	c #659530C26595",
"8	c #451445144514",
"9	c #65959A696595",
"0	c #6595CF3CFFFF",
"q	c #CF3C9A696595",
"w	c #FFFF65956595",
"e	c #9A69CF3C9A69",
"r	c #CF3C9A699A69",
"t	c #65959A69CF3C",
"y	c #000000002081",
"u	c #6595CF3CCF3C",
"i	c #30C230C230C2",
"p	c #659565959A69",
"a	c #30C230C20000",
"s	c #9A699A69FFFF",
"d	c #9A6965956595",
"f	c #FFFF65959A69",
"g	c #FFFFCF3CCF3C",
"h	c #9A699A696595",
"j	c #30C2000030C2",
"k	c #9A6930C230C2",
"l	c #9A6930C26595",
"z	c #9A699A699A69",
"x	c #659530C230C2",
"c	c #30C2659530C2",
"v	c #9A6965959A69",
"                ",
"                ",
"       .Xo      ",
"       oXOXX+   ",
"    o@+#$OXXO   ",
"    %&O#*=-;:   ",
"    >,<1#:22O   ",
"    34:#56786   ",
"    90<qw<oeO   ",
"   r;t<##yeuOo  ",
"   i9p:##Oo2O:  ",
"   aosy5d=e2Oi  ",
"   a+pOff:oe:a  ",
" gh:a4jkl:zo::io",
"g.d:+p:*x<c8<:i:",
"ovvo;;:xx:iiiz+z"};
