/* XPM */
static char * book_xpm[] = {
/* width height ncolors chars_per_pixel */
"32 32 5 1",
/* colors */
" 	s background	c None",
".	c black",
"X	c white",
"o	c #C0C0C0",
"O	c #808080",
/* pixels */
"      .                         ",
"      ...                       ",
"  .   .XX..                     ",
"  ... .XXXo..                   ",
"  .Xo..XXoXoo.                  ",
"...XoO.XXXoXoO..................",
".O.XoO.XXoXooO.OooXXXXXXXXXXo.o.",
".O.XoO.XXXoXoO.OoXoXXXXXXXXXo.o.",
".O.XoO.XXoXooO.OooXXXXXXXXXXo.o.",
".O.XoO.XXXoXoO.OoXoXXXXXXXXXo.o.",
".O.XoO.XXoXooO.OooXXXXXXXXXXo.o.",
".O.XoO.XXXoXoO.OoXoXXXXXXXXXo.o.",
".O.XoO.XXoXooO.OooXXXXXXXXXXo.o.",
".O.XoO.XXXoXoO.OoXoXXXXXXXXXo.o.",
".O.XoO.XXoXooO.OooXXXXXXXXXXo.o.",
".O.XoO.XXXoXoO.OoXoXXXXXXXXXo.o.",
".O.XoO.XXoXooO.OooXXXXXXXXXXo.o.",
".O.XoO.XXXoXoO.OoXoXXXXXXXXXo.o.",
".O.XoO.XXoXooO.OooXXXXXXXXXXo.o.",
".O.XoO.XXXoXoO.OoXoXXXXXXXXXo.o.",
".O.XoO.XXoXooO.OooXXXXXXXXXXo.o.",
".O.XoO.XXXoXoO.OoXoXXXXXXXXXo.o.",
".O.XoO.XXoXooO.OooXXXXXXXXXXo.o.",
".O.XoO.XXXoXoO.OoXoXXXXXXXXXo.o.",
".O.XoO.XXoXooO.OooXXXXXXXXXXo.o.",
".O.XoO.XXXoXoO.OoXoXXXXXXXXXo.o.",
".O.XXoO..oXooO.OooXXXXXXXXXXo.o.",
".O...XoOO..XoO.OoXoXXXXXXXXXo.o.",
".oOOO..ooOO..O.OooXXXXXXXXXXo.o.",
".ooooOO....OO.................o.",
"................................",
"                                "};
