/* XPM */
static char * calc_xpm[] = {
/* width height num_colors chars_per_pixel */
"32 32 7 1",
/* colors */
" 	s background	c None",
".	c black",
"X	c white",
"o	c gray50",
"O	c gray60",
"+	c #c0c0c0",
"@	c gray90",
/* pixels */
"                                ",
"                                ",
"                                ",
"                                ",
"                                ",
"  ............................. ",
" .XXXXXXXXXXXXXXXXXXXXXXXXXXXXo.",
" .XOO...............OOOOOOOOOOo.",
" .XOO.+++++++++++++@OOOOOOOOOOo.",
" .XOO.XXXXXXXXXXXXX@OOOOOOOOOOo.",
" .XOO.@@@@@@@@@@@@@@OOOOOOOOOOo.",
" .XOOOOOOOOOOOOOOOOOOOOOOOOOOOo.",
" .XOOO+.OX+.OX+.OX+.OX+.OX+.OOo.",
" .XOO++.O++.O++.O++.O++.O++.OOo.",
" .XOO...O...O...O...O...O...OOo.",
" .XOOOOOOOOOOOOOOOOOOOOOOOOOOOo.",
" .XOOO+.OX+.OX+.OX+.OX+.OX+.OOo.",
" .XOO++.O++.O++.O++.O++.O++.OOo.",
" .XOO...O...O...O...O...O...OOo.",
" .XOOOOOOOOOOOOOOOOOOOOOOOOOOOo.",
" .XOOO+.OX+.OX+.OX+.OXXXXXX.OOo.",
" .XOO++.O++.O++.O++.OX+++++.OOo.",
" .XOO...O...O...O...O.......OOo.",
" .XOOOOOOOOOOOOOOOOOOOOOOOOOOOo.",
" .ooooooooooooooooooooooooooooo.",
"  ............................. ",
"                                ",
"                                ",
"                                ",
"                                ",
"                                ",
"                                "};
