/* XPM */
static char * camera_xpm[] = {
"32 32 8 1",
" 	s background	c None",
".	c #820782078207",
"X	c black",
"o	c #A289A289A699",
"O	c white",
"+	c #FFFFFFFF0000",
"@	c #C30BC30BC30B",
"#	c #820700000000",
"                                ",
"                                ",
"                                ",
"                                ",
"                                ",
"                           ..   ",
"   XXX                  .....   ",
"  XXXXX                XXXXXXX  ",
"  Xo.XX                XO..XXX  ",
" XXXXXXXXXXXXXXXXXXXXXXXXXXXXX  ",
"Xoo.XXo.......................X ",
"Xoo.XXo...............XXXXXXX.X ",
"XXXXXXo...............X++@@@XXX ",
"Xoooooo.....XXXXX.....X@.@X.XXX ",
"X.........XX.....XX..XX@X..XXXX ",
"X........X..XXXXX..X.XXXXXXXXXX ",
"X.......X..X#####X..X.XXXXXXXXX ",
"X.......X.XX@@XXXXX.X.X......XX ",
"X......X.X##@@XXXX#X.X.X.....XX ",
"X......X.X#@@XXXXX#X.X.X.....XX ",
"X......X.X#@@XXXXX#X.X.X....XXX ",
"X......X.XXXXXXXXX#X.X.X....XXX ",
"X......X.XXXXXXXX###.X.X....XXX ",
"X.......X.X#XXXX##X.X.X.....XXX ",
"X.......X..X#####X..X.X.....XXX ",
"X........X..XXXXX..X.X......XXX ",
"X.........XX.....XX..X....XXXXX ",
"X......XXX..XXXXX....XXXXXXXXXX ",
"XXXXXXXXXXXX.....XXXXXXXXXXXXXX ",
"Xooooooooooooooooo........XXXXX ",
" XXXXXXXXXXXXXXXXXXXXXXXXXXXXX  ",
"                                "};
