/* XPM */
static char * cdrom_xpm[] = {
/* width height ncolors chars_per_pixel */
"32 32 14 1",
/* colors */
" 	s background	c None",
".	c black",
"X	c #C0C0C0",
"o	c #CCCCCC",
"O	c #DDDDDD",
"+	c #444444",
"@	c white",
"#	c #999999",
"$	c #9999FF",
"%	c #CCCCFF",
"&	c #6666CC",
"*	c #A0A0A4",
"=	c #555555",
"-	c #FFFBF0",
/* pixels */
"    .........................   ",
"   .XXXXXXXXXXXXXXXXXXXXXXXXo.  ",
"  .XoOOOOOOOo+++++++oOOOOOOOO@. ",
"  .XOOOOOOo++#$$%%%#++oOOOOOO@. ",
"  .XOOOOO++&&&$$%%XX**++OOOOO@. ",
"  .XOOOO+=$$&&$$%%X**#*=+OOOO@. ",
"  .XOOO+=&&$&&&$%%X***#*=+OOO@. ",
"  .XOO+=&&&&$&&$$%X**#*##=+OO@. ",
"  .XOo+$$&&&&$&$$%**#*####+oO@. ",
"  .XO+=$$$$&&=+++++=*######+O@. ",
"  .Xo+=$$$$$+=@@@@@=+##*#**+o@. ",
"  .X+#%%%$$==@o===O@==*#****+@. ",
"  .X+%%%%%%+@o=XXX#O@+*****X+O. ",
"  .X+%*XXXX+@=XoOOO#@+**XXXX+O. ",
"  .X+XXXX**+@=XOOOX=@+**XXXX+O. ",
"  .X+X*****+@=XOOoX=@+XXXX*%+O. ",
"  .X+*****#+@O#OXX=o@+%%%%%%+O. ",
"  .X+#*#*#*==@O#==o@==$$%%%#+O. ",
"  .Xo+#*#*##+=@@@@@=+$$$$$=+oO. ",
"  .XO+=######=+++++=&&$$$$=+O-. ",
"  .XOo+######**%$$&$&&&&$$+oO@. ",
"  .XOO+=####*#X%$$&&$&&&&=+OO@. ",
"  .XOOO+=####*X%%$&&&$&&=+OOO@. ",
"  .XOOOO+=##*#X%%$$&&$$=+OOOO@. ",
"  .XOOOOO++*#*X%%$$&&&++OOOOO@. ",
"  .XOOOOOOo++#%%%$$#++oOOOOOO@. ",
"  .XOOOOOOOOo+++++++oOOOOOOOo@. ",
"  .XOOOOOOOOOOoooooooOOOOOOOO@. ",
"  ............................. ",
"  .-oooooooooooooooooooooooooX. ",
"  .OXXXXXXXX+++++++++XXXXXXXX*. ",
"   ...........................  "};
