/* XPM */
static char * chess3_xpm[] = {
/* width height num_colors chars_per_pixel */
"32 32 5 1",
/* colors */
" 	s background	c None",
".	c #808080",
"X	c black",
"o	c #c0c0c0",
"O	c white",
/* pixels */
"                                ",
"           .X.                  ",
"           XXX.oo o             ",
"           X.XX..oOo            ",
"          XXX.XoX.X. o          ",
"          XXXX.XOo.X..o         ",
"         .XXXXX.X.O.XXOo        ",
"         XXXXXXXXX.o.XX.o       ",
"        .XXXXXXXXXX.O.XX.o      ",
"        XXXXXXXXXoXX.o.X.o      ",
"       .XXXXXXXXXXoXXO.XXOo     ",
"       XXXXXXXXXXXoX.o.XX.o     ",
"      .XXXXXXXXXX.oXX.o.XXo     ",
"     .XXXXXXXXXXXoXXXXOoXXOo    ",
"     XXXXXXXXXXX..XXX.o.XX.o    ",
"     XXXXX.......XXXXXOo.X.o    ",
"     .XXX  ..XXXXXXXX.o.XX.     ",
"      .X   .XXXXXXXXXXOo.X.o    ",
"          XXXXXXXXXXX.o.XX.o    ",
"         XXXXXXXXXXX.O.XX.Oo    ",
"        .XXXXXXXXXX.X.oX..o     ",
"        XXXXXXXXXX.XO.XX.Oo     ",
"        X.X.X.X...oO.XX..o      ",
"        .X.X.........X.Oo       ",
"         .XXXXXXXXXXXX.o        ",
"         X.....o...oOo.         ",
"         XXXXXXXXXXXXX          ",
"       ........o...oOoo.        ",
"        XXXXXXXXXXXXXXX         ",
"       .X..X.X.o.X.XoOX.        ",
"      .XXXXXXXXXXXXXXX.X.       ",
"      XXXXXXXXXXXXXXXoXoX       "};
