/* XPM */
static char * circuit2_xpm[] = {
"32 32 5 1",
" 	s background	c None",
".	c #7DF77DF77DF7",
"X	c white",
"o	c black",
"O	c #BEFBBEFBBEFB",
"    ..................          ",
"    .XXXXXXXXXXXXXXXX.o         ",
"    .XXXXXXXXXXXXXXXX..o        ",
"    .XXXXXXXXXXXXXXoX.O.o       ",
"    .XXXXXXXXXXXXXXoX.OO.o      ",
"    .XXXoooXXXXXXoooo.XOO.o     ",
"    .XXXXXXXXoooXXXoX.XXOO.o    ",
"    .XXXXXXXoXXXoXXoX.ooooooo   ",
"    .XXXXXXoXXXXXoXXXXOOOOOOo   ",
"    .XXXooooXXXXXoooooOOOOOOo   ",
"    .XXXoXXoXXXXXoXXXoXXXXXOo   ",
"    .XXXoXXXoXXXoXXXXoXXXXXOo   ",
"    .XXXoXXXXoooXXXXXoXXXXXOo   ",
"    .XXXoXXXXXXXXXXXXoXXXXXOo   ",
"    .XXooXXXXXXXXXXXXoXXXXXOo   ",
"    .XooXXXXXXXXXXoooooooXXOo   ",
"    .XXoooXXXXXXXXoooooooXXOo   ",
"    .XXXXooXXXXXXXXXXXXXXXXOo   ",
"    .XXoooXXXXXXXXXoooooXXXOo   ",
"    .XooXXXXXXXXXXoooooooXXOo   ",
"    .XXoooXXXXXXXXoXXoXXoXXOo   ",
"    .XXXXooXXXXXXXXXXoXXXXXOo   ",
"    .XXXooXXXXXXXXXXXoXXXXXOo   ",
"    .XXXoXXXXXXXXXXXXoXXXXXOo   ",
"    .XXXoXXXXXXXXXXXXoXXXXXOo   ",
"    .XXXoXXXXXXXXXXXXoXXXXXOo   ",
"    .XXXooooooooooooooXXXXXOo   ",
"    .XXXXXXXXXXXXXXXXXXXXXXOo   ",
"    .XXXXXXXXXXXXXXXXXXXXXXOo   ",
"    .XXXXXXXXXXXXXXXXXXXXXXOo   ",
"    .OOOOOOOOOOOOOOOOOOOOOOOo   ",
"    ooooooooooooooooooooooooo   "};
