/* XPM */
static char * circuit_xpm[] = {
"32 32 5 1",
" 	s background	c None",
".	c #7DF77DF77DF7",
"X	c white",
"o	c black",
"O	c #BEFBBEFBBEFB",
"    ..................          ",
"    .XXXXXXXXXXXXXXXX.o         ",
"    .XXXXXXXXXXXXXoXX..o        ",
"    .XXXXXXXXXXXXoooX.O.o       ",
"    .XXXXXXXXXXXoXoXo.OO.o      ",
"    .XXXXXXXXXXXXXoXX.XOO.o     ",
"    .XXXXXXXXXXXXXoXX.XXOO.o    ",
"    .XXXXXXXXXXXXXoXX.ooooooo   ",
"    .XXXXXXXXoXooooXXXOOOOOOo   ",
"    .XXXXXXXXoXoXXXXXXOOOOOOo   ",
"    .XXXXXooooXoXXXXXXXXXXXOo   ",
"    .XXXXXoXXoXoXXXXXXXXXXXOo   ",
"    .XXXXXoXXoXooooXXXXXXXXOo   ",
"    .XoXXXoXXXXXXXoXXXXoXXXOo   ",
"    .XooXXoXXXXXXXoXXXXooXXOo   ",
"    .XoooooXXXXXXXooooooooXOo   ",
"    .XooXXoXXXXXXXoXXXXooXXOo   ",
"    .XoXXXoXXXXXXXoXXXXoXXXOo   ",
"    .XXXXXoXXoXooooXXXXXXXXOo   ",
"    .XXXXXoXXoXoXXXXXXXXXXXOo   ",
"    .XXXXXooooXoXXXXXXXXXXXOo   ",
"    .XXXXXXXXoXoXXXXXXXXXXXOo   ",
"    .XXXXXXXXoXooooXXXXXXXXOo   ",
"    .XXXXXXXXXXXXXoXXXXXXXXOo   ",
"    .XXXXXXXXXXXXXoXXXXXXXXOo   ",
"    .XXXXXXXXXXXoooooXXXXXXOo   ",
"    .XXXXXXXXXXXXXXXXXXXXXXOo   ",
"    .XXXXXXXXXXXXoooXXXXXXXOo   ",
"    .XXXXXXXXXXXXXXXXXXXXXXOo   ",
"    .XXXXXXXXXXXXXoXXXXXXXXOo   ",
"    .OOOOOOOOOOOOOOOOOOOOOOOo   ",
"    ooooooooooooooooooooooooo   "};
