/* XPM */
static char * clip_file_xpm[] = {
"32 32 39 1",
" 	c None",
".	c #000000",
"+	c #808080",
"@	c #FFFFFF",
"#	c #202020",
"$	c #353535",
"%	c #A0A0A0",
"&	c #606060",
"*	c #505050",
"=	c #999999",
"-	c #7C7C7C",
";	c #6B6B6B",
">	c #ABABAB",
",	c #797979",
"'	c #AEAEAE",
")	c #C0C0C0",
"!	c #4E4E4E",
"~	c #D5D5D5",
"{	c #E0E0E0",
"]	c #D2D2D2",
"^	c #C7C7C7",
"/	c #393939",
"(	c #DCDCDC",
"_	c #757575",
":	c #D9D9D9",
"<	c #4B4B4B",
"[	c #454545",
"}	c #CBCBCB",
"|	c #B9B9B9",
"1	c #6E6E6E",
"2	c #242424",
"3	c #1B1B1B",
"4	c #929292",
"5	c #3C3C3C",
"6	c #B5B5B5",
"7	c #5C5C5C",
"8	c #151515",
"9	c #2E2E2E",
"0	c #0B0B0B",
"                                ",
"                                ",
"       .....                    ",
"      .+++++.                   ",
"     .@+...@+.                  ",
"    .@+.   .@+.   .             ",
"    .@.   ...@+.#$%$            ",
"    .@.  .@@+.@+.%%&            ",
"    .@. .@@.@+.@+.%%.           ",
"    .@. .@.%.@+.@+.%*           ",
"    .@+..@.=%.@+.@+.-#          ",
"     .@+.@+.%%.@+.@+.$          ",
"      .@+.@+.%%.@+.@+..         ",
"      #.@+.@+.%%.@+.@+.         ",
"       ;.@+.@+.>>.@+.@+.        ",
"       ,'.@+.@+.)).@+.@+.       ",
"       ,)).@+.@+.)).@+.@+.      ",
"       !~~).@+.@+.)).@+..       ",
"       .{{{{.@+.@+.]^.@+./      ",
"       .]{{{{.@+.@+.(~.@+.      ",
"        _{{{{{.@+.@+.{:.@+.     ",
"        <{{{{{{.@+..{{{{.@+.    ",
"        [}{{{{{{.@+.{{|,..@+.   ",
"         %{{{{{{{.@+.12....+.   ",
"         ;{{{{{{{].@+......+.   ",
"         3{{{{{]45..@+... .+.   ",
"          6{}%78.....@+...++.   ",
"          9<$0...    .@@@@@.    ",
"     ......................     ",
"   ........................     ",
"                                ",
"                                "};
