/* XPM */
static char * clip_xpm[] = {
/* width height ncolors chars_per_pixel */
"32 32 4 1",
/* colors */
" 	s background	c None",
".	c black",
"X	c #808080",
"o	c white",
/* pixels */
"                                ",
"                                ",
"      .....                     ",
"     .XXXXX.                    ",
"    .oX...oX.                   ",
"   .oX.   .oX.                  ",
"   .o.   ...oX.                 ",
"   .o.  .ooX.oX.                ",
"   .o. .oo.oX.oX.               ",
"   .o. .o. .oX.oX.              ",
"   .oX..o.  .oX.oX.             ",
"    .oX.oX.  .oX.oX.            ",
"     .oX.oX.  .oX.oX.           ",
"      .oX.oX.  .oX.oX.          ",
"       .oX.oX.  .oX.oX.         ",
"        .oX.oX.  .oX.oX.        ",
"         .oX.oX.  .oX.oX.       ",
"          .oX.oX.  .oX..        ",
"           .oX.oX.  .oX.        ",
"            .oX.oX.  .oX.       ",
"             .oX.oX.  .oX.      ",
"              .oX..    .oX.     ",
"               .oX.     .oX.    ",
"                .oX.     .X.    ",
"                 .oX.    .X.    ",
"                  .oX.   .X.    ",
"                   .oX...XX.    ",
"                    .ooooo.     ",
"    ......................      ",
"  ........................      ",
"                                ",
"                                "};
