/* XPM */
static char * clip_folder_xpm[] = {
"32 32 23 1",
" 	c None",
".	c #000000",
"+	c #808080",
"@	c #FFFFFF",
"#	c #CECEFF",
"$	c #373740",
"%	c #DADAFF",
"&	c #6D6D7F",
"*	c #404040",
"=	c #F3F3FF",
"-	c #EDEDFF",
";	c #F9F9FF",
">	c #E0E0FF",
",	c #676780",
"'	c #E6E6FF",
")	c #DDDDFF",
"!	c #4E4E80",
"~	c #3D3D40",
"{	c #CBCBFF",
"]	c #3A3A40",
"^	c #D4D4FF",
"/	c #E7E7FF",
"(	c #101010",
"                                ",
"                                ",
"      .....                     ",
"     .+++++.                    ",
"    .@+...@+.                   ",
"   .@+.   .@+.                  ",
"   .@.   ...@+.                 ",
"   .@.  .@@+.@+.                ",
"   .@. .@@.@+.@+.               ",
"   .@. .@.#.@+.@+.              ",
"   .@+..@.##.@+.@+.             ",
"    .@+.@+.##.@+.@+.......      ",
"    $.@+.@+.%%.@+.@+.%%%%%&     ",
"    *=.@+.@+.-=.@+.@+.-=;>,     ",
"    $'>.@+.@+.'>.@+.@+.'>)!     ",
"    ~'->.@+.@+.->.@+.@+.-{!     ",
"    ]''''.@+.@+.''.@+.@+.^!     ",
"    $'>-'>.@+.@+.'>.@+..>)!     ",
"    ~'->'->.@+.@+.->.@+.-{!     ",
"    ]''/''/'.@+.@+./'.@+.^!     ",
"    $'>-'>-'>.@+.@+.'>.@+.!     ",
"    ~'->'->'->.@+..>'->.@+.     ",
"    ]''/''/''/'.@+./''/'.@+.    ",
"    $'>-'>-'>-'>.@+.'>-'>.+.    ",
"    ~'->'->'->'->.@+.->'-.+.    ",
"    ]''/''/''/''/'.@+./''.+.    ",
"    (]~$]~$]~$]~$]~.@+...++.    ",
"                    .@@@@@.     ",
"    ......................      ",
"  ........................      ",
"                                ",
"                                "};
