/* XPM */
static char * compressed_xpm[] = {
"32 32 16 1",
" 	s background	c None",
".	c #7DF77DF77DF7",
"X	c white",
"o	c black",
"O	c #8A288A288A28",
"+	c #555555555555",
"@	c #BEFBBEFBBEFB",
"#	c #208120812081",
"$	c #CF3C9A696595",
"%	c #659530C20000",
"&	c #9A69659530C2",
"*	c #FFFFCF3C9A69",
"=	c #000000005555",
"-	c #000000008A28",
";	c #00000000AAAA",
":	c #0000000075D6",
"    ..................          ",
"    .XXXXXXXXXXXXXXXX.o         ",
"    .XXXOOOOOOOOOOOOO..o        ",
"    .XXO+++++++++++++.@.o       ",
"    .XXO++++#######++.@@.o      ",
"    .XXO+++#XXXXXXX#+.X@@.o     ",
"    .XoooooooXXXXXXXO.XX@@.o    ",
"    .XXXXXXXXXXXXXXXO.ooooooo   ",
"    .XXXXXXXXXXXXXXXO+@@@@@@o   ",
"    .XXXXXXXXXXXXXXXO+@@@@@@o   ",
"    .XXXXXXXXXXXXXXXO++#XXX@o   ",
"    .XXXXXXXXXXXXXXXO++#XXX@o   ",
"    .XXXXXXXXXXXXXXXO++#XXX@o   ",
"    .XXXXXXXXXXXXXXXO++#XXX@o   ",
"    .XXXXXXXXXXXXXXXO++#XXX@o   ",
"    .XXXXXXXXXXXXXXXO++#XXX@o   ",
"    .XXXXXXXXXXXXXXXO++#XXX@o   ",
"    .XXXXXXXXXXXXX$$O++#XXX@o   ",
"    .X#####ooXXXX%&$O++#$XX@o   ",
"    .XX##oooXXXXX%&*o++#*$X@o   ",
"    .XXX#+oXXXXXXX%*$o+#&*$@o   ",
"    .XOO#########o%&*$oo&*$@o   ",
"    .XO++++++++++#%&**&&**$@o   ",
"    .X#oooooooooooo%$*****$@o   ",
"    .XXXo+oXXXXXXXX%&*****$@o   ",
"    .XXXoooXXXXXXXXX%&*****@o   ",
"    .XXXo+oXXX#XXXXXX%&****@o   ",
"    .ooooooooo#XXXXXXX%&***@o   ",
"    .XXXoooXXX#XXXXXXX%&***@o   ",
"    .XXXXXXXXXXXXXXXXX=-;-:@o   ",
"    .@@@@@@@@@@@@@@@@@@@@@@@o   ",
"    ooooooooooooooooooooooooo   "};
