/* XPM */
static char * data_xpm[] = {
"32 32 6 1",
" 	s background	c None",
".	c #7DF77DF77DF7",
"X	c white",
"o	c black",
"O	c #BEFBBEFBBEFB",
"+	c #1C719248FFFF",
"    ..................          ",
"    .XXXXXXXXXXXXXXXX.o         ",
"    .XXXXXXXXXXXXXXXX..o        ",
"    .XXXXXXXXXXXXXXXX.O.o       ",
"    .XXXXXXXXXXXXXXXX.OO.o      ",
"    .XXXXXXXXXXXXXXXX.XOO.o     ",
"    .XXXXXXXXXXXXXXXX.XXOO.o    ",
"    .XXXXXXXXXXXXXXXX.ooooooo   ",
"    .XXXX++XXXX+XXXX+XOOOOOOo   ",
"    .XXX+XX+XX++XXX++XOOOOOOo   ",
"    .XXX+XX+XXX+XXXX+XXXXXXOo   ",
"    .XXXX++XXX+++XX+++XXXXXOo   ",
"    .XXXXXXXXXXXXXXXXXXXXXXOo   ",
"    .XXXXXXXXXXXXXXXXXXXXXXOo   ",
"    .XXXX+XXXX++XXXX++XXXXXOo   ",
"    .XXX++XXX+XX+XX+XX+XXXXOo   ",
"    .XXXX+XXX+XX+XX+XX+XXXXOo   ",
"    .XXX+++XXX++XXXX++XXXXXOo   ",
"    .XXXXXXXXXXXXXXXXXXXXXXOo   ",
"    .XXXXXXXXXXXXXXXXXXXXXXOo   ",
"    .XXXX++XXXX+XXXX++XXXXXOo   ",
"    .XXX+XX+XX++XXX+XX+XXXXOo   ",
"    .XXX+XX+XXX+XXX+XX+XXXXOo   ",
"    .XXXX++XXX+++XXX++XXXXXOo   ",
"    .XXXXXXXXXXXXXXXXXXXXXXOo   ",
"    .XXXXXXXXXXXXXXXXXXXXXXOo   ",
"    .XXXXXXXXXXXXXXXXXXXXXXOo   ",
"    .XXXXXXXXXXXXXXXXXXXXXXOo   ",
"    .XXXXXXXXXXXXXXXXXXXXXXOo   ",
"    .XXXXXXXXXXXXXXXXXXXXXXOo   ",
"    .OOOOOOOOOOOOOOOOOOOOOOOo   ",
"    ooooooooooooooooooooooooo   "};
