/* XPM */
static char * diff_xpm[] = {
"32 32 7 1",
" 	s background	c None",
".	c #7DF77DF77DF7",
"X	c white",
"o	c black",
"O	c #BEFBBEFBBEFB",
"+	c #000000008207",
"@	c #FFFF00000000",
"    ..................          ",
"    .XXXXXXXXXXXXXXXX.o         ",
"    .XXXXXXXXXXXXXXXX..o        ",
"    .XXXXXXXXXXXXXXXX.O.o       ",
"    .XXXXXXXXXXXXXXXX.OO.o      ",
"    .XXXXXXXXXXXXXXXX.XOO.o     ",
"    .XXXXXXXXXXXXXXXX.XXOO.o    ",
"    .XX+++++XXoXX++@X.ooooooo   ",
"    .XXXXXXXXXoXXXXXXXOOOOOOo   ",
"    .XX+++X++XoXX+X@+XOOOOOOo   ",
"    .XXXXXXXXXoXXXXXXXXXXXXOo   ",
"    .XX++X++XXoXX+@@X++XXXXOo   ",
"    .XXXXXXXXXoXXXXXXXXXXXXOo   ",
"    .XX+++XXXXoXX@@@XXXXXXXOo   ",
"    .XXXXXXXXXoXXXXXXXXXXXXOo   ",
"    .XX++++X+XoXX+@@XX++XXXOo   ",
"    .XXXXXXXXXoXXXXXXXXXXXXOo   ",
"    .XX+++XX+XoXX++XX@@@XXXOo   ",
"    .XXXXXXXXXoXXXXXXXXXXXXOo   ",
"    .XXXXXXXXXoXXXXXXXXXXXXOo   ",
"    .XXXXXXXXXoXXXXXXXXXXXXOo   ",
"    .XXXXXXXXXoXXXXXXXXXXXXOo   ",
"    .XXXXXXXXXXXXXXXXXXXXXXOo   ",
"    .XXXXXXXXXXXXXXXXXXXXXXOo   ",
"    .XXXX+++XX+X+++X+++XXXXOo   ",
"    .XXXX+XX+X+X+XXX+XXXXXXOo   ",
"    .XXXX+XX+X+X++XX++XXXXXOo   ",
"    .XXXX+XX+X+X+XXX+XXXXXXOo   ",
"    .XXXX@@@XX@X@XXX@XXXXXXOo   ",
"    .XXXXXXXXXXXXXXXXXXXXXXOo   ",
"    .OOOOOOOOOOOOOOOOOOOOOOOo   ",
"    ooooooooooooooooooooooooo   "};
