/* XPM */
static char * dot_a_xpm[] = {
"32 32 6 1",
" 	s background	c None",
".	c #7DF77DF77DF7",
"X	c white",
"o	c black",
"O	c #BEFBBEFBBEFB",
"+	c #820782078207",
"    ..................          ",
"    .XXXXXXXXXXXXXXXX.o         ",
"    .XXXXXXXXXXXXXXXX..o        ",
"    .XXXXXXXXXXXXXXXX.O.o       ",
"    .X.X.X.X.X.X.X.X..OO.o      ",
"    .XX.X.X.X.X.X.X.X.XOO.o     ",
"    .X.X.X.X.X.X.X.X..XXOO.o    ",
"    .XX.X.X.X.X.X.X.X.ooooooo   ",
"    .X.X.X.X.X.X.X.X.XOOOOOOo   ",
"    .XX.X.X.X.X.X.X.X.OOOOOOo   ",
"    .X.X.X.X.X.X.X.X.X+X.XXOo   ",
"    .XX.X.X.X.X.X.X.X.X.XXXOo   ",
"    .X.X.X.X.X.X.X.X.X+X.XXOo   ",
"    .XX.X.X.X.X.X.X.X.X.XXXOo   ",
"    .X.X.X.X.X.X.X.X.X.X.XXOo   ",
"    .XX.X.X.X.X.X.X.X.X.XXXOo   ",
"    .X.X.X.X.X.X.X.X.X.X.XXOo   ",
"    .XX.X.X.X.X.X.XXXXX.XXXOo   ",
"    .X.X.X.X.X.X.XXXXXXX.XXOo   ",
"    .XX.X.X.X.X.XXooooXXXXXOo   ",
"    .X.X.X.X.X.XXooooooXXXXOo   ",
"    .XX.X.X.X.XXoooXXoooXXXOo   ",
"    .X.X.X.X.X.XXXXXXoooXXXOo   ",
"    .XX.X.X.X.XXXoooooooXXXOo   ",
"    .X.X.X.X.X.XooooXoooXXXOo   ",
"    .XX.X.X.XXXXoooXXoooXXXOo   ",
"    .X.X.X.XXooXoooXooooXXXOo   ",
"    .XXXXXXXXooXooooooooXXXOo   ",
"    .XXXXXXXXooXXooooXooXXXOo   ",
"    .XXXXXXXXXXXXXXXXXXXXXXOo   ",
"    .OOOOOOOOOOOOOOOOOOOOOOOo   ",
"    ooooooooooooooooooooooooo   "};
