/* XPM */
static char * dot_c_xpm[] = {
"32 32 6 1",
" 	s background	c None",
".	c #7DF77DF77DF7",
"X	c white",
"o	c black",
"O	c #BEFBBEFBBEFB",
"+	c #71C682079248",
"    ..................          ",
"    .XXXXXXXXXXXXXXXX.o         ",
"    .XXXXXXXXXXXXXXXX..o        ",
"    .XXXXXXXXXXXXXXXX.O.o       ",
"    .X++++++++++++XXX.OO.o      ",
"    .XXXXXXXXXXXXXXXX.XOO.o     ",
"    .X++++++++++++XXX.XXOO.o    ",
"    .XXXXXXXXXXXXXXXX.ooooooo   ",
"    .XXXXX++++++XXXXXXOOOOOOo   ",
"    .XXXXXXXXXXXXXXXXXOOOOOOo   ",
"    .XXXXX++++++++XXXXXXXXXOo   ",
"    .XXXXXXXXXXXXXXXXXXXXXXOo   ",
"    .XXXXXXXXX+++++++XXXXXXOo   ",
"    .XXXXXXXXXXXXXXXXXXXXXXOo   ",
"    .XXXXXXXXX+++++++++XXXXOo   ",
"    .XXXXXXXXXXXXXXXXXXXXXXOo   ",
"    .XXXXX+++++++++XXXXXXXXOo   ",
"    .XXXXXXXXXXXXXXXXXXXXXXOo   ",
"    .XXXXX++++++++XXXXXXXXXOo   ",
"    .XXXXXXXXXXXXXXooooXXXXOo   ",
"    .XXXXXXXXX++XooooooooXXOo   ",
"    .XXXXXXXXXXXXoooXXoooXXOo   ",
"    .X+++++++++XoooXXXXXXXXOo   ",
"    .XXXXXXXXXXXoooXXXXXXXXOo   ",
"    .XXXXX+++++XoooXXXXXXXXOo   ",
"    .XXXXXXXXXXXoooXXXXXXXXOo   ",
"    .XXXXX+++XooXoooXXoooXXOo   ",
"    .XXXXXXXXXooXooooooooXXOo   ",
"    .XXXXXXXXXooXXXooooXXXXOo   ",
"    .XXXXXXXXXXXXXXXXXXXXXXOo   ",
"    .OOOOOOOOOOOOOOOOOOOOOOOo   ",
"    ooooooooooooooooooooooooo   "};
