/* XPM */
static char * image_name[] = {
"32 32 11 1",
" 	c None",
".	c #7DF77DF77DF7",
"X	c #FFFFFFFFFFFF",
"o	c #000000000000",
"O	c #A28951442CB2",
"+	c #FFFFFBEECF3C",
"@	c #2CB24D344D34",
"#	c #BEFBBEFBBEFB",
"$	c #FFFF00000000",
"%	c #D34CB6DA8E38",
"&	c #FFFFA6990000",
"    ..................          ",
"    .XXXXXXXXXXXXXXXX.o         ",
"    .O+O+O+O+O+@oO+++..o        ",
"    .++++++++++@o++O+.#.o       ",
"    .+$O+++++++@o%%++.##.o      ",
"    .$$++++++++@o%%++.X##.o     ",
"    .$$O%+++++@@@o%++.XX##.o    ",
"    .$$$%++++@@++@o++.ooooooo   ",
"    .$$oo++++@+O%%o%+%######o   ",
"    .$oXoo+++@+%%+o%%+######o   ",
"    .$oooo%O+@@O+ooO%O+O+OX#o   ",
"    .$ooooX%++@@@@++%+++++X#o   ",
"    .+oooXXX++@@@@+%%++O++X#o   ",
"    .+++o@XXXo@+%@@%++++++X#o   ",
"    .++O+o@XoooO%@@%+++O++X#o   ",
"    .+++++oO&oo%%@@%%+++++X#o   ",
"    .++O+++oO&oo%@@@%++O++X#o   ",
"    .+++++++oO&oo+@@%+++++X#o   ",
"    .O+O+O+O@oO&ooo@%O+O+OX#o   ",
"    .++++++@@@oO&ooo@%++++X#o   ",
"    .++O+++@@+%oO&ooo%+O++X#o   ",
"    .++++++@@%%@oO&oo%++++X#o   ",
"    .++O@@@@@@@@@oO&oooO++X#o   ",
"    .+++++@@+%%@@%oO&oo+++X#o   ",
"    .++O+%@@%%%@@%%oO&oo++X#o   ",
"    .++++@@@%%+++%%+oO&oo+X#o   ",
"    .O+O+@@@%O+O+O%O+oO&ooX#o   ",
"    .++++@@%%%+++++++@oO&oX#o   ",
"    .++O@@@%%%+O+++++@@oO&X#o   ",
"    .XXXXXXXXXXXXXXXXXXXXXX#o   ",
"    .#######################o   ",
"    ooooooooooooooooooooooooo   "};
