/* XPM */
static char * draw2_xpm[] = {
"32 32 5 1",
" 	s background	c None",
".	c #7DF77DF77DF7",
"X	c white",
"o	c black",
"O	c #BEFBBEFBBEFB",
"    ..................          ",
"    .XXXXXXXXXXXXXXXX.o         ",
"    .XXXXXXXXXXXXXXXX..o        ",
"    .XXXXXXXXXXXXXXXX.O.o       ",
"    .XXXXXXXXXXXXXoXX.OO.o      ",
"    .XXXXXXXXXXXXoXXX.XOO.o     ",
"    .XXXXXXXXXXXoXXXX.XXOO.o    ",
"    .XXXXXXXXXXoXXXXX.ooooooo   ",
"    .XXXXXXXXXoXXXXXXXOOOOOOo   ",
"    .XooooXXXoXXXXXXXXOOOOOOo   ",
"    .XXXXXooXXXXXXXXXXXXXXXOo   ",
"    .XXXXXXooXXXXXXXXXXXXXXOo   ",
"    .XXXXXoXoXXXXXXXXXXXXXXOo   ",
"    .XXXXoXXXoXXXXXXXXXXXXXOo   ",
"    .XoXoXXXXoXXXXXXXXXXXXXOo   ",
"    .XXoXXXXXoXXXXXXXXXXoXXOo   ",
"    .XoXoXXXXoXXXXoXXXXXoXXOo   ",
"    .XXXXoXXXoXXXXoooXXooXXOo   ",
"    .XXXXXoXoXXXXXoXXooXoXXOo   ",
"    .XXXXXXooXXXXXoXXXXXoXXOo   ",
"    .XXXXXooXXXXXXoXXXXoXXXOo   ",
"    .XooooXXXoXXXoXXXXXooXXOo   ",
"    .XXXXXXXXXoXXoXXXXooXXXOo   ",
"    .XXXXXXXXXXXoXXXXooXoXXOo   ",
"    .XXXXXXXXXXoXXXoooXoXXXOo   ",
"    .XXXXXXXXXoXXooXoXoXoXXOo   ",
"    .XXXXXXXooXoooXoXoXoXXXOo   ",
"    .XXXoooooXoXoXoXoXoXoXXOo   ",
"    .XXXXXXXXXXXXXXXXXXXXXXOo   ",
"    .XXXXXXXXXXXXXXXXXXXXXXOo   ",
"    .OOOOOOOOOOOOOOOOOOOOOOOo   ",
"    ooooooooooooooooooooooooo   "};
