/* XPM */
static char * emacs_xpm[] = {
/* gnu-emacs pixmap
 * width height ncolors chars_per_pixel */
"32 32 5 1",
/*U‰å‹E‹U‹*/
" 	s background	c None",
".	m black	c darkslategrey",
"X	m white	c orange",
"o	m black	c slate blue",
"O	m white	c white",
/* pixels */
"                     ....       ",
"                       ..  ...  ",
"                   ...........  ",
"                  .XXXXXXXX...  ",
"                  .XX.........  ",
"                  .XX.     ...  ",
"                 ......    ...  ",
"                           ...  ",
"                  o  o     ...  ",
"                   oo      ...  ",
" .............................. ",
" o............................  ",
" o ....OO....................   ",
"    ..O....OO..O.O..........    ",
"    ..O.OO.O.O.O.O..........    ",
" o  ..O..O.O.O.O.O..........    ",
" o  ...OOO.O.O..OO..........    ",
"    ........................    ",
"    ....OOO.................    ",
" o  ....O...O.O..OO..OO..OO.    ",
" o  ....OOO.OOO.O.O.O...O...    ",
"    ....O...O.O.O.O.O.....O.    ",
"    ....OOO.O.O..O.O.OO.OO..    ",
" o   ......................     ",
" o   ......................     ",
"             .X.  ....          ",
" o           .X. .XXXX.         ",
"             .X..X...X.         ",
" o           .X..X. .X.         ",
" o            .XX.  .X.         ",
"               ..   .X.         ",
"                                "};
