/* XPM */
static char * empty_xpm[] = {
"32 32 6 1",
" 	s background	c None",
".	c #7DF77DF77DF7",
"X	c white",
"o	c black",
"O	c #BEFBBEFBBEFB",
"+	c #CF3CCF3CFFFF",
"    ..................          ",
"    .XXXXXXXXXXXXXXXX.o         ",
"    .XXXXXXXXXXXXXXXX..o        ",
"    .XXXXXXXXXXXXXXXX.O.o       ",
"    .XXXXXXXXXXXXXXXX.OO.o      ",
"    .XXXXXXXXXXXXXXXX.XOO.o     ",
"    .XXXXXXXXXXXXXXXX.XXOO.o    ",
"    .XXXXXXXXXXXXXXXX.ooooooo   ",
"    .XXXXXoooooooooooXOOOOOOo   ",
"    .XXXooooooooooooooOOOOOOo   ",
"    .XXXoXoXXoooooXXoXoXXXXOo   ",
"    .XXXoooooXXXXXoooooXXXXOo   ",
"    .XXXoooooooooooooooXXXXOo   ",
"    .XXXoo+++++++++++ooXXXXOo   ",
"    .XXXo+++++++++++++oXXXXOo   ",
"    .XXXo+++++++++++++oXXXXOo   ",
"    .XXXo+++++++++++++oXXXXOo   ",
"    .XXXo+++++++++++++oXXXXOo   ",
"    .XXXo+++++++++++++oXXXXOo   ",
"    .XXXo+++++++++++++oXXXXOo   ",
"    .XXXo+++++++++++++oXXXXOo   ",
"    .XXXo+++++++++++++oXXXXOo   ",
"    .XXXo++ooooooooo++oXXXXOo   ",
"    .XXXo+o+++++++++o+oXXXXOo   ",
"    .XXXo+++++++++++++oXXXXOo   ",
"    .XXXXooo+++++++oooXXXXXOo   ",
"    .XXXXXXXoooooooXXXXXXXXOo   ",
"    .XXXXXXXXXXXXXXXXXXXXXXOo   ",
"    .XXXXXXXXXXXXXXXXXXXXXXOo   ",
"    .XXXXXXXXXXXXXXXXXXXXXXOo   ",
"    .OOOOOOOOOOOOOOOOOOOOOOOo   ",
"    ooooooooooooooooooooooooo   "};
