/* XPM */
static char * file_link_small_xpm[] = {
"16 16 6 1",
" 	s background	c None",
".	c #7DF77DF77DF7",
"X	c white",
"o	c black",
"O	c #BEFBBEFBBEFB",
"+	c #820782078207",
"  .........     ",
"  .XXXXXXX.o    ",
"  .XXXXXXX..o   ",
"  .XXXXXXX.X.o  ",
"  .XXXXXXX.oooo ",
"  .XXXXXXXXXXOo ",
"  .XXXXXXXXXXOo ",
"++++++++XXXXXOo ",
"+XXXXXXoXXXXXOo ",
"+XXoooXoXXXXXOo ",
"+XXXooXoXXXXXOo ",
"+XXoXoXoXXXXXOo ",
"+XoXXXXoXXXXXOo ",
"+XoXXXXoXXXXXOo ",
"+XXXXXXoOOOOOOo ",
"ooooooooooooooo "};
