/* XPM */
static char * fileserver_xpm[] = {
"32 32 18 1",
" 	s background	c None",
".	c black",
"X	c #451445144514",
"o	c #9A699A69FFFF",
"O	c white",
"+	c #FFFFFBEEF3CE",
"@	c #CF3CCF3CFFFF",
"#	c #9A699A699A69",
"$	c #65956595CF3C",
"%	c #75D675D675D6",
"&	c #A289A289A699",
"*	c #CF3CCF3CCF3C",
"=	c #C30BC30BC30B",
"-	c #CF3C9A696595",
";	c #555555555555",
":	c #FFFFCF3C9A69",
">	c #208120812081",
",	c #DF7DDF7DDF7D",
"                                ",
"  ..            .   .........   ",
".Xoo..         .O.  .+++++++..  ",
".@.Xoo..  ..  .O+O. .+++++++.O. ",
".@Oo.Xoo..@@..O+++O..+++++++....",
".@@@OoXXoooo@o.++++O.++++++++##.",
".@@@@@OoXXooo$.%++++O.+++++++++.",
".@@@@@@@OoXXo$.%&++++O.++++++++.",
".@@@@@@@@@OoX$.%&+++++O.+++++++.",
".@@@@@@@@@@o.$.%&++++++O.++++++.",
".@@@@@@@@@@o.$.%&+++++++*.+++++.",
".@@@@@@@@@@o.$.%&++++++*.%&++++.",
".@@@@@@@@@@o.$.%&+++++*.%&+++++.",
".$o@@@@@@@@o.$.%&++++*.%&++++++.",
"=..$o@@@@@@o.$.%&+++*.%&+++++++.",
"==...$o@@@@o.$.%&++*.%&++++++++.",
"==.--..$o@@o.$..&+*.............",
"=.-----..$oo.$.;.*.;;;;------.==",
"=.-------..$.$.;;.;;;---------.=",
"X::::::::::...--:::::::::::::::.",
"................................",
".##############################.",
"................................",
"              .O.               ",
"              .O.               ",
"             .....              ",
"             .O*#.              ",
"             .O*#.              ",
"             .....              ",
"             .*.*.              ",
"&&##%%;;XX...**.*#...>>>XX;;%%#&",
"++,,,,,,,,,,**.O.***************"};
