/* XPM */
static char * file_link_bad_xpm[] = {
"32 32 6 1",
" 	s background	c None",
".	c #7DF77DF77DF7",
"X	c white",
"o	c black",
"O	c #BEFBBEFBBEFB",
"+	c #820782078207",
"    .X.X.X.X.X.X.X.X..          ",
"    XXXXXXXXXXXXXXXXX.o         ",
"    .XXXXXXXXXXXXXXXX...        ",
"    XXXXXXXXXXXXXXXXX.O.o       ",
"    .XXXXXXXXXXXXXXXX.OO..      ",
"    XXXXXXXXXXXXXXXXX.XOO.o     ",
"    .XXXXXXXXXXXXXXXX.XXOO..    ",
"    XXXXXXXXXXXXXXXXX.ooooooo   ",
"    .XXXXXXXXXXXXXXXXXOOOOOO.   ",
"    XXXXXXXXXXXXXXXXXXOOOOOOo   ",
"    .XXXXXXXXXXXXXXXXXXXXXXO.   ",
"    XXXXXXXXXXXXXXXXXXXXXXXOo   ",
"    .XXXXXXXXXXXXXXXXXXXXXXO.   ",
"    XXXXXXXXXXXXXXXXXXXXXXXOo   ",
"    .XXXXXXXXXXXXXXXXXXXXXXO.   ",
"    XXXXXXXXXXXXXXXXXXXXXXXOo   ",
"    .XXXXXXXXXXXXXXXXXXXXXXO.   ",
"    XXXXXXXXXXXXXXXXXXXXXXXOo   ",
"    .XXXXXXXXXXXXXXXXXXXXXXO.   ",
"    XXXXXXXXXXXXXXXXXXXXXXXOo   ",
"    .XXXXXXXXXXXXXXXXXXXXXXO.   ",
"+X+X+X+X+XoXXXXXXXXXXXXXXXXOo   ",
"XXXXXXXXXXXXXXXXXXXXXXXXXXXO.   ",
"+XXXoXoXXXoXXXXXXXXXXXXXXXXOo   ",
"XXXXXoXoXXXXXXXXXXXXXXXXXXXO.   ",
"+XXXoXoXXXoXXXXXXXXXXXXXXXXOo   ",
"XXXoXoXoXXXXXXXXXXXXXXXXXXXO.   ",
"+XXXoXXXXXoXXXXXXXXXXXXXXXXOo   ",
"XXXoXXXXXXXXXXXXXXXXXXXXXXXO.   ",
"+XXXoXXXXXoXXXXXXXXXXXXXXXXOo   ",
"XXXXXXXXXXXOOOOOOOOOOOOOOOOO.   ",
"oXoXoXoXoXo.o.o.o.o.o.o.o.o.o   "};
