/* XPM */
static char * find_xpm[] = {
/* width height ncolors chars_per_pixel */
"32 32 17 1",
/* colors */
" 	s background	c None",
".	c black",
"X	c #D4D4FF",
"o	c #868686",
"O	c white",
"+	c #AAAAAA",
"@	c #7A7A7A",
"#	c #4A4A4A",
"$	c #DADADA",
"%	c #F2F2F2",
"&	c #8E8EFF",
"*	c #C0C0C0",
"=	c #CECECE",
"-	c #FFFFD4",
";	c #FF8F6B",
":	c #565656",
">	c #FFD48E",
/* pixels */
"     .......                    ",
"    .XXXXXXX.                   ",
"   .XXXXXXXXX.                  ",
"  .XXXXXXXXXXX.                 ",
" .XXXXXXXXXXXXX...............  ",
".XXXXXXXXXXXooooooXXXXXXXXXXXX. ",
".OOOOOOOO+o@......@@@OOOOOOOOO. ",
".OXOXOXO+..#$$%$$$#..@XOXOXOX&. ",
".XOXOXO+.#$$%O%$$$$*#.@XOXOXO&. ",
".OXOXO+.o$$%OOO%$$$=*o.@XOXOX&. ",
".XOXO+..*$%OOO%$$$$$=*..@XOXO&. ",
".OXOXo.*$%OOO%$$$$$$==*.#OXOX&. ",
".XOXo.o=#+OO+###$$$$==*o.#OXO&. ",
".OXOo.*=#%O%---##$$$==**.#XOX&. ",
".XOXo.*=#%O%---#;#$$==**.#OXO&. ",
".OXOo.*=#-%----####===**.#XOX&. ",
".XOXo.**:---------:==***.#OXO&. ",
".OXOo.o*:>--------:==**o.#XOX&. ",
".XOXO@.*@>>----->>:=***..XOXO&. ",
".OXOX@..@;>>>>>>>>@***...OXOX&. ",
".XOXOX@.o;;;>>>>>;@**o..OXOXO&. ",
".OXOXOX@.#;;;;;;;;o*#..OXOXOX&. ",
".XOXOXOX@..#=;;;;=#...OXOXOXO&. ",
".OXOXOXOX@:..........OXOXOXOX&. ",
"...........:................... ",
"            :.....              ",
"             :...               ",
"             :...               ",
"             :...               ",
"             :...               ",
"             #...               ",
"              #.                "};
