/* XPM */
static char * fish_xpm[] = {
"32 32 9 1",
" 	s background	c None",
".	c #7DF77DF77DF7",
"X	c white",
"o	c black",
"O	c #00000000FFFF",
"+	c #BEFBBEFBBEFB",
"@	c #1C719248FFFF",
"#	c #8617CF3CEBAD",
"$	c #FFFF00000000",
"    ..................          ",
"    .XXXXXXXXXXXXXXXX.o         ",
"    .XXXXXXXXXXXXoooX..o        ",
"    .XXXXXXXXXXXoOOOo.+.o       ",
"    .XXXXXXXoooooo@@O.++.o      ",
"    .XXXXXooo#####ooo.X++.o     ",
"    .XXXXoXXXo##ooo##.XX++.o    ",
"    .XXXoXXooo#oXXoo#.ooooooo   ",
"    .XXooXXooo#oXooo##++++++o   ",
"    .XXo#oooo###ooo###++++++o   ",
"    .Xo###################o+o   ",
"    .Xooooo###oooo#########+o   ",
"    .o$$$$$ooo$$$$oo#######+o   ",
"    .o$$$$$$$$$$$$$$o######+o   ",
"    .Xoooo$$$$$oooo$$o#####+o   ",
"    .XoXoXoooooXoXoo$$o####+o   ",
"    .XoXoXoXoXoXoXooo$o####+o   ",
"    .XXoXooXoXooooooo$$o###+o   ",
"    .XXXXXXooooooooooo$o###+o   ",
"    .XXXXXXooooooooooo$o###+o   ",
"    .XXXoXXooooooooooo$o###+o   ",
"    .XXoXooooooooooooo$o###+o   ",
"    .XXoXoXoXoooooXoo$$o###+o   ",
"    .XooooXoXoXoXoXo$$o####+o   ",
"    .o$$$oooooXoXoo$$$o####+o   ",
"    .o$$$$$$$$ooo$$$$o#####+o   ",
"    .Xooo$$$$$$$$$$$o######+o   ",
"    .XXo#oooo$$$$$oo#######+o   ",
"    .XXo#####ooooo#########+o   ",
"    .XXXo##################+o   ",
"    .+++++++++++++++++++++++o   ",
"    ooooooooooooooooooooooooo   "};
