/* XPM */
static char * floppy_xpm[] = {
/* width height ncolors chars_per_pixel */
"32 32 15 1",
/* colors */
" 	s background	c None",
".	c #777777",
"X	c black",
"o	c #C0C0C0",
"O	c #DDDDDD",
"+	c #555555",
"@	c #9E799E79FFFF",
"#	c white",
"$	c #CF3CCF3CFFFF",
"%	c #FFFBF0",
"&	c #999999",
"*	c #222222",
"=	c #007700",
"-	c #444444",
";	c #A0A0A4",
/* pixels */
"                                ",
"                                ",
"                                ",
"                                ",
"                                ",
"                                ",
"                                ",
"                                ",
"             .X.                ",
"           .XXoXX.              ",
"         .XXOOOO+@X.            ",
"       .XXO#Oo++$$$@X.          ",
"     .XXO#Oo++%%$$$$$@X.        ",
"   .XXO#Ooo+o%%%%%$$$$$@X.      ",
"  XXOOOooooo+&o%%%%%$$$$$@X.    ",
" *XOooo.+o%Ooo+&o%%%%%$$=ooXX.  ",
" *Ooo.+%o&.+%Ooo+&o%ooo##**o&X  ",
" *O.+%o++oo&.+%Ooo+&o##ooo&--X  ",
" *.%%&+oooo%&&.+%ooo#ooo.----X++",
" *.%&%%&&%%&&&&+;%%ooo&----XX+++",
" .*%&&&%%&&&&+;;;%oo&----XX*++++",
"  .XX&&&&%%+;;;%%o&----XX*+++++ ",
"    .XX&&&+oo%%o&----XX*+++++   ",
"      .XX&+&&o&----XX*+++++     ",
"        .XX&&&---XX*+++++       ",
"          .XX&-XX*+++++         ",
"            .XX*+++++           ",
"                                ",
"                                ",
"                                ",
"                                ",
"                                "};
