/* XPM */
static char * folder_small_xpm[] = {
/* width height ncolors chars_per_pixel */
"16 16 5 1",
/* colors */
" 	s background	c None",
".	c black",
"X	c #CECEFF",
"o	c white",
"O	c #9C9CFF",
/* pixels */
"                ",
"                ",
"                ",
"   ...          ",
"  .XXX.         ",
" .XXXXX........ ",
".oooooooooooooo.",
".oXoXoXoXoXoXoO.",
".XoXoXoXoXoXoXO.",
".oXoXoXoXoXoXoO.",
".XoXoXoXoXoXoXO.",
".oXoXoXoXoXoXoO.",
".XoXoXoXoXoXoXO.",
".oXoXoXoXoXoXoO.",
".XoXoXoXoXoXoXO.",
"................"};
