/* XPM */
static char * folder_button_xpm[] = {
"20 20 27 1",
" 	c None",
".	c #000000",
"+	c #383846",
"@	c #BEBEEB",
"#	c #CECEFF",
"$	c #8E8EAF",
"%	c #393946",
"&	c #B4B4DF",
"*	c #8989AA",
"=	c #676780",
"-	c #58586D",
";	c #5D5D60",
">	c #F1F1FF",
",	c #F3F3FF",
"'	c #F4F4FF",
")	c #AAAABF",
"!	c #545460",
"~	c #E8E8FF",
"{	c #E7E7FF",
"]	c #E5E5FF",
"^	c #7F7FBF",
"/	c #595960",
"(	c #7E7EBF",
"_	c #E6E6FF",
":	c #565660",
"<	c #242424",
"[	c #2E2E48",
"                    ",
"                    ",
"                    ",
"                    ",
"   ....             ",
"  +@###$            ",
" %&#####*           ",
"+&#######$========- ",
";>,''>>,''>>,''>>,) ",
"!~{]]~~{]]~~{]]~~{^ ",
"/]{~~]]{~~]]{~~]]{( ",
"/]_~~]]_~~]]_~~]]_( ",
":__{{___{{___{{___( ",
"!~_]]~~_]]~~_]]~~_^ ",
"!~{]]~~{]]~~{]]~~{^ ",
"/]_~~]]_~~]]_~~]]_( ",
"/]_~~]]_~~]]_~~]]_( ",
":_{{{__{{{__{{{__{( ",
"!~_]]~~_]]~~_]]~~_^ ",
"<!://!!://!!://!!:[ "};
