/* XPM */
static char * folder_bad_xpm[] = {
/* width height ncolors chars_per_pixel */
"32 32 5 1",
/* colors */
" 	s background	c None",
".	c black",
"X	c white",
"o	c #CECEFF",
"O	c #9C9CFF",
/* pixels */
"                                ",
"                                ",
"                                ",
"                                ",
"                                ",
"                                ",
"                                ",
"     .X.X.X.                    ",
"    .ooooooo.                   ",
"   .ooooooooo.                  ",
"  .ooooooooooo.                 ",
" .ooooooooooooo.X.X.X.X.X.X.X.  ",
".ooooooooooooooooooooooooooooo. ",
"XXXXXXXXXXXXXXXXXXXXXXXXXXXXXXX ",
".XoXoXoXoXoXoXoXoXoXoXoXoXoXoO. ",
"XoXoXoXoXoXoXoXoXoXoXoXoXoXoXOX ",
".XoXoXoXoXoXoXoXoXoXoXoXoXoXoO. ",
"XoXoXoXoXoXoXoXoXoXoXoXoXoXoXOX ",
".XoXoXoXoXoXoXoXoXoXoXoXoXoXoO. ",
"XoXoXoXoXoXoXoXoXoXoXoXoXoXoXOX ",
".XoXoXoXoXoXoXoXoXoXoXoXoXoXoO. ",
"XoXoXoXoXoXoXoXoXoXoXoXoXoXoXOX ",
".XoXoXoXoXoXoXoXoXoXoXoXoXoXoO. ",
"XoXoXoXoXoXoXoXoXoXoXoXoXoXoXOX ",
".XoXoXoXoXoXoXoXoXoXoXoXoXoXoO. ",
"XoXoXoXoXoXoXoXoXoXoXoXoXoXoXOX ",
".XoXoXoXoXoXoXoXoXoXoXoXoXoXoO. ",
"XoXoXoXoXoXoXoXoXoXoXoXoXoXoXOX ",
".XoXoXoXoXoXoXoXoXoXoXoXoXoXoO. ",
"XoXoXoXoXoXoXoXoXoXoXoXoXoXoXOX ",
".XoXoXoXoXoXoXoXoXoXoXoXoXoXoO. ",
"X.X.X.X.X.X.X.X.X.X.X.X.X.X.X.X "};
