/* XPM */
static char * framemaker_xpm[] = {
"32 32 5 1",
" 	s background	c None",
".	c #7DF77DF77DF7",
"X	c white",
"o	c black",
"O	c #BEFBBEFBBEFB",
"    ..................          ",
"    .XXXXXXXXXXXXXXXX.o         ",
"    .XXXXXXXXXXXXXXXX..o        ",
"    .XXXXXXXXXXXXXXXX.O.o       ",
"    .XXXXXXXXXXXXXXXX.OO.o      ",
"    .XXXXXXXXXXXXXXXX.XOO.o     ",
"    .XXXXXXXXXXXXXXXX.XXOO.o    ",
"    .XXXXXXXXXXooXXXX.ooooooo   ",
"    .XXXXXXXXXooooXXXXOOOOOOo   ",
"    .XXXXXXXXooXXooXXXOOOOOOo   ",
"    .XXXXXXXooXooXooXXXXXXXOo   ",
"    .XXXXXXooXooooXooXXXXXXOo   ",
"    .XXXXXooXooXXooXooXXXXXOo   ",
"    .XXXXooXooXooXooXooXXXXOo   ",
"    .XXXooXooXooooXooXooXXXOo   ",
"    .XXXoXooXooXXooXoooXXXXOo   ",
"    .XXXXooXooXXXXooooXoXXXOo   ",
"    .XXXooXooXXXXXXooXooXXXOo   ",
"    .XXXoXooooXXXXooXooXXXXOo   ",
"    .XXXXoooXooXXooXooXoXXXOo   ",
"    .XXXooXooXooooXooXooXXXOo   ",
"    .XXXXooXooXooXooXooXXXXOo   ",
"    .XXXXXooXooXXooXooXXXXXOo   ",
"    .XXXXXXooXooooXooXXXXXXOo   ",
"    .XXXXXXXooXooXooXXXXXXXOo   ",
"    .XXXXXXXXooXXooXXXXXXXXOo   ",
"    .XXXXXXXXXooooXXXXXXXXXOo   ",
"    .XXXXXXXXXXXXXXXXXXXXXXOo   ",
"    .XXXXXXXXXXXXXXXXXXXXXXOo   ",
"    .XXXXXXXXXXXXXXXXXXXXXXOo   ",
"    .OOOOOOOOOOOOOOOOOOOOOOOo   ",
"    ooooooooooooooooooooooooo   "};
