/* XPM */
static char * games_xpm[] = {
/* width height ncolors chars_per_pixel */
"32 32 13 1",
/* colors */
" 	s background	c None",
".	c black",
"X	c #CCCCFF",
"o	c white",
"O	c #9999FF",
"+	c #C0C0C0",
"@	c #DDDDDD",
"#	c #A0A0A4",
"$	c #FF0000",
"%	c #770000",
"&	c #777777",
"*	c #999999",
"=	c #CC0000",
/* pixels */
"                                ",
"                                ",
"                                ",
"                                ",
"                                ",
"                                ",
"                                ",
"      .......                   ",
"     .XXXXXXX.                  ",
"    .XXXXXXXXX.                 ",
"   .XXXXXXXXXXX.                ",
"  .XXXXXXXXXXXXX............... ",
" .XXXXXXXXXXXXXXXXXXXXXXXXXXXXX.",
" .ooooooooooooooooooooooooooooo.",
" .oXoXoXoXoXoXoXoXoXoXoXoXoXoXO.",
" .XoXoXoXoXo...............oXoO.",
" .oXoXo.....ooooooooooooooo.oXO.",
" .XoXo.+++.o@@@@@@@@@@@@@@@o.oO.",
" .oXo.+###.o$$$ooooooooooo@o.XO.",
" .XoX.+%%%.o$o$ooooooooooo@o.oO.",
" .oXo.+#+%.o$$$ooooooooooo@o.OO.",
" .XoX.+#%+.o$o$ooooooooooo@o.OO.",
" .oXo.+%%%.o@ooooooooooooo@o.OO.",
" .Xo..+#++.o$+$ooooooooooo@o.OO.",
" .o.&.+%*%.o$$$o+$$o$$+ooo@o.OO.",
" .X.&.+%%%.o@$oo$$$=$$=ooo@o.OO.",
" .o.&.+#%+.o@ooo$$$$$$=ooo@o.OO.",
" .X.&.+#++.o@ooo$$$$$$=ooo@o.OO.",
" .o.&.+#++.o@ooo+$$$$=+ooo@o.OO.",
" .X.&.+#++.o@oooo+$$=+oooo@o.OO.",
" .o.&.+#++.o@ooooo+=+ooooo@o.OO.",
" ..............................."};
