/* XPM */
static char * gif_xpm[] = {
"32 32 13 1",
" 	s background	c None",
".	c #7DF77DF77DF7",
"X	c white",
"o	c black",
"O	c #0000FFFFFFFF",
"+	c #BEFBBEFBBEFB",
"@	c #2CB28A285555",
"#	c #30C2CF3C30C2",
"$	c #FFFF00000000",
"%	c #9A69FBEE9A69",
"&	c #DF7DDF7DDF7D",
"*	c #A28951442CB2",
"=	c #FFFFA6990000",
"    ..................          ",
"    .XXXXXXXXXXXXXXXX.o         ",
"    .OOOOOOOOOOOOOOOO..o        ",
"    .OOOoooOOoOooooOO.+.o       ",
"    .OOoOOOoOoOoOOOOO.++.o      ",
"    .OOoOOOOOoOoooOOO.X++.o     ",
"    .OOoOOooOoOoOOOOO.XX++.o    ",
"    .OOoOOOoOoOoOOOOO.ooooooo   ",
"    .OOOoooOOoOoOOOOOO++++++o   ",
"    .OOOOOOOOOOOOOOOOO++++++o   ",
"    .OOOOOOOOOOOOOOOOOOOOOX+o   ",
"    .OOOOOOOOOOOOOOooOOOOOX+o   ",
"    .oOOOOOOOOOOOOo.oOOOOOX+o   ",
"    ..oOOOOoOOOOOoo..oOOOOX+o   ",
"    ...oOOo.oOOOo.....oOOOX+o   ",
"    ...Xoo...oOo......oOooX+o   ",
"    .X.XX.....o....@@@#o..X+o   ",
"    .XX.X.....XX.@@@#@@#..X+o   ",
"    .X...X.....X@@@@@#@#@.X+o   ",
"    .......X....@#@@@@@@@@X+o   ",
"    .ooooo$$$$.@@@@#@@#@@.X+o   ",
"    .%%%%$&$$$o@@@@@@@@@@oX+o   ",
"    .%%%$&&&$$$%@@%@*@@@%%X+o   ",
"    .%%$&&&&&$$$%@%*=*%@%%X+o   ",
"    .%$.&&&&&.$$%%%*=*%%%%X+o   ",
"    .%%.&..&&.&$%%%*=*%%%%X+o   ",
"    .%%.&..&&.&.%%%*=*%%%%X+o   ",
"    .%%.&..&&..%%%%*=*%%%%X+o   ",
"    .%%.......%%%%%***%%%%X+o   ",
"    .%%%%%%%%%%%%%%%%%%%%%X+o   ",
"    .+++++++++++++++++++++++o   ",
"    ooooooooooooooooooooooooo   "};
