/* XPM */
static char * graph_xpm[] = {
"32 32 8 1",
" 	s background	c None",
".	c #7DF77DF77DF7",
"X	c white",
"o	c black",
"O	c #BEFBBEFBBEFB",
"+	c #B2CA20812081",
"@	c #FFFF00000000",
"#	c #FFFFA6990000",
"    ..................          ",
"    .XXXXXXXXXXXXXXXX.o         ",
"    .XXXXXXXXXXXXXXXX..o        ",
"    .XXoXoXoXoXoXoXoX.O.o       ",
"    .XXoXXXXXXXXXXXXX.OO.o      ",
"    .XXoXXXXXXXXXXXX+.XOO.o     ",
"    .XXoXXXXXXXXXXXX+.XXOO.o    ",
"    .XXoXXXXXXXXXXXX+.ooooooo   ",
"    .XXoXoXoXoXoXoXo++OOOOOOo   ",
"    .XXoXXXXXXXXXXXX++OOOOOOo   ",
"    .XXoXXXXXXXXXXXX++++XXXOo   ",
"    .XXoXXXXXXX@@@@X++++XXXOo   ",
"    .XXoXXXXXXX@@@@X++++XXXOo   ",
"    .XXoXoXoXoX@@@@X++++XoXOo   ",
"    .XXoXXXXXXX@@@@X++++XXXOo   ",
"    .XXoXXXXXXX@@@@X++++XXXOo   ",
"    .XXoXXXXXXX@@@@X++++XXXOo   ",
"    .XXoXX####X@@@@X++++XXXOo   ",
"    .XXoXo####X@@@@X++++XoXOo   ",
"    .XXoXX####X@@@@X++++XXXOo   ",
"    .XXoXX####X@@@@X++++XXXOo   ",
"    .XXoXX####X@@@@X++++XXXOo   ",
"    .XXoXX####X@@@@X++++XXXOo   ",
"    .XXoXo####X@@@@X++++XoXOo   ",
"    .XXoXX####X@@@@X++++XXXOo   ",
"    .XXoXX####X@@@@X++++XXXOo   ",
"    .XXoXX####X@@@@X++++XXXOo   ",
"    .XXoXX####X@@@@X++++XXXOo   ",
"    .XXoooooooooooooooooooXOo   ",
"    .XXXXXXXXXXXXXXXXXXXXXXOo   ",
"    .OOOOOOOOOOOOOOOOOOOOOOOo   ",
"    ooooooooooooooooooooooooo   "};
