/* XPM */
static char * harddrive_xpm[] = {
/* width height ncolors chars_per_pixel */
"32 32 12 1",
/* colors */
" 	s background	c None",
".	c black",
"X	c white",
"o	c #DDDDDD",
"O	c #A0A0A4",
"+	c #FFFBF0",
"@	c #C0C0C0",
"#	c #CCCCCC",
"$	c #777777",
"%	c #555555",
"&	c #222222",
"*	c #444444",
/* pixels */
"                                ",
"                                ",
"                                ",
"                                ",
"                                ",
"                                ",
"                                ",
"                                ",
"                                ",
"        ..............          ",
"       .XooooooooooooO.         ",
"      .XXoooooooooooooO.        ",
"     .XXoooooooooooooooO.       ",
"    .XXoooooooooooooooooO.      ",
"   .XXoooooooooooooooooooO.     ",
"  .XXoooooooooooooooooooooO.    ",
" .XXX+++++@oooo###@########O.   ",
" .+++ooo##$@@@@@OO$OOOOOOOOO.   ",
" .+++.oo##$@@@@OOO$OO%..%OOO.   ",
" .+++Ooo##$@@@@@OO$O......oO.&  ",
" .++OOOo##$@@@@OOO$OooooooOO.&& ",
" .+++ooo##$@@@@@OO$OOOOOOOOO.&&&",
" .+++ooo##$@@@@OOO$OOOOOOOOO.&&&",
" .$$$$$$$$$$$$$$$$$$$$$$$$$$.&&&",
"  .************************..&  ",
"   ........................&    ",
"                                ",
"                                ",
"                                ",
"                                ",
"                                ",
"                                "};
