/* XPM */
static char * hex_xpm[] = {
"32 32 7 1",
" 	s background	c None",
".	c #7DF77DF77DF7",
"X	c #000082078207",
"o	c #FFFFFFFF0000",
"O	c white",
"+	c black",
"@	c #BEFBBEFBBEFB",
"    ..................          ",
"    .XoXXOoOXXoOXXoXX.+         ",
"    .XOXXoOoXXOoXXOXX..+        ",
"    .XoXXOoOXXoOXXoXX.@.+       ",
"    .XOXXoOoXXOoXXOXX.@@.+      ",
"    .XoXXOoOXXoOXXoXX.O@@.+     ",
"    .XXXOoOXXXXoOXXXO.OO@@.+    ",
"    .OoOoOoOoOoOoOoOo.+++++++   ",
"    .oXXOoOXXXOoOoXXOo@@@@@@+   ",
"    .XXXoOXXoXXOoXXXoO@@@@@@+   ",
"    .oXXOoXXOXXoOoXXOoXXOXX@+   ",
"    .OXXoOXXoXXOoOXXoOXXoXX@+   ",
"    .oXXOoXXOXXoOoXXOoXXOXX@+   ",
"    .OXXoOXXoXXOoOXXoOXXoXX@+   ",
"    .oXXOoXXOXXoOoXXOoXXOXX@+   ",
"    .OXXoOXXoXXOoOXXoOXXoXX@+   ",
"    .XXXXoOXXXOoOXXXXoOXXXO@+   ",
"    .OoOoOoOoOoOoOoOoOoOoOo@+   ",
"    .oOoOoOoOoOoOoOoOoOoOoO@+   ",
"    .OXXoOoXXXoOoOXXoOoOXXo@+   ",
"    .XXXOoXXOXXoOXXXOoOXXXO@+   ",
"    .OXXoOXXoXXOoOXXoOoOXXo@+   ",
"    .oXXOoXXOXXoOoXXOoOoXXO@+   ",
"    .OXXoOXXoXXOoOXXoOoOXXo@+   ",
"    .oXXOoXXOXXoOoXXOoOoXXO@+   ",
"    .OXXoOXXoXXOoOXXoOoOXXo@+   ",
"    .oXXOoXXOXXoOoXXOoOoXXO@+   ",
"    .XXXXOoXXXoOoXXXXOoXXXX@+   ",
"    .oOoOoOoOoOoOoOoOoOoOoO@+   ",
"    .OoOoOoOoOoOoOoOoOoOoOo@+   ",
"    .@@@@@@@@@@@@@@@@@@@@@@@+   ",
"    +++++++++++++++++++++++++   "};
