/* XPM */
static char * home_button_xpm[] = {
"20 20 248 2",
"  	c None",
". 	c #121212",
"+ 	c #000000",
"@ 	c #002800",
"# 	c #002B00",
"$ 	c #000900",
"% 	c #141414",
"& 	c #0F0F0F",
"* 	c #151515",
"= 	c #001F00",
"- 	c #004F00",
"; 	c #007000",
"> 	c #007700",
", 	c #007100",
"' 	c #005E00",
") 	c #023B02",
"! 	c #131B13",
"~ 	c #0F0A22",
"{ 	c #061DA4",
"] 	c #0F0828",
"^ 	c #030303",
"/ 	c #A40000",
"( 	c #AB0000",
"_ 	c #520000",
": 	c #001A00",
"< 	c #005000",
"[ 	c #007600",
"} 	c #009600",
"| 	c #009D00",
"1 	c #008700",
"2 	c #133613",
"3 	c #0D0D0D",
"4 	c #0700A3",
"5 	c #070CF3",
"6 	c #0A00AF",
"7 	c #0A0A1A",
"8 	c #161616",
"9 	c #9D0000",
"0 	c #D10000",
"a 	c #5E0000",
"b 	c #002500",
"c 	c #006F00",
"d 	c #009900",
"e 	c #00B300",
"f 	c #00B500",
"g 	c #00AC00",
"h 	c #029602",
"i 	c #143F14",
"j 	c #0720C3",
"k 	c #5D4587",
"l 	c #991D24",
"m 	c #694680",
"n 	c #0C28CB",
"o 	c #0E072B",
"p 	c #321616",
"q 	c #8B0303",
"r 	c #5A0000",
"s 	c #002F00",
"t 	c #005A00",
"u 	c #008300",
"v 	c #008E00",
"w 	c #028302",
"x 	c #124212",
"y 	c #0C0F1C",
"z 	c #040CA0",
"A 	c #4D0D7C",
"B 	c #8F89B7",
"C 	c #AB5554",
"D 	c #8C8CBF",
"E 	c #5A1774",
"F 	c #050DB7",
"G 	c #0A0E1E",
"H 	c #351414",
"I 	c #3D0202",
"J 	c #004B00",
"K 	c #006600",
"L 	c #143914",
"M 	c #0F0C1C",
"N 	c #0D1ABF",
"O 	c #0049FF",
"P 	c #601D60",
"Q 	c #996680",
"R 	c #BC4930",
"S 	c #701D50",
"T 	c #004CFF",
"U 	c #0A20CF",
"V 	c #002C00",
"W 	c #004200",
"X 	c #004600",
"Y 	c #024D02",
"Z 	c #133213",
"` 	c #0A0F22",
" .	c #0117A4",
"..	c #031DEF",
"+.	c #0820FF",
"@.	c #541C87",
"#.	c #703160",
"$.	c #75254C",
"%.	c #703060",
"&.	c #5D1D74",
"*.	c #0C20FF",
"=.	c #021DF3",
"-.	c #0218B8",
";.	c #080F28",
">.	c #001500",
",.	c #003900",
"'.	c #034103",
").	c #091909",
"!.	c #0C079B",
"~.	c #0839FF",
"{.	c #0046FF",
"].	c #0440FF",
"^.	c #100AAF",
"/.	c #040410",
"(.	c #000A00",
"_.	c #002200",
":.	c #002700",
"<.	c #003700",
"[.	c #0007B3",
"}.	c #071DD7",
"|.	c #39009F",
"1.	c #59009F",
"2.	c #2E11E7",
"3.	c #2026FF",
"4.	c #1826FF",
"5.	c #0026FF",
"6.	c #0024E7",
"7.	c #000ABC",
"8.	c #00001A",
"9.	c #001400",
"0.	c #061F00",
"a.	c #162000",
"b.	c #0C05C1",
"c.	c #1B27DA",
"d.	c #994D60",
"e.	c #835C8F",
"f.	c #9B6278",
"g.	c #814878",
"h.	c #3B0FBB",
"i.	c #29299F",
"j.	c #521940",
"k.	c #531940",
"l.	c #501940",
"m.	c #172CCE",
"n.	c #1006CC",
"o.	c #00001B",
"p.	c #360E00",
"q.	c #AC1300",
"r.	c #000AD6",
"s.	c #1326C9",
"t.	c #8686BF",
"u.	c #AC939F",
"v.	c #79609F",
"w.	c #2916AF",
"x.	c #401A80",
"y.	c #930000",
"z.	c #990000",
"A.	c #860000",
"B.	c #1A23BC",
"C.	c #000DD9",
"D.	c #000022",
"E.	c #382B00",
"F.	c #0C02DA",
"G.	c #1B1DD4",
"H.	c #992630",
"I.	c #AE4E48",
"J.	c #C0573C",
"K.	c #8D243C",
"L.	c #3C0AB7",
"M.	c #391680",
"N.	c #1D1DBE",
"O.	c #1003DF",
"P.	c #003400",
"Q.	c #138F00",
"R.	c #7C2700",
"S.	c #000CD8",
"T.	c #1330CE",
"U.	c #99667F",
"V.	c #291CB3",
"W.	c #3D2080",
"X.	c #AE2800",
"Y.	c #1A2CBD",
"Z.	c #0010DC",
"`.	c #002300",
" +	c #009300",
".+	c #007300",
"++	c #0C10A8",
"@+	c #1418CE",
"#+	c #305400",
"$+	c #008C00",
"%+	c #3C9064",
"&+	c #853C64",
"*+	c #3D04B3",
"=+	c #3D1080",
"-+	c #1D14B1",
";+	c #1000DC",
">+	c #002400",
",+	c #005D00",
"'+	c #007500",
")+	c #005800",
"!+	c #02275B",
"~+	c #02325C",
"{+	c #006D00",
"]+	c #292C48",
"^+	c #0D3DE7",
"/+	c #392380",
"(+	c #1A30B6",
"_+	c #0310DF",
":+	c #001300",
"<+	c #004000",
"[+	c #004C00",
"}+	c #003D00",
"|+	c #0A0B86",
"1+	c #063539",
"2+	c #006B00",
"3+	c #005B00",
"4+	c #0A2A56",
"5+	c #1C18EE",
"6+	c #55487B",
"7+	c #964D4D",
"8+	c #9B4F50",
"9+	c #935052",
"0+	c #5454AD",
"a+	c #0D00CC",
"b+	c #6E2400",
"c+	c #410E00",
"d+	c #0000B3",
"e+	c #000CB8",
"f+	c #003526",
"g+	c #203D0E",
"h+	c #0207C2",
"i+	c #211D5F",
"j+	c #4C4C4C",
"k+	c #515151",
"l+	c #515152",
"m+	c #6A6A6B",
"n+	c #6A6A6C",
"o+	c #27276D",
"p+	c #010116",
"q+	c #2D0000",
"r+	c #260000",
"s+	c #000039",
"t+	c #300C16",
"u+	c #020226",
"v+	c #0B0B0B",
"w+	c #191919",
"x+	c #131313",
"y+	c #020202",
"                                        ",
"                      .                 ",
"    + @ # # # # $ + % & *     + + +     ",
"  = - ; > > , ' ) ! ~ { ] * ^ / ( _     ",
": < [ } | | 1 > 2 3 4 5 6 7 8 9 0 a     ",
"b c d e f g h i ~ j k l m n o p q r     ",
"s t u v v w x y z A B C D E F G H I     ",
"s J ' K K L M N O P Q R Q S T U ] *     ",
"V W X Y Z `  ...+.@.#.$.%.&.*.=.-.;..   ",
">.V ,.'.).!.~.{.{.{.{.{.{.{.{.{.].^./.  ",
"(.= _.:.<.[.}.|.|.|.1.2.3.4.5.5.6.7.8.  ",
"  $ 9.0.a.b.c.d.e.f.g.h.i.j.k.l.m.n.o.  ",
"      p.q.r.s.Q t.u.v.w.x.y.z.A.B.C.D.  ",
"      E.q.F.G.H.I.J.K.L.M.y.z.A.N.O.D.  ",
"    P.Q.R.S.T.U.t.u.v.V.W.y.z.X.Y.Z.D.  ",
"  `.[  +.+++@+#+$+%+&+*+=+y.z.A.-+;+D.  ",
"  >+,+'+)+!+~+{+d K ]+^+/+y.z.A.(+_+D.  ",
"  :+<+[+}+|+1+,+2+3+4+5+6+7+8+9+0+a+D.  ",
"    :+b+c+d+e+f+g+f+h+i+j+k+l+m+n+o+p+  ",
"    + q+r+s+s+s+t+s+u+v+3 3 3 . w+x+y+  "};
