/* XPM */
static char * html_xpm[] = {
"32 32 7 1",
" 	s background	c None",
".	c #7DF77DF77DF7",
"X	c white",
"o	c black",
"O	c #BEFBBEFBBEFB",
"+	c #00000000FFFF",
"@	c #D34CB6DA8E38",
"    ..................          ",
"    .XXXXXXXXXXXXXXXX.o         ",
"    .XXXXXXXXXXXXXXXX..o        ",
"    .XXXXXXXXXXXXXXoX.O.o       ",
"    .XXXXXooooooooooX.OO.o      ",
"    .XXXXoooooooooooX.XOO.o     ",
"    .XXXoooXXXXXXXXoX.XXOO.o    ",
"    .XXXooXXXXXXXXXXX.ooooooo   ",
"    .XXXooXXXXXXXXXXXXOOOOOOo   ",
"    .XXXoooXXXooooXXXXOOOOOOo   ",
"    .XXXXooXoo+@@+ooXXXXXXXOo   ",
"    .XXXXXXo@@@+@@++oXXXXXXOo   ",
"    .XXXXXo+@@@@@+@++oXXXXXOo   ",
"    .XXXXXo++@@@+@@++oXXXXXOo   ",
"    .XXXXo+++@@@@@++++oXXXXOo   ",
"    .XXXXo+++@@@@@++++oXXXXOo   ",
"    .XXXXo++++@@@@++++oXXXXOo   ",
"    .XXXXo+++++@@+++++oXXXXOo   ",
"    .XXXXXo+++++@@@@+oXXXXXOo   ",
"    .XXXXXo+++++@@@@+oXXXXXOo   ",
"    .XXXXXXo+++++@@+oXXXXXXOo   ",
"    .XXXXXXXoo+++@@oXooXXXXOo   ",
"    .XXXXXXXXXoooooXXoooXXXOo   ",
"    .XXXXXXXXXXXXXXXXXooXXXOo   ",
"    .XXXXXXXXXXXXXXXXXooXXXOo   ",
"    .XXXXooXXXXXXXXXXoooXXXOo   ",
"    .XXXoooooooooooooooXXXXOo   ",
"    .XXXooooooooooooooXXXXXOo   ",
"    .XXXXooXXXXXXXXXXXXXXXXOo   ",
"    .XXXXXXXXXXXXXXXXXXXXXXOo   ",
"    .OOOOOOOOOOOOOOOOOOOOOOOo   ",
"    ooooooooooooooooooooooooo   "};
