/* XPM */
static char * icon_xpm[] = {
"32 32 5 1",
" 	s background	c None",
".	c #7DF77DF77DF7",
"X	c white",
"o	c black",
"O	c #BEFBBEFBBEFB",
"    ..................          ",
"    .XXXXXXXXXXXXXXXX.o         ",
"    .XoXXooXXoXXoXXoX..o        ",
"    .XoXoXXXoXoXooXoX.O.o       ",
"    .XoXoXXXoXoXoXooX.OO.o      ",
"    .XoXoXXXoXoXoXXoX.XOO.o     ",
"    .XoXXooXXoXXoXXoX.XXOO.o    ",
"    .XXXXXXXXXXXXXXXX.ooooooo   ",
"    .XXXXXXXXXXXXXXXXXOOOOOOo   ",
"    .XXXXXXXXXXXoXXXXXOOOOOOo   ",
"    .XXXXXXXXXXoooXXXXXXXXXOo   ",
"    .XXXXXXXXXoooooXXXXXXXXOo   ",
"    .XXXXXXXXoooXoooXXXXXXXOo   ",
"    .XXXXXXXoooXoXoooXXXXXXOo   ",
"    .XXXXXXoooXoooXoooXXXXXOo   ",
"    .XXXXXoooXoooooXoooXXXXOo   ",
"    .XXXXoooXoXoooXoXoooXXXOo   ",
"    .XXXoooXoooXoXoooXoooXXOo   ",
"    .XXoooXoooooXoooooXoooXOo   ",
"    .XXXoooXoooXoXoooXoooXXOo   ",
"    .XXXXoooXoXoooXoXoooXXXOo   ",
"    .XXXXXoooXoooooXoooXXXXOo   ",
"    .XXXXXXoooXoooXoooXXXXXOo   ",
"    .XXXXXXXoooXoXoooXXXXXXOo   ",
"    .XXXXXXXXoooXoooXXXXXXXOo   ",
"    .XXXXXXXXXoooooXXXXXXXXOo   ",
"    .XXXXXXXXXXoooXXXXXXXXXOo   ",
"    .XXXXXXXXXXXoXXXXXXXXXXOo   ",
"    .XXXXXXXXXXXXXXXXXXXXXXOo   ",
"    .XXXXXXXXXXXXXXXXXXXXXXOo   ",
"    .OOOOOOOOOOOOOOOOOOOOOOOo   ",
"    ooooooooooooooooooooooooo   "};
