/* XPM */
static char * info_xpm[] = {
"32 32 6 1",
" 	s background	c None",
".	c #7DF77DF77DF7",
"X	c white",
"o	c black",
"O	c #BEFBBEFBBEFB",
"+	c #00000000FFFF",
"    ..................          ",
"    .XXXXXXXXXXXXXXXX.o         ",
"    .XXXXXXXXXXXXXXXX..o        ",
"    .XXXXXXXXXXXXXXXX.O.o       ",
"    .XXXXXXXXXXXXXXXX.OO.o      ",
"    .XXXXXXXXXXXXXXXX.XOO.o     ",
"    .XXXXXXXXXXXXXXXX.XXOO.o    ",
"    .XXXXXXXXXXXXXXXX.ooooooo   ",
"    .XXXXXXXX++++++XXXOOOOOOo   ",
"    .XXXXXX++++++++++XOOOOOOo   ",
"    .XXXXX+++++XX+++++XXXXXOo   ",
"    .XXXX+++++XXXX+++++XXXXOo   ",
"    .XXX++++++XXXX++++++XXXOo   ",
"    .XXX+++++++XX+++++++XXXOo   ",
"    .XX++++++++++++++++++XXOo   ",
"    .XX++++++XXXXX+++++++XXOo   ",
"    .XX+++++++XXXX+++++++XXOo   ",
"    .XX+++++++XXXX+++++++XXOo   ",
"    .XX+++++++XXXX+++++++XXOo   ",
"    .XX+++++++XXXX+++++++XXOo   ",
"    .XXX++++++XXXX++++++XXXOo   ",
"    .XXX+++++XXXXXX+++++XXXOo   ",
"    .XXXX++++++++++++++XXXXOo   ",
"    .XXXXX++++++++++++XXXXXOo   ",
"    .XXXXXX++++++++++XXXXXXOo   ",
"    .XXXXXXXX++++++XXXXXXXXOo   ",
"    .XXXXXXXXXXXXXXXXXXXXXXOo   ",
"    .XXXXXXXXXXXXXXXXXXXXXXOo   ",
"    .XXXXXXXXXXXXXXXXXXXXXXOo   ",
"    .XXXXXXXXXXXXXXXXXXXXXXOo   ",
"    .OOOOOOOOOOOOOOOOOOOOOOOo   ",
"    ooooooooooooooooooooooooo   "};
