/* XPM */
static char * jpeg_xpm[] = {
"32 32 5 1",
" 	s background	c None",
".	c #7DF77DF77DF7",
"X	c white",
"o	c black",
"O	c #BEFBBEFBBEFB",
"    ..................          ",
"    .XXXXXXXXXXXXXXXX.o         ",
"    .XXXXXXXXXXXXXXXX..o        ",
"    .XXoooXoooXXXooXX.O.o       ",
"    .XXXXoXoXXoXoXXoX.OO.o      ",
"    .XXXXoXoXXoXoXXXX.XOO.o     ",
"    .XXXXoXoooXXoXooX.XXOO.o    ",
"    .XoXXoXoXXXXoXXoX.ooooooo   ",
"    .XXooXXoXXXXXooXXXOOOOOOo   ",
"    .XXXXXXXXXXXXXXXXXOOOOOOo   ",
"    .XXXXXXXXXXXXXXXXXXXXXXOo   ",
"    .XXXooooooooooooooooXXXOo   ",
"    .XXXooooXXooooXXooooXXXOo   ",
"    .XXXooooXXooooXXooooXXXOo   ",
"    .XXXooooooooooooooooXXXOo   ",
"    .XXXoXXoXXooooXXoXXoXXXOo   ",
"    .XXXoXXoXXooooXXoXXoXXXOo   ",
"    .XXXooooooooooooooooXXXOo   ",
"    .XXXoXXooooXXooooXXoXXXOo   ",
"    .XXXoXXooooXXooooXXoXXXOo   ",
"    .XXXooooooooooooooooXXXOo   ",
"    .XXXooooXXoXXooooXXoXXXOo   ",
"    .XXXooooXXoXXooooXXoXXXOo   ",
"    .XXXooooooooooooooooXXXOo   ",
"    .XXXoXXoooooooXXooooXXXOo   ",
"    .XXXoXXoooooooXXooooXXXOo   ",
"    .XXXooooooooooooooooXXXOo   ",
"    .XXXXXXXXXXXXXXXXXXXXXXOo   ",
"    .XXXXXXXXXXXXXXXXXXXXXXOo   ",
"    .XXXXXXXXXXXXXXXXXXXXXXOo   ",
"    .OOOOOOOOOOOOOOOOOOOOOOOo   ",
"    ooooooooooooooooooooooooo   "};
