/* XPM */
static char * link_xpm[] = {
/* width height ncolors chars_per_pixel */
"32 32 4 1",
/* colors */
" 	s background	c None",
".	c #808080",
"X	c black",
"o	c white",
/* pixels */
"                                ",
"                                ",
"                                ",
"                                ",
"                                ",
"                                ",
"                                ",
"                                ",
"                                ",
"                                ",
"                                ",
"                                ",
"                                ",
"                                ",
"                                ",
"                                ",
"                                ",
"                                ",
"                                ",
"                                ",
"                                ",
"..........X                     ",
".oooooooooX                     ",
".oooXXXXooX                     ",
".ooooXXXooX                     ",
".oooXXXXooX                     ",
".ooXXXoXooX                     ",
".ooXXoooooX                     ",
".ooXooooooX                     ",
".oooXoooooX                     ",
".oooooooooX                     ",
"XXXXXXXXXXX                     "};
