/* XPM */
static char * magic2_xpm[] = {
"32 32 10 1",
" 	s background	c None",
".	c #0000FFFFFFFF",
"X	c #00000000FFFF",
"o	c #FFFFFFFF0000",
"O	c #000000008207",
"+	c black",
"@	c white",
"#	c #FFFF0000FFFF",
"$	c #0000FFFF0000",
"%	c #C30BC30BC30B",
"      .   .                     ",
"       XoX                      ",
"   O.  +o+  .O                  ",
"   .o+@+o+@+o.                  ",
"    +o++o++o+  # $ .  .         ",
" .  @+#.@.#+  @. . $@           ",
"  X+++.@o@.+++X    #   #        ",
"  oooo@oXo@oooo   . $.   .      ",
"  X+++.@o@.+++X       @$        ",
" .  @+#.@.#+   .       .        ",
"    +o++o++o.+        $%. .     ",
"   .o+@+o+@.o++     . #.        ",
"   O.  +o+ ++XX+        $  #    ",
"       XoX  XXXX+    .  .  .    ",
"      .   . OXXXX+              ",
"             OXX.X+ . #$        ",
"$ @           OX@.X+@  . #.     ",
"%.             OX@.X+@.%.$      ",
"#  .  .         OX@.X+%@        ",
"  .   #          OX@.X+$@#.     ",
" $%$ $@ $ .     . OX@.XO.       ",
"$%.@ .%.%$%. .     OX@.XO       ",
"%# #  $%.%.      $#.OX@.XO      ",
".   . #%@%%$@ $ .%@$ OX@.XO     ",
"  .   .@%$@%%.%@ $.   OX@.XO    ",
"       #.  @$ .#   @ . OX@.XO   ",
"     .     .    .  #    OX@.XO  ",
"         .  #      .     OX@.XO ",
"             .            OX@.O ",
"                           OXOO ",
"                            OO  ",
"                                "};
