/* XPM */
static char * mailfolder_xpm[] = {
/* width height ncolors chars_per_pixel */
"32 32 13 1",
/* colors */
" 	s background	c None",
".	c black",
"X	c #D4D4FF",
"o	c white",
"O	c #0000DC",
"+	c #DC0000",
"@	c #FE0000",
"#	c #0000FE",
"$	c #CECECE",
"%	c #C0C0C0",
"&	c #F2F2F2",
"*	c #DADADA",
"=	c #8E8EFF",
/* pixels */
"                                ",
"                                ",
"                                ",
"                                ",
"                                ",
"                                ",
"                                ",
"     .......                    ",
"    .XXXXXXX.                   ",
"   .XXXXXXXXX.                  ",
"  .XXXXXXXXXXX.                 ",
"................................",
".oOOoo+@ooOOoo++ooOOoo@+ooO#oo+.",
".OOoo++ooOOoo++ooOOoo++ooOOoo+@.",
".Oooooooooooooooooooooooooooo+o.",
".oooo$%$ooooooooooooooooooooooo.",
".o+o$&o&$oooooooooooooooooooooO.",
".++o%$**%ooooooooooooooooooooOO.",
".@oo$&&&$o$*oo$o$ooooooooooooOo.",
".oooo$%$ooo$o$oooo$$oo*$$&ooooo.",
".oOooooooo&$$$oo$o$o$o$o$ooooo+.",
".OOoooooo$$oo&$$o$oo$$*$oo$oo++.",
".Oooooooooooooooooooooooooooo+o.",
".oooooooooooooooooooooooooooooo.",
".o+oooooooooooooooooooooooooooO.",
".++ooooooooooooooooooooooooooOO.",
".+ooOOoo++ooOOoo++ooOOoo++ooOOo.",
".ooOOoo++ooOOoo++ooOOoo++ooOOoo.",
"................................",
".XoXoXoXoXoXoXoXoXoXoXoXoXoXo=. ",
".oXoXoXoXoXoXoXoXoXoXoXoXoXoX=. ",
"............................... "};
