/* XPM */
static char * makefile_xpm[] = {
"32 32 24 1",
" 	s background	c None",
".	c black",
"X	c #75D675D675D6",
"o	c #FFFFFFFFCF3C",
"O	c #924892489248",
"+	c #861786178617",
"@	c #6DB66DB66DB6",
"#	c #618561856185",
"$	c #A289A289A699",
"%	c #D75CD75CFFFF",
"&	c #492449244924",
"*	c #B6DAB6DAB6DA",
"=	c #D75CF3CEFFFF",
"-	c #DB6CDB6CDB6C",
";	c #C30BC30BC30B",
":	c #AAAAAAAAAAAA",
">	c #CF3CCF3CCF3C",
",	c #79E779E779E7",
"<	c #30C230C230C2",
"1	c #249224922492",
"2	c #3CF33CF33CF3",
"3	c #186118611861",
"4	c white",
"5	c #FFFFCF3C9A69",
"               .                ",
"              ...               ",
"             ....X              ",
"            ....Xo.             ",
"           ....Xooo.            ",
"          ....Xooooo.           ",
"       O+@#..Xooooooo.          ",
"       $%$&.Xooooooooo.         ",
"   +#  $*$&Xo##oooooooo.        ",
"  +=-@+*;$+##$+#oooooooo.       ",
"  O%=%;**$$$$$$&ooooo$:$+.      ",
"   $>>***$$$$$#oo##oo+;;Oo.,@   ",
"   $***$+$$$$$&o#:-#@$*$$@#--@  ",
"@+$$$*$#&<@$$$+##-;;;*$$$$$*;*  ",
"@+OO$$&ooo1+$$++++*;;*$$$$$$$.  ",
"#+++OO&ooo1+$$O+@$$$*$$$$$O$$o. ",
"&##+++&ooo1+$O$@+$$$$$&<&O$$O,@#",
"  .#@,,&2<@$$O@$*$OOO2ooo2$$O$;$",
"   #@@@@++O$O$@:;O++@2ooo<$OO$*$",
"  &###@#@@++++#O$+@+@1ooo2$O++O,",
"  &@#&&##@@&2@@<<&#@@&13&OOO+   ",
"  &&2 .###&oo21oo,@##@##++++@   ",
"       #+@&ooooo+;$####@@@,+O#  ",
"       &&&&ooooo#;;,######&O;O  ",
"         .4oooooo@$oo#@@#  #+   ",
"          .4ooooooooo#$;#       ",
"           .4ooooooo5####       ",
"            .4ooooo5.           ",
"             .4ooo5.            ",
"              .4o5.             ",
"               .4.              ",
"                .               "};
