/* XPM */
static char * make_xpm[] = {
/* width height ncolors chars_per_pixel */
"32 32 19 1",
/* colors */
" 	s background	c None",
".	c #929292",
"X	c #868686",
"o	c #6E6E6E",
"O	c #626262",
"+	c #A0A0A4",
"@	c #D4D4FF",
"#	c #4A4A4A",
"$	c #B6B6B6",
"%	c #D4F0FF",
"&	c #DADADA",
"*	c #C0C0C0",
"=	c #AAAAAA",
"-	c #CECECE",
";	c #7A7A7A",
":	c #323232",
">	c #262626",
",	c #3E3E3E",
"<	c #1A1A1A",
/* pixels */
"                                ",
"                                ",
"                                ",
"                                ",
"                                ",
"                                ",
"       .XoO                     ",
"       +@+#                     ",
"   XO  +$+#  OO                 ",
"  X%&oX$*+XOO+XO                ",
"  .@%@*$$++++++#     +=+X       ",
"   +--$$$+++++O  OO  X**.  ;o   ",
"   +$$$+X+++++# O=&Oo+$++oO&&o  ",
"oX+++$+O#:o+++XOO&***$+++++$*$  ",
"oX..++#   >X++XXXX$**$+++++++   ",
"OXXX..#   >X++.Xo+++$+++++.++   ",
"#OOXXX#   >X+.+oX+++++#:#.++.;oO",
"   Oo;;#,:o++.o+$+...,   ,++.+*+",
"   OooooXX.+.+o=*.XXo,   :+..+$+",
"  #OOOoOooXXXXO.+XoXo>   ,+.XX.;",
"  #oO##OOoo#,oo::#Ooo#><#...X   ",
"  ##,  OOO#  ,>  ;oOOoOOXXXXo   ",
"       OXo#     X*+OOOOooo;X.O  ",
"       ####     O**;OOOOOO#.*.  ",
"                 o+  OooO  OX   ",
"                     O+*O       ",
"                     OOOO       ",
"                                ",
"                                ",
"                                ",
"                                ",
"                                "};
