/* XPM */
static char * modem_xpm[] = {
/* width height ncolors chars_per_pixel */
"32 32 10 1",
/* colors */
" 	s background	c None",
".	c black",
"X	c #CCCCFF",
"o	c white",
"O	c #9999FF",
"+	c #999999",
"@	c #777777",
"#	c #444444",
"$	c #DDDDDD",
"%	c #C0C0C0",
/* pixels */
"                                ",
"                                ",
"                                ",
"                                ",
"                                ",
"                                ",
"                                ",
"      .......                   ",
"     .XXXXXXX.                  ",
"    .XXXXXXXXX.                 ",
"   .XXXXXXXXXXX.                ",
"  .XXXXXXXXXXXXX............... ",
" .XXXXXXXXXXXXXXXXXXXXXXXXXXXXX.",
" .ooooooooooooooooooooooooooooo.",
" .oXoXoXoXoXoXoXoXoXoXoXoXoXoXO.",
" .XoXoXoXoXoXoXoXoXoXoXoXoXoXoO.",
" .oXoXoXoXoX++++++++++oXoXoXoXO.",
" .XoXoXoX++@@########@++#oXoXoO.",
" .oXoXoX+@@@#@#XoXo@#@@@@#oXoXO.",
" .XoXoX+@@@#o@@@@@@@#o@@@@#oXoO.",
" .oXoXo+@@@#X@@oooo@#X@@@@#XoXO.",
" .XoXoXo###o+@o$$$$%@#o###XoXoO.",
" .oXoXoXoXo+@@@%%%%@@@#XoXoXoXO.",
" .XoXoXoXoX+@@@@@@@@@@#oXoXoXoO.",
" .oXoXoXoX+@@@@@@@@@@@@#oXoXoXO.",
" .XoXoXoXo+@++++++++++@#XoXoXoO.",
" .oXoXoXoX+@@@@@@@@@@@@#oXoXoXO.",
" .XoXoXoXo+@@########@@#XoXoXoO.",
" .oXoXoXoX###XoXoXoXo###oXoXoXO.",
" .XoXoXoXoXoXoXoXoXoXoXoXoXoXoO.",
" .oXoXoXoXoXoXoXoXoXoXoXoXoXoXO.",
" ..............................."};
