/* XPM */
static char * movies_xpm[] = {
/* width height ncolors chars_per_pixel */
"32 32 8 1",
/* colors */
" 	s background	c None",
".	c black",
"X	c #CCCCFF",
"o	c white",
"O	c #555555",
"+	c #DDDDDD",
"@	c #9999FF",
"#	c #FFFFCC",
/* pixels */
"                                ",
"                                ",
"                                ",
"                                ",
"                                ",
"                                ",
"                                ",
"      .......                   ",
"     .XXXXXXX.                  ",
"    .XXXXXXXXX.                 ",
"   .XXXXXXXXXXX.                ",
"  .XXXXXXXXXXXXX............... ",
" .XXXXXXXXXXXXXXXXXXXXXXXXXXXXX.",
" .ooooooooooooooooooooooooooooo.",
" .XOXoO++++++..++..++++++OXoOX@.",
" .oOooOO+++++++..+++++++OOooOo@.",
" .XOOOOOOOOOOOOOOOOOOOOOOOOOOX@.",
" .oOOOOOOOOOOOOOOOOOOOOOOOOOOo@.",
" .XOOOOO+++++++..+++++++OOOOOX@.",
" .oOXoO++++++..##..++++++OXoOo@.",
" .XOooO+++++.######.+++++OooOX@.",
" .oOOOO++++.###..###.++++OOOOo@.",
" .XOOOO+++.###.##.###.+++OOOOX@.",
" .oOOOOOOO.####..####.OOOOOOOo@.",
" .XOXoOOOO.###.##.###.OOOOXoOX@.",
" .oOooO+++.###.##.###.+++OooOo@.",
" .XOOOO++++.###..###.++++OOOOX@.",
" .oOOOO+++++.######.+++++OOOOo@.",
" .XOOOO++++++..##..++++++OOOOX@.",
" .oOXoOO+++++++..+++++++OOXoOo@.",
" .XOooOOOOOOOOOOOOOOOOOOOOooOX@.",
" ..............................."};
