/* XPM */
static char * mozilla_xpm[] = {
"31 32 266 2",
"  	c None",
". 	c #AE7712",
"+ 	c #808000",
"@ 	c #CB711E",
"# 	c #53530B",
"$ 	c #806F09",
"% 	c #737300",
"& 	c #191900",
"* 	c #6B6B00",
"= 	c #976A0D",
"- 	c #2D0000",
"; 	c #615C07",
"> 	c #5E4211",
", 	c #B40000",
"' 	c #412706",
") 	c #B97417",
"! 	c #402100",
"~ 	c #FF0000",
"{ 	c #D07020",
"] 	c #6D5E0D",
"^ 	c #7D0B06",
"/ 	c #535101",
"( 	c #BD0000",
"_ 	c #857F02",
": 	c #3F130D",
"< 	c #DD0000",
"[ 	c #CD0606",
"} 	c #2A1B15",
"| 	c #A4790F",
"1 	c #530402",
"2 	c #E30000",
"3 	c #A20101",
"4 	c #9A0101",
"5 	c #2E0401",
"6 	c #5D5D00",
"7 	c #8D0D0C",
"8 	c #700202",
"9 	c #341111",
"0 	c #6D0707",
"a 	c #281210",
"b 	c #805D00",
"c 	c #746112",
"d 	c #61610B",
"e 	c #2B2B02",
"f 	c #281700",
"g 	c #491700",
"h 	c #2C0900",
"i 	c #A50707",
"j 	c #330303",
"k 	c #1E1111",
"l 	c #8D0303",
"m 	c #6E0404",
"n 	c #300900",
"o 	c #341700",
"p 	c #1F1B04",
"q 	c #171700",
"r 	c #221700",
"s 	c #441700",
"t 	c #1D1D04",
"u 	c #565600",
"v 	c #65650A",
"w 	c #5A5A0E",
"x 	c #6B6B02",
"y 	c #421900",
"z 	c #D50000",
"A 	c #B20000",
"B 	c #790000",
"C 	c #720E0E",
"D 	c #B00606",
"E 	c #900707",
"F 	c #CC0000",
"G 	c #690C0C",
"H 	c #540000",
"I 	c #C10000",
"J 	c #4B0909",
"K 	c #040000",
"L 	c #610000",
"M 	c #E80000",
"N 	c #575709",
"O 	c #875D1C",
"P 	c #96710C",
"Q 	c #261C04",
"R 	c #980202",
"S 	c #ED0000",
"T 	c #910000",
"U 	c #870000",
"V 	c #F50000",
"W 	c #FA0000",
"X 	c #F60101",
"Y 	c #890505",
"Z 	c #9D0000",
"` 	c #F70101",
" .	c #F30000",
"..	c #AD0000",
"+.	c #890000",
"@.	c #0E0101",
"#.	c #540606",
"$.	c #920404",
"%.	c #2B2009",
"&.	c #777700",
"*.	c #CF7020",
"=.	c #A16719",
"-.	c #524A03",
";.	c #6F0300",
">.	c #F00000",
",.	c #F80000",
"'.	c #650B0B",
").	c #C10404",
"!.	c #FB0000",
"~.	c #D50202",
"{.	c #5D0202",
"].	c #060606",
"^.	c #480101",
"/.	c #E20000",
"(.	c #FC0000",
"_.	c #710D0D",
":.	c #C50000",
"<.	c #EF0101",
"[.	c #410101",
"}.	c #090906",
"|.	c #26250E",
"1.	c #A26415",
"2.	c #7F6C0C",
"3.	c #6F520A",
"4.	c #3B0C09",
"5.	c #D80000",
"6.	c #721010",
"7.	c #8C1212",
"8.	c #740F0F",
"9.	c #232222",
"0.	c #3B0B0B",
"a.	c #780A0A",
"b.	c #A00C0C",
"c.	c #FE0000",
"d.	c #680000",
"e.	c #DE0000",
"f.	c #B80606",
"g.	c #575700",
"h.	c #967B09",
"i.	c #E66B29",
"j.	c #7F680C",
"k.	c #562D00",
"l.	c #790303",
"m.	c #380707",
"n.	c #201717",
"o.	c #8D3521",
"p.	c #4E1313",
"q.	c #700B0B",
"r.	c #6C0D0D",
"s.	c #C00000",
"t.	c #E70000",
"u.	c #3A0A04",
"v.	c #4E4E00",
"w.	c #C34E36",
"x.	c #7F6611",
"y.	c #492F09",
"z.	c #D60303",
"A.	c #AC0909",
"B.	c #9B0F0F",
"C.	c #BB0404",
"D.	c #A90000",
"E.	c #3C0000",
"F.	c #750000",
"G.	c #5B5B0A",
"H.	c #746F03",
"I.	c #4E0701",
"J.	c #EF1A0D",
"K.	c #FF1E0F",
"L.	c #FF0B06",
"M.	c #C0160B",
"N.	c #4F0606",
"O.	c #B90000",
"P.	c #7B0505",
"Q.	c #8E720A",
"R.	c #8F6F0D",
"S.	c #840C0C",
"T.	c #FF5229",
"U.	c #FF6231",
"V.	c #FF4D26",
"W.	c #FF4221",
"X.	c #DF4120",
"Y.	c #390707",
"Z.	c #B30000",
"`.	c #AC0606",
" +	c #494201",
".+	c #3D330C",
"++	c #BA0000",
"@+	c #F90000",
"#+	c #B70707",
"$+	c #F40202",
"%+	c #5E0000",
"&+	c #9E0000",
"*+	c #3B2600",
"=+	c #B87417",
"-+	c #BD7319",
";+	c #3C2A03",
">+	c #E40000",
",+	c #630603",
"'+	c #261804",
")+	c #551001",
"!+	c #310000",
"~+	c #5E0202",
"{+	c #C00101",
"]+	c #4E2E0D",
"^+	c #8B7507",
"/+	c #696900",
"(+	c #5A1C0A",
"_+	c #D70000",
":+	c #411800",
"<+	c #55550A",
"[+	c #6F6F00",
"}+	c #181800",
"|+	c #220606",
"1+	c #D90404",
"2+	c #8D0000",
"3+	c #545400",
"4+	c #575501",
"5+	c #AB0000",
"6+	c #A60505",
"7+	c #2F1E09",
"8+	c #6D6D03",
"9+	c #BB691F",
"0+	c #8F323E",
"a+	c #8D700A",
"b+	c #1E1904",
"c+	c #9B0202",
"d+	c #EF0000",
"e+	c #6E0303",
"f+	c #4A4A09",
"g+	c #AD7712",
"h+	c #735501",
"i+	c #C30000",
"j+	c #870100",
"k+	c #2F210D",
"l+	c #9E6414",
"m+	c #7F2E3B",
"n+	c #A36818",
"o+	c #504803",
"p+	c #720100",
"q+	c #600404",
"r+	c #14130B",
"s+	c #828001",
"t+	c #9E7A0C",
"u+	c #250C04",
"v+	c #500804",
"w+	c #A87810",
"x+	c #28100C",
"y+	c #B87516",
"z+	c #A66C13",
"A+	c #212109",
"B+	c #5F520D",
"C+	c #BA4B36",
"D+	c #6A620D",
"E+	c #303004",
"F+	c #625211",
"G+	c #917808",
"H+	c #E06C27",
"I+	c #57302B",
"J+	c #806711",
"K+	c #C4721B",
"L+	c #9B234C",
"M+	c #941C50",
"N+	c #917D07",
"O+	c #937C08",
"P+	c #C8711D",
"Q+	c #574818",
"                                                              ",
"                              .                               ",
"                              +                               ",
"                            @ # $                             ",
"                            % & *                             ",
"                            = - ;                             ",
"                            > , '                             ",
"                          ) ! ~ ! {                           ",
"                          ] ^ ~ ^ ]                           ",
"                          / ( ~ ( /                           ",
"                        _ : < ~ [ } _                         ",
"                        | 1 2 3 4 5 +                         ",
"                      + 6 7 8 9 0 a b +                       ",
"  c d e f g g g g g g g h i j k l m n o g p q r s g f t u v   ",
"    w x y z ~ ~ ~ ~ ~ A B C D E F G H I ~ J K L M z y N O     ",
"        P Q R S ~ ~ T U V W X Y Z `  ...S +.@.#.$.%.&.*.      ",
"          =.-.;.>.,.'.).!.~.{.].^./.(._.:.<.[.}.|.1.          ",
"            2.3.4.5.6.7.8.9.0.a.b.c.I d.e.f.}.g.h.            ",
"              i.j.k.l.m.n.o.p.q., r.s.>.t.u.v.+               ",
"                w.x.y.z.A.B.C.D.E.H ~ ~ F.G.+                 ",
"                  H.I.J.K.K.L.K.M.N.O.~ P.Q.                  ",
"                  R.S.T.U.U.V.W.X.Y.Z.~ `. +                  ",
"                  .+++~ ~ ~ @+#+$+%+&+ .~ *+=+                ",
"                -+;+>.~ ~ >+,+'+)+!+~+{+~ ]+^+                ",
"                /+(+~ ~ _+:+<++ [+}+|+1+~ 2+3+                ",
"                4+5+~ 6+7+8+9+  0+a+b+c+d+e+f++               ",
"              g+h+i+j+k+l+m+        n+o+p+q+r+s+              ",
"              t+u+v+u w+              + u x+u+y+              ",
"              z+A+B++                   C+D+E+F+              ",
"              6 G+H+                      I+J+6               ",
"            K++ L+                          M+N+O+            ",
"            P+                                  Q+            "};
