/* XPM */
static char * music_xpm[] = {
/* width height ncolors chars_per_pixel */
"32 32 10 1",
/* colors */
" 	s background	c None",
".	c #0000FF",
"X	c black",
"o	c #CCCCFF",
"O	c #9999FF",
"+	c white",
"@	c #0066FF",
"#	c #000099",
"$	c #FF99FF",
"%	c #CC66CC",
/* pixels */
"                                ",
"                                ",
"                                ",
"                                ",
"                                ",
"                      .         ",
"                      ..        ",
"      XXXXXXX         ....      ",
"     XoooooooX        ...       ",
"    XoooooooooX       .         ",
"   XoooooooooooX      .         ",
"  XoooooooooooooXXXXXX.XXXXXXXX ",
" Xoooooooooooooooooooo.oOooooooX",
" X++++++++++++++++++++.+O++++++X",
" X+o+o+o+o+o+o+o+o+o+o.oOo+o+oOX",
" Xo+o+@@@@@@@@@@o+o+o+.+O+o+o+OX",
" X+o+o..........+o+o@@.oOo+o+oOX",
" Xo+o+.+OOOOOOO.OOo@...#O+o+o+OX",
" X+o+$..........OO+@..##Oo+o+oOX",
" Xo$$+.+O$o+o+o.oOo+###OOOo+o+OX",
" X$o+o.oOO%OOOO.OO+o+OOOOO+o+oOX",
" Xo+o+.+O+o$$$o.oOo+o+OOO+o+o+OX",
" X+o+$.$%o+o+o$.$O+o+o+o+o+o+oOX",
" Xo$$+.+O$o+o+o.o%$$o+o+o+o+o+OX",
" X$o+o.oOo$o+o+.+O+o$$+o+o+o+$OX",
" Xo+o+.+O+o$$$o.oOo+o+$$$$$$$+OX",
" X+o@@.$%o+o+@@.$O+o+o+o+o+o+oOX",
" Xo@...#O$o+@...#%$$o+o+o+o+o+OX",
" X$@..##Oo$o@..##O+o$$+o+o+o+$OX",
" Xo+###OOOo$$###OOO+o+$$$$$$$+OX",
" X+o+OOOOO+o+oOO%OOo+o+o+o+o+oOX",
" XXXXXXXXXXXXXXXXXXXXXXXXXXXXXXX"};
