/* XPM */
static char * news_xpm[] = {
"32 32 4 1",
" 	c #C30BC30BC30B",
".	c white",
"X	c black",
"o	c #820782078207",
"                                ",
" ..............................X",
" ..............................X",
" ...X..X.XXXX.X...X.XXXX..X  X.X",
" ...XX.X.X....X.X.X.X.....XX  .X",
" ...XXXX.XXX..XXXXX.XXXX.. XX .X",
" ...X.XX.X....XX.XX....X..  XX.X",
" ...X..X.XXXX.X...X.XXXX..X  X.X",
" ..............................X",
" ooooooooooooooooooooooooooooooX",
" ..............................X",
" .XX.X.XXX.X.ooooooooooooooooo.X",
" ..X.X.X.X.X.oXXXXo..  oXXXXXo.X",
" .XXXXX.XX.X.oXXXo.   . oXXXXo.X",
" ..........X.oXXXXXX  XXXXXXXo.X",
" .XX.......X.oXXXo. . . oXXXXo.X",
" ..........X.oXXXo  oX  oXXXXo.X",
" .XX.XXXXX.X.oXXXo      oXXXXo.X",
" ..........X.oXXXXo XX oXXXXXo.X",
" .X.XXXXX..X.oXXXXoo. ooXXXXXo.X",
" ..........X.oXXX  oooo  XXXXo.X",
" .XXXX.X.X.X.ooooooooooooooooo.X",
" ..........X...................X",
" .XXXXXXXX.X.XX.XXXX.XXX.XXXXXXX",
" ..........X...................X",
" .XXXXXX.X.X.XXXXX.XXXXXX.XXX.XX",
" ..........X...................X",
" .XX.XXXXX.X.ooooo.............X",
" ..........X...................X",
" .XXX.X.XX.X.o.oooo.oo.o.ooooo.X",
" ..........X...................X",
"XXXXXXXXXXXXXXXXXXXXXXXXXXXXXXXX"};
