/* XPM */
static char * pictures_xpm[] = {
/* width height ncolors chars_per_pixel */
"32 32 38 1",
/* colors */
" 	s background	c None",
".	c black",
"X	c #CCCCFF",
"o	c white",
"O	c #CC9999",
"+	c #CCCC99",
"@	c #FFCC99",
"#	c #FFCCCC",
"$	c #C0C0C0",
"%	c #FF9999",
"&	c #999999",
"*	c #CC9966",
"=	c #777777",
"-	c #996666",
";	c #666666",
":	c #666633",
">	c #555555",
",	c #444444",
"<	c #663333",
"1	c #996633",
"2	c #6666CC",
"3	c #999966",
"4	c #A0A0A4",
"5	c #222222",
"6	c #333333",
"7	c #993333",
"8	c #333300",
"9	c #111111",
"0	c #220000",
"q	c #000022",
"w	c #330000",
"e	c #CCCCCC",
"r	c #DDDDDD",
"t	c #333366",
"y	c #0000CC",
"u	c #000033",
"i	c #FFFBF0",
"p	c #FFFFCC",
/* pixels */
"                                ",
"                                ",
"                                ",
"                                ",
"                                ",
"                                ",
"                                ",
"      .......                   ",
"     .XXXXXXX.                  ",
"    .XXXXXXXXX.                 ",
"   .XXXXXXXXXXX.                ",
"  .XXXXXXXXXXXXX............... ",
" .XXXXXXXXXXXXXXXXXXXXXXXXXXXXX.",
" .ooooooooooooooooooooooooooooo.",
" .OO+O@#+@$%OO&*=-;:>:,<><>:>12.",
" .+OO@$@$OOO33-;-:,>,,<,<:<>,>2.",
" .@4@$@OOO3<566655<5<6<,,<><7,2.",
" .4@OOOO-8,&O1OO-<859968<6<:>:2.",
" .%4O+O><#@O&500555585556<,<,,2.",
" .++O&:<==:00996555995556,,<:<2.",
" .@OO-6@:0.,5,&6q5556w558<<,<,2.",
" .#+O=*>0,erty=,.qtt5>9865><>:2.",
" .#@&-6<;oo$qy,.9.tyu&;95<<><:2.",
" .##%3&3Oooiqytq.5yt644,96::>-2.",
" .#p##i@3Ooo;tyyyyt9=4&,99-&-32.",
" .##pp#OOOOoo5tyyy9;44;5q-&3OO2.",
" .p#####O-3Oio=t.t&4=,56-3O*OO2.",
" .###oep4+O>*O@4O&->>--3->&OO+2.",
" .po##p@OO&3-;>:-->:<>:<93%+@$2.",
" .##p####+--;<-,:6<<,655-+$@$@2.",
" .#p##rp#@@&-=:>>:,658<3O%@$#@2.",
" ..............................."};
