/* XPM */
static char * printer3_xpm[] = {
"32 32 7 1",
" 	s background	c None",
".	c black",
"X	c #C30BC30BC30B",
"o	c white",
"O	c #820782078207",
"+	c #0000FFFFFFFF",
"@	c #000000008207",
" ..................             ",
" .XXXXXXXXXXXXXXXXX.            ",
" .ooXXXoXXXoXoXXXoo.            ",
"  .ooooooooooooooooo.           ",
"  .ooXXoXXXXoXXoXXoo.           ",
"   .ooooooooooooooooo.          ",
"   .ooXXXoXXXoXXoXXoo.          ",
"    .ooooooooooooooooo.         ",
"    .ooXXoXXXoXXoXXXoo.         ",
"     .ooooooooooooooooo.        ",
" .....ooXXoXoXXXoXXXXoo...      ",
" .ooOO.oooooooooooooooo.o.      ",
" .XXOO.XXOXOOOXOOXOOOOoo..      ",
"  .XXO.XXXXXXXXXXXXXXXXo.o.     ",
"  .XXO.XXOOOOXOOOOXOOOXo.o.     ",
"   .XO.XXXXXXXXXXXXXXXXX.Xo.    ",
"   .X....................Xo.    ",
"  ............................. ",
"  ..Xoooooooooooooooooooooooooo.",
" .O.OXXXXXXXXXXXXXXXXXXXXXXXXXo.",
" .O.OXXXXXXXXXX++XXXXXXXXX++XXo.",
" .O.OXXXXXXXXXX@@XXXXXXXXX@@XXo.",
" .O.OXXXXXXXXXXXXXXXXXXXXXXXXXo.",
" .O.OX.X.X.X.X.X.X.X.X.X.X.X.Xo.",
" .O.OXXXXXXXXXXXXXXXXXXXXXXXXXo.",
"OO.O........................... ",
"OOO.O.OOOOOOOOOOOOOOOOOOOOOOO.  ",
"OOO.O.OXXXXXXXXXXXXXXXXXXXXXX.  ",
" OO...Xoooooooooooooooooooooo.  ",
"  OO..........................  ",
"   OOOO..OOOOOOOOOOOOOOOOO..O   ",
"     OOOOOOOOOOOOOOOOOOOOOOO    "};
