/* XPM */
static char * ps_xpm[] = {
"32 32 5 1",
" 	s background	c None",
".	c #7DF77DF77DF7",
"X	c white",
"o	c black",
"O	c #BEFBBEFBBEFB",
"    ..................          ",
"    .XXXXXXXXXXXXXXXX.o         ",
"    .XXXXXXXXXXXXXXXX..o        ",
"    .XXXXXXXXXXXXXXXX.O.o       ",
"    .XXXXXXXXXXXXXXXX.OO.o      ",
"    .XXXXXXXXXXXXXXXX.XOO.o     ",
"    .XXXXXXXXXXXXXXXX.XXOO.o    ",
"    .XXXXXXXXXXXXXXXX.ooooooo   ",
"    .XXXXXXXXXXXXXXXXXOOOOOOo   ",
"    .XXXXXXXXXoXXooXXXOOOOOOo   ",
"    .XXXXXXXXoXXooXXXXXXXXXOo   ",
"    .XXXXXXXXoXXooXXXXXXXXXOo   ",
"    .XXXXXXXoXXooXXXXXXXXXXOo   ",
"    .XXXXXXooXXooXXXXXXXXXXOo   ",
"    .XXoooooXXooXXXXXooooXXOo   ",
"    .XoooooXXooXXXXXXoooooXOo   ",
"    .XoooooXXooXXXXXooooooXOo   ",
"    .XooooXXooXXXXXXooooooXOo   ",
"    .XooooXXooXXXXXoooooooXOo   ",
"    .XoooXXoooXXXXXoooooooXOo   ",
"    .XoooXXXXooXXXooooooooXOo   ",
"    .XooooooXXooXXooooooooXOo   ",
"    .XoooooooXXoXoooooooooXOo   ",
"    .XooooooooXoXoooooooooXOo   ",
"    .XooooooooXoXoooooooooXOo   ",
"    .XooooooooXXooooooooooXOo   ",
"    .XXooooooXXooooooooooXXOo   ",
"    .XXXXXXXXXXXXXXXXXXXXXXOo   ",
"    .XXXXXXXXXXXXXXXXXXXXXXOo   ",
"    .XXXXXXXXXXXXXXXXXXXXXXOo   ",
"    .OOOOOOOOOOOOOOOOOOOOOOOo   ",
"    ooooooooooooooooooooooooo   "};
