/* XPM */
static char * ps2_xpm[] = {
"32 32 5 1",
" 	s background	c None",
".	c #7DF77DF77DF7",
"X	c white",
"o	c black",
"O	c #BEFBBEFBBEFB",
"    ..................          ",
"    .XXXXXXXXXXXXXXXX.o         ",
"    .XXXXXoXXXXXXXXXX..o        ",
"    .XXXXXoXXXXXXXXXX.O.o       ",
"    .XXXXXXXXXXXXXXXX.OO.o      ",
"    .XXXXXoXXXXXXXXXX.XOO.o     ",
"    .XooXoXoXooooooXX.XXOO.o    ",
"    .XXXXXoXXXXXXXXXX.ooooooo   ",
"    .XXXXXXXXXXXXXXXXXOOOOOOo   ",
"    .XXXXXoXXXXXXXXXXXOOOOOOo   ",
"    .XXXXXoXXXXXXXXXXXXXXXXOo   ",
"    .XXXXXXXXXXXXXXXXXXXXXXOo   ",
"    .XXXXoooooooXXoooooXXXXOo   ",
"    .XXXXXooXXoooooXXoooXXXOo   ",
"    .XXXXXooXXXoooXXXXooXXXOo   ",
"    .XXXXXooXXXoooXXXXXXXXXOo   ",
"    .XXXXXooXXoooooXXXXXXXXOo   ",
"    .XXXXXoooooXXooooooXXXXOo   ",
"    .XXXXXooXXXXXXXXXoooXXXOo   ",
"    .XXXXXooXXXXXXXXXXooXXXOo   ",
"    .XXXXXooXXXXooXXXXooXXXOo   ",
"    .XXXXXooXXXXoooXXoooXXXOo   ",
"    .XXXXooooXXXXoooooXXXXXOo   ",
"    .XXXXXXXXXXXXXXXXXXXXXXOo   ",
"    .XooooooooooooooooooooXOo   ",
"    .XXXXXXXXXXXXXXXXXXXXXXOo   ",
"    .XXXXXoXXXXXXXXXXXXXXXXOo   ",
"    .XXXXXoXXXXXXXXXXXXXXXXOo   ",
"    .XXXXXoXXXXXXXXXXXXXXXXOo   ",
"    .XXXXXXXXXXXXXXXXXXXXXXOo   ",
"    .OOOOOOOOOOOOOOOOOOOOOOOo   ",
"    ooooooooooooooooooooooooo   "};
