/* XPM */
static char * rc_xpm[] = {
/* width height ncolors chars_per_pixel */
"32 32 13 1",
/* colors */
" 	s background	c None",
".	c black",
"X	c #555555",
"o	c #777777",
"O	c #999999",
"+	c #444444",
"@	c #A0A0A4",
"#	c #C0C0C0",
"$	c #DDDDDD",
"%	c #CC9900",
"&	c #996600",
"*	c #663300",
"=	c #222222",
/* pixels */
"   ........ .......  ......     ",
"  .XoOOOoo+.OOOOoo+..+XoOOO..   ",
" .XOo@@@@@@o@@@@@@@o.o@@@@@Oo.  ",
".oO@o@#$$$$O#$$$$$#@O#$$$$$#@o. ",
".oOOo@$$%&$#O*$$$&##%&$$$$&$#@o.",
".XO@o@$%@*$$&#*$&#$%@@*$$&@*$@X.",
".XO@o@$%#*$%#$#*#$$$&#@*$%#*$@X.",
".+O@Oo$&$*$$$$$$$$$$&$#*$%$*$@+.",
" .oO@Oo&#*$%%&&&&*$$$&$*$#$*$@+.",
".oO@oo@&**$&@$#@*$$$*@&$*$$*$@=.",
".oO@o@#$#*$$&***$$%*@#$**$$*@==.",
".oO@o@$$$$$$$$$$$$$$$$$$$$#@+.. ",
".oO@o@$$$$$$$$$$$$$$$$$$$$$#@X. ",
".XOOOo##$$$$$$$$$$$$$$$$$$$$#@X.",
".XO@o@$$$$$$$$$$$$$$$$$$$$$$$@X.",
".+O@o@$#%&$$$$&$$$&$$#O*$$$&$@X.",
".+O@o@$%@@*$$&@*$&@*$$&#*$&#$@X.",
" .oOo@$$&#@*$%#*$%#*$%#$#*#$$@X.",
".oO@oo@$&$#*$%$*$%$*$$$$$$$$$@+.",
".oO@@Oo$$&$*$#$*$#$*$%%&&&&*$@=.",
".oO@Oo@$*@&$*$$*$$$*$&@$#@*$$@+.",
".XO@o@$*@#$**$$*$$$*$$&***$$@@=.",
".XOOo@$$$$$$$$$$$$$$$$$$$$$@XX=.",
".XO@o@$$$$$$$$@$$$$$$@$$$$$$@@=.",
".XO@o@$$$$@X@X@$$$$$$@$$$$$$$@=.",
".XOO+@$#$$$#X@$$$$$$@o@$$$$$#@=.",
".+O@+@@@@@@@X@@@@@@@o+o@@@@@@@=.",
".+O@+ooooooo=ooooooo+XXoooX+===.",
".+OoXXXXX=XX=XXX=XX=XXX=X=+=+=. ",
" .+X++=+=++++=+=++==++=+++=+=.  ",
"  .=====.=============.=====.   ",
"   ..... ............. .....    "};
