/* XPM */
static char * readme_xpm[] = {
/* width height num_colors chars_per_pixel */
"32 32 40 1",
/* colors */
" 	s background	c None",
".	c #111111",
"X	c black",
"o	c #444444",
"O	c #555555",
"+	c #333333",
"@	c #fffbf0",
"#	c #220000",
"$	c #cccccc",
"%	c #777777",
"&	c #222222",
"*	c #666666",
"=	c #a0a0a4",
"-	c #ffcccc",
";	c #dddddd",
":	c white",
">	c #c0c0c0",
",	c #ffffcc",
"<	c #ccffcc",
"1	c #ffccff",
"2	c #cccc99",
"3	c #cc9999",
"4	c #999999",
"5	c #002200",
"6	c #333300",
"7	c #003300",
"8	c #663333",
"9	c #330033",
"0	c #ffcc99",
"q	c #669966",
"w	c #330000",
"e	c #666633",
"r	c #99cc99",
"t	c #cc99cc",
"y	c #cccc66",
"u	c #999966",
"i	c #000022",
"p	c #003333",
"a	c #996666",
"s	c #333366",
/* pixels */
"                        .XX     ",
" oX                  O+.@##     ",
" X$X.          $%%X&*=-;-@.     ",
" O;:>oo&+++%% $>$,$+:@<-<-.     ",
" X>,1,@:,::::::::@:%;23;$;4O    ",
"  .;,X@@=oO,@&+-@>$,X&56-2$&    ",
"   #@@:.o3%X;+:@:+X:4+-%7-$6    ",
"   O=,@.$@:X>8+O@+OX:&;29$0%*   ",
"    #@@48@=X:&q;,+@X:%%3+2>;X   ",
"    &;-;XXX*:*X:=#XO%2&&3$2wX   ",
"    o=,;X>3+5-oXOX$-.>e3$28$+   ",
"     X;-.r$-$2>2>2222>223$$2&   ",
"     #$$;->22t2>32t3>3>3>22;#$  ",
"     *%0$22t2233>323223$2t0$.$  ",
"      #;2*=2=3=23r3=3323>2>-.;  ",
"      &2-X&32X3=y324*&#$6%;24O  ",
"      X$=X#2.Xu23&i6&u$2X32;%X  ",
"      X$&o&$#=&3r&232>2>#$-;X*  ",
"      X;#$oXX$&23+t2t0$3X-5X%   ",
"      &2.=$wX$.$2+2+u>2%#p.     ",
"     #$-+a2+=;&2-&.e$$-&o$OO&o  ",
"     X;;+%-2-$&=;6+;-;2&o-,$+X  ",
"     &0;u#;;$-%e-+4-$-;&+;;,#*  ",
"     .;->+,;,<3s,.$@,$,4-=-;5   ",
"    X<-<;,;-;@@u@*6=5=1,=,<:#   ",
"     o$-;;,@@-:@@:...,;;#i-@#   ",
"   *&X2$,@@@@:@@:@::@;@:.#@,X   ",
"   X,@-;3;@,1@::@:,:@@,@@:@@X   ",
"  O4;-;,*;,@@q*@,%%-:,1,@,@$X   ",
"  X>4*+&&&++8+&&.o+p+9&%4=$-X   ",
"  X#==                 =4*OXX   ",
"                                "};
