/* XPM */
static char * script_link_xpm[] = {
"32 32 15 1",
" 	s background	c None",
".	c black",
"X	c #75D675D675D6",
"o	c #FFFFFFFFCF3C",
"O	c #FFFFCF3C9A69",
"+	c #FFFF9A696595",
"@	c #9A6930C20000",
"#	c #FFFF659530C2",
"$	c white",
"%	c #DF7DDF7DDF7D",
"&	c #555555555555",
"*	c #C30BC30BC30B",
"=	c #820782078207",
"-	c #A289A289A699",
";	c #208120812081",
"               .                ",
"              ...               ",
"             ....X              ",
"            ....Xo.             ",
"           ....Xooo.            ",
"          ....Xooooo.           ",
"         ....Xooooooo.          ",
"        ....Xooooooooo.         ",
"       ....Xooooooooooo.        ",
"      ....Xooooooooooooo.       ",
"     ....Xooooooooooooooo.      ",
"    ....Xooo...ooo...ooooo.     ",
"   ....Xooo.OOO...OOO.ooooo.    ",
"  ....Xo...OOOOO.OOOOO...ooo.   ",
" ....Xo.OO.OOOOO.OO+O+++O.ooo.  ",
".X..Xo.OOOO.OOOO.O+++O+O+O.ooo. ",
" .XXoo.OOOO.OOOOO+@@#+OOO+.oooO.",
"  .$ooo.OOOO.OOO+@..@#+OOO+ooO. ",
"   .$ooo.OOO.OO@@.@@.@#+OOO+O.  ",
"    .$ooo.OO...OO........OOO+%&.",
"     .$ooo.OO*@@#+@@++OOOOOOO$X.",
"==========..O.*@@#++OO+++++++$X.",
"=$$$$$$$$$...OO*@@@####+####@%&.",
"=$$$....$$..OOO**@@@@@@@@@@@@-&.",
"=$$$$...$$......***@@@@@@@@@@-;.",
"=$$$....$$.$ooooo****X.     @&..",
"=$$...$.$$..$ooooo**X.       &..",
"=$$..$$$$$. .$oooo*X.           ",
"=$$.$$$$$$.  .$oooO.            ",
"=$$$.$$$$$.   .$oO.             ",
"=$$$$$$$$$.    .$.              ",
"...........     .               "};
