/* XPM */
static char * script_plain_xpm[] = {
/* width height ncolors chars_per_pixel */
"32 32 6 1",
/* colors */
" 	s background	c None",
".	c black",
"X	c #777777",
"o	c #FFFFCC",
"O	c #FFCC99",
"+	c white",
/* pixels */
"               .                ",
"              ...               ",
"             ....X              ",
"            ....Xo.             ",
"           ....Xooo.            ",
"          ....Xooooo.           ",
"         ....Xooooooo.          ",
"        ....Xooooooooo.         ",
"       ....Xooooooooooo.        ",
"      ....Xooooooooooooo.       ",
"     ....Xooooooooooooooo.      ",
"    ....Xooo...ooo...ooooo.     ",
"   ....Xooo.OOO...OOO.ooooo.    ",
"  ....Xo...OOOOO.OOOOO...ooo.   ",
" ....Xo.OO.OOOOO.OOOOO.OO.ooo.  ",
".X..Xo.OOOO.OOOO.OOOO.OOOO.ooo. ",
" .XXoo.OOOO.OOOO.OOOO.OOOO.oooO.",
"  .+ooo.OOOO.OOO.OOO.OOOO.oooO. ",
"   .+ooo.OOO.OOO.OOO.OOO.oooO.  ",
"    .+ooo.OOO.OO.OO.OOO.oooO.   ",
"     .+ooo.OO.OO.OO.OO.oooO.    ",
"      .+ooo.O..O.O..O.oooO.     ",
"       .+oo..OOOOOOO..ooO.      ",
"        .+o.OOOOOOOOO.oO.       ",
"         .+...........O.        ",
"          .+oooooooooO.         ",
"           .+oooooooO.          ",
"            .+oooooO.           ",
"             .+oooO.            ",
"              .+oO.             ",
"               .+.              ",
"                .               "};
