/* XPM */
static char * sounds_xpm[] = {
/* width height ncolors chars_per_pixel */
"32 32 9 1",
/* colors */
" 	s background	c None",
".	c black",
"X	c #CCCCFF",
"o	c white",
"O	c #333366",
"+	c #444444",
"@	c #9999FF",
"#	c #6666CC",
"$	c #C0C0C0",
/* pixels */
"                                ",
"                                ",
"                                ",
"                                ",
"                                ",
"                                ",
"                                ",
"      .......                   ",
"     .XXXXXXX.                  ",
"    .XXXXXXXXX.                 ",
"   .XXXXXXXXXXX.                ",
"  .XXXXXXXXXXXXX............... ",
" .XXXXXXXXXXXXXXXXXXXXXXXXXXXXX.",
" .oooooooooooOooooo+ooooooooooo.",
" .oXoXoXoXoX.OoXoXoX+XoXoXoXoX@.",
" .XoXoXoXoX.#OXoX+XoX+XoXoXoXo@.",
" .oXoXoXoX.#@#oXoX+XoX+XoXoXoX@.",
" .XoXoXoX.#@X#XoXoX+Xo+oXoXoXo@.",
" .oXoXoX.#@Xo#oX+Xo+oX+XoXoXoX@.",
" .XoX...#@XoX#Xo+oX+XoX+XoXoXo@.",
" .oXoO@@$ooXX#oXo+oX+Xo+oXoXoX@.",
" .XoX@ooooXX@OXoX+Xo+oX+XoXoXo@.",
" .oXoO@@#@@@@OoXo+oX+Xo+oXoXoX@.",
" .XoX.###@@@@OXoX+Xo+oX+XoXoXo@.",
" .oXo...##@@@OoX+Xo+oXo+oXoXoX@.",
" .XoXoXo.##@@OXo+oX+Xo+oXoXoXo@.",
" .oXoXoXo.##@OoXoXo+oX+XoXoXoX@.",
" .XoXoXoXo.##OXoXo+oXo+oXoXoXo@.",
" .oXoXoXoXo.#.oXo+oXo+oXoXoXoX@.",
" .XoXoXoXoXo..XoXoXo+oXoXoXoXo@.",
" .oXoXoXoXoXo.oXoXo+oXoXoXoXoX@.",
" ..............................."};
