/* XPM */
static char * sounds2_xpm[] = {
/* width height ncolors chars_per_pixel */
"32 32 16 1",
/* colors */
" 	s background	c None",
".	c black",
"X	c #D4D4FF",
"o	c #868686",
"O	c #CECECE",
"+	c white",
"@	c #565656",
"#	c #0E0E0E",
"$	c #4A4A4A",
"%	c #8E8EFF",
"&	c #262626",
"*	c #7A7A7A",
"=	c #F2F2F2",
"-	c #DADADA",
";	c #C0C0C0",
":	c #AAAAAA",
/* pixels */
"                                ",
"                                ",
"                                ",
"                                ",
"                                ",
"                                ",
"                                ",
"     .......                    ",
"    .XXXXXXX.                   ",
"   .XXXXXXXXX.                  ",
"  .XXXXXXXXXXX.                 ",
" .XXXXXXXXXXXXX...............  ",
".XXXXXXXXXXXXXXXXXXXXoOXXXXXXX. ",
".+++++++++++++++++++@#@++++++X. ",
".+X+X+X+X+X+X+X+X+@$.@X+X+X+X%. ",
".X+X+X+X+X+X+X+X+@$.&*+X+X+X+%. ",
".+X+X+X+X+X+X+X+@$.+&@*+X+X+X%. ",
".X+X+X+X+X+X+X+@$.+X+$*$+X+X+%. ",
".+X+X+X+X+X+X+X$.+X+X.@=$+X+X%. ",
".X+X+X+X+X+X+X@..X+X+X.*=$+X+%. ",
".+X+X+X+X+X+X+$.X+X+X+.$O@X+X%. ",
".X+X+X+X+X+X+@..+X+X+X+.*-$X+%. ",
".+X+X....+X+X$.+X+X+X+X.*;$+X%. ",
".X+X..@*@$.X+..X+X+X+X+.*:$X+%. ",
".+X.$@*-=*$.X..+X+X+X+X.**$+X%. ",
".X+.$@*o-=*$#..X+X.X+X.$*@.X+%. ",
".+X..$@*o--@&#.+X+X....@@.X+X%. ",
".X+X..$@*o*@&#.X+X+X+....X+X+%. ",
".+X+X..$@@@$&#.+X+X+X+X+X+X+X%. ",
".X+X+X+.......+X+X+X+X+X+X+X+%. ",
".+X+X+X+X+X+X+X+X+X+X+X+X+X+X%. ",
"............................... "};
