/* XPM */
static char * stuff_button_xpm[] = {
"20 20 164 2",
"  	c None",
". 	c #C8C8C8",
"+ 	c #D9D9D9",
"@ 	c #C3C3C3",
"# 	c #8133D2",
"$ 	c #A675DA",
"% 	c #C1C1C1",
"& 	c #DFDFDF",
"* 	c #873FD4",
"= 	c #8234D3",
"- 	c #B48CDD",
"; 	c #9A9A9A",
"> 	c #D4D2CF",
", 	c #B9B9B9",
"' 	c #C4C4C4",
") 	c #A0A0A0",
"! 	c #8B8B8B",
"~ 	c #653499",
"{ 	c #9E69D7",
"] 	c #9077AA",
"^ 	c #C6C5C3",
"/ 	c #FAF7F1",
"( 	c #D8D7D6",
"_ 	c #C0BFBE",
": 	c #CFCFCE",
"< 	c #B6B6B6",
"[ 	c #575757",
"} 	c #626262",
"| 	c #1B1522",
"1 	c #2C2336",
"2 	c #B8AEC2",
"3 	c #8650BE",
"4 	c #9879B9",
"5 	c #F4F0E9",
"6 	c #FFFCF5",
"7 	c #EFECE5",
"8 	c #F4F3F0",
"9 	c #A5A5A5",
"0 	c #000000",
"a 	c #A7A7A7",
"b 	c #707070",
"c 	c #4A4A4A",
"d 	c #E6E4E0",
"e 	c #FFFBF3",
"f 	c #D9D7D2",
"g 	c #B3B3B3",
"h 	c #121212",
"i 	c #94949C",
"j 	c #494949",
"k 	c #D2D2D2",
"l 	c #585858",
"m 	c #343434",
"n 	c #C0BDB8",
"o 	c #FFFCF6",
"p 	c #C3C3C2",
"q 	c #7E7E7E",
"r 	c #1E1E1E",
"s 	c #505050",
"t 	c #303038",
"u 	c #6C6C85",
"v 	c #ABABAB",
"w 	c #989898",
"x 	c #AAAAAA",
"y 	c #ADADAD",
"z 	c #515153",
"A 	c #545352",
"B 	c #C3C0BA",
"C 	c #6F6E6E",
"D 	c #6D6D6D",
"E 	c #A0A0AB",
"F 	c #606060",
"G 	c #24242C",
"H 	c #585865",
"I 	c #B7B7B7",
"J 	c #ACACBF",
"K 	c #ABABCF",
"L 	c #CACACC",
"M 	c #848484",
"N 	c #4C4C4C",
"O 	c #8B8985",
"P 	c #787775",
"Q 	c #8D8D95",
"R 	c #CACAE0",
"S 	c #303041",
"T 	c #3A3A46",
"U 	c #C1C1DF",
"V 	c #BABAC3",
"W 	c #7C7C7E",
"X 	c #767676",
"Y 	c #9292B5",
"Z 	c #9E9ED0",
"` 	c #C4C4C9",
" .	c #B1B1B1",
"..	c #565658",
"+.	c #343435",
"@.	c #A0A0A6",
"#.	c #A7A7BE",
"$.	c #7A7A96",
"%.	c #333344",
"&.	c #111115",
"*.	c #686880",
"=.	c #67677F",
"-.	c #B7B7CF",
";.	c #C0C0CF",
">.	c #79797D",
",.	c #5E5E6B",
"'.	c #A3A3A3",
").	c #858585",
"!.	c #757575",
"~.	c #89898C",
"{.	c #CCCCE7",
"].	c #5D5D77",
"^.	c #4D4D68",
"/.	c #6A6A8E",
"(.	c #8787B5",
"_.	c #22222B",
":.	c #CFCFFF",
"<.	c #B8B8E3",
"[.	c #74748F",
"}.	c #6D6D83",
"|.	c #A7A7C3",
"1.	c #D3D3DF",
"2.	c #626264",
"3.	c #9E9EA6",
"4.	c #ACACC0",
"5.	c #777797",
"6.	c #3A3A4E",
"7.	c #7D7DA8",
"8.	c #9393C5",
"9.	c #9A9ACF",
"0.	c #0D0D10",
"a.	c #8E8EAF",
"b.	c #B2B2DB",
"c.	c #7B7B97",
"d.	c #4E4E60",
"e.	c #D6D6EB",
"f.	c #848490",
"g.	c #484861",
"h.	c #67678B",
"i.	c #76769E",
"j.	c #37374A",
"k.	c #3F3F47",
"l.	c #81819F",
"m.	c #626274",
"n.	c #8484A5",
"o.	c #40404C",
"p.	c #474747",
"q.	c #42424E",
"r.	c #9898BB",
"s.	c #C2C2EF",
"t.	c #DBDBFF",
"u.	c #C0C0E1",
"v.	c #7D7DA7",
"w.	c #353542",
"x.	c #535355",
"y.	c #6A6A6A",
"z.	c #51515D",
"A.	c #8D8D9F",
"B.	c #9090A0",
"C.	c #464657",
"D.	c #424242",
"E.	c #6E6E6E",
"F.	c #5C5C5C",
"G.	c #6C6C6C",
"                                        ",
"                                        ",
"                . +                     ",
"              @ # $ +                   ",
"            % & * = - + ; > ,   ;       ",
"          ' ) ! ~ { = ] ^ / ( _ :       ",
"          < [ } | 1 2 3 4 5 6 7 8 9     ",
"      0 0 0 a & @ b 0 c d e e e f g     ",
"      h i j ' k & & @ l m n e o p q     ",
"  r s t u v w x y & & @ z A e B C D     ",
"  E F G H I J K L M & N z O P Q R S     ",
"  T U V W X Y Z `  .) ..+.@.#.$.%.0     ",
"  &.*.=.-.;.>.,.'.).!.~.{.].^./.(.0     ",
"  _.:.<.[.}.|.1.2.3.4.5.6.7.8.9.(.0     ",
"  0.a.:.:.b.c.d.e.f.g.h.9.9.9.i.j.      ",
"      k.l.:.:.:.m.n.9.9.9.h.o.p.!.      ",
"    !.D l q.r.s.t.u.8.v.w.x.y.!.        ",
"        !.!.j z.A.B.C.D.!.!.!.          ",
"            !.E.F.[ G.!.                ",
"                !.!.                    "};
