/* XPM */
static char * system_xpm[] = {
/* width height ncolors chars_per_pixel */
"32 32 11 1",
/* colors */
" 	s background	c None",
".	c black",
"X	c #CECEFF",
"o	c white",
"O	c #9C9CFF",
"+	c #CECECE",
"@	c #424242",
"#	c #737373",
"$	c #00BD00",
"%	c #DE0000",
"&	c #212121",
/* pixels */
"                                ",
"                                ",
"                                ",
"                                ",
"                                ",
"                                ",
"                                ",
"     .......                    ",
"    .XXXXXXX.                   ",
"   .XXXXXXXXX.                  ",
"  .XXXXXXXXXXX.                 ",
" .XXXXXXXXXXXXX...............  ",
".XXXXXXXXXXXXXXXXXXXXXXXXXXXXX. ",
".ooooooooooooooooooooooooooooo. ",
".oXoXoXoXoXoXoXoXoXoXoXoXoXoXO. ",
".XoXoXoXoX..........oXoXoXoXoO. ",
".oXoXoXoX.++++++++++.oXoXoXoXO. ",
".XoXoXoXo.+@@@@@@@@+.XoXoXoXoO. ",
".oXoXoXoX.+@XXXXXXo+.oXoXoXoXO. ",
".XoXoXoXo.+@XXXXXXo+.XoXoXoXoO. ",
".oXoXoXoX.+@XXXXXXo+.oXoXoXoXO. ",
".XoXoXoXo.+@XXXXXXo+.XoXoXoXoO. ",
".oXoXoXoX.+@XXXXXXo+.oXoXoXoXO. ",
".XoXoXoXo.+#ooooooo+.XoXoXoXoO. ",
".oXoXoXoX.++++++++++.oXoXoXoXO. ",
".XoXoXoXo.+$++++++++.XoXoXoXoO. ",
".oXoXoXoX.#%###....#.oXoXoXoXO. ",
".XoXoXoXo.++++++++++.XoXoXoXoO. ",
".oXoXoXoXo.&&&&&&&&.XoXoXoXoXO. ",
".XoXoXoXoX..........oXoXoXoXoO. ",
".oXoXoXoXoXoXoXoXoXoXoXoXoXoXO. ",
"............................... "};
