/* XPM */
static char * tape_xpm[] = {
/* width height ncolors chars_per_pixel */
"32 32 14 1",
/* colors */
" 	s background	c None",
".	c black",
"X	c #A0A0A4",
"o	c #DDDDDD",
"O	c #C0C0C0",
"+	c #CCCCCC",
"@	c white",
"#	c #FFFBF0",
"$	c #999999",
"%	c #777777",
"&	c #555555",
"*	c #444444",
"=	c #222222",
"-	c #CCCCFF",
/* pixels */
"                                ",
"                                ",
"                                ",
"                                ",
"                                ",
"                                ",
"  ............................  ",
" .XXXXXXXXXXXXXXXXXXXXXXXXXooo. ",
" .XXXXXXXXXXXXXXXXXXXXOO+oo@#o. ",
" .XXXXXXXXXXXXXXXXXOO+o##@@#oX. ",
" .XXXXX$%&*&%$XXXOO+o##@@#o++X. ",
" .XXX$&......*&XO+o##@@@##o++X. ",
" .XX$*...&&&...*Xo#O%&*&%$XOOX. ",
" .XX&..&%O+O%&..%X$*&%$%&*$XOX. ",
" .X$=.&Oo####O&.&$*%O+++X%*$OX. ",
" .X%..%oo#*+#o%.=&&O#####O&%XX. ",
" .X&.&Oo##o*#oO.=&%++*+##+%&XX. ",
" .X&.&+##+*+#o+&.*$+*o*o*+$*XX. ",
" .X&.&O##*+##oO.=&%+##+*++%&XX. ",
" .X%=.%o#o.#oo%.=&&X#####X&%XX. ",
" .X$&.&$+##ooo&.*$*$X+++X$*$XX. ",
" .XX$*=..................=*$XX. ",
" .XX*----------------------*XX. ",
" .XX=----------------------=XX. ",
" .XX*----------------------*XX. ",
" .XX$*=..................=*$XX. ",
" .XXXOOo#@@#ooOOOXXXXXXXXXXXXX. ",
" .XO+o##@##o+OOOXXXXX.X*....*X. ",
" .X+oo###oo........XX.X......X. ",
"  .........        ...........  ",
"                                ",
"                                "};
