/* XPM */
static char * term_xpm[] = {
/* width height num_colors chars_per_pixel */
"32 32 15 1",
/* colors */
" 	s background	c None",
".	c black",
"X	c #cccccc",
"o	c #555555",
"O	c #444444",
"+	c #777777",
"@	c #6666cc",
"#	c #9999ff",
"$	c #fffbf0",
"%	c #ccccff",
"&	c white",
"*	c #a0a0a4",
"=	c #99ff33",
"-	c #999999",
";	c #222222",
/* pixels */
"  ............................  ",
" .XXXXXXXXXXXXXXXXXXXXXXXXXXXX. ",
" .XXXXXXXXXXXXXXXXXXXXXXXXXXXX. ",
" .XXoOOOOOOOOOOOOOOOOOOOOOO+XX. ",
" .XXO@####################@$XX. ",
" .XXO#%&&&&%&%%%%%%%%%#%##@$XX. ",
" .XXO#&&&%%%%%%%%%%%%%%###@$XX. ",
" .XXO#&&%%%%%%%%%%%%%%%%##@$XX. ",
" .XXO#&%%%%%%%%%%%%%%%%###@$XX. ",
" .XXO#&%%%%%%%%%%%%%%%%%##@$XX. ",
" .XXO#%%%%%%%%%%%%%%%%%###@$XX. ",
" .XXO#&%%%%%%%%%%%%%%%%%##@$XX. ",
" .XXO#%%%%%%%%%%%%%%%%%###@$XX. ",
" .XXO#%%%%%%%%%%%%%%%%%%##@$XX. ",
" .XXO#%%%%%%%%%%%%%%%%%###@$XX. ",
" .XXO#%%%%%%%%%%%%%%%%%%##@$XX. ",
" .XXO##%%%%%%%%%%%%%#%###@@$XX. ",
" .XX+**X$$$$$$$$$$$$$$$$$$$$XX. ",
" .XXXXXXXXXXXXXXXXXXXXXXX==XXX. ",
" .XXXXXXXXXXXXXXXXXXXXXXXXXXXX. ",
"  ............................  ",
"  .--+++ooooooOOOOOO;;;;;;;;;.  ",
"O..............................O",
".XXXXXXXXXXXXXXXXXXXXXXXXXXXXXX.",
".X----------------------------X.",
".X*XXXXXXXXXXXXXXX..........XXX.",
".X&&&&&&&&&&&&&&&&&&&&&&&&&&&&X.",
".XXXXoooo-ooXXXXXXXXXXXXXXXXXXX.",
".XXXXXXXXXXXXXXXXXXXXXXXXXXXXXX.",
"O.;;;;;;;;;;;;;;;;;;;;;;;;;;;;.O",
" .--++++ooooooOOOOOO;;;;;;;;;;. ",
" .............................. "};
