/* XPM */
static char * tiff_xpm[] = {
"32 32 13 1",
" 	s background	c None",
".	c #7DF77DF77DF7",
"X	c white",
"o	c black",
"O	c #FFFFFBEECF3C",
"+	c #2CB24D344D34",
"@	c #BEFBBEFBBEFB",
"#	c #FFFF00000000",
"$	c #D34CB6DA8E38",
"%	c #F7DEDF7DB2CA",
"&	c #A28951442CB2",
"*	c #FFFFA6990000",
"=	c #000000008207",
"    ..................          ",
"    .XXXXXXXXXXXXXXXX.o         ",
"    .XOOOOOOOOOO+oOOO..o        ",
"    .XOOOOOOOOOO+oOOO.@.o       ",
"    .XO#OOOOOOOO+o$$O.@@.o      ",
"    .X##OOOOOOOO+o$$O.X@@.o     ",
"    .X##O$OOOOO+++o$O.XX@@.o    ",
"    .X###$OOOO++OO+oO.ooooooo   ",
"    .X##ooOOOO+OO$$o$O@@@@@@o   ",
"    .X#oXooOOO+O$$%o$$@@@@@@o   ",
"    .X#oooo$OO++$%ooO$OOOOX@o   ",
"    .X#ooooX$OO++++OO$OOOOX@o   ",
"    .XOoooXXXOO++++O$$OOOOX@o   ",
"    .XOO$o+XXXo+O$++$OOOOOX@o   ",
"    .XOOO$o+Xo&oO$++$OOOOOX@o   ",
"    .XOOOOOoo*&&$$++$$OOOOX@o   ",
"    .XOOOOOOo&*&&$+++$OOOOX@o   ",
"    .XOOOOOOOo&*&&O++$OOOOX@o   ",
"    .XOOOOOOOoo&*&&o+$$OOOX@o   ",
"    .XOOOOOO++oo&*&&o+$OOOX@o   ",
"    .XOOOOOO++O$o&*&&o$OOOX@o   ",
"    .XOOOOOO++$$oo&*&&$$OOX@o   ",
"    .XOOOOOOOO$$$O$$$$$$OOX@o   ",
"    .XOOOOOOOO$$OO$$$$$$OOX@o   ",
"    .XOOOO===O=O===O===OOOX@o   ",
"    .XOOOOO=OO=O=OOO=OOOOOX@o   ",
"    .XOOOOO=OO=O==OO==OOOOX@o   ",
"    .XOOOOO=OO=O=OOO=OOOOOX@o   ",
"    .XOOOOOoOOoOoOOOoOOOOOX@o   ",
"    .XXXXXXXXXXXXXXXXXXXXXX@o   ",
"    .@@@@@@@@@@@@@@@@@@@@@@@o   ",
"    ooooooooooooooooooooooooo   "};
