/* XPM */
static char * tmpfile_xpm[] = {
"32 32 9 1",
" 	s background	c None",
".	c #7DF77DF77DF7",
"X	c white",
"o	c black",
"O	c #BEFBBEFBBEFB",
"+	c #00000000FFFF",
"@	c #FFFFFFFF0000",
"#	c #820782078207",
"$	c #C30BC30BC30B",
"    ..................          ",
"    .XXXXXXXXXXXXXXXX.o         ",
"    .XXXXXXXXXXXXXXXX..o        ",
"    .XXXXXXXXXXXXXXXX.O.o       ",
"    .XXXXXXXXXXXXXXXX.OO.o      ",
"    .XXXXXXXXX+++XXXX.XOO.o     ",
"    .XXXXXXXXXXXXXXXX.XXOO.o    ",
"    .XXXXXXXXXXXXXXXX.ooooooo   ",
"    .XX+++++++++++++XXOOOOOOo   ",
"    .XXXXXXXXXXXXXXXXXOOOOOOo   ",
"    .XX++++++++++++++XXXXXXOo   ",
"    .XXXXX@@@@@@@@@@@@@@XXXOo   ",
"    .XX++++#############XXXOo   ",
"    .XX@@@@@@@@@@@@@@@@@@XXOo   ",
"    .XX#################@XXOo   ",
"    .X@@@@@@@@@@@@@@@@@@XXXOo   ",
"    .X@#################@@XOo   ",
"    .X@@@@@@@@@@@@@@@@@@@@XOo   ",
"    .XX+++++++++++++++++XXXOo   ",
"    .XXXXXXXXXXXXXXXXXXXXXXOo   ",
"    .XX+++++++++++++++++XXXOo   ",
"    .XXXXXXXXXXXXXXXXXXXXXXOo   ",
"    .XX+++++++XXXXXXXXXXXXXOo   ",
"    .XXXXXXXXXXXXXXXXXXXXXXOo   ",
"    .XXXXXXXXXXXXXXXXXXXXXXOo   ",
"    .XXXXXXXXXXXXXXXXXXXXXXOo   ",
"    .$XXXXX$$$$$$$XXXXXXXXXOo   ",
"     o$$$$$ooooooo$$XXXXXXXOo   ",
"      ooooo       oo$XXXXX$Oo   ",
"                    o$$$$$oo    ",
"                     ooooo      ",
"                                "};
