/* XPM */
static char * tools_xpm[] = {
/* width height ncolors chars_per_pixel */
"32 32 12 1",
/* colors */
" 	s background	c None",
".	c black",
"X	c #D4D4FF",
"o	c white",
"O	c #7A7A7A",
"+	c #8E8EFF",
"@	c #DC9200",
"#	c #966200",
"$	c #FFAA00",
"%	c #B97A00",
"&	c #FFAA25",
"*	c #262626",
/* pixels */
"                                ",
"                                ",
"                                ",
"                                ",
"                                ",
"                                ",
"                                ",
"     .......                    ",
"    .XXXXXXX.                   ",
"   .XXXXXXXXX.                  ",
"  .XXXXXXXXXXX.                 ",
" .XXXXXXXXXXXXX...............  ",
".XXXXXXXXXXXXXXXXXXXXXXXXXXXXX. ",
".ooooooooooooooooooooooooooooo. ",
".oXoXoXoXOOOOOOoXoXoXoXoXoXoX+. ",
".XoXoXoOOOOO...XoXoXoXoXoXoXo+. ",
".oXoXoOOOO...oXoXoXoXoXoXoXoX+. ",
".XoXoOOOO......XoXoXoXoXoXoXo+. ",
".oXoOOOO.@..XoXoXoXoXoXoXoXoX+. ",
".XoOOOO.@#@$..oXoXoXoXoXoXoXo+. ",
".oXOOOO.%&$#$&..XoXoXoXoXoXoX+. ",
".XOOOO....&@@%@$..oXoXoXoXoXo+. ",
".oO.....Xo..%$$#$@..XoXoXoXoX+. ",
".X.....XoXoX..@$%@&%..oXoXoXo+. ",
".o.****oXoXoXo..@$%&$%..XoXoX+. ",
".Xo...oXoXoXoXoX..$#@@$#..oXo+. ",
".oXoXoXoXoXoXoXoXo..%#@&#$..X+. ",
".XoXoXoXoXoXoXoXoXoX..%$&@..o+. ",
".oXoXoXoXoXoXoXoXoXoXo..$...X+. ",
".XoXoXoXoXoXoXoXoXoXoXoX...Xo+. ",
".oXoXoXoXoXoXoXoXoXoXoXoXoXoX+. ",
"............................... "};
