/* XPM */
static char * video_xpm[] = {
/* width height ncolors chars_per_pixel */
"32 32 17 1",
/* colors */
" 	s background	c None",
".	c black",
"X	c #7A7A7A",
"o	c #0E0E0E",
"O	c #4A4A4A",
"+	c #868686",
"@	c #D4D4FF",
"#	c white",
"$	c #FFFF00",
"%	c #00B900",
"&	c #FE0000",
"*	c #DC0000",
"=	c #0000DC",
"-	c #AAAAAA",
";	c #8E8EFF",
":	c #CECECE",
">	c #AAFF00",
/* pixels */
"                                ",
"                                ",
"                                ",
"                                ",
"                                ",
"                                ",
"                                ",
"    .......................     ",
"   .XXXXXXXXXXXXXXXXXXXXXXX.    ",
"   .XXXXXXXXXXXXXXXXXXXXXXX.    ",
"  ..XXoOOOOOOOOOOOOOOOOO+XX.    ",
" .@.XXO##$$$%%%%&**&====-XX...  ",
".@@.XXO##$$$%%%%****====-XX.@@. ",
".##.XXO##$$$%%%%****====-XX.#@. ",
".#@.XXO##$$$%%%%****====-XX.@;. ",
".@#.XXO##$$$%%%%****====-XX.#;. ",
".#@.XXO##$$$%%%%****====-XX.@;. ",
".@#.XXO##$$$%%%%****====-XX.#;. ",
".#@.XXO##$$$%%%%****====-XX.@;. ",
".@#.XXO##$$$%%%%****====-XX.#;. ",
".#@.XXO##$$$%%%%****====-XX.@;. ",
".@#.XXO##:::---XXXOOO...-XX.#;. ",
".#@.XXO##:::---XXXOOO...-XX.@;. ",
".@#.XXO##:::---XXXOOO...-XX.#;. ",
".#@.XX+-----------------:XX.@;. ",
".@#.XXXXXXXXXXXXXXXXXXXXXXX.#;. ",
".#@.XXXXXXXXXXXXXXXXXXX>>XX.@;. ",
".@#.XXXXXXXXXXXXXXXXXXXXXXX.#;. ",
".#@.........................@;. ",
".@#@#@#@#@#@#@#@#@#@#@#@#@#@#;. ",
".#@#@#@#@#@#@#@#@#@#@#@#@#@#@;. ",
"............................... "};
