/* XPM */
static char * winzip_xpm[] = {
/* width height num_colors chars_per_pixel */
"32 32 7 1",
/* colors */
" 	s background	c None",
".	c black",
"X	c #c0c0c0",
"o	c #808080",
"O	c #ffff00",
"+	c #808000",
"@	c white",
/* pixels */
"                                ",
"   ................             ",
"  .XXXXXXXXXXXXXXXX.            ",
" ..................X.......     ",
"                   .XoXoXoX.    ",
"    .............. .XXXXXXX.    ",
"   .OOOOOOOOOOOO..  .......     ",
"  ..............+.    oXo       ",
"  .OOOOOOOOOOOO.+.   .....      ",
"  .O+++++++++.O.+.    XoX       ",
"  .O+@@@@@@@@.O.+.   .....      ",
"  .O+@O....OO.O.+.    oXo       ",
"  .O+@OOOOOOO.O.+.   .....      ",
"  .O..........O.+.    XoX       ",
"  .OOOOOOOOOOOO.+.   .....      ",
"  .O+++++++++.O.+.    oXo       ",
"  .O+@@@@@@@@.O.+.   .....      ",
"  .O+@O....OO.O.+.    XoX       ",
"  .O+@OOOOOOO.O.+.   .....      ",
"  .O..........O.+.    oXo       ",
"  .OOOOOOOOOOOO..   .......     ",
"  ..............   .XoXoXoX.    ",
"                   .XXXXXXX.    ",
" ..................X.......     ",
"  .XXXXXXXXXXXXXXXX. .....      ",
"   ................   oXo       ",
"                     .....      ",
"               ..   .XoXoX.  .. ",
"               ......XXXXX..... ",
"               ..   .XXXXX.  .. ",
"                     .....      ",
"                                "};
