/* XPM */
static char * write_xpm[] = {
/* width height ncolors chars_per_pixel */
"32 32 18 1",
/* colors */
" 	s background	c None",
".	c black",
"X	c #777777",
"o	c #FFFFCC",
"O	c #CCCCFF",
"+	c #FF99FF",
"@	c #FF6699",
"#	c #FF3366",
"$	c #FFCC99",
"%	c #FF9966",
"&	c #993300",
"*	c #FF6633",
"=	c white",
"-	c #DDDDDD",
";	c #555555",
":	c #C0C0C0",
">	c #A0A0A4",
",	c #222222",
/* pixels */
"               .                ",
"              ...               ",
"             ....X              ",
"            ....Xo.             ",
"           ....Xooo.            ",
"          ....XooOoo.           ",
"         ....XooOooOo.          ",
"        ....XooOooOooo.         ",
"       ....XooOooOooOoo.        ",
"      ....XooOooOooOoooo.       ",
"     ....XooOooOoo++o+ooo.      ",
"    ....XooOooOo@@ooooo+oo.     ",
"   ....XooOooOo@Ooooooooooo.    ",
"  ....XooOooOo@Ooooooooooooo.   ",
" ....XooOooOoo#ooo$%$%%%ooooo.  ",
".X..XooOooOoo#ooo$%%%$%$%ooooo. ",
" .XXo$OooOooO#oo$%&&*%$$$%oooo$.",
"  .=oO$oOooO#oo$%&..&*%$$$%oo$. ",
"   .=oo$ooOo#oo&&.&&.&*%$$$%$.  ",
"    .=Oo$Ooo...$$........$$$%-;.",
"     .=oO$oOo:&&*%&&%%$$$$$$$=X.",
"      .=oo$ooo:&&*%%$$%%%%%%%=X.",
"       .=Oo$ooo:&&&****%****&-;.",
"        .=oo$oo::&&&&&&&&&&&&>;.",
"         .=oo$oo:::&&&&&&&&&&>,.",
"          .=oo$oo::::X.     &;..",
"           .=oo$oo::X.       ;..",
"            .=oo$o:X.           ",
"             .=oo$$.            ",
"              .=o$.             ",
"               .=.              ",
"                .               "};
