/* XPM */
static char * xapp_xpm[] = {
"32 32 9 1",
" 	s background	c None",
".	c black",
"X	c #75D675D675D6",
"o	c #FFFFFFFFCF3C",
"O	c #FFFF00000000",
"+	c #65959A699A69",
"@	c #FFFF9A69CF3C",
"#	c #FFFFCF3C9A69",
"$	c white",
"               .                ",
"              ...               ",
"             ....X              ",
"            ....Xo.             ",
"           ....Xooo.            ",
"          ....Xooooo.           ",
"         ....Xooooooo.          ",
"        ....Xooooooooo.         ",
"       ....Xooooooooooo.        ",
"     OOOOOOOoooooooooooOOO      ",
"     .OOOOOOOoooooooooOOO.      ",
"    ...OOOOOO+oooooooOOOo+++    ",
"   ....XOOOOOO@oooooOOOo+++.    ",
"  ....Xo@OOOOOOooooOOOo+++oo.   ",
" ....XoooOOOOOOOooOOOo+++oooo.  ",
".X..XoooooOOOOOO+OOOo+++oooooo. ",
" .XXoooooooOOOO+OOOOO++ooooooo#.",
"  .$oooooooOOO+OOOOOOOooooooo#. ",
"   .$oooooOOO+++OOOOOO+ooooo#.  ",
"    .$oooOOOo+++oOOOOOO+ooo#.   ",
"     .$oOOOo+++oo@OOOOOOoo#.    ",
"      .OOOo+++ooooOOOOOOO#.     ",
"      OOOo+++ooooooOOOOOOO      ",
"        .+++oooooooo+++++++     ",
"        +++oooooooooo++++++     ",
"          .$ooooooooo#.         ",
"           .$ooooooo#.          ",
"            .$ooooo#.           ",
"             .$ooo#.            ",
"              .$o#.             ",
"               .$.              ",
"                .               "};
