/* XPM */
static char * xfig_xpm[] = {
/* width height ncolors chars_per_pixel */
"32 32 7 1",
/* colors */
" 	s background	c None",
".	c black",
"X	c green",
"o	c peru",
"O	c sienna",
"+	c sea green",
"@	c lime green",
/* pixels */
"                                ",
"    .... ...  ...               ",
"     .    .  .                  ",
"     ...  .  . ...            ..",
"     .    .  .   .          ..XX",
"    ..   ...  ...          .XXXX",
"                          .XXXXX",
"                          .XXXXX",
"                         .XXXXXX",
"    ...                 .XXXXXXX",
"   .ooo...            ..OXXXX.XX",
"    .Ooooo..  ........oo.XXXX.XX",
"    ....OOOo..ooooOOO.OXXXX..XXX",
"        ..OOOO..OO....XXX..XXXXX",
"         ......  .+++XXXX.XXXXXX",
"            .@.  .++XX..XXXX.XXX",
"           .@@  .++X..XXX.XXX.XX",
"          .+@@  .+XXXXXXX.XXX..X",
"          .@@. .++X+....X.XXXXX.",
"         .@@@. .+XX.  ..X.XXXXXX",
"        .+@@@. ..... .XXX.XXXXXX",
"       .++@@@.      .XXXX.XXXXXX",
"      .+++@@@@.    .XXXX.XXXXXXX",
"      .++@@@@@@.   .XXXXXX..XXXX",
"    ..++.@@@@@@.  .XXXXXX.  .XXX",
"    .++.@.@@@@@.  .XXXXXX.  .XXX",
"    .++.@@@@@@@@. .XXXXXX. .XXXX",
"   .++.@@@@@@@@@. .XXXX..  .XXXX",
"  .+.+.@@@@@@@@@. .....    .XXXX",
"  .++++@..@@@@@@.          .XXXX",
"  +++++@@@.@@@@@@.         +XXXX",
"  +++++.@@@@@@@@@@         .XXXX"};
