/* XPM */
static char * xlogo_xpm[] = {
"32 32 2 1",
" 	s background	c None",
".	c red",
"                                ",
"                                ",
"                                ",
"                                ",
"                                ",
" ..........                ...  ",
"  ..........              ...   ",
"   ..........            ...    ",
"    ..........          ...     ",
"     ..........        ...      ",
"      ..........      ...       ",
"       ..........    ...        ",
"        ..........  ...         ",
"         ......... ...          ",
"          ....... ...           ",
"           ..... ....           ",
"            ... ......          ",
"           ... ........         ",
"          ... ..........        ",
"         ...   ..........       ",
"        ...     ..........      ",
"       ...       ..........     ",
"      ...         ..........    ",
"     ...           ..........   ",
"    ...             ..........  ",
"   ...               .......... ",
"  ...                 ..........",
" ...                            ",
"                                ",
"                                ",
"                                ",
"                                "};
