/* XPM */
static char * xterm_xpm[] = {
/* width height num_colors chars_per_pixel */
"32 32 9 1",
/* colors */
" 	s background	c None",
".	c black",
"X	c #c0c0c0",
"o	c #808080",
"O	c red",
"+	c white",
"@	c #65959A699A69",
"#	c #FFFF9A69CF3C",
"$	c #00ff00",
/* pixels */
" .............................. ",
".XXXXXXXXXXXXXXXXXXXXXXXXXXXXXX.",
".Xooooooooooooooooooooooooooooo.",
".Xooooooooooooooooooooooooooooo.",
".Xoo........................ooo.",
".Xoo.OOOOOOO+++++++++++OOO+Xooo.",
".Xoo.+OOOOOOO+++++++++OOO++Xooo.",
".Xoo.++OOOOOO@+++++++OOO+@@Xooo.",
".Xoo.+++OOOOOO#+++++OOO+@@@Xooo.",
".Xoo.+++#OOOOOO++++OOO+@@@+Xooo.",
".Xoo.++++OOOOOOO++OOO+@@@++Xooo.",
".Xoo.+++++OOOOOO@OOO+@@@+++Xooo.",
".Xoo.++++++OOOO@OOOOO@@++++Xooo.",
".Xoo.++++++OOO@OOOOOOO+++++Xooo.",
".Xoo.+++++OOO@@@OOOOOO@++++Xooo.",
".Xoo.++++OOO+@@@+OOOOOO@+++Xooo.",
".Xoo.+++OOO+@@@+++OOOOOO+++Xooo.",
".Xoo.++OOO+@@@++++#OOOOOO++Xooo.",
".Xoo.+OOO+@@@+++++++OOOOOO+Xooo.",
".Xoo.++++@@@+++++++++@@@@@@Xooo.",
".Xoo.XXXXXXXXXXXXXXXXXXXXXXXooo.",
".Xooooooooooooooooooooooooooooo.",
".Xooooooooooooooooooo$oo....ooo.",
".Xooooooooooooooooooo$oo....ooo.",
".Xooooooooooooooooooooooooooooo.",
" .............................. ",
"         ..............         ",
"         .oooooooooooo.         ",
" .............................. ",
"..XXXXXXXXXXXXXXXXXXXXXXXXXXXX..",
".oooooooooooooooooooooooooooooo.",
"................................"};
