#define xfm_watch_width 16
#define xfm_watch_height 16
static char xfm_watch_bits[] = {
   0x00, 0x00, 0x00, 0x00, 0x00, 0x00, 0x00, 0x00, 0x00, 0x7c, 0x00, 0x40,
   0xe0, 0x21, 0x00, 0x11, 0x8e, 0x08, 0x48, 0x04, 0x24, 0x7c, 0xe2, 0x01,
   0x0e, 0x00, 0x00, 0x00, 0x00, 0x00, 0x00, 0x00};
