#define xfm_watchmsk_width 16
#define xfm_watchmsk_height 16
static char xfm_watchmsk_bits[] = {
   0x00, 0x00, 0x00, 0x00, 0x00, 0x00, 0x00, 0xfe, 0x00, 0xfe, 0xf0, 0xff,
   0xf0, 0xff, 0xff, 0xff, 0xff, 0xff, 0xff, 0xff, 0xff, 0xff, 0xff, 0xff,
   0xff, 0x03, 0x1f, 0x00, 0x00, 0x00, 0x00, 0x00};
